<svg xmlns="http://www.w3.org/2000/svg" width="610.001" height="417.302" viewBox="0 0 610.001 417.302">
  <g id="Grupo_132681" data-name="Grupo 132681" transform="translate(-485 -3250.147)">
    <g id="Grupo_132006" data-name="Grupo 132006" transform="translate(485 3271.196)">
      <path id="Trazado_187696" data-name="Trazado 187696" d="M56.179,339.169l34.191,43.9a61.949,61.949,0,0,0,48.878,23.888H563.52A61.948,61.948,0,0,0,606.3,389.821l7.3-6.972a118.82,118.82,0,0,0,19.019-148.428h0a61.955,61.955,0,0,1-8.944-38.8h0A100.243,100.243,0,0,0,545.4,87.643L450.675,66.886a259.215,259.215,0,0,0-209.382,44.671c-10.975,8.1-18.786,13.516-19.993,13.484-2.433-.066-38.953,5.721-73.975,11.379a78.994,78.994,0,0,0-66.388,76.62h0a61.954,61.954,0,0,1-18.911,43.5h0A61.952,61.952,0,0,0,56.179,339.169Z" transform="translate(-43.106 -60.883)" fill="#c3a2f9" opacity="0.35"/>
      <g id="Grupo_131963" data-name="Grupo 131963" transform="translate(68.17 26.834)">
        <path id="Trazado_187697" data-name="Trazado 187697" d="M232.617,152.844v-9.475a3.521,3.521,0,0,0-3.521-3.521h-9.02A45.169,45.169,0,0,0,211.96,121.1l6.631-6.63a3.523,3.523,0,0,0,0-4.98l-6.7-6.7a3.521,3.521,0,0,0-4.98,0l-6.983,6.984a45.276,45.276,0,0,0-18.393-6.808V92.285a3.522,3.522,0,0,0-3.522-3.522h-9.474a3.521,3.521,0,0,0-3.522,3.522v11.4a45.4,45.4,0,0,0-16.776,7.692l-8.6-8.591a3.521,3.521,0,0,0-4.979,0l-6.7,6.7a3.521,3.521,0,0,0,0,4.98l8.954,8.954a45.522,45.522,0,0,0-6.5,16.423H117.453a3.521,3.521,0,0,0-3.521,3.521v9.475a3.521,3.521,0,0,0,3.521,3.521h12.961a45.474,45.474,0,0,0,6.5,16.411l-8.954,8.954a3.52,3.52,0,0,0,0,4.979l6.7,6.7a3.521,3.521,0,0,0,4.979,0l8.6-8.59a45.241,45.241,0,0,0,16.776,7.7v11.4a3.522,3.522,0,0,0,3.522,3.522h9.474a3.522,3.522,0,0,0,3.522-3.522V193.245a45.319,45.319,0,0,0,18.393-6.819l6.983,6.984a3.523,3.523,0,0,0,4.98,0l6.7-6.7a3.521,3.521,0,0,0,0-4.979L211.96,175.1a45.334,45.334,0,0,0,8.117-18.735h9.02A3.521,3.521,0,0,0,232.617,152.844Zm-36.83,8.387a24.351,24.351,0,0,1-9.318,8.507,23.62,23.62,0,0,1-6.427,2.27,24.351,24.351,0,0,1-12.6-.81,23.645,23.645,0,0,1-5.329-2.557,24.3,24.3,0,0,1-8.517-9.308,23.813,23.813,0,0,1-1.908-4.925,24.375,24.375,0,0,1,0-12.6,23.564,23.564,0,0,1,1.917-4.934,24.4,24.4,0,0,1,8.507-9.309A23.681,23.681,0,0,1,167.438,125a24.323,24.323,0,0,1,12.6-.81,23.653,23.653,0,0,1,6.427,2.269,24.413,24.413,0,0,1,9.318,8.507,24.39,24.39,0,0,1,0,26.262Z" transform="translate(-113.932 -88.763)" fill="#ba9045"/>
        <path id="Trazado_187698" data-name="Trazado 187698" d="M229.6,139.848h-9.02a45.178,45.178,0,0,0-8.118-18.747l6.63-6.63a3.522,3.522,0,0,0,0-4.98l-6.7-6.7a3.521,3.521,0,0,0-4.98,0l-6.983,6.984a45.276,45.276,0,0,0-18.393-6.808V92.285a3.521,3.521,0,0,0-3.522-3.522h-9.474a3.522,3.522,0,0,0-3.522,3.522v11.4a45.4,45.4,0,0,0-16.776,7.692l-8.6-8.591a3.521,3.521,0,0,0-4.979,0l-6.7,6.7a3.521,3.521,0,0,0,0,4.98l8.954,8.954a45.5,45.5,0,0,0-6.5,16.423h-1.205a69.073,69.073,0,0,0,25.72,21.73,24.371,24.371,0,0,1-1.337-2.246,23.812,23.812,0,0,1-1.908-4.925,24.376,24.376,0,0,1,0-12.6,23.565,23.565,0,0,1,1.917-4.934,24.4,24.4,0,0,1,8.507-9.309A23.682,23.682,0,0,1,167.944,125a24.323,24.323,0,0,1,12.6-.81,23.653,23.653,0,0,1,6.428,2.269,24.414,24.414,0,0,1,9.318,8.507,24.39,24.39,0,0,1,0,26.262,24.36,24.36,0,0,1-7.124,7.208,68.379,68.379,0,0,0,30.75-9.095c.25-.983.478-1.973.664-2.98h4.059a69.1,69.1,0,0,0,8.481-6.922v-6.073A3.521,3.521,0,0,0,229.6,139.848Z" transform="translate(-114.439 -88.763)" fill="#f4da78"/>
      </g>
      <g id="Grupo_131982" data-name="Grupo 131982" transform="translate(114.591 32.083)">
        <g id="Grupo_131973" data-name="Grupo 131973" transform="translate(0 54.094)">
          <rect id="Rectángulo_43690" data-name="Rectángulo 43690" width="77.427" height="50.543" transform="translate(146.615 227.641)" fill="#826ded"/>
          <rect id="Rectángulo_43691" data-name="Rectángulo 43691" width="77.427" height="22.432" transform="translate(146.615 227.641)" fill="#826ded"/>
          <path id="Rectángulo_43692" data-name="Rectángulo 43692" d="M19.27,0H351.387a19.27,19.27,0,0,1,19.27,19.27V210.327a0,0,0,0,1,0,0H0a0,0,0,0,1,0,0V19.27A19.27,19.27,0,0,1,19.27,0Z" fill="#332864"/>
          <rect id="Rectángulo_43693" data-name="Rectángulo 43693" width="344.814" height="178.608" transform="translate(12.922 21.874)" fill="#fff"/>
          <path id="Rectángulo_43694" data-name="Rectángulo 43694" d="M0,0H370.657a0,0,0,0,1,0,0V18a19.27,19.27,0,0,1-19.27,19.27H19.27A19.27,19.27,0,0,1,0,18V0A0,0,0,0,1,0,0Z" transform="translate(0 200.482)" fill="#543a99"/>
          <circle id="Elipse_5103" data-name="Elipse 5103" cx="7.014" cy="7.014" r="7.014" transform="translate(178.315 213.614)" fill="#ebe7fb"/>
          <path id="Trazado_187699" data-name="Trazado 187699" d="M488.735,448.229H209.444a4.659,4.659,0,0,1-4.658-4.659h0a13.625,13.625,0,0,1,13.624-13.624H479.769a13.625,13.625,0,0,1,13.624,13.624h0A4.659,4.659,0,0,1,488.735,448.229Z" transform="translate(-163.761 -160.904)" fill="#543a99"/>
          <g id="Grupo_131972" data-name="Grupo 131972" transform="translate(28.035 37.602)">
            <g id="Grupo_131965" data-name="Grupo 131965" transform="translate(238.149 11.113)">
              <rect id="Rectángulo_43695" data-name="Rectángulo 43695" width="76.439" height="19.119" rx="2.192" transform="translate(0)" fill="#826ded"/>
              <g id="Grupo_131964" data-name="Grupo 131964" transform="translate(6.035 5.057)">
                <path id="Trazado_187700" data-name="Trazado 187700" d="M449.724,213.952l-2.926,1.339.369-3.2-2.178-2.369,3.154-.636,1.58-2.8,1.58,2.8,3.154.636L452.28,212.1l.369,3.2Z" transform="translate(-444.99 -206.287)" fill="#f4da78"/>
                <path id="Trazado_187701" data-name="Trazado 187701" d="M463.984,213.952l-2.926,1.339.37-3.2-2.178-2.369,3.154-.636,1.58-2.8,1.58,2.8,3.154.636L466.54,212.1l.369,3.2Z" transform="translate(-445.525 -206.287)" fill="#f4da78"/>
                <path id="Trazado_187702" data-name="Trazado 187702" d="M478.244,213.952l-2.926,1.339.369-3.2-2.178-2.369,3.154-.636,1.58-2.8,1.58,2.8,3.154.636L480.8,212.1l.369,3.2Z" transform="translate(-446.059 -206.287)" fill="#f4da78"/>
                <path id="Trazado_187703" data-name="Trazado 187703" d="M492.5,213.952l-2.926,1.339.369-3.2-2.178-2.369,3.154-.636,1.58-2.8,1.58,2.8,3.154.636-2.178,2.369.369,3.2Z" transform="translate(-446.594 -206.287)" fill="#f4da78"/>
                <path id="Trazado_187704" data-name="Trazado 187704" d="M506.764,213.952l-2.926,1.339.369-3.2-2.178-2.369,3.154-.636,1.58-2.8,1.58,2.8,3.154.636-2.178,2.369.369,3.2Z" transform="translate(-447.129 -206.287)" fill="#f7f7f7"/>
              </g>
            </g>
            <g id="Grupo_131969" data-name="Grupo 131969">
              <rect id="Rectángulo_43696" data-name="Rectángulo 43696" width="85.437" height="26.571" rx="4.384" fill="#4b3b9c"/>
              <g id="Grupo_131968" data-name="Grupo 131968" transform="translate(4.477 3.545)">
                <g id="Grupo_131966" data-name="Grupo 131966" transform="translate(0 0)">
                  <circle id="Elipse_5104" data-name="Elipse 5104" cx="7.449" cy="7.449" r="7.449" transform="matrix(0.384, -0.923, 0.923, 0.384, 0, 13.753)" fill="#ff9e77"/>
                  <path id="Trazado_187705" data-name="Trazado 187705" d="M200.865,208.631a7.418,7.418,0,0,0,10,0,5.02,5.02,0,0,0-3.131-4.263,3.1,3.1,0,1,0-3.74,0A5.02,5.02,0,0,0,200.865,208.631Z" transform="translate(-196.125 -193.381)" fill="#f7f7f7"/>
                </g>
                <g id="Grupo_131967" data-name="Grupo 131967" transform="translate(22.596 5.853)">
                  <rect id="Rectángulo_43697" data-name="Rectángulo 43697" width="39.706" height="1.422" fill="#e6dcff"/>
                  <rect id="Rectángulo_43698" data-name="Rectángulo 43698" width="51.596" height="1.422" transform="translate(0 3.177)" fill="#e6dcff"/>
                  <rect id="Rectángulo_43699" data-name="Rectángulo 43699" width="51.596" height="1.422" transform="translate(0 6.354)" fill="#e6dcff"/>
                </g>
              </g>
            </g>
            <g id="Grupo_131970" data-name="Grupo 131970" transform="translate(0 37.073)">
              <rect id="Rectángulo_43700" data-name="Rectángulo 43700" width="48.725" height="12.187" rx="2.192" fill="#826ded"/>
              <rect id="Rectángulo_43701" data-name="Rectángulo 43701" width="48.725" height="12.187" rx="2.192" transform="translate(0 17.22)" fill="#826ded"/>
              <rect id="Rectángulo_43702" data-name="Rectángulo 43702" width="48.725" height="12.187" rx="2.192" transform="translate(0 34.44)" fill="#e6dcff"/>
              <rect id="Rectángulo_43703" data-name="Rectángulo 43703" width="48.725" height="12.187" rx="2.192" transform="translate(56.134 17.22)" fill="#f4da78"/>
              <rect id="Rectángulo_43704" data-name="Rectángulo 43704" width="48.725" height="12.187" rx="2.192" transform="translate(56.134 34.44)" fill="#b79bfb"/>
            </g>
            <g id="Grupo_131971" data-name="Grupo 131971" transform="translate(265.863 60.387)">
              <rect id="Rectángulo_43705" data-name="Rectángulo 43705" width="48.725" height="12.187" rx="2.192" fill="#f4da78"/>
              <rect id="Rectángulo_43706" data-name="Rectángulo 43706" width="48.725" height="12.187" rx="2.192" transform="translate(0 17.22)" fill="#b79bfb"/>
              <rect id="Rectángulo_43707" data-name="Rectángulo 43707" width="48.725" height="12.187" rx="2.192" transform="translate(0 34.44)" fill="#e6dcff"/>
            </g>
          </g>
        </g>
        <g id="Grupo_131981" data-name="Grupo 131981" transform="translate(76.046)">
          <g id="Grupo_131974" data-name="Grupo 131974" transform="translate(37.873 78.142)">
            <path id="Trazado_187706" data-name="Trazado 187706" d="M293.485,185.2c-2.2,55.563-28.037,61.188,0,101.27S418.091,312.347,419.733,282s-18.751-48.627-5.39-86.6S293.485,185.2,293.485,185.2Z" transform="translate(-280.521 -175.404)" fill="#4e2384"/>
            <path id="Trazado_187707" data-name="Trazado 187707" d="M301.124,200.162c-3.257,25.254-11.921,50.159-7.471,63.848,0,0,.487-15.4,3.371-19.112,0,0-2.879,21.617,5.94,39.151s104.006,14.194,104.006,14.194,1.948-19.2,0-33.12-5.658-19.323-6.726-26.777c0,0,5.868,12.12,8.152,16.758s2.592,11.438,2.592,11.438.62-12.366-4.2-21.828-1.931-35.556-.5-45.7-67.141-22.181-74.6-18.112S301.124,200.162,301.124,200.162Z" transform="translate(-280.967 -175.58)" fill="#1f0835"/>
          </g>
          <g id="Grupo_131975" data-name="Grupo 131975" transform="translate(0 129.258)">
            <path id="Trazado_187708" data-name="Trazado 187708" d="M321.313,272.133c-33.085,11.207-56.818,15.427-63.673,37.049s-16.467,46.211-16.467,46.211H464.9s-11.075-50.957-23.2-59.4-59.6-22.577-74.1-25S321.313,272.133,321.313,272.133Z" transform="translate(-241.172 -230.074)" fill="#fff"/>
            <path id="Trazado_187709" data-name="Trazado 187709" d="M419.105,323.1s.844,20.285-2.12,34.28h7.584Z" transform="translate(-247.767 -232.06)" fill="#eadcff"/>
            <path id="Trazado_187710" data-name="Trazado 187710" d="M296.715,331.4s-.647,15.556,1.627,26.287h-5.816Z" transform="translate(-243.098 -232.372)" fill="#eadcff"/>
            <path id="Trazado_187711" data-name="Trazado 187711" d="M268.187,303.638c2.9-7.643,12.256-16.616,12.266-16.625-11.355,5.222-19.3,11.727-22.814,22.8-6.856,21.623-16.467,46.211-16.467,46.211h18.05C258.43,333,265.286,311.285,268.187,303.638Z" transform="translate(-241.172 -230.706)" fill="#eadcff"/>
            <path id="Trazado_187712" data-name="Trazado 187712" d="M364.754,313.893s-16.086-1.055-25.843-8.438-8.438-14.768-8.438-14.768-7.119.527-9.757,0,1.149-28,16.529-28.5,47.592,5.877,51.548,6.091S405.8,280.18,402.5,295c-.527,2.374-6.9-4.31-9.8-.882S387.431,312.047,364.754,313.893Z" transform="translate(-244.127 -229.774)" fill="#3900c6"/>
            <path id="Trazado_187713" data-name="Trazado 187713" d="M359.847,309.547a81.106,81.106,0,0,1-28.021-38.409c-1.376-4.026.949-6.276,5.221-6.962Z" transform="translate(-244.558 -229.85)" fill="#490eaf"/>
            <path id="Trazado_187714" data-name="Trazado 187714" d="M367.348,313.673c11.313-7.241,21.729-25.04,24.894-30.973s3.291-11.518-6.4-12.549S367.348,313.673,367.348,313.673Z" transform="translate(-245.905 -230.073)" fill="#490eaf"/>
            <path id="Trazado_187715" data-name="Trazado 187715" d="M386.063,232.492c-2.913,23.524-4.583,36.1,3.284,45.858,0,0-14.02,28.479-24.039,34.281,0,0-24-17.14-30.589-44.564a33.454,33.454,0,0,0,4.482-15.031c.527-8.966-.79-24.523-.79-24.523Z" transform="translate(-244.681 -228.512)" fill="#ffd5c5"/>
            <path id="Trazado_187716" data-name="Trazado 187716" d="M380.312,297.606C365.679,315.324,350.6,300.37,345,292.772a91.8,91.8,0,0,0,20.7,22.269C370.3,312.37,375.762,304.9,380.312,297.606Z" transform="translate(-245.067 -230.922)" fill="#feac8a"/>
            <path id="Trazado_187717" data-name="Trazado 187717" d="M339.21,253.049a34.065,34.065,0,0,1-4.251,14.649c10.855-1.926,34.143-6.391,48.742-11.6.23-6.449,1.2-14.136,2.371-23.6L357,230.078l-18.555-1.206C338.636,231.193,339.693,244.865,339.21,253.049Z" transform="translate(-244.69 -228.526)" fill="#feac8a"/>
          </g>
          <g id="Grupo_131980" data-name="Grupo 131980" transform="translate(43.815)">
            <g id="Grupo_131976" data-name="Grupo 131976" transform="translate(111.84 23.75)">
              <path id="Trazado_187718" data-name="Trazado 187718" d="M426.677,168.441c.933-14.836,1.177-28.335-10.4-45.636s-9.131,28.356-8.941,28.879S417.6,171.457,417.6,171.457Z" transform="translate(-403.047 -118.892)" fill="#ffeaa4"/>
              <path id="Trazado_187719" data-name="Trazado 187719" d="M420.629,194.2c-1.471,8.532-.475,15.577,3.616,16.281s8.6-5.64,10.069-14.172-.655-16.021-4.745-16.725S422.1,185.665,420.629,194.2Z" transform="translate(-403.534 -121.166)" fill="#f9d668"/>
              <path id="Trazado_187720" data-name="Trazado 187720" d="M428.726,200.436l-2.576,1.047-2.525,6.993s-.427.867-.954,1.982a3.581,3.581,0,0,0,1.674.784c3.625.625,7.573-4.292,9.449-11.355C430.541,201.578,428.726,200.436,428.726,200.436Z" transform="translate(-403.635 -121.93)" fill="#cba730"/>
              <path id="Trazado_187721" data-name="Trazado 187721" d="M416.2,167.488c3.173-.588,12.175,1.8,13.2,6.448,2.323,10.572-1.536,35.1-8.618,41.15-2.581,2.206-9.768,1.757-12.319.974-6.473-1.988-6.494-12.336-4.128-26.067S411.8,168.3,416.2,167.488Z" transform="translate(-402.893 -120.711)" fill="#f9d668"/>
              <path id="Trazado_187722" data-name="Trazado 187722" d="M427.99,200.457c-3.294,2.375-5,0-5,0-2.233,4.748-6.337,4.744-11.518,5.447l-2.906-1.537s-2.838,2.088-5.5,3.976c.479,4.726,2.094,7.941,5.405,8.957,2.551.783,9.737,1.232,12.319-.974C423.889,213.673,426.373,207.475,427.99,200.457Z" transform="translate(-402.899 -121.951)" fill="#cba730"/>
              <path id="Trazado_187723" data-name="Trazado 187723" d="M429.7,173.935c-1.021-4.65-10.022-7.036-13.2-6.448a4.848,4.848,0,0,0-.8.226c5.816-.431,8.862,3.64,9.53,8.3s0,25.768-6.847,35.077c-.873,1.188-2.384,4.656-7.474,5.393,3.232.425,8.127.34,10.164-1.4C428.163,209.031,432.022,184.507,429.7,173.935Z" transform="translate(-403.194 -120.711)" fill="#ffeaa4"/>
              <path id="Trazado_187724" data-name="Trazado 187724" d="M428.285,200.457c-3.294,2.375-5,0-5,0l0,0c-1.087,4.558-2.658,8.841-4.888,11.873-.873,1.188-2.384,4.656-7.474,5.393,3.232.425,8.127.34,10.164-1.4C424.184,213.673,426.668,207.475,428.285,200.457Z" transform="translate(-403.194 -121.951)" fill="#f9d668"/>
              <path id="Trazado_187725" data-name="Trazado 187725" d="M416.913,192.326c-1.283,7.449-3.94,13.208-5.936,12.865s-2.571-6.66-1.287-14.109,3.94-13.208,5.935-12.865S418.2,184.877,416.913,192.326Z" transform="translate(-403.122 -121.117)" fill="#cba730"/>
            </g>
            <path id="Trazado_187726" data-name="Trazado 187726" d="M313.423,214.161q.134.325.275.65c3.246,7.478,9.095,15.264,14.818,21.1,8.46,8.62,19.941,16.113,32.112,17.745,13.082,1.754,25.083-5.524,33.834-14.859a33.651,33.651,0,0,0,8.461-15.358c1.379-6.135.63-12.71,1.633-18.978.539-3.37,1.892-6.544,3.032-9.762a71.726,71.726,0,0,0,4.043-31.517c-.5-4.41-1.22-10.733-3.606-14.558-2.745-4.4-9.093-7.856-13.377-10.536-13.731-8.593-31.935-11.74-47.539-6.882-15.951,4.966-28.957,17.753-35.677,32.874-3.2,7.2-5.058,14.281-3.5,22.039C309.864,195.78,309.571,204.847,313.423,214.161Z" transform="translate(-287.47 -95.518)" fill="#ffd5c5"/>
            <path id="Trazado_187727" data-name="Trazado 187727" d="M310.336,178.051s24.787,6.811,46.673,0,29.315-20.524,31.138-27.644c0,0,17.877,14.017,21.453,34.7,0,0,1.228-36.717-10.18-41.289s-35.291-10.547-37.928-8.174-46.938,27.688-46.938,27.688Z" transform="translate(-287.581 -95.75)" fill="#feac8a"/>
            <g id="Grupo_131977" data-name="Grupo 131977" transform="translate(94.624 117.084)">
              <path id="Trazado_187728" data-name="Trazado 187728" d="M404.359,237.969a8.693,8.693,0,0,1-1.869-.046c-5.99-.811-9.2-1.259-9.2-1.259l.367-2.626s3.206.447,9.188,1.257c5.515.753,12.588-8.012,14.455-18.315a1.335,1.335,0,0,1,1.487-1.1h0a1.319,1.319,0,0,1,1.132,1.523C417.981,228.272,410.846,237.452,404.359,237.969Z" transform="translate(-385.317 -215.863)" fill="#ffeaa4"/>
              <path id="Trazado_187729" data-name="Trazado 187729" d="M419.606,216.339a1.31,1.31,0,0,1-.016.286c-1.938,10.874-9.073,20.053-15.562,20.571a8.7,8.7,0,0,1-1.869-.046c-4.727-.64-7.714-1.053-8.766-1.2l-.1.732s3.209.448,9.2,1.259a8.76,8.76,0,0,0,1.869.046c6.487-.518,13.622-9.7,15.561-20.571A1.278,1.278,0,0,0,419.606,216.339Z" transform="translate(-385.317 -215.881)" fill="#f9d668"/>
              <path id="Trazado_187730" data-name="Trazado 187730" d="M393.126,238.746l-5.254-.719a3.315,3.315,0,0,1-2.835-3.733h0a3.316,3.316,0,0,1,3.734-2.835l5.254.72a3.314,3.314,0,0,1,2.835,3.734h0A3.314,3.314,0,0,1,393.126,238.746Z" transform="translate(-385.006 -216.447)" fill="#4e2384"/>
              <path id="Trazado_187731" data-name="Trazado 187731" d="M396.091,233.4a3.244,3.244,0,0,1-.023.654h0a3.314,3.314,0,0,1-3.734,2.835l-4.6-.629a3.3,3.3,0,0,1-2.642-2.129c-.017.081-.046.157-.058.24h0a3.315,3.315,0,0,0,2.835,3.733l5.254.719a3.314,3.314,0,0,0,3.734-2.834h0A3.293,3.293,0,0,0,396.091,233.4Z" transform="translate(-385.006 -216.521)" fill="#431b60"/>
            </g>
            <g id="Grupo_131978" data-name="Grupo 131978" transform="translate(5.089 0.247)">
              <path id="Trazado_187732" data-name="Trazado 187732" d="M385.447,142.543s26.37,11.075,26.633,47.2c0,0,21.1-23.2,8.7-58.012s-48.256-33.489-48.256-33.489Z" transform="translate(-295.003 -94.614)" fill="#4e2384"/>
              <path id="Trazado_187733" data-name="Trazado 187733" d="M385.907,144.038s25.72,10.826,26.595,45.921c0-.2,0-.4,0-.6-.43-35.409-12.706-44.814-24.836-51.263l-2.888,2.068Z" transform="translate(-295.462 -96.11)" fill="#431b60"/>
              <path id="Trazado_187734" data-name="Trazado 187734" d="M308.153,174.572s72.692,4.22,78.493-32.7S373.813,96,364.671,95.113s-26.953-3-42.191,11.778-32.247,23.732-30.354,71.549Z" transform="translate(-291.981 -94.473)" fill="#4e2384"/>
              <path id="Trazado_187735" data-name="Trazado 187735" d="M307.216,166.3c3.169-1.764,6.333-3.574,9.393-5.569q4.616-2.947,9.058-6.2a190.955,190.955,0,0,0,17.074-13.945,191.842,191.842,0,0,1-15.751,15.588q-4.152,3.7-8.549,7.135c-2.911,2.32-5.956,4.475-9.04,6.6Z" transform="translate(-292.553 -96.203)" fill="#1f0835"/>
              <path id="Trazado_187736" data-name="Trazado 187736" d="M348.547,110.638c-17.225,9.317-36.165,31.726-36.532,50.287,0,0-7.283-6.761-3.453-16.454s15.107-20.43,21.355-25.044S348.547,110.638,348.547,110.638Z" transform="translate(-292.562 -95.08)" fill="#1f0835"/>
              <path id="Trazado_187737" data-name="Trazado 187737" d="M312.482,166.635c-2.308-5.98-.726-26.389,0-32.189s2.867-10.218,3.1-11.305-.269-1.416-.269-1.416c11.993-18.458,29.012-21.1,46.269-26.5l-.992-.49c-9.753-.773-24.9-.661-38.107,12.153-15.237,14.779-32.247,23.732-30.354,71.549l16.026-3.867s24.859,1.439,46.663-4.746C330.571,174.589,314.788,172.614,312.482,166.635Z" transform="translate(-291.981 -94.473)" fill="#1f0835"/>
              <path id="Trazado_187738" data-name="Trazado 187738" d="M378.038,143.6c-7.124,11.122-15.941,21.5-49.6,26.334-22.422,3.22-25.966-1.38-25.966-1.38s39.134-2.606,54.945-10.63S378.038,143.6,378.038,143.6Z" transform="translate(-292.375 -96.316)" fill="#1f0835"/>
            </g>
            <g id="Grupo_131979" data-name="Grupo 131979">
              <path id="Trazado_187739" data-name="Trazado 187739" d="M313.6,122.591c4.356-12.745,26.194-27.136,51.509-27.488a52.541,52.541,0,0,0-28.127,2.461c-15.119,5.625-26,14.8-31.986,25.156S313.6,122.591,313.6,122.591Z" transform="translate(-287.327 -94.216)" fill="#ffeaa4"/>
              <path id="Trazado_187740" data-name="Trazado 187740" d="M335.688,101.046c-13.844,5.538-21.535,17.272-21.535,17.272-.7.088-7.013,1.264-7.111,1.282-.719,1.038-1.4,2.088-2.016,3.154-.216.372-.4.71-.56,1.03,1.98-.137,4.883-.268,5.65.072a3.561,3.561,0,0,0,1.927-.145c.95-.628,1.588-1.086,1.588-1.086,4.356-12.745,26.194-27.136,51.509-27.488C356.618,95.029,349.533,95.509,335.688,101.046Z" transform="translate(-287.361 -94.25)" fill="#f9d668"/>
              <path id="Trazado_187741" data-name="Trazado 187741" d="M310,168.551c-1.193-23.678,2.153-39.828,5.142-44.222s-9.275-2.483-11.737.966c-1.595,2.236-6.99,21.07-5.01,43.421S310,168.551,310,168.551Z" transform="translate(-287.117 -95.25)" fill="#ffeaa4"/>
              <path id="Trazado_187742" data-name="Trazado 187742" d="M312.952,121.776c1.053.4,1.36.927.613,2.069s-3.824,11.163-4.615,20-.4,18.106-.571,19.161-7.908,3-10.239,1.941c.067,1.245.153,2.5.266,3.771.146,1.651.335,3.05.557,4.238,2.348.265,5.608.381,8.585.426a47.546,47.546,0,0,0,2.462-4.829c-1.193-23.678,2.153-39.828,5.142-44.223C316.36,122.552,315.074,121.806,312.952,121.776Z" transform="translate(-287.124 -95.25)" fill="#f9d668"/>
              <path id="Trazado_187743" data-name="Trazado 187743" d="M307.743,169.17c-3.1-.911-12.295.535-13.79,5.054-3.4,10.277-2.086,35.069,4.336,41.82,2.34,2.46,9.534,2.753,12.152,2.237,6.643-1.31,7.73-11.6,6.79-25.5S312.039,170.435,307.743,169.17Z" transform="translate(-286.898 -97.018)" fill="#f9d668"/>
              <path id="Trazado_187744" data-name="Trazado 187744" d="M298.353,216.82c2.34,2.46,9.534,2.753,12.152,2.237,3.818-.753,5.794-4.483,6.611-10.149-3.194,2.741-11.363,1.863-15.492,0,0,0,.678-12.342-1.509-19.3a152.37,152.37,0,0,0-6.289,16.638C294.847,210.86,296.352,214.716,298.353,216.82Z" transform="translate(-286.962 -97.794)" fill="#cba730"/>
              <path id="Trazado_187745" data-name="Trazado 187745" d="M306.55,193.6c.839,12.416-2.092,22.725-6.549,23.027s-8.748-9.52-9.587-21.936,2.092-22.725,6.549-23.027S305.711,181.182,306.55,193.6Z" transform="translate(-286.829 -97.121)" fill="#ffeaa4"/>
              <path id="Trazado_187746" data-name="Trazado 187746" d="M300.974,199.881s-5.693.71-7.889,9.326c1.838,5.305,4.4,8.654,7.023,8.477,2.267-.153,4.136-2.9,5.318-7.2a19.123,19.123,0,0,1-3.829-1.2S302.1,207.283,300.974,199.881Z" transform="translate(-286.934 -98.18)" fill="#f9d668"/>
              <path id="Trazado_187747" data-name="Trazado 187747" d="M300.612,195.31c.628,9.3-1.053,16.721-5.195,17s-8.007-7.032-8.636-16.331,2.219-17.065,6.359-17.344S299.983,186.01,300.612,195.31Z" transform="translate(-286.694 -97.383)" fill="#f9d668"/>
              <path id="Trazado_187748" data-name="Trazado 187748" d="M294.471,209.89c-1.89.128-3.732-.992-5.362-3,1.642,3.927,3.97,6.386,6.4,6.222,3.562-.241,5.3-5.77,5.317-13.228C299.94,205.75,297.841,209.663,294.471,209.89Z" transform="translate(-286.785 -98.18)" fill="#cba730"/>
            </g>
          </g>
        </g>
      </g>
      <g id="Grupo_131994" data-name="Grupo 131994" transform="translate(436.221 96.002)">
        <g id="Grupo_131990" data-name="Grupo 131990" transform="translate(0 16.437)">
          <g id="Grupo_131983" data-name="Grupo 131983" transform="translate(6.649 18.416)">
            <path id="Trazado_187749" data-name="Trazado 187749" d="M503.4,246.516c-.86,3.165,1.864,5.977,2.744,6.5s6.856,2.989,10.548,3.077,9.141-7.736,7.207-8.614-15.47-1.846-16.964-1.846A11.253,11.253,0,0,0,503.4,246.516Z" transform="translate(-503.235 -198.669)" fill="#ffd5c5"/>
            <path id="Trazado_187750" data-name="Trazado 187750" d="M513.609,244.363c.923,9.493,4.219,16.876,5.406,17.008s12.966-3.823,16.239-5.273.755-23.73-1.246-23.337-6.634,4.672-10.353,6.725S513.609,244.363,513.609,244.363Z" transform="translate(-503.624 -198.186)" fill="#fff"/>
            <path id="Trazado_187751" data-name="Trazado 187751" d="M532.358,248.915c-1.246,1.9-10.729,6.715-15.886,8.471,1.039,2.8,2.085,4.529,2.651,4.591,1.015.114,9.8-2.77,14.355-4.512A65.437,65.437,0,0,0,532.358,248.915Z" transform="translate(-503.731 -198.792)" fill="#eadcff"/>
            <path id="Trazado_187752" data-name="Trazado 187752" d="M503.426,244.521c-.365,3.766,2.988,4.307,7.12,3.34s11.427-10.108,14.679-14.239,9.295-11.493,10.482-12.152,3.824-1.009,6.329-4.724.132-11.493-.858-12.416-10.262,2.159-11.427,3.716.022,9.93-.373,10.985-8.724,9.669-12.24,11.778S503.69,241.8,503.426,244.521Z" transform="translate(-503.241 -197.113)" fill="#ffd5c5"/>
            <path id="Trazado_187753" data-name="Trazado 187753" d="M537.165,210.694c1.1-.526,1.534-2.922.833-2.5s-1.87.413-3.453.392a13.1,13.1,0,0,1-2.222-.159,14.131,14.131,0,0,0-.292,1.888S536.062,211.221,537.165,210.694Z" transform="translate(-504.315 -197.263)" fill="#feac8a"/>
            <path id="Trazado_187754" data-name="Trazado 187754" d="M543.435,211.277c-.558-1.2-.99-2.109-.99-2.109l-6.661,5.992a35.26,35.26,0,0,0-3.579-2.823l-.619.977a18.762,18.762,0,0,1,1.454,6.187s.879,1.055,1.406,1.143c0,0-7.427,10.548-12.086,15.734-4.632,5.155-7.871,9.614-9.982,11.048,4.219-2.334,10.294-9.944,13.183-13.614,3.252-4.132,9.295-11.493,10.481-12.152s3.824-1.009,6.329-4.724A9.157,9.157,0,0,0,543.435,211.277Z" transform="translate(-503.578 -197.301)" fill="#feac8a"/>
            <path id="Trazado_187755" data-name="Trazado 187755" d="M531.137,211.416c.031.615,5.827,5.977,6.429,6.593a.927.927,0,0,0,.665,0c1.751-1.446,9.884-14.491,10.046-14.962.151-.439-4.291-4.926-5.66-6.126a1.315,1.315,0,0,0-1.159.134C539.831,199.231,531.1,210.622,531.137,211.416Z" transform="translate(-504.281 -196.839)" fill="#1f0835"/>
            <path id="Trazado_187756" data-name="Trazado 187756" d="M531.828,211.418c.031.615,5.827,5.977,6.429,6.593s10.536-14.453,10.711-14.962c.152-.439-4.836-4.853-6.2-6.054a.417.417,0,0,0-.613.062C540.521,199.233,531.789,210.624,531.828,211.418Z" transform="translate(-504.307 -196.84)" fill="#4e2384"/>
            <path id="Trazado_187757" data-name="Trazado 187757" d="M532.977,210.539c.029.575,5.451,5.591,6.015,6.167s9.856-13.52,10.02-14c.141-.411-4.525-4.54-5.806-5.663a.389.389,0,0,0-.574.057C541.11,199.139,532.94,209.8,532.977,210.539Z" transform="translate(-504.35 -196.843)" fill="#9457f7"/>
            <path id="Trazado_187758" data-name="Trazado 187758" d="M537.287,203.25a7.649,7.649,0,0,0,2.472-3.193c.154-.659.132-1.252-.373-1.384s-2.242,1.934-3.076,2.549-1.89,1.89-1.56,2.747,2.109.527,2.307.4S537.287,203.25,537.287,203.25Z" transform="translate(-504.414 -196.907)" fill="#ffd5c5"/>
            <path id="Trazado_187759" data-name="Trazado 187759" d="M539.717,198.854c.249.75-1.949,3.758-3.747,4.623l.591.738s.3-.065.681-.154a5.332,5.332,0,0,0,.093-.8,7.647,7.647,0,0,0,2.472-3.193A1.434,1.434,0,0,0,539.717,198.854Z" transform="translate(-504.463 -196.914)" fill="#feac8a"/>
            <path id="Trazado_187760" data-name="Trazado 187760" d="M534.75,206.463c1.712-.881,3-.782,3.92-1.144s1.187-1.747.594-1.978a16.38,16.38,0,0,0-5.34.791c-.99.428-1.59,2.4-1.59,2.4Z" transform="translate(-504.326 -197.08)" fill="#ffd5c5"/>
            <path id="Trazado_187761" data-name="Trazado 187761" d="M535.592,205.479a2.091,2.091,0,0,1-1.252,0c0,.364-.357.546-.783,1.064l1.239-.037c1.712-.881,3-.783,3.92-1.144a1.477,1.477,0,0,0,.825-.928C539.086,205.193,536.532,205.3,535.592,205.479Z" transform="translate(-504.372 -197.123)" fill="#feac8a"/>
            <path id="Trazado_187762" data-name="Trazado 187762" d="M530.778,208.136c.791,1.218,5.142.69,6.021.558s1.464-.681,1.416-1.235c-.1-1.116-5.811-.919-6.295-.743S530.778,208.136,530.778,208.136Z" transform="translate(-504.268 -197.204)" fill="#ffd5c5"/>
            <path id="Trazado_187763" data-name="Trazado 187763" d="M538.221,207.773a6.773,6.773,0,0,1-3.628,1.044,14.628,14.628,0,0,1-2.289.041,17.97,17.97,0,0,0,4.552-.119A1.576,1.576,0,0,0,538.221,207.773Z" transform="translate(-504.325 -197.249)" fill="#feac8a"/>
          </g>
          <g id="Grupo_131986" data-name="Grupo 131986" transform="translate(0 121.903)">
            <g id="Grupo_131984" data-name="Grupo 131984" transform="translate(53.827 132.911)">
              <path id="Trazado_187764" data-name="Trazado 187764" d="M552.856,468.047c.263,2.307,1.186,3.165,4.549,3.626s8.306.4,10.877-2.11,4.153-5.405,4.351-6.659.132-2.636.528-3.3,2.487-1.07,2.229-4.747S552.856,468.047,552.856,468.047Z" transform="translate(-552.275 -442.895)" fill="#ffe6dc"/>
              <path id="Trazado_187765" data-name="Trazado 187765" d="M574.6,445.685c-.378-5.105-12.476-3.135-12.542-1.091s-2.9,10.613-5.684,13.216l0,.006c-3.645,1.657-5.018,5.808-3.547,9.786,1.248,3.375,10.613,2.558,12.855,1.319,2.362-1.307,4.7-4.729,5.4-6.582h0c.507-1.092.729-2.713,1.85-4.1s1.714-1.12,2.242-2.769S574.983,450.79,574.6,445.685Z" transform="translate(-552.252 -442.449)" fill="#f99b68"/>
              <path id="Trazado_187766" data-name="Trazado 187766" d="M564.614,445.547c-1.164,5.265-3.674,8.693-2.938,9.305s5.265,1.347,6.121,0,2.326-7.04,2.326-9.305S564.614,445.547,564.614,445.547Z" transform="translate(-552.601 -442.527)" fill="#ffe6dc"/>
            </g>
            <g id="Grupo_131985" data-name="Grupo 131985" transform="translate(0 124.706)">
              <path id="Trazado_187767" data-name="Trazado 187767" d="M535.4,449.466a15.8,15.8,0,0,0-1.609-9.478c-1.941-3.824-1.846-4.153-4.088-4.549s-10.415-1.516-10.415-1.516a13.551,13.551,0,0,1-6.2,6.46c-4.812,2.637-5.8,3.559-8.9,3.559s-9.946.365-7.251,8.57c0,0,2.175.945,7.625.9s10.987-.483,12.965-1.23,4.044-1.143,5.23-.659,5.054.308,7.252,0A20.685,20.685,0,0,0,535.4,449.466Z" transform="translate(-496.327 -433.924)" fill="#f99b68"/>
              <path id="Trazado_187768" data-name="Trazado 187768" d="M510.051,441.982a.538.538,0,0,0-.271.812c.649,1.007,2,2.11,2.716,1.859.879-.308,4.954-3.391,7.12-5.273,1.011-.88,1.978-2.55,1.406-3.34s-2.065-1.714-2.68-1.231-1.8,2.8-4.307,4.873A12.679,12.679,0,0,1,510.051,441.982Z" transform="translate(-496.828 -433.952)" fill="#ffe6dc"/>
              <path id="Trazado_187769" data-name="Trazado 187769" d="M496.966,453.117c5.405.527,17.857-.527,20.4-1.186s3.926-1.781,6.366-.858,9.954-.527,11.141-.988.857,1.4,0,1.587-6.263,1.335-9.032,1.588-2.9-1.791-6.2-.274-8.7,1.516-11.075,1.516-9.163.527-10.416,0S496.966,453.117,496.966,453.117Z" transform="translate(-496.351 -434.527)" fill="#ffe6dc"/>
            </g>
            <path id="Trazado_187770" data-name="Trazado 187770" d="M559.794,440.6c3.7,1.009,14.24.659,14.767-.791s-1.449-24.261-1.449-31.512-2.505-25.183-2.11-27.161.4-3.427-.264-6.856-.919-43.158-4.088-69.923l-41.136,3.868s-6.592,25.314-7.12,43.246.088,26.544,0,29.182,1.121,5.273,1.4,7.383-.077,17.756-.429,23.381-.607,16-1.183,17.229,12.434,3.691,14.192,2.812,1.758-1.055,1.758-10.2,1.23-31.116,1.23-34.984,1.231-4.571.7-6.5,1.406-10.724,3.34-17.229,4.22-13.535,4.22-13.535,5.45,35.159,7.207,37.268,1.406,7.559,2.461,10.723,4.219,24.612,4.219,31.116S555.927,439.545,559.794,440.6Z" transform="translate(-497.146 -304.358)" fill="#490eaf"/>
            <path id="Trazado_187771" data-name="Trazado 187771" d="M569.177,441.115a25.474,25.474,0,0,0,4.526-.552c.439-1.876.907-4.237,1.393-6.979-.405-7.675-1.361-20.242-1.361-25.287,0-7.251-2.505-25.183-2.11-27.161s.4-3.427-.264-6.856-.919-43.158-4.088-69.923l-8.277.779-24.223,9.109a184.614,184.614,0,0,0,25.256-1.5s1.894,21.43,1.958,24.594,2.349,32.71,2.349,35.429,1.055,3.5,1.231,6.452a4.074,4.074,0,0,1-2.11,4s3.165,1.055,3.165,1.582.659,9.01.659,12.306,1.436,7.779,1.839,17.667,1.721,21.622,1.721,22.941C570.84,439,570.836,440.344,569.177,441.115Z" transform="translate(-497.769 -304.358)" fill="#32007f"/>
            <path id="Trazado_187772" data-name="Trazado 187772" d="M542.124,329.952l-8.834-2.242,6.857,3.3-5.538.132,4.244,1.515s1.322,11.017-1.43,18.394c-3.018,8.087-4.4,28.743-5.318,30.324s-3.3,1.187-3.3,1.187,2.505.264,2.637,2.11-.527,6.988-.527,12.437a166.507,166.507,0,0,1-1.055,17.77c-.528,3.677-.774,12.673-1.055,15.064s-3.874,1.832-3.874,1.832h0a46.167,46.167,0,0,0,5.168.707c5.43.511,4.3-1.5,4.295-12.185.135-9.957,1.217-29.512,1.217-33.138,0-3.868,1.231-4.571.7-6.5s1.406-10.724,3.34-17.228,4.22-13.535,4.22-13.535-.961-8.992-1.092-11.1S542.124,329.952,542.124,329.952Z" transform="translate(-497.4 -305.234)" fill="#32007f"/>
          </g>
          <g id="Grupo_131987" data-name="Grupo 131987" transform="translate(25.044 34.92)">
            <path id="Trazado_187773" data-name="Trazado 187773" d="M549.4,225.787c-9.493,4.658-10.982,4.478-15.067,6.592s-4.534,24.348-4.534,27.777-.044,17.052-.834,20.744-3.824,17.4-4.879,19.514-3.033,5.669-.528,7.779,8.025,3.56,20.3,2.769,25.982-8.306,26.642-9.361-4.351-20.437-4.351-24.128a48.291,48.291,0,0,0-.79-8.175c-.264-1.713,4.206-9.757,5.2-14.9s7.614-19.327,6.743-21.926-10.389-5.493-16.775-8.8S549.4,225.787,549.4,225.787Z" transform="translate(-522.347 -214.308)" fill="#fff"/>
            <path id="Trazado_187774" data-name="Trazado 187774" d="M548.2,229.766a6.858,6.858,0,0,0,.13,1.667,3.971,3.971,0,0,0,.58,1.507,3.044,3.044,0,0,0,2.649,1.406,8.813,8.813,0,0,0,3.193-.638c1.048-.377,2.049-.885,3.073-1.372-.457.333-.932.641-1.4.96-.5.261-.99.561-1.516.788a7.805,7.805,0,0,1-3.365.789l-.446-.021-.442-.1a3.161,3.161,0,0,1-.847-.322,3.116,3.116,0,0,1-1.243-1.285A4.882,4.882,0,0,1,548.2,229.766Z" transform="translate(-523.311 -214.577)" fill="#eadcff"/>
            <path id="Trazado_187775" data-name="Trazado 187775" d="M571.636,302.586c.659-1.055-4.351-20.436-4.351-24.128a48.261,48.261,0,0,0-.79-8.174c-.264-1.714,4.206-9.758,5.2-14.9a29.2,29.2,0,0,1,.962-3.395l-3.9-3.075c-2.912,6.752-5.285,18.618-7.79,21.518s-8.306,4.088-8.306,4.088,5.55,1.319,8.048.791c0,0,1.87,10.416,1.526,15.558s-1.388,12.921-1.526,13.976c-.051.394-.064,1.766-.06,3.331C566.73,305.837,571.264,303.182,571.636,302.586Z" transform="translate(-523.484 -215.295)" fill="#eadcff"/>
            <path id="Trazado_187776" data-name="Trazado 187776" d="M561.172,213.985c-.306,5.5-.218,9.281.924,10.336,0,0-2.761,9.13-11.075,8.351-2.813-.264-2.2-5.011-.616-7.208l-.351-6.748Z" transform="translate(-523.349 -213.985)" fill="#ffd5c5"/>
            <path id="Trazado_187777" data-name="Trazado 187777" d="M561.568,223.352h0c-.593-1.687-.6-4.976-.357-9.367l-11.118,4.731.225,4.327h0C552.165,223.9,561.568,223.352,561.568,223.352Z" transform="translate(-523.387 -213.985)" fill="#feac8a"/>
          </g>
          <g id="Grupo_131988" data-name="Grupo 131988" transform="translate(49.046 52.99)">
            <path id="Trazado_187778" data-name="Trazado 187778" d="M587.534,260.217c1.67,2.549,3.691,8.877,2.549,11.778s-11.69,15.821-16.437,20.656-5.8,5.626-6.68,7.208-5.1,8.108-6.153,9.1a5.312,5.312,0,0,1-2.835,1.12,5,5,0,0,1-3.944,1.187,15.891,15.891,0,0,1-4.1,1.911s-.659,1.119-1.252,1.22-1.253-1.088,0-3.461,3.1-3.362,3.494-4.878a33.44,33.44,0,0,1,1.992-4.609s-3.311,3.159-5.222,3.357-2.086-.923-.977-1.846a26.878,26.878,0,0,0,3.943-4.088,7.943,7.943,0,0,1,5.472-3.3c2.439-.33,4.153-.594,4.812-1.055s4.143-4.944,6.653-9.779,4.892-11.013,10.772-16.436l-2.109-4.22Z" transform="translate(-547.284 -233.789)" fill="#ffd5c5"/>
            <path id="Trazado_187779" data-name="Trazado 187779" d="M550.146,314.659a11.206,11.206,0,0,1,2.527-3.492l.4-.369c.119-.115.324-.26.372-.328.207-.241.394-.558.6-.844.392-.593.774-1.2,1.2-1.78a15.947,15.947,0,0,1-.85,1.983,6.563,6.563,0,0,1-.56.958,4.378,4.378,0,0,1-.415.394l-.379.365c-.51.486-1,1-1.488,1.508S550.605,314.1,550.146,314.659Z" transform="translate(-547.392 -235.576)" fill="#feac8a"/>
            <path id="Trazado_187780" data-name="Trazado 187780" d="M554.438,312.625c.415-.71.89-1.325,1.322-1.972.45-.638.853-1.278,1.271-1.984a4.352,4.352,0,0,1-.836,2.282A5.815,5.815,0,0,1,554.438,312.625Z" transform="translate(-547.553 -235.607)" fill="#feac8a"/>
            <path id="Trazado_187781" data-name="Trazado 187781" d="M556.421,312.86a4.741,4.741,0,0,0,1.9-1.012,5.312,5.312,0,0,0,2.834-1.12,28.353,28.353,0,0,0,2.436-3.275c-.021.024-1.214,1.224-2.08,2.215a2.813,2.813,0,0,1-2.792.934l.309-1.285S557.748,312.234,556.421,312.86Z" transform="translate(-547.627 -235.561)" fill="#feac8a"/>
            <path id="Trazado_187782" data-name="Trazado 187782" d="M591.057,269.1c-.14,1.2-.223,2.16-2.238,5.317-2.267,3.552-15.426,18.524-18.261,21.293s-2.768,2.944-4.645,7.319c.793-1.236,1.459-2.315,1.752-2.841.879-1.582,1.934-2.374,6.68-7.208s15.3-17.755,16.437-20.656A7.305,7.305,0,0,0,591.057,269.1Z" transform="translate(-547.983 -234.123)" fill="#feac8a"/>
            <path id="Trazado_187783" data-name="Trazado 187783" d="M582.344,265.5l.861,1.634a6.114,6.114,0,0,0-2.388,1.357l-1.677-3.247Z" transform="translate(-548.479 -233.978)" fill="#feac8a"/>
            <path id="Trazado_187784" data-name="Trazado 187784" d="M571.058,255.345c-2.16-4.956-2.583-13,0-17.239s6.989-5.761,8-5.252,3.389,7.116,5.845,10.166,9.149,11.606,9.319,12.326-5.762,6.531-16.434,10.8C576.522,266.653,571.058,255.345,571.058,255.345Z" transform="translate(-548.109 -232.759)" fill="#fff"/>
            <path id="Trazado_187785" data-name="Trazado 187785" d="M578.468,259.794l1.406,3.389s-7.549-8.163-10.486-14.253a23.205,23.205,0,0,0,1.674,7.022s5.464,11.308,6.734,10.8c1.826-.73,3.5-1.507,5.043-2.295Z" transform="translate(-548.113 -233.366)" fill="#eadcff"/>
          </g>
          <g id="Grupo_131989" data-name="Grupo 131989" transform="translate(39.43)">
            <path id="Trazado_187786" data-name="Trazado 187786" d="M566.4,205.459c1.939-4.737,4.313-9.747,1.324-12.384,0,0,3.34-1.055,5.1-.7a13.68,13.68,0,0,0-5.273-1.407s.691-8-1.148-11.427c0,0,.006,3.516-.962,4.922a12.038,12.038,0,0,0-7.647-5.713c-5.713-1.581-11.251-1.757-15.206,2.286s-8.587,9.227-1.92,17.051A31.21,31.21,0,0,0,559.9,208.457C563.677,208.985,566.4,205.459,566.4,205.459Z" transform="translate(-537.294 -177.704)" fill="#4e2384"/>
            <path id="Trazado_187787" data-name="Trazado 187787" d="M546.356,190.931a21.31,21.31,0,0,0,4.064,1.281c1.381.312,2.771.591,4.171.807s2.8.405,4.212.538a18.594,18.594,0,0,0,4.253,0,10.564,10.564,0,0,1-4.28.819A25.39,25.39,0,0,1,550.191,193,11.418,11.418,0,0,1,546.356,190.931Z" transform="translate(-537.634 -178.2)" fill="#1f0835"/>
            <path id="Trazado_187788" data-name="Trazado 187788" d="M561.872,197.919c1.524-.377,4.048-2.816,4.048-2.816s-2.616,1.849-8,1.408a45.833,45.833,0,0,1-8.973-1.558s5.545,3.254,7.588,3.779S561.872,197.919,561.872,197.919Z" transform="translate(-537.731 -178.351)" fill="#1f0835"/>
            <path id="Trazado_187789" data-name="Trazado 187789" d="M542.8,194.316c-2.5-1.234-3.223.018-3.223,1.073a11.125,11.125,0,0,0,1.171,3.3Z" transform="translate(-537.379 -178.308)" fill="#1f0835"/>
            <path id="Trazado_187790" data-name="Trazado 187790" d="M570.016,198.363c-1.993,3.945-6.435,7-6.435,7s-1.735,2.34.213,3.289c.081.04.172.074.261.11a9.274,9.274,0,0,0,3.3-2.528C568.46,203.535,569.7,200.75,570.016,198.363Z" transform="translate(-538.253 -178.479)" fill="#1f0835"/>
            <path id="Trazado_187791" data-name="Trazado 187791" d="M562.74,205.213s2.043-1.516,3.427,0-1.252,8.571-4.35,6.857c0,0-5.142,6.527-8.7,8.372s-5.933.923-7.12-.4-5.167-6.726-5.538-12.459c-.132-2.043.462-6.065.462-6.921s-.527-4.22.2-5.208a2.786,2.786,0,0,1,1.714-1.121,27.917,27.917,0,0,0,8.241,2.505,14.953,14.953,0,0,1-2.44-1.912s7.582,2.636,12.922,2.966a29.578,29.578,0,0,0,.2,4.35A17.551,17.551,0,0,0,562.74,205.213Z" transform="translate(-537.412 -178.328)" fill="#ffd5c5"/>
            <path id="Trazado_187792" data-name="Trazado 187792" d="M566.346,207.595c-.184-1.293-1.268-1.548-2.154-.647-.908.923-1.261,3.847-1.077,4.277s1.631.4,1.97-.492-.462-1.452-1.293-1.188a3.186,3.186,0,0,1,.592-2.142c.725-.838,1.393-.518,1.547-.3A5.948,5.948,0,0,0,566.346,207.595Z" transform="translate(-538.261 -178.781)" fill="#feac8a"/>
          </g>
        </g>
        <g id="Grupo_131993" data-name="Grupo 131993" transform="translate(75.508)">
          <g id="Grupo_131991" data-name="Grupo 131991" transform="translate(16.079)">
            <path id="Trazado_187793" data-name="Trazado 187793" d="M595.361,183.979a18.673,18.673,0,0,1,1.378-2.935,6.893,6.893,0,0,1,2.211-2.283,8.952,8.952,0,0,1,3.825-1.244q.735-.1,2.085-.229a21.3,21.3,0,0,0,2.807-.462,9.551,9.551,0,0,0,2.623-1,3.437,3.437,0,0,0,1.6-1.82,2.516,2.516,0,0,0,.064-1.634,3.249,3.249,0,0,0-.868-1.42,4.344,4.344,0,0,0-1.526-.943,3.843,3.843,0,0,0-2.441-.174,6.008,6.008,0,0,0-1.933.934c-.555.409-1.05.742-1.484,1l-4.972-7.306a11.559,11.559,0,0,1,4.118-2.885,12.988,12.988,0,0,1,4.952-.955,15.132,15.132,0,0,1,5.317.988,16.693,16.693,0,0,1,4.043,2.193,12.888,12.888,0,0,1,3.22,3.4,10.3,10.3,0,0,1,1.577,4.551,12.324,12.324,0,0,1-.859,5.658,14.871,14.871,0,0,1-1.168,2.463,9.337,9.337,0,0,1-1.605,2.016,9.651,9.651,0,0,1-2.153,1.528,12.032,12.032,0,0,1-2.76,1.022,23.545,23.545,0,0,1-4.017.649,20.685,20.685,0,0,0-3.459.509,2.543,2.543,0,0,0-1.922,1.587Zm-3.588,10.19.185-.5a4.614,4.614,0,0,1,5.931-2.721h0a4.614,4.614,0,0,1,2.721,5.931l-.186.5a4.613,4.613,0,0,1-5.93,2.721h0A4.614,4.614,0,0,1,591.773,194.169Z" transform="translate(-591.483 -160.627)" fill="#f4da78"/>
          </g>
          <g id="Grupo_131992" data-name="Grupo 131992" transform="translate(0 3.569)">
            <path id="Trazado_187794" data-name="Trazado 187794" d="M579.523,185.009a13.639,13.639,0,0,1-.158-2.359,5.031,5.031,0,0,1,.6-2.238,6.524,6.524,0,0,1,2-2.145c.289-.216.7-.511,1.248-.883a15.532,15.532,0,0,0,1.628-1.287,6.975,6.975,0,0,0,1.32-1.565,2.506,2.506,0,0,0,.377-1.727,1.828,1.828,0,0,0-.536-1.065,2.365,2.365,0,0,0-1.056-.6,3.171,3.171,0,0,0-1.307-.063,2.807,2.807,0,0,0-1.619.751,4.383,4.383,0,0,0-.9,1.279c-.21.457-.408.844-.592,1.165l-5.754-2.9a8.421,8.421,0,0,1,1.608-3.3,9.458,9.458,0,0,1,2.822-2.359,11.017,11.017,0,0,1,3.741-1.248,12.147,12.147,0,0,1,3.355-.03,9.391,9.391,0,0,1,3.254,1.03,7.524,7.524,0,0,1,2.614,2.347,9,9,0,0,1,1.451,3.913,10.854,10.854,0,0,1,.125,1.984,6.8,6.8,0,0,1-.312,1.854,7.054,7.054,0,0,1-.833,1.736,8.8,8.8,0,0,1-1.4,1.628,17.147,17.147,0,0,1-2.334,1.834,15.132,15.132,0,0,0-2.027,1.547,1.853,1.853,0,0,0-.665,1.691Zm1.311,7.769-.058-.384a3.365,3.365,0,0,1,2.822-3.832h0a3.366,3.366,0,0,1,3.832,2.823l.059.384a3.366,3.366,0,0,1-2.823,3.832h0A3.366,3.366,0,0,1,580.834,192.778Z" transform="translate(-574.778 -164.335)" fill="#f4da78"/>
          </g>
        </g>
      </g>
      <g id="Grupo_131998" data-name="Grupo 131998" transform="translate(36.7 7.496)">
        <g id="Grupo_131995" data-name="Grupo 131995" transform="translate(493.078 220.634)">
          <rect id="Rectángulo_43708" data-name="Rectángulo 43708" width="80.222" height="48.047" rx="6.849" transform="translate(0 0)" fill="#c3a2f9"/>
          <path id="Trazado_187795" data-name="Trazado 187795" d="M657.425,346.617H585.858a4.327,4.327,0,0,1-4.327-4.327l40.111-26.624,40.111,26.624A4.327,4.327,0,0,1,657.425,346.617Z" transform="translate(-581.531 -298.57)" fill="#cbb4f9"/>
          <path id="Trazado_187796" data-name="Trazado 187796" d="M657.425,297.9H585.858a4.327,4.327,0,0,0-4.327,4.327l40.111,26.624,40.111-26.624A4.327,4.327,0,0,0,657.425,297.9Z" transform="translate(-581.531 -297.904)" fill="#fafaff"/>
        </g>
        <g id="Grupo_131996" data-name="Grupo 131996" transform="translate(341.156)">
          <path id="Trazado_187797" data-name="Trazado 187797" d="M604.809,68.671H444.718a9.031,9.031,0,0,0-9.03,9.03v37.443a9.031,9.031,0,0,0,9.03,9.031H460.8l-5.48,13.527,18.221-13.527h131.27a9.03,9.03,0,0,0,9.03-9.031V77.7A9.03,9.03,0,0,0,604.809,68.671Z" transform="translate(-435.688 -68.671)" fill="#c3a2f9"/>
          <path id="Trazado_187798" data-name="Trazado 187798" d="M594.922,89.687H472.913a2.11,2.11,0,0,1,0-4.22H594.922a2.11,2.11,0,0,1,0,4.22Zm2.11,7.366a2.109,2.109,0,0,0-2.11-2.109H455.969a2.109,2.109,0,1,0,0,4.219H594.922A2.109,2.109,0,0,0,597.032,97.052Zm-61,9.477a2.11,2.11,0,0,0-2.11-2.11H455.969a2.109,2.109,0,1,0,0,4.219h77.949A2.11,2.11,0,0,0,536.028,106.529Z" transform="translate(-436.37 -69.301)" fill="#fff"/>
        </g>
        <g id="Grupo_131997" data-name="Grupo 131997" transform="translate(0 176.279)">
          <path id="Trazado_187799" data-name="Trazado 187799" d="M103.107,317.077a41.193,41.193,0,0,1-1.806-6.948,15.257,15.257,0,0,1,.536-7.016,19.806,19.806,0,0,1,4.754-7.531q1.11-1.208,3.226-3.34a47.034,47.034,0,0,0,4.125-4.758A21.188,21.188,0,0,0,117,282.068a7.613,7.613,0,0,0,.15-5.362,5.56,5.56,0,0,0-2.2-2.875,7.2,7.2,0,0,0-3.488-1.191,9.632,9.632,0,0,0-3.933.552,8.521,8.521,0,0,0-4.4,3.157,13.332,13.332,0,0,0-1.97,4.324c-.366,1.482-.739,2.75-1.1,3.81l-18.806-5.407a25.542,25.542,0,0,1,2.934-10.739,28.724,28.724,0,0,1,7.083-8.634,33.447,33.447,0,0,1,10.454-5.839,36.952,36.952,0,0,1,9.988-1.988,28.508,28.508,0,0,1,10.29,1.233,22.8,22.8,0,0,1,9.124,5.518,27.309,27.309,0,0,1,6.544,10.854,33.02,33.02,0,0,1,1.5,5.846,20.758,20.758,0,0,1,.118,5.706,21.4,21.4,0,0,1-1.5,5.65,26.65,26.65,0,0,1-3.256,5.647,52.062,52.062,0,0,1-5.925,6.788,45.753,45.753,0,0,0-5.171,5.762,5.63,5.63,0,0,0-1.029,5.421Zm8.3,22.433-.391-1.113a10.216,10.216,0,0,1,6.25-13.025h0a10.217,10.217,0,0,1,13.026,6.25l.391,1.114a10.216,10.216,0,0,1-6.25,13.025h0A10.217,10.217,0,0,1,111.411,339.509Z" transform="translate(-81.236 -251.82)" fill="#fff"/>
        </g>
      </g>
      <g id="Grupo_132005" data-name="Grupo 132005" transform="translate(179.303 7.496)">
        <g id="Grupo_131999" data-name="Grupo 131999">
          <rect id="Rectángulo_43709" data-name="Rectángulo 43709" width="68.277" height="40.345" rx="5" fill="#332864"/>
          <path id="Trazado_187800" data-name="Trazado 187800" d="M264.521,126.163l8.839-20.949H255.682Z" transform="translate(-230.382 -70.042)" fill="#332864"/>
        </g>
        <g id="Grupo_132004" data-name="Grupo 132004" transform="translate(12.695 4.769)">
          <g id="Grupo_132002" data-name="Grupo 132002" transform="translate(21.232 1.786)">
            <g id="Grupo_132000" data-name="Grupo 132000">
              <path id="Trazado_187801" data-name="Trazado 187801" d="M264.646,82.172h15.966v2.336l7.827-4.513-7.827-4.512v2.336H264.646Z" transform="translate(-264.646 -75.482)" fill="#fff"/>
            </g>
            <g id="Grupo_132001" data-name="Grupo 132001" transform="translate(0 13.534)">
              <path id="Trazado_187802" data-name="Trazado 187802" d="M288.44,91.88H272.474V89.544l-7.827,4.513,7.827,4.513V96.234H288.44Z" transform="translate(-264.646 -89.544)" fill="#fff"/>
            </g>
          </g>
          <g id="Grupo_132003" data-name="Grupo 132003">
            <path id="Trazado_187803" data-name="Trazado 187803" d="M254.019,95.45l-.76.276a24.156,24.156,0,0,1-3.6-5.65,20.277,20.277,0,0,1-1.272-6.544l.555-.232-3.376-8.08a6.608,6.608,0,0,0-1.639,1.86c-1.912,3.228-1.722,8.184.2,13.023s3.977,9.159,7.726,11.874a7.405,7.405,0,0,0,5.581,1.65Z" transform="translate(-242.587 -73.686)" fill="#fff"/>
            <path id="Trazado_187804" data-name="Trazado 187804" d="M256.942,95.244l-1.05.382,3.456,8.273a6.115,6.115,0,0,0,1.044-.451,2.012,2.012,0,0,0,.909-2.508L259.5,96.392A2.008,2.008,0,0,0,256.942,95.244Z" transform="translate(-243.086 -74.432)" fill="#fff"/>
            <path id="Trazado_187805" data-name="Trazado 187805" d="M248.371,73.743a7.965,7.965,0,0,0-1.352.635l3.448,8.252,1.161-.485a2.01,2.01,0,0,0,1.1-2.583l-1.813-4.654A2,2,0,0,0,248.371,73.743Z" transform="translate(-242.753 -73.626)" fill="#fff"/>
          </g>
        </g>
      </g>
    </g>
    <g id="Grupo_132007" data-name="Grupo 132007" transform="translate(620.65 3487.322)">
      <ellipse id="Elipse_1195" data-name="Elipse 1195" cx="28.154" cy="29.007" rx="28.154" ry="29.007" transform="translate(0 0)" fill="#5038a1" opacity="0.5"/>
      <ellipse id="Elipse_4814" data-name="Elipse 4814" cx="21.329" cy="22.182" rx="21.329" ry="22.182" transform="translate(6.825 6.825)" fill="#5038a1"/>
      <text id="_1" data-name="1" transform="translate(19.623 12.797)" fill="#f6f6f6" font-size="32" font-family="Roboto-Black, Roboto" font-weight="800"><tspan x="0" y="30">1</tspan></text>
    </g>
    <g id="Grupo_132008" data-name="Grupo 132008" transform="translate(826.259 3250.147)">
      <ellipse id="Elipse_1195-2" data-name="Elipse 1195" cx="28.58" cy="29.007" rx="28.58" ry="29.007" transform="translate(0 0)" fill="#5038a1" opacity="0.5"/>
      <circle id="Elipse_4814-2" data-name="Elipse 4814" cx="23.035" cy="23.035" r="23.035" transform="translate(5.972 5.972)" fill="#5038a1"/>
      <text id="_2" data-name="2" transform="translate(21.329 12.798)" fill="#f6f6f6" font-size="32" font-family="Roboto-Black, Roboto" font-weight="800"><tspan x="0" y="30">2</tspan></text>
    </g>
    <g id="Grupo_132009" data-name="Grupo 132009" transform="translate(1022.483 3458.315)">
      <circle id="Elipse_1195-3" data-name="Elipse 1195" cx="29.434" cy="29.434" r="29.434" transform="translate(0 0)" fill="#5038a1" opacity="0.5"/>
      <ellipse id="Elipse_4814-3" data-name="Elipse 4814" cx="22.182" cy="21.755" rx="22.182" ry="21.755" transform="translate(7.678 7.678)" fill="#5038a1"/>
      <text id="_3" data-name="3" transform="translate(21.328 13.65)" fill="#f6f6f6" font-size="32" font-family="Roboto-Black, Roboto" font-weight="800"><tspan x="0" y="30">3</tspan></text>
    </g>
  </g>
</svg>
