<svg xmlns="http://www.w3.org/2000/svg" width="80.492" height="80.5" viewBox="0 0 80.492 80.5">
  <g id="Grupo_132673" data-name="Grupo 132673" transform="translate(1205.316 -868.546)">
    <path id="Trazado_188543" data-name="Trazado 188543" d="M-1205.316,1039.428c.313.014.626.039.939.039q29.509,0,59.018,0h1.046v-33.255h-2.693v9.613h-4.2V1015q0-6.523,0-13.046c0-2.016.667-2.9,2.605-3.457,2.357-.68,4.715-1.356,7.115-2.046a14.961,14.961,0,0,0-.018-1.674,1.2,1.2,0,0,0-.4-.75,5.22,5.22,0,0,1-2.3-4.185,19.794,19.794,0,0,1,.275-4.749,5.268,5.268,0,0,1,5.753-3.844,5.347,5.347,0,0,1,4.891,4.56,21.729,21.729,0,0,1,.054,4.465,4.96,4.96,0,0,1-2.249,3.713c-.863.6-.342,1.439-.409,2.161-.015.158.535.446.863.545,2.1.632,4.218,1.227,6.328,1.836a2.908,2.908,0,0,1,2.474,3.225c.005,4.661,0,9.323,0,14.052h-4.121v-9.568h-2.783v33.2h8.3v2.821h-80.492Z" transform="translate(0 -93.213)" fill="#5038a1"/>
    <path id="Trazado_188544" data-name="Trazado 188544" d="M-1205.316,999.064c.617-1.658,1.848-2.2,3.56-2.194,6.912.044,13.824.018,20.736.018,2.454,0,3.467,1.02,3.468,3.493q0,6.245,0,12.49c0,2.456-1.022,3.468-3.491,3.469h-4.3c-.424-1.886-.838-3.743-1.259-5.6-.179-.79-.328-1.59-.568-2.362a4.438,4.438,0,0,0-4.312-3.153,4.359,4.359,0,0,0-4.24,3.239c-.626,2.429-1.13,4.889-1.687,7.336-.034.151-.074.3-.117.476-1.84,0-3.669.077-5.487-.027-1.232-.07-1.862-1.032-2.3-2.094Z" transform="translate(0 -106.146)" fill="#5038a1"/>
    <path id="Trazado_188545" data-name="Trazado 188545" d="M-1205.316,1149.653h51.3v5.478c-.234.019-.459.053-.685.053q-25.074,0-50.147,0c-.156,0-.313-.019-.469-.029Z" transform="translate(0 -232.523)" fill="#5038a1"/>
    <path id="Trazado_188546" data-name="Trazado 188546" d="M-1133.392,1198.089v12.382h-55.4v-12.382Z" transform="translate(-13.67 -272.588)" fill="#5038a1"/>
    <path id="Trazado_188547" data-name="Trazado 188547" d="M-1010.927,948.179a14.347,14.347,0,0,0-.018-1.647,1.2,1.2,0,0,0-.4-.755,5.654,5.654,0,0,1-2.378-4.8c0-.891-.045-1.786.026-2.671a5.51,5.51,0,0,1,5.568-5.357,5.516,5.516,0,0,1,5.506,5.505,24.559,24.559,0,0,1-.084,3.608,4.649,4.649,0,0,1-1.921,3.389,1.655,1.655,0,0,0-.777,1.7,9.585,9.585,0,0,1,.006,1.026q2.255.653,4.5,1.3c.93.268,1.862.526,2.792.8a2.935,2.935,0,0,1,2.441,3.186c.006.705,0,1.411,0,2.122-.665.215-1.3.381-1.9.623a5.285,5.285,0,0,0-3.6,4.952c-.085,1.831-.029,3.667-.035,5.5,0,.282,0,.564,0,.9h-19.445v-.795q0-6.564,0-13.128c0-1.971.665-2.843,2.575-3.394Z" transform="translate(-152.746 -53.271)" fill="#5038a1"/>
    <path id="Trazado_188548" data-name="Trazado 188548" d="M-1139.089,882.421v5.53c-.355-.209-.6-.341-.829-.489-2.452-1.56-4.895-3.134-7.362-4.669a2.54,2.54,0,0,0-1.235-.354c-1.833-.038-3.668-.009-5.5-.018a2.79,2.79,0,0,1-3.12-3.095q-.01-3.851,0-7.7a2.8,2.8,0,0,1,3.08-3.064q9.393-.008,18.785,0a2.828,2.828,0,0,1,3.118,3.118q.014,3.812,0,7.625a2.812,2.812,0,0,1-3.109,3.12C-1136.49,882.429-1137.718,882.421-1139.089,882.421Zm-12.458-8.291v2.705h2.686V874.13Zm11.112.007v2.7h2.678v-2.7Zm-2.868,0h-2.678v2.692h2.678Z" transform="translate(-39.848 -0.006)" fill="#5038a1"/>
    <path id="Trazado_188549" data-name="Trazado 188549" d="M-901.267,887.944v-5.47c-.266-.022-.491-.056-.715-.057-1.1-.006-2.2.011-3.3-.007a2.714,2.714,0,0,1-2.906-2.9q-.04-4.008,0-8.016a2.737,2.737,0,0,1,2.951-2.943q9.509-.015,19.018,0a2.726,2.726,0,0,1,2.978,2.845q.084,4.085,0,8.173a2.714,2.714,0,0,1-2.973,2.841c-1.886.017-3.773-.017-5.658.021a2.54,2.54,0,0,0-1.233.363c-2.444,1.522-4.864,3.082-7.293,4.628C-900.638,887.574-900.883,887.714-901.267,887.944Zm-1.359-11.116h13.777v-2.685h-13.777Z" transform="translate(-245.757 0)" fill="#5038a1"/>
    <path id="Trazado_188550" data-name="Trazado 188550" d="M-1133.441,1286.388v2.676h-55.412v-2.676Z" transform="translate(-13.618 -345.626)" fill="#5038a1"/>
    <path id="Trazado_188551" data-name="Trazado 188551" d="M-1140.724,1073.809h-8.3c.669-3.013,1.323-5.967,1.981-8.921.165-.739.306-1.485.521-2.209a1.665,1.665,0,0,1,1.672-1.28,1.645,1.645,0,0,1,1.619,1.25C-1142.379,1066.335-1141.569,1070.032-1140.724,1073.809Z" transform="translate(-46.561 -159.522)" fill="#5038a1"/>
  </g>
</svg>
