<svg xmlns="http://www.w3.org/2000/svg" xmlns:xlink="http://www.w3.org/1999/xlink" width="502.53" height="209.439" viewBox="0 0 502.53 209.439">
  <defs>
    <clipPath id="clip-path">
      <path id="Trazado_188133" data-name="Trazado 188133" d="M1548.1,438.219a29.1,29.1,0,0,1-28.082-10.26c-2.557-3.225-13.023-14.482-13.935-18.781-3.153-14.868,17.619-25.158,32.487-28.311s31.486,7.025,34.639,21.893c1.407,6.634-4.6,20.138-7.588,25.675C1561.922,435.305,1556.339,436.472,1548.1,438.219Z" transform="translate(-1505.766 -380.292)" fill="none"/>
    </clipPath>
    <linearGradient id="linear-gradient" x1="-57.213" y1="-0.339" x2="-58.261" y2="0.95" gradientUnits="objectBoundingBox">
      <stop offset="0" stop-color="#febbba"/>
      <stop offset="1" stop-color="#ff928e"/>
    </linearGradient>
    <linearGradient id="linear-gradient-2" x1="18.513" y1="-8.941" x2="18.702" y2="-9.862" xlink:href="#linear-gradient"/>
    <linearGradient id="linear-gradient-3" x1="13.206" y1="-8.178" x2="14.49" y2="-7.039" xlink:href="#linear-gradient"/>
    <linearGradient id="linear-gradient-4" x1="33.852" y1="-31.549" x2="37.28" y2="-27.456" xlink:href="#linear-gradient"/>
    <linearGradient id="linear-gradient-5" x1="-91.86" y1="1.047" x2="-88.726" y2="-1.146" xlink:href="#linear-gradient"/>
    <clipPath id="clip-path-2">
      <path id="Trazado_188147" data-name="Trazado 188147" d="M1339.471,465.771c-10.926,2.317-22.534-2.41-29.031-10.606-2.643-3.334-10.824-14.366-11.767-18.81-3.26-15.37,15.571-26.6,30.941-29.863s32.553,7.254,35.813,22.623c1.454,6.858-1.11,21.065-4.194,26.788C1357.405,463.007,1347.983,463.966,1339.471,465.771Z" transform="translate(-1298.302 -405.897)" fill="none"/>
    </clipPath>
    <linearGradient id="linear-gradient-6" x1="-188.092" y1="0.5" x2="-186.367" y2="0.5" gradientUnits="objectBoundingBox">
      <stop offset="0" stop-color="#a22b25"/>
      <stop offset="1" stop-color="#c0423c"/>
    </linearGradient>
    <linearGradient id="linear-gradient-7" x1="83.105" y1="0.372" x2="83.081" y2="-0.738" xlink:href="#linear-gradient-6"/>
    <linearGradient id="linear-gradient-8" x1="303.462" y1="-65.818" x2="304.204" y2="-64.695" xlink:href="#linear-gradient-6"/>
    <linearGradient id="linear-gradient-9" x1="1194.695" y1="-262.128" x2="1197.617" y2="-257.682" xlink:href="#linear-gradient-6"/>
    <linearGradient id="linear-gradient-10" x1="39.763" y1="-0.394" x2="40.198" y2="1.885" xlink:href="#linear-gradient-6"/>
    <linearGradient id="linear-gradient-11" x1="82.725" y1="-3.765" x2="83.702" y2="2.657" xlink:href="#linear-gradient-6"/>
    <linearGradient id="linear-gradient-12" x1="-361.828" y1="0.5" x2="-360.828" y2="0.5" xlink:href="#linear-gradient-6"/>
    <clipPath id="clip-path-3">
      <path id="Trazado_188159" data-name="Trazado 188159" d="M1438.043,240.748c10.132,1.973,52.136,2.094,58.258-5.629,2.49-3.141-17.54-11.3-16.652-15.484,3.071-14.481-5.983-25.9-20.464-28.974s-29.5,3.127-32.57,17.609c-1.37,6.461-2.906,18.354,0,23.746C1430.222,238.708,1430,239.18,1438.043,240.748Z" transform="translate(-1424.963 -189.893)" fill="none"/>
    </clipPath>
    <linearGradient id="linear-gradient-13" x1="90.105" y1="28.063" x2="91.104" y2="28.063" xlink:href="#linear-gradient"/>
    <linearGradient id="linear-gradient-14" x1="-198.423" y1="0.5" x2="-197.423" y2="0.5" xlink:href="#linear-gradient"/>
    <linearGradient id="linear-gradient-15" x1="-98.434" y1="0.5" x2="-97.434" y2="0.5" xlink:href="#linear-gradient"/>
    <linearGradient id="linear-gradient-16" x1="518.408" y1="0.175" x2="517.091" y2="1.493" xlink:href="#linear-gradient"/>
    <linearGradient id="linear-gradient-17" x1="1740.492" y1="2.7" x2="1743.942" y2="0.456" xlink:href="#linear-gradient"/>
  </defs>
  <g id="Grupo_132680" data-name="Grupo 132680" transform="translate(6628.529 9047.022)">
    <g id="Grupo_132679" data-name="Grupo 132679" transform="translate(-7540.141 -9213.616)">
      <path id="Trazado_188103" data-name="Trazado 188103" d="M1460.6,335.038a136.4,136.4,0,0,1-21.827,10.224c-56.529,21.781-121.146,15.5-141.124,13.358-32.233-3.462-59.441-5.9-82.818-18.092-53.12-27.7-50.536-85.469-9.946-121.257,4.813-4.243,45.341-38.912,110.1-43.8,1.584-.119,2.766-.187,3.8-.251,10.018-.612,72.1-3.843,122.716,20.631a130.626,130.626,0,0,1,29.719,19.459C1510.757,250.551,1510.882,305.128,1460.6,335.038Z" transform="translate(-170.566 -5.237)" fill="#e5e1f1"/>
      <g id="Grupo_132436" data-name="Grupo 132436" transform="translate(963.061 178.892)">
        <path id="Trazado_188104" data-name="Trazado 188104" d="M1272.785,201.632h0l-.023-.008c-.218-.079-.439-.148-.663-.213-.077-.022-.153-.045-.229-.065s-.163-.04-.245-.06-.166-.04-.25-.058-.158-.032-.238-.048-.178-.033-.269-.048l-.23-.035c-.1-.014-.195-.026-.293-.038-.071-.008-.142-.017-.214-.024-.112-.011-.224-.018-.338-.026-.059,0-.118-.009-.178-.012-.173-.008-.348-.013-.523-.013h-80.46q-.281,0-.558.014a10.786,10.786,0,0,0-1.094.111q-.269.041-.534.1a10.88,10.88,0,0,0-8.607,9.552,11,11,0,0,0-.056,1.113v165a10.888,10.888,0,0,0,7.157,10.239h0l.056.019q.311.111.63.2c.077.022.153.045.23.066s.163.04.245.06.167.04.25.058.158.032.238.048.179.033.269.048.153.025.23.035c.1.014.195.026.293.038.071.008.142.017.214.024.112.011.225.018.338.026.059,0,.118.009.178.012.173.008.348.013.523.013h80.46a10.877,10.877,0,0,0,10.849-10.887v-165A10.888,10.888,0,0,0,1272.785,201.632Z" transform="translate(-1177.784 -200.984)" fill="#9e4ce5"/>
        <rect id="Rectángulo_43890" data-name="Rectángulo 43890" width="91.639" height="157.095" transform="translate(5.259 14.837)" fill="#e8e7f7"/>
        <path id="Rectángulo_43891" data-name="Rectángulo 43891" d="M.7,0H38.51a.7.7,0,0,1,.7.7v.561a.7.7,0,0,1-.7.7H.7a.7.7,0,0,1-.7-.7V.7A.7.7,0,0,1,.7,0Z" transform="translate(31.547 7.932)" fill="#fff"/>
        <ellipse id="Elipse_5288" data-name="Elipse 5288" cx="4.501" cy="4.516" rx="4.501" ry="4.516" transform="translate(46.526 174.985)" fill="#daeef7" opacity="0.3"/>
        <rect id="Rectángulo_43892" data-name="Rectángulo 43892" width="91.639" height="6.591" transform="translate(5.259 165.341)" fill="#3cb4c5" opacity="0.2"/>
        <rect id="Rectángulo_43893" data-name="Rectángulo 43893" width="91.639" height="8.337" transform="translate(5.259 14.837)" fill="#3cb4c5" opacity="0.2"/>
      </g>
      <path id="Trazado_139920" data-name="Trazado 139920" d="M910.663,366.073a5,5,0,0,0-.41.383c-1.817,1.9-1.362,4.527,1.016,5.862a6.576,6.576,0,0,0,7.6-1.026A123.015,123.015,0,0,1,940.7,353.485a145.98,145.98,0,0,1,26.317-13.474l1.748-.691,1.772-.641c1.178-.434,2.371-.833,3.565-1.227q3.576-1.2,7.226-2.178c1.211-.34,2.441-.621,3.656-.934,1.223-.294,2.453-.556,3.674-.836,1.236-.233,2.456-.5,3.7-.7s2.468-.426,3.705-.584,2.465-.346,3.7-.468c.617-.064,1.231-.139,1.846-.19l1.842-.143c1.227-.116,2.447-.134,3.665-.206,1.214-.031,2.426-.061,3.628-.06,1.2.023,2.4.013,3.579.087.59.033,1.182.049,1.769.089l1.742.142c.292.026.58.041.872.075l.884.109,1.76.219c1.167.189,2.333.349,3.486.569a114.033,114.033,0,0,1,26.46,8.5c8.478,3.8,16.689,8.321,25.206,13.029,4.264,2.351,8.586,4.771,13.1,7.168,2.243,1.206,4.562,2.387,6.909,3.568,1.193.583,2.37,1.175,3.59,1.75l3.555,1.677c9.109,4.276,18.589,8.583,28.762,12.507a220.677,220.677,0,0,0,33.135,10.077,156.329,156.329,0,0,0,19.079,2.9,135.239,135.239,0,0,0,20.941.246c3.614-.245,7.275-.652,10.939-1.226,1.834-.283,3.666-.623,5.5-.99.914-.189,1.8-.369,2.741-.593s1.884-.443,2.814-.69a109.949,109.949,0,0,0,21.321-7.923c1.67-.831,3.316-1.689,4.92-2.6.853-.475,1.484-.855,2.2-1.262l2.091-1.219c1.392-.819,2.761-1.687,4.123-2.567s2.695-1.809,4.041-2.723a115.643,115.643,0,0,0,14.987-12.476,97.566,97.566,0,0,0,12.29-14.72,89.928,89.928,0,0,0,15.594-49.58,114.782,114.782,0,0,0-3.927-31.576,138.233,138.233,0,0,0-4.882-15c-.971-2.478-2.021-4.946-3.185-7.447-.587-1.253-1.193-2.514-1.862-3.816-.335-.653-.68-1.309-1.066-2.006l-.613-1.083-.359-.6-.225-.36-.352-.526c-12.414-16.707-40.346-21.883-62.379-11.561s-29.831,32.236-17.416,48.944l-.11-.194c-.023-.048,0-.03,0-.03h.019c.017-.007.074.043.113.066a3.956,3.956,0,0,1,.313.265c.229.2.481.457.732.711.51.519,1.041,1.093,1.562,1.687,1.046,1.2,2.091,2.473,3.094,3.778a82.519,82.519,0,0,1,5.547,8.141,70.2,70.2,0,0,1,7.476,16.841,43.915,43.915,0,0,1,1.641,16.113,32.12,32.12,0,0,1-1.623,7.564,35.4,35.4,0,0,1-3.491,7.336,45.361,45.361,0,0,1-5.527,7.188c-.578.579-1.125,1.178-1.723,1.763-.621.574-1.208,1.171-1.853,1.746l-1.881,1.665c-.481.446-1,.874-1.513,1.3a35.6,35.6,0,0,1-7.02,4.361c-.318.157-.644.3-.969.447l-1.079.446c-.733.291-1.477.575-2.245.832-1.532.522-3.135.99-4.82,1.392a82.519,82.519,0,0,1-23.526,1.652q-3.276-.166-6.638-.54t-6.8-.9c-4.575-.7-9.229-1.59-13.925-2.625-9.4-2.067-18.94-4.711-28.7-7.561l-3.5-1.028c-1.13-.33-2.265-.693-3.408-1.041-2.284-.73-4.579-1.477-6.9-2.277-4.632-1.583-9.339-3.291-14.118-5.049-9.568-3.5-19.512-7.158-30.158-10.132a150.7,150.7,0,0,0-33.828-5.788c-1.468-.078-2.953-.09-4.423-.126-1.489.013-2.939,0-4.447.044l-2.245.06c-.746.032-1.488.084-2.23.126-1.485.07-2.955.23-4.421.363A128.511,128.511,0,0,0,993.2,321.87a172.235,172.235,0,0,0-30.964,10.994,215.146,215.146,0,0,0-27.308,15.18,265.811,265.811,0,0,0-24.244,18.008Z" transform="translate(105 -31.744)" fill="#fdb74d"/>
      <g id="Grupo_132441" data-name="Grupo 132441" transform="translate(1237.891 254.745)">
        <g id="Grupo_132440" data-name="Grupo 132440" transform="translate(0 0)">
          <path id="Trazado_188105" data-name="Trazado 188105" d="M1685.816,492.063l-.322.289a.394.394,0,0,1-.555-.014l-5.7-6.29a.39.39,0,0,1,.043-.552l.321-.289a.4.4,0,0,1,.556.014l5.7,6.29A.39.39,0,0,1,1685.816,492.063Z" transform="translate(-1679.142 -459.348)" fill="#13375b"/>
          <path id="Trazado_188106" data-name="Trazado 188106" d="M1707.467,490.11c-.762-.622-6.656,1.973-6.582,2.877s-4.113,9.662-4.113,9.662l-7.237-5.79,0,0c-.064-.209-.75-2.461-.784-2.864-.035-.422-1.258-1.162-1.826-1.053s.486.824.555.955c.188.357-.54.491-.54.491s-2.091-1.151-2.136-1.829-.476-2.1-.928-1.8c-.233.153-.231,1.16-.158,1.638-.135-.543-.325-1.155-.51-1.216-.338-.111-.506.321-.445.533s.608,2.515.773,2.774,3.539,2.983,4.026,3.576c0,0,9.361,10.737,10.027,11.019.584.246,2.67-3.454,4.64-5.911S1709.848,492.053,1707.467,490.11Z" transform="translate(-1681.459 -462.505)" fill="#f7a491"/>
          <path id="Trazado_188107" data-name="Trazado 188107" d="M1803.308,704.72s1.286,1.26,1.315,1.722.114,5.414-.411,5.876-2.068.79-1.572,1.31c.375.393,3.258.309,5.169.2.558-.031,1.257-4.5,1.478-5.153.321-.953,1.1-3.1.809-3.765a5.569,5.569,0,0,0-1.78-1.61,8.777,8.777,0,0,1-1.972-2.107Z" transform="translate(-1758.413 -598.163)" fill="#f48c7f"/>
          <path id="Trazado_188108" data-name="Trazado 188108" d="M1758.725,719.127s1.151,3.263,1.153,3.271c.085.517.423,1.794.423,2.264,0,1.766-7.935-1.5-6.157-2.281a1.887,1.887,0,0,0,.719-1.237,4.141,4.141,0,0,0-.669-2.087Z" transform="translate(-1727.155 -609.638)" fill="#f7a491"/>
          <g id="Grupo_132437" data-name="Grupo 132437" transform="translate(16.985 48.73)">
            <path id="Trazado_188109" data-name="Trazado 188109" d="M1728.775,549.353s-.579,5.849-.579,5.936c0,9.462-1.869,27.945-1.514,29.724.867,4.339,10.2,26.474,10.2,26.474l5.045-.605-6.574-26.5,2.419-10.667,3.423-21.085Z" transform="translate(-1726.637 -549.353)" fill="#355389"/>
            <path id="Trazado_188110" data-name="Trazado 188110" d="M1752.164,556.026l.957,5.544,2.59,22.817,9.863,22.3s-1.388,3.245-3.434,3.7l-15.7-22.9-9.751-29.3.342-6.509Z" transform="translate(-1733.096 -550.852)" fill="#13375b"/>
          </g>
          <path id="Trazado_188111" data-name="Trazado 188111" d="M1726.988,482.9l7,.716s.321-5.754.321-8.5c0-3.33-.283-7.62-.683-7.528a6.093,6.093,0,0,0-3.542,2.126C1726.958,474.023,1726.988,482.9,1726.988,482.9Z" transform="translate(-1709.877 -448.101)" fill="#948fd1"/>
          <path id="Trazado_188112" data-name="Trazado 188112" d="M1731.5,474.137c-.147,1.015-2.836,28.619-2.836,28.619,12.737,6.172,19.766,1.1,19.766,1.1s-.417-19.384.083-22.022c.33-1.745.742-13.345-.385-13.669a28.139,28.139,0,0,0-4.913-1.048c-1.543-.161-7.538-.254-8.611.108A13.722,13.722,0,0,0,1731.5,474.137Z" transform="translate(-1710.957 -447.704)" fill="#948fd1"/>
          <path id="Trazado_188113" data-name="Trazado 188113" d="M1807.326,707s-2.964,8.376-4.125,8.78c-.308.107-1.787.379-2.066,1.036a2.843,2.843,0,0,0,0,.858h6.179s.781-3.691,1.09-5.312c0,0,1.636-3.961,1.454-4.321S1807.326,707,1807.326,707Z" transform="translate(-1757.485 -601.892)" fill="#184655"/>
          <path id="Trazado_188114" data-name="Trazado 188114" d="M1749.707,731.186l-.909-2.88a7.873,7.873,0,0,1-2.863.675,28.872,28.872,0,0,1-2.817-.675c-3.809,1.258-6.929,1.868-6.361,2.88h12.949Z" transform="translate(-1716.11 -615.579)" fill="#184655"/>
          <g id="Grupo_132438" data-name="Grupo 132438" transform="translate(15.276 39.379)">
            <path id="Trazado_188115" data-name="Trazado 188115" d="M1722.712,530.4a1.628,1.628,0,0,1-.193-.143c.227-2.7.186-5.325-.66-6.211.02-.043.205-.437.4-.846.98.761,1.446,2.782,1.263,6.063a5.606,5.606,0,0,1-.129.68C1723.107,530.26,1722.849,530.463,1722.712,530.4Z" transform="translate(-1721.859 -523.205)" fill="#f7a491"/>
          </g>
          <path id="Trazado_188116" data-name="Trazado 188116" d="M1796.124,514.64a.779.779,0,0,0,0-.178c-.188-1.911-1.77-17.964-2.036-18.646-.241-.616-7.335-10.8-7.335-10.8l-3.487,4.767,6.823,9.132c.153.58,2.614,11.416,2.614,11.416s.5,1.975.731,3.158c-.1.285-.2.554-.294.775a7.158,7.158,0,0,1-.735,1.185,8.128,8.128,0,0,0-.872,1.546c-.072.279-.2.858-.276,1.208s-.175.757-.192.947a1.841,1.841,0,0,1-.22.508.305.305,0,0,0,.359.441c.248-.083.441-.4.56-.605.335-.566.515-1.6.6-1.546s.378,1.809.425,2.007a21.74,21.74,0,0,0,.6,2.608c.2.372.463.31.533.077.06-.2-.22-3.051-.22-3.051s-.035-.364.124-.25.418,2.7.529,3.079.362.579.575.275c.26-.37-.187-3.115-.187-3.115s-.05-.345.1-.313.331,2.237.445,2.428a.289.289,0,0,0,.54-.059,13.6,13.6,0,0,0-.258-2.821s.021-.195.112-.13.382,1.933.572,2.106a.2.2,0,0,0,.292,0c.347-.238-.186-2.015-.18-2.9a21.907,21.907,0,0,1-.281-2.929C1796.089,514.9,1796.11,514.742,1796.124,514.64Z" transform="translate(-1746.031 -459.296)" fill="#f8a492"/>
          <path id="Trazado_188117" data-name="Trazado 188117" d="M1786.739,482.039l-6.06,4.083a65.953,65.953,0,0,0-5.249-6.915c-2.3-2.274.837-9.242,2.317-8.848C1781.057,471.24,1786.739,482.039,1786.739,482.039Z" transform="translate(-1740.472 -449.868)" fill="#948fd1"/>
          <path id="Trazado_188118" data-name="Trazado 188118" d="M1758.539,450.046l.906,5.995s-3.31,7.138-5.286,6.519c-1.658-.519-.638-6.835-.638-6.835a17.358,17.358,0,0,0,.633-5.089C1753.882,448.938,1758.539,450.046,1758.539,450.046Z" transform="translate(-1726.722 -436.601)" fill="#f7a491"/>
          <path id="Trazado_188119" data-name="Trazado 188119" d="M1755.639,450.636c-.271-1.7,4.385-.589,4.385-.589l.075.5a2.767,2.767,0,0,1-.5.836,6.122,6.122,0,0,1-4.072,1.849A9.29,9.29,0,0,0,1755.639,450.636Z" transform="translate(-1728.208 -436.602)" fill="#f47458"/>
          <g id="Grupo_132439" data-name="Grupo 132439" transform="translate(24.629)">
            <path id="Trazado_188120" data-name="Trazado 188120" d="M1755.964,423.606c.131-.048,1.055,6.828-.7,8.719s-5.166,2.511-6.39,1.021c-1.355-1.648-1.286-9.038,1.438-10.984S1755.964,423.606,1755.964,423.606Z" transform="translate(-1748.013 -418.642)" fill="#f7a491"/>
            <path id="Trazado_188121" data-name="Trazado 188121" d="M1753.1,413.132a7.56,7.56,0,0,1,3.971,2.272c.956.113,2.255.643,3.6,2.873a5.587,5.587,0,0,1-1.489,7.268,4.347,4.347,0,0,0-1.894,3.211l-.3-.89a4.987,4.987,0,0,1-.241-2.1,4.1,4.1,0,0,1,.311-1.261c.462-1-.992-1.656-1.4-2.484-.314-.638-.329-2.1-.824-3.15l-.591-.8a3.749,3.749,0,0,0-2.7-.764C1750.2,417.606,1750.4,412.579,1753.1,413.132Z" transform="translate(-1749.76 -413.089)" fill="#1a1447"/>
            <path id="Trazado_188122" data-name="Trazado 188122" d="M1764.731,438.793c-.014.839.366,1.526.849,1.534s.885-.665.9-1.5-.366-1.526-.849-1.534S1764.745,437.954,1764.731,438.793Z" transform="translate(-1758.752 -428.635)" fill="#f7a491"/>
          </g>
        </g>
      </g>
      <g id="Grupo_132463" data-name="Grupo 132463" transform="translate(1099.141 166.594)">
        <path id="Trazado_188123" data-name="Trazado 188123" d="M1367.781,335.827l54.491-98.272,31.676,86.521Zm53.988-91.8-49.02,88.4,77.515-10.572Z" transform="translate(-1340.379 -212.178)" fill="#5038a1"/>
        <g id="Grupo_132447" data-name="Grupo 132447" transform="translate(76.748 73.002)">
          <circle id="Elipse_5289" data-name="Elipse 5289" cx="28.769" cy="28.769" r="28.769" transform="translate(9.058 7.8)" fill="#fff"/>
          <g id="Grupo_132443" data-name="Grupo 132443" transform="translate(0.043)">
            <g id="Grupo_132442" data-name="Grupo 132442">
              <path id="Trazado_188124" data-name="Trazado 188124" d="M1506.164,403.033l-.271,4.32a3.4,3.4,0,0,0,2.085,3.35l3.172,1.322a2.841,2.841,0,0,1,1.676,2.024,30.335,30.335,0,0,0,2.245,6.547,2.843,2.843,0,0,1-.082,2.63l-1.7,2.992a3.4,3.4,0,0,0,.407,3.925l2.863,3.246a3.4,3.4,0,0,0,3.842.895l3.181-1.31a2.844,2.844,0,0,1,2.619.248,30.337,30.337,0,0,0,6.214,3.047,2.842,2.842,0,0,1,1.8,1.916l.914,3.313a3.4,3.4,0,0,0,3.063,2.487l4.32.271a3.4,3.4,0,0,0,3.35-2.085l1.322-3.172a2.84,2.84,0,0,1,2.023-1.675,30.334,30.334,0,0,0,6.547-2.245,2.843,2.843,0,0,1,2.63.082l2.992,1.7a3.4,3.4,0,0,0,3.924-.407l3.246-2.863a3.4,3.4,0,0,0,.9-3.843l-1.309-3.181a2.842,2.842,0,0,1,.248-2.619,30.35,30.35,0,0,0,3.047-6.214,2.841,2.841,0,0,1,1.915-1.8l3.313-.914a3.4,3.4,0,0,0,2.488-3.063l.271-4.32a3.4,3.4,0,0,0-2.084-3.35l-3.172-1.322a2.841,2.841,0,0,1-1.676-2.024,30.326,30.326,0,0,0-2.245-6.547,2.843,2.843,0,0,1,.082-2.63l1.7-2.991a3.4,3.4,0,0,0-.406-3.925l-2.863-3.246a3.4,3.4,0,0,0-3.843-.895l-3.181,1.31a2.843,2.843,0,0,1-2.619-.248,30.346,30.346,0,0,0-6.214-3.047,2.841,2.841,0,0,1-1.8-1.916l-.914-3.313a3.4,3.4,0,0,0-3.063-2.487l-4.32-.271a3.4,3.4,0,0,0-3.35,2.084l-1.322,3.172a2.842,2.842,0,0,1-2.024,1.675,30.348,30.348,0,0,0-6.547,2.245,2.843,2.843,0,0,1-2.629-.082l-2.992-1.7a3.4,3.4,0,0,0-3.925.407l-3.247,2.863a3.4,3.4,0,0,0-.895,3.843l1.31,3.181a2.844,2.844,0,0,1-.248,2.619,30.332,30.332,0,0,0-3.046,6.214,2.842,2.842,0,0,1-1.916,1.8l-3.312.914A3.4,3.4,0,0,0,1506.164,403.033Zm11.637.356a25.188,25.188,0,1,1,20.747,28.957A25.189,25.189,0,0,1,1517.8,403.389Z" transform="translate(-1505.886 -370.727)" fill="#5038a1"/>
            </g>
          </g>
          <g id="Grupo_132446" data-name="Grupo 132446" transform="translate(0 3.421)">
            <g id="Grupo_132445" data-name="Grupo 132445" clip-path="url(#clip-path)">
              <g id="Grupo_132444" data-name="Grupo 132444" transform="translate(6.912 3.248)">
                <path id="Trazado_188125" data-name="Trazado 188125" d="M1525.47,435.849a.411.411,0,0,1,.765-.015c.532,1.272,1.707,3.46,3.669,4.043.1.029.193.06.284.091a.953.953,0,0,0-.224-.84c-.69-.811.2-2.149.2-2.149a2.71,2.71,0,0,0,1.094,1.621,2.606,2.606,0,0,1,.921,2.841c-.515,4.036-1.372,9.4,4.973,12.434s13.241-8.906,13.241-8.906l-2.468,13.523s-5.745,5.469-13.938-.176-4.512-15.822-4.512-15.822S1523.573,440.936,1525.47,435.849Z" transform="translate(-1525.094 -419.057)" fill="url(#linear-gradient)"/>
                <path id="Trazado_188126" data-name="Trazado 188126" d="M1590.207,396.047s-2.66-7.415,6.333-6.494c0,0,4.154-1.226,4.873,2.75,0,0,2.961,1.458,1.395,5.174,0,0,7.731-4.16,12.167,2.517s1.674,11.005-1.609,12.455a3.424,3.424,0,0,1,2.024,4.339c-.914,3.3-7.262,6.34-11.656,3.021,0,0-10.952,2.872-11.718-5.022,0,0-5.6-2.694-.977-9.879S1590.207,396.047,1590.207,396.047Z" transform="translate(-1566.281 -389.375)" fill="#1a1447"/>
                <path id="Trazado_188127" data-name="Trazado 188127" d="M1587.667,455.892a12.081,12.081,0,0,1,12.108,1.515,3.035,3.035,0,0,1,1.245,2.892c-.7,4.973-2.362,19.614,1.433,25.381,0,0-4.587,6.54-10.992,2.539,0,0-4.035-11.033-8.076-15.59-2.79-3.147,2.133-13.4,3.392-15.889A1.827,1.827,0,0,1,1587.667,455.892Z" transform="translate(-1561.998 -431.477)" fill="#9e4ce5"/>
                <path id="Trazado_188128" data-name="Trazado 188128" d="M1601.061,429.227s3.52,7.019,4.123,10.235a5.6,5.6,0,0,1-5.687-.2s-1.206-7.3-1.782-8.564Z" transform="translate(-1571.744 -414.975)" fill="url(#linear-gradient-2)"/>
                <path id="Trazado_188129" data-name="Trazado 188129" d="M1588.287,401.9s-5.6,10.359-1.19,12.61,8.393-5.113,8.393-5.113.922-5.4-.948-6.959S1588.287,401.9,1588.287,401.9Z" transform="translate(-1563.837 -397.211)" fill="url(#linear-gradient-3)"/>
                <path id="Trazado_188130" data-name="Trazado 188130" d="M1595.534,394.415s-3.027,1.132-3.287,2.6,4.767,2.165,6.138,2.057l1.814,5.56s2.571-5.768.9-8.7S1595.534,394.415,1595.534,394.415Z" transform="translate(-1568.225 -392.392)" fill="#1a1447"/>
                <path id="Trazado_188131" data-name="Trazado 188131" d="M1609.678,418.208s2.259-3.394,3.561-1.53-1.94,3.794-3.251,2.963Z" transform="translate(-1579.429 -406.555)" fill="url(#linear-gradient-4)"/>
                <path id="Trazado_188132" data-name="Trazado 188132" d="M1626.127,463.635s9.163,5.851,12.406,15.014S1627.72,490.6,1627.72,490.6s-2.2-1.908-4.385-.854-.648-3.73,2.027-4.054,1.7,1.946,5.27-.243c3.475-2.132,5.1-7.582-5.282-14.225a4.294,4.294,0,0,1-1.454-1.535C1621.492,465.315,1622.562,462.119,1626.127,463.635Z" transform="translate(-1587.533 -436.833)" fill="url(#linear-gradient-5)"/>
              </g>
            </g>
          </g>
        </g>
        <g id="Grupo_132454" data-name="Grupo 132454" transform="translate(0 82.035)">
          <circle id="Elipse_5290" data-name="Elipse 5290" cx="30.805" cy="30.805" r="30.805" transform="translate(7.204 6.702)" fill="#fff"/>
          <g id="Grupo_132448" data-name="Grupo 132448">
            <path id="Trazado_188134" data-name="Trazado 188134" d="M1291.445,429.383l-.281,4.466a3.513,3.513,0,0,0,2.155,3.463l3.279,1.366a2.938,2.938,0,0,1,1.732,2.092,31.352,31.352,0,0,0,2.321,6.768,2.939,2.939,0,0,1-.085,2.718l-1.755,3.093a3.514,3.514,0,0,0,.421,4.057l2.959,3.356a3.513,3.513,0,0,0,3.973.925l3.288-1.354a2.941,2.941,0,0,1,2.708.256,31.381,31.381,0,0,0,6.424,3.15,2.94,2.94,0,0,1,1.859,1.98l.945,3.425a3.513,3.513,0,0,0,3.166,2.571l4.466.281a3.514,3.514,0,0,0,3.463-2.155l1.366-3.279a2.938,2.938,0,0,1,2.092-1.732,31.357,31.357,0,0,0,6.768-2.321,2.941,2.941,0,0,1,2.719.085l3.093,1.755a3.514,3.514,0,0,0,4.057-.421l3.356-2.959a3.514,3.514,0,0,0,.925-3.973l-1.354-3.288a2.94,2.94,0,0,1,.256-2.708,31.351,31.351,0,0,0,3.149-6.424,2.937,2.937,0,0,1,1.98-1.859l3.425-.946a3.513,3.513,0,0,0,2.571-3.166l.281-4.466a3.514,3.514,0,0,0-2.155-3.463l-3.28-1.366a2.938,2.938,0,0,1-1.732-2.092,31.372,31.372,0,0,0-2.321-6.768,2.941,2.941,0,0,1,.085-2.719l1.755-3.093a3.513,3.513,0,0,0-.421-4.057l-2.959-3.356a3.513,3.513,0,0,0-3.973-.925l-3.288,1.354a2.94,2.94,0,0,1-2.707-.256,31.369,31.369,0,0,0-6.424-3.15,2.936,2.936,0,0,1-1.859-1.98l-.945-3.424a3.514,3.514,0,0,0-3.166-2.572l-4.466-.28a3.513,3.513,0,0,0-3.463,2.155l-1.366,3.279a2.937,2.937,0,0,1-2.092,1.732,31.376,31.376,0,0,0-6.768,2.321,2.939,2.939,0,0,1-2.718-.085l-3.093-1.755a3.513,3.513,0,0,0-4.057.421l-3.356,2.96a3.513,3.513,0,0,0-.925,3.972l1.354,3.288a2.941,2.941,0,0,1-.256,2.707,31.369,31.369,0,0,0-3.15,6.424,2.937,2.937,0,0,1-1.98,1.859l-3.425.945A3.512,3.512,0,0,0,1291.445,429.383Zm12.03.368a26.039,26.039,0,1,1,21.447,29.935A26.039,26.039,0,0,1,1303.475,429.751Z" transform="translate(-1291.158 -395.986)" fill="#37297c"/>
          </g>
          <g id="Grupo_132453" data-name="Grupo 132453" transform="translate(2.555 3.545)">
            <g id="Grupo_132452" data-name="Grupo 132452" clip-path="url(#clip-path-2)">
              <g id="Grupo_132451" data-name="Grupo 132451" transform="translate(16.793 4.469)">
                <path id="Trazado_188135" data-name="Trazado 188135" d="M1439.317,540.425a4.678,4.678,0,0,0,5.466.585l.967,2.192s-.971,4.847-5.834,5.286a5.872,5.872,0,0,1-1.431-.053C1436.23,544.919,1437.9,542.008,1439.317,540.425Z" transform="translate(-1404.437 -496.785)" fill="url(#linear-gradient-6)"/>
                <path id="Trazado_188136" data-name="Trazado 188136" d="M1420.4,524.424l2.322-13.833c.092.144,1.971,7.677,5.685,10.669-1.414,1.583-3.087,4.494-.832,8.01C1423.645,528.66,1420.4,524.424,1420.4,524.424Z" transform="translate(-1393.53 -477.62)" fill="#5038a1"/>
                <path id="Trazado_188137" data-name="Trazado 188137" d="M1367.663,487.894a46.937,46.937,0,0,1,19.6-1.271c1.153.165,4.135,6.382,3.691,10.7-.752,7.316-4.744,19.6-4.887,19.634-4.6,1.223-19.773.191-19.773.191Z" transform="translate(-1358.769 -461.917)" fill="#5038a1"/>
                <path id="Trazado_188138" data-name="Trazado 188138" d="M1393.707,458.911l.477,7.412a1.608,1.608,0,0,0,1.116,1.459,10.621,10.621,0,0,0,6.831-.134,1.062,1.062,0,0,0,.575-1.3l-3.529-11.334Z" transform="translate(-1376.381 -441.917)" fill="url(#linear-gradient-7)"/>
                <g id="Grupo_132449" data-name="Grupo 132449" transform="translate(11.148)">
                  <path id="Trazado_188139" data-name="Trazado 188139" d="M1394.614,434.065s3.975,4.01,5.1,6.489,2.309,3.911-.422,5.558a6.68,6.68,0,0,1-8.082-.858s-3.6-3.075-3.753-4.85S1394.614,434.065,1394.614,434.065Z" transform="translate(-1383.514 -428.461)" fill="url(#linear-gradient-8)"/>
                  <path id="Trazado_188140" data-name="Trazado 188140" d="M1384.427,432.985l.37-.144s-2.741-2.537-1.614-3.607,6.017-4.216,6.431-6.545a3.759,3.759,0,0,0-3.226-4.294.211.211,0,0,0-.215.19l-.033.278a.213.213,0,0,1-.381.1.212.212,0,0,0-.378.084c-.132.7-.726,1.985-3.091,3.444-3.355,2.071-5.177,4.461-4.265,6.982a.213.213,0,0,1-.244.283c-.33-.059-.786.031-1.171.732-.668,1.22.578,3.227,3.445,4.163a.212.212,0,0,1,.114.323c-.295.41-.645,1.249,1.194,1.472a4.356,4.356,0,0,0,3.082-.445.214.214,0,0,0,.071-.264l-1-2.16a.213.213,0,0,1,.116-.288Z" transform="translate(-1376.433 -418.395)" fill="#1a1447"/>
                  <path id="Trazado_188141" data-name="Trazado 188141" d="M1393.69,457.217s-2-2.772-3.046-1.371,2.059,3.176,3.215,2.86Z" transform="translate(-1385.426 -442.199)" fill="url(#linear-gradient-9)"/>
                </g>
                <g id="Grupo_132450" data-name="Grupo 132450" transform="translate(0 25.977)">
                  <path id="Trazado_188142" data-name="Trazado 188142" d="M1354.219,512.346c-.463-3.269,2.922-8.073,4.322-9.9a3.031,3.031,0,0,0,.63-1.817,10.459,10.459,0,0,0-5.017-9.6s-11.3,13.168-8.425,23.3a8.526,8.526,0,0,0,1.4,2.839C1347.585,513.355,1352,512.522,1354.219,512.346Z" transform="translate(-1345.26 -491.035)" fill="#5038a1"/>
                  <path id="Trazado_188143" data-name="Trazado 188143" d="M1370.127,531.349l-.431-.049c.365-3.205,3.178-7.162,4.37-8.715l.344.264C1373.24,524.373,1370.48,528.251,1370.127,531.349Z" transform="translate(-1360.957 -511.302)" fill="#37297c"/>
                  <path id="Trazado_188144" data-name="Trazado 188144" d="M1357.668,551.079a3.76,3.76,0,0,1-.088-.452c-2.223.176-6.634,1.008-7.088,4.825,5.044,6.671,18.947,4.264,18.947,4.264v-2.6S1358.762,555.137,1357.668,551.079Z" transform="translate(-1348.621 -529.316)" fill="url(#linear-gradient-10)"/>
                </g>
                <path id="Trazado_188145" data-name="Trazado 188145" d="M1399.736,569.527s.756-5.184,5.67-3.126c3.693,1.547,3.333,2.843,3.333,2.843Z" transform="translate(-1380.255 -513.161)" fill="url(#linear-gradient-11)"/>
                <rect id="Rectángulo_43894" data-name="Rectángulo 43894" width="7.416" height="18.601" rx="2.651" transform="translate(34.995 31.887) rotate(7.645)" fill="#9e4ce5"/>
                <path id="Trazado_188146" data-name="Trazado 188146" d="M1457.758,530.495s-2.094-1.288-3.477-.313c-1.318.929.831,6.53,1.605,7.077S1459.3,533.46,1457.758,530.495Z" transform="translate(-1415.025 -489.971)" fill="url(#linear-gradient-12)"/>
              </g>
            </g>
          </g>
        </g>
        <g id="Grupo_132462" data-name="Grupo 132462" transform="translate(39.582)">
          <circle id="Elipse_5291" data-name="Elipse 5291" cx="28.769" cy="28.769" r="28.769" transform="translate(7.043 7.172)" fill="#fff"/>
          <g id="Grupo_132456" data-name="Grupo 132456">
            <g id="Grupo_132455" data-name="Grupo 132455">
              <path id="Trazado_188148" data-name="Trazado 188148" d="M1470.768,195.077l-3.226-.891a2.767,2.767,0,0,1-1.866-1.751,29.552,29.552,0,0,0-2.968-6.053,2.768,2.768,0,0,1-.241-2.551l1.276-3.1a3.311,3.311,0,0,0-.872-3.743l-3.162-2.788a3.31,3.31,0,0,0-3.823-.4l-2.914,1.654a2.77,2.77,0,0,1-2.561.08,29.556,29.556,0,0,0-6.377-2.186,2.768,2.768,0,0,1-1.971-1.632l-1.287-3.09a3.31,3.31,0,0,0-3.263-2.03l-4.208.264a3.31,3.31,0,0,0-2.983,2.423l-.891,3.226a2.768,2.768,0,0,1-1.751,1.866,29.545,29.545,0,0,0-6.053,2.968,2.77,2.77,0,0,1-2.551.241l-3.1-1.276a3.31,3.31,0,0,0-3.743.872l-2.788,3.162a3.31,3.31,0,0,0-.4,3.823l1.653,2.914a2.771,2.771,0,0,1,.08,2.561,29.544,29.544,0,0,0-2.186,6.377,2.768,2.768,0,0,1-1.632,1.971l-3.09,1.287a3.31,3.31,0,0,0-2.03,3.263l.264,4.208a3.31,3.31,0,0,0,2.423,2.983l3.226.891a2.767,2.767,0,0,1,1.866,1.751,29.557,29.557,0,0,0,2.967,6.053,2.768,2.768,0,0,1,.241,2.551l-1.276,3.1a3.31,3.31,0,0,0,.872,3.743l3.162,2.788a3.31,3.31,0,0,0,3.823.4l2.914-1.654a2.77,2.77,0,0,1,2.561-.08,29.549,29.549,0,0,0,6.377,2.186,2.768,2.768,0,0,1,1.971,1.632l1.287,3.089a3.31,3.31,0,0,0,3.263,2.031l4.207-.264a3.311,3.311,0,0,0,2.983-2.423l.891-3.226a2.768,2.768,0,0,1,1.751-1.866,29.537,29.537,0,0,0,6.053-2.968,2.77,2.77,0,0,1,2.551-.241l3.1,1.276a3.311,3.311,0,0,0,3.743-.872l2.788-3.162a3.311,3.311,0,0,0,.4-3.823l-1.654-2.914a2.77,2.77,0,0,1-.08-2.561,29.544,29.544,0,0,0,2.187-6.377,2.767,2.767,0,0,1,1.632-1.971l3.089-1.287a3.31,3.31,0,0,0,2.031-3.263l-.264-4.207A3.31,3.31,0,0,0,1470.768,195.077Zm-29.119,31.534a24.534,24.534,0,1,1,20.208-28.2A24.534,24.534,0,0,1,1441.649,226.611Z" transform="translate(-1401.839 -166.594)" fill="#948fd1"/>
            </g>
          </g>
          <g id="Grupo_132461" data-name="Grupo 132461" transform="translate(8.27 8.332)">
            <g id="Grupo_132460" data-name="Grupo 132460" clip-path="url(#clip-path-3)">
              <g id="Grupo_132459" data-name="Grupo 132459" transform="translate(3.004 -0.213)">
                <path id="Trazado_188149" data-name="Trazado 188149" d="M1502.111,253.6s10.6,19.174,25.795,20.562l.81,2.284s-20.934,4.088-31.658-13.157Z" transform="translate(-1474.279 -230.604)" fill="#ce8d38"/>
                <path id="Trazado_188150" data-name="Trazado 188150" d="M1582.19,309.635a1.469,1.469,0,0,1,1.26-2.128c.052,0,.106,0,.162,0a8.857,8.857,0,0,0,4.269-.667.48.48,0,0,1,.679.119c.185.3.039.806-1.655,1.545,0,0,3.749,1.461,6.767.026,2.942-1.4-1.309,6.006-10.26,2.453a1.961,1.961,0,0,1-1.03-.958Z" transform="translate(-1528.868 -264.749)" fill="url(#linear-gradient-13)"/>
                <path id="Trazado_188151" data-name="Trazado 188151" d="M1469.172,280.618s9.83-26.929,2.091-33.046c0,0-11.6-1.871-20.032,1.327l.962,24.695S1458.383,284.474,1469.172,280.618Z" transform="translate(-1444.842 -226.383)" fill="#ce8d38"/>
                <path id="Trazado_188152" data-name="Trazado 188152" d="M1481.9,220.748a32.343,32.343,0,0,0-1.89,6.537,1.934,1.934,0,0,1-1.606,1.649c-1.8.3-4.786.466-6.6-1.191a1.358,1.358,0,0,1-.357-1.459c.748-2.094,4.637-10.813,6.756-12.15Z" transform="translate(-1457.774 -205.252)" fill="url(#linear-gradient-14)"/>
                <g id="Grupo_132457" data-name="Grupo 132457" transform="translate(0 22.516)">
                  <path id="Trazado_188153" data-name="Trazado 188153" d="M1447.892,307.878c0,.016,0,.032,0,.048-.032,4.554,6.127,4.989,6.127,4.989s1.761-2.928,4.021-3.024,5.4,3.586,5.4,3.586l-5.015.8s-9.564,5.737-16.119-1.078C1443.461,308.958,1446.222,308.031,1447.892,307.878Z" transform="translate(-1439.105 -287.988)" fill="url(#linear-gradient-15)"/>
                  <path id="Trazado_188154" data-name="Trazado 188154" d="M1439.753,252.26c6.214,2.2,5.315,7.083,5.315,7.083s-2.867,8.243-2.918,12.807c-1.67.153-4.431,1.08-5.59,5.325-.156-.162-.31-.328-.462-.5C1428.263,267.893,1439.753,252.26,1439.753,252.26Z" transform="translate(-1433.363 -252.26)" fill="#ce8d38"/>
                  <path id="Trazado_188155" data-name="Trazado 188155" d="M1457.5,286.508a.242.242,0,0,0,.242-.239c.039-3.551,1.809-9.378,2.568-11.718a.242.242,0,1,0-.46-.149c-.766,2.361-2.551,8.244-2.591,11.862a.242.242,0,0,0,.239.244Z" transform="translate(-1448.713 -266.376)" fill="#ed7d2b"/>
                </g>
                <g id="Grupo_132458" data-name="Grupo 132458" transform="translate(17.427)">
                  <path id="Trazado_188156" data-name="Trazado 188156" d="M1500.973,202.607c0,.182-4.069,11.52-4.069,11.52l-6.424-2.461,2.26-11.319S1500.973,199.557,1500.973,202.607Z" transform="translate(-1487.48 -196.336)" fill="url(#linear-gradient-16)"/>
                  <path id="Trazado_188157" data-name="Trazado 188157" d="M1488.887,196.066l-1.656,5.865a.826.826,0,0,0-.032.229c0,.478.118,2.124,1.794,1.9a7.658,7.658,0,0,1,3.8.051.851.851,0,0,1,.439,1.057,36.772,36.772,0,0,1-2.314,5.223.849.849,0,0,1-1.092.349,27.44,27.44,0,0,1-5.508-3.24.853.853,0,0,1-.3-.818c.281-1.5,1.12-6.064,1.157-7.371.035-1.228-1.343-2.165-1.949-2.517a.837.837,0,0,1-.394-.529,2.207,2.207,0,0,1,1.929-2.972.852.852,0,0,0,.692-1.014,2.211,2.211,0,0,1,1.663-2.847,3.118,3.118,0,0,1,3.555,1.419.852.852,0,0,0,1.056.282.674.674,0,0,1,.755.135.838.838,0,0,0,1.227-.187,2.542,2.542,0,0,1,3.133-1.035c2.9.939,2.764,4.285,1.7,6.1s-4.153.622-5.615-.583c-1.112-.917-2.8-.368-3.552-.053A.843.843,0,0,0,1488.887,196.066Z" transform="translate(-1482.501 -189.298)" fill="#1a1447"/>
                  <path id="Trazado_188158" data-name="Trazado 188158" d="M1484.506,214.7s1.393-3.291.257-4.311-2.72-.67-2.669,1.871C1482.159,215.424,1484.506,214.7,1484.506,214.7Z" transform="translate(-1482.094 -202.506)" fill="url(#linear-gradient-17)"/>
                </g>
              </g>
            </g>
          </g>
        </g>
      </g>
      <g id="Grupo_132467" data-name="Grupo 132467" transform="translate(911.611 198.587)">
        <path id="Trazado_188160" data-name="Trazado 188160" d="M1178.932,696.543h-1.553l5.789-30.081,1.292.246Z" transform="translate(-1126.312 -519.693)" fill="#0e2e35"/>
        <g id="Grupo_132464" data-name="Grupo 132464" transform="translate(18.882 47.033)">
          <path id="Trazado_188161" data-name="Trazado 188161" d="M1133.773,450.637a16.894,16.894,0,0,0-1.521-8.087,6.793,6.793,0,0,0-6.065-3.482c-7.584-.01-8.548,10.087-13.376,13.982-1.475,1.19-3.124,2.159-4.52,3.443-5.154,4.739-2.833,13.512,1.9,17.667,3.284,2.883,8.445,4.521,12.493,2.267a12.793,12.793,0,0,0,4.86-5.275,72.5,72.5,0,0,0,3.821-9.791A36.778,36.778,0,0,0,1133.773,450.637Z" transform="translate(-1098.937 -420.652)" fill="#1a1447"/>
          <path id="Trazado_188162" data-name="Trazado 188162" d="M1105.953,418.7s-5.57-10.018-6.925-12.147-4.885-10.592-5.011-10.925,2.431-4.338,1.86-4.475-1.2,2.111-1.811,1.843-2.388-5.681-2.735-5.413c-.649.5.959,3.358.613,3.538s-1.395-3.142-2.075-3.044,1.293,3.044,1.1,3.3-2.238-2.516-2.609-1.924c-.2.322,1.883,2.424,1.483,2.62s-2.254-1.16-2.45-.769,1.714.927,2.286,1.982,1.545,1.511,1.949,3.464,1.008,9.022,3.078,12.549,6.623,11.332,6.623,11.332Z" transform="translate(-1087.381 -387.572)" fill="#f79c8d"/>
          <path id="Trazado_188163" data-name="Trazado 188163" d="M1194.895,544.825l-8.66-6.629s-.871-6.184-2.038-11.672c-1.461.414-2.78,1.564-4.243,1.965l2.2,12.29,11.351,5.876,3.206,4.134.729-4.244Z" transform="translate(-1146.848 -476.832)" fill="#f48c7f"/>
          <path id="Trazado_188164" data-name="Trazado 188164" d="M1179.243,496.533c-2.369-7.21-5.018-6.9-5.018-6.9l2.049,15.158c1.463-.4,3.367-1.295,4.829-1.709A66.291,66.291,0,0,0,1179.243,496.533Z" transform="translate(-1143.168 -453.131)" fill="#948fd1"/>
          <path id="Trazado_188165" data-name="Trazado 188165" d="M1113.1,720.858s-.534,3.727-1.453,4.93a9.521,9.521,0,0,0-1.242,1.644,4.861,4.861,0,0,0,.167,3.758c.218.478-.015.477.481.631a3.045,3.045,0,0,0,3.66-1.728,8.81,8.81,0,0,0,.718-3.176,11.553,11.553,0,0,1,1.2-5.1Z" transform="translate(-1101.97 -601.669)" fill="#f7a491"/>
          <path id="Trazado_188166" data-name="Trazado 188166" d="M1162.377,725.625a35.33,35.33,0,0,1,.062,5.568c-.143.732-.942,2.237-.575,2.925a1.843,1.843,0,0,0,.785.86l9.492.154c.517.008.176-.326-.241-.635a19.107,19.107,0,0,0-3.413-1.9c-.142-.069-.66-.4-.847-.515a6.6,6.6,0,0,1-1.358-1.206c-.681-.763-.741-4.464-.741-4.464Z" transform="translate(-1135.166 -604.731)" fill="#f7a491"/>
          <path id="Trazado_188167" data-name="Trazado 188167" d="M1167.93,567.521s1.2,6.824.411,11.3-4.552,45.94-4.552,45.94L1159.6,625s-.878-17.321-.721-19.73a37.536,37.536,0,0,1,1.4-6.44l-.417-13.985,5.283-18.372Z" transform="translate(-1133.299 -502.492)" fill="#13375b"/>
          <path id="Trazado_188168" data-name="Trazado 188168" d="M1128.762,562.617s-3.3,4.99-4.081,9.119.576,16.82-.934,22.231c-.817,2.929-3.915,7.453-4.385,11.238s-2.318,13.7-2.318,13.7l4.185.834,9.725-24.763,7.628-22.382,1.954-11.527Z" transform="translate(-1106.435 -499.023)" fill="#355389"/>
          <path id="Trazado_188169" data-name="Trazado 188169" d="M1145.737,485.987s-4.364-.279-6.091,1.613,3.83,16.865,4.144,19.273-1.6,8.814-1.6,8.814,10.253,2.075,13.183.125c0,0,.314-17.321,0-19.042s-2.93-8.718-3.558-9.406S1145.737,485.987,1145.737,485.987Z" transform="translate(-1120.741 -450.783)" fill="#d4cff9"/>
          <path id="Trazado_188170" data-name="Trazado 188170" d="M1158.461,469.438s-.023.129-.063.349a33.436,33.436,0,0,1-1.45,5.518c-.612,1.163,2.095,4.873,4.7,4.42.775-.135-.655-3.408-.587-3.755.132-.664.31-1.569.493-2.5l.305-1.554c.279-1.418.506-2.578.506-2.578Z" transform="translate(-1132.013 -440.098)" fill="#f7a491"/>
          <path id="Trazado_188171" data-name="Trazado 188171" d="M1160.948,469.787c.04-.22.063-.349.063-.349l3.9-.1-.506,2.578-.3,1.545a3.65,3.65,0,0,1-1.864-.94,4.957,4.957,0,0,1-1.412-2.111C1160.877,470.165,1160.917,469.951,1160.948,469.787Z" transform="translate(-1134.562 -440.098)" fill="#f47458"/>
          <path id="Trazado_188172" data-name="Trazado 188172" d="M1161,444.646a3.506,3.506,0,0,0-2.993,1.286c-1.153,1.5-2.4,6.139.469,8.66s5.695-.333,6.114-3.359S1165.17,444.537,1161,444.646Z" transform="translate(-1131.922 -424.229)" fill="#f7a491"/>
          <path id="Trazado_188173" data-name="Trazado 188173" d="M1178.272,459.988c-.342.668-.916,1.039-1.282.827s-.385-.926-.043-1.594.916-1.039,1.281-.827S1178.614,459.32,1178.272,459.988Z" transform="translate(-1144.759 -433.029)" fill="#f7a491"/>
          <path id="Trazado_188174" data-name="Trazado 188174" d="M1158.112,443.194s-2.458,4.411-4.216,4.615-1.989,2.548-1.989,2.548.628-5.4,2.369-6.442A6.435,6.435,0,0,1,1158.112,443.194Z" transform="translate(-1128.831 -423.273)" fill="#0e2e35"/>
          <path id="Trazado_188175" data-name="Trazado 188175" d="M1114.419,741.133a4.666,4.666,0,0,1-4.588-1.927,5.087,5.087,0,0,0-.436,3.77c.375.824,1.473.8,2.337.832a2.256,2.256,0,0,0,2.074-1.276A7.694,7.694,0,0,0,1114.419,741.133Z" transform="translate(-1101.391 -613.455)" fill="#9e4ce5"/>
          <path id="Trazado_188176" data-name="Trazado 188176" d="M1167.6,743.3a8.546,8.546,0,0,1-5.4-.214,4.41,4.41,0,0,0-.434,2.272c.231.676.558.829.849.836,2.293.061,8.4.143,10.148.166a.288.288,0,0,0,.222-.472C1172.547,745.37,1167.788,743.418,1167.6,743.3Z" transform="translate(-1135.128 -615.95)" fill="#9e4ce5"/>
          <path id="Trazado_188177" data-name="Trazado 188177" d="M1155.455,457.046c.143.783-.145,1.5-.642,1.6s-1.017-.449-1.16-1.232.145-1.5.642-1.6S1155.312,456.263,1155.455,457.046Z" transform="translate(-1129.929 -431.402)" fill="#f7a491"/>
          <path id="Trazado_188178" data-name="Trazado 188178" d="M1127.151,465.536s6.161,6.663,7.077,9.348-.893,6.526-3.391,6.694-8.057-11.826-8.057-11.826Z" transform="translate(-1110.12 -437.655)" fill="#948fd1"/>
        </g>
        <g id="Grupo_132465" data-name="Grupo 132465">
          <path id="Trazado_188179" data-name="Trazado 188179" d="M1128.334,279.959h-79.586a4.986,4.986,0,0,0-4.977,4.994v32.955a4.986,4.986,0,0,0,4.977,4.995h62.658c2.536,3.55,7.134,9.909,7.54,9.909.38,0-.352-6.006-.867-9.909h10.256a4.986,4.986,0,0,0,4.978-4.995V284.953A4.986,4.986,0,0,0,1128.334,279.959Z" transform="translate(-1040.484 -271.411)" fill="#daeef7" opacity="0.3" style="mix-blend-mode: multiply;isolation: isolate"/>
          <path id="Trazado_188180" data-name="Trazado 188180" d="M1119.145,256.055h-79.587a4.986,4.986,0,0,0-4.978,4.995v32.955a4.986,4.986,0,0,0,4.978,4.994h62.658c2.536,3.55,7.134,9.909,7.539,9.909.38,0-.352-6.005-.867-9.909h10.256a4.986,4.986,0,0,0,4.978-4.994V261.05A4.986,4.986,0,0,0,1119.145,256.055Z" transform="translate(-1034.581 -256.055)" fill="#948fd1"/>
          <rect id="Rectángulo_43895" data-name="Rectángulo 43895" width="39.239" height="2.176" rx="0.778" transform="translate(8.23 10.685)" fill="#fff"/>
          <rect id="Rectángulo_43896" data-name="Rectángulo 43896" width="16.904" height="2.176" rx="0.778" transform="translate(8.23 16.427)" fill="#fff"/>
          <path id="Rectángulo_43897" data-name="Rectángulo 43897" d="M.777,0H51.83a.778.778,0,0,1,.778.778V1.4a.777.777,0,0,1-.777.777H.777A.777.777,0,0,1,0,1.4V.777A.777.777,0,0,1,.777,0Z" transform="translate(27.04 16.427)" fill="#fff"/>
          <rect id="Rectángulo_43898" data-name="Rectángulo 43898" width="28.327" height="2.176" rx="0.778" transform="translate(51.48 10.685)" fill="#fff"/>
          <rect id="Rectángulo_43899" data-name="Rectángulo 43899" width="71.577" height="2.176" rx="0.778" transform="translate(8.23 27.68)" fill="#fff"/>
          <path id="Rectángulo_43900" data-name="Rectángulo 43900" d="M.777,0H36.2a.778.778,0,0,1,.778.778V1.4a.778.778,0,0,1-.778.778H.778A.778.778,0,0,1,0,1.4V.777A.777.777,0,0,1,.777,0Z" transform="translate(8.23 22.168)" fill="#fff"/>
          <rect id="Rectángulo_43901" data-name="Rectángulo 43901" width="32.453" height="2.176" rx="0.778" transform="translate(47.354 22.168)" fill="#fff"/>
        </g>
        <path id="Trazado_188181" data-name="Trazado 188181" d="M1291.475,696.408l1.291-.246-5.58-29.7-1.292.246Z" transform="translate(-1196.02 -519.693)" fill="#0e2e35"/>
        <path id="Trazado_188182" data-name="Trazado 188182" d="M1258.461,696.543h-1.553l5.789-30.081,1.291.246Z" transform="translate(-1177.4 -519.693)" fill="#0e2e35"/>
        <path id="Trazado_188183" data-name="Trazado 188183" d="M1211.278,696.786l1.261.015-5.55-29.962-1.292.246Z" transform="translate(-1144.503 -519.935)" fill="#0e2e35"/>
        <path id="Trazado_188184" data-name="Trazado 188184" d="M1196.894,552.946c-5.114.55-11.733,1.129-18.377,12.443-7.262,12.365-3.439,30.836,2.292,35.969s24.451,11.47,40.187,1.982c0,0,9.5-5.749,4.625-15.292-7.5-14.685-6.444-17.747-9.8-23.5S1207.75,551.78,1196.894,552.946Z" transform="translate(-1124.484 -446.69)" fill="#fae0b2"/>
        <path id="Trazado_188185" data-name="Trazado 188185" d="M1178.517,567.193c4.535-7.722,9.058-10.443,13.1-11.568a33.974,33.974,0,0,0-4.733,6.412c-7.262,12.365-3.439,30.836,2.292,35.968,5.083,4.552,20.38,10.049,34.752,4.619a14.622,14.622,0,0,1-2.93,2.519c-15.736,9.488-34.456,3.15-40.187-1.982S1171.255,579.558,1178.517,567.193Z" transform="translate(-1124.484 -448.493)" fill="#f7cc7f"/>
        <path id="Trazado_188186" data-name="Trazado 188186" d="M1278.137,605.732l1.314,3.957-4.006-1.581Z" transform="translate(-1189.308 -480.681)" fill="#f79c8d"/>
        <path id="Trazado_188187" data-name="Trazado 188187" d="M1266.831,572.8c.267.011,1,.256,2.069,2.278,1.367,2.583,3.364,10.385,3.364,10.385l-5.962,2.22-.766-1.629-1.261-12.537S1266.757,572.8,1266.831,572.8Z" transform="translate(-1182.132 -459.53)" fill="#d4cff9"/>
        <path id="Trazado_188188" data-name="Trazado 188188" d="M1230.391,569.66a36.4,36.4,0,0,1,7.881,1.125s1.438,12.363-1.3,21.756c-.612,2.1.506,8.717.506,8.717l-17.667-.233s2.093-15.99,1.3-18.573-.807-11.584-.807-11.584.121-.019,3.969-.684A40.016,40.016,0,0,1,1230.391,569.66Z" transform="translate(-1153.573 -457.509)" fill="#e8e7f7"/>
        <path id="Trazado_188189" data-name="Trazado 188189" d="M1234.609,722.18s.391,4.511,1.109,5.76-.038,3.373-.076,3.664-1.513.708-3.858.458-2.307-.791-2.118-1.666,1.437-2,1.513-2.831a21.743,21.743,0,0,0-.719-3.831Z" transform="translate(-1159.849 -555.485)" fill="#f7a491"/>
        <path id="Trazado_188190" data-name="Trazado 188190" d="M1234.948,647.11s12.2-.677,14.919.972-.492,5.036-.492,5.036-9.928,4.316-26.55,5.276c-3.936.227-4.275-10.263-3.539-11.131S1234.948,647.11,1234.948,647.11Z" transform="translate(-1153.031 -507.084)" fill="#37297c"/>
        <path id="Trazado_188191" data-name="Trazado 188191" d="M1231.234,743.246c-2.415-.257-2.116-1.443-1.921-2.344a7.973,7.973,0,0,1,1.228-1.857,4.022,4.022,0,0,0,1.615.785c1.089.322,2.582-.315,3.533-.714a11.682,11.682,0,0,1,.323,3.115C1235.973,742.532,1233.649,743.5,1231.234,743.246Z" transform="translate(-1159.592 -566.319)" fill="#37297c"/>
        <path id="Trazado_188192" data-name="Trazado 188192" d="M1222.041,656.052c.487,3.687,2.9,22.041,2.9,22.041l-5.6.694s-6.883-23.956-6.531-27.621,2.93-3.973,2.93-3.973S1220.751,646.292,1222.041,656.052Z" transform="translate(-1149.065 -507.301)" fill="#5038a1"/>
        <path id="Trazado_188193" data-name="Trazado 188193" d="M1215.72,576.848c1.652-.62,2.46,14.263,2.683,20.389a71.992,71.992,0,0,0,9.293-.093c.6-.045,1.974-.549,2.568-.627a5.963,5.963,0,0,1,1.459-.069,27.591,27.591,0,0,1,3.42,1.54c.323.339,1.2,1.194,1.05,1.564s-1.682-1.031-1.682-1.031l-.75-.421c.933.912,2.714,2.113,2.458,2.55s-1.856-.792-3-1.623c.982.887,2.2,2.474,1.921,2.721-.252.222-1.64-1.615-3.123-2.144-.549-.2-1.1.347-1.529.412a3.107,3.107,0,0,1-1.12.063l-1.605-.455c-.547.049-.561.373-1.113.49-.641.137-1.693.28-2.51.48-4.7,1.149-6.27,1.682-7.709,1.682C1212.07,602.273,1211.817,578.313,1215.72,576.848Z" transform="translate(-1149.172 -462.115)" fill="#f7a491"/>
        <path id="Trazado_188194" data-name="Trazado 188194" d="M1211.688,588.322c-.309-6.275-.264-14.009,3.254-15.329,1.388-.521,3.834,2.61,3.395,15.456A26.426,26.426,0,0,1,1211.688,588.322Z" transform="translate(-1148.275 -459.616)" fill="#d4cff9"/>
        <path id="Trazado_188195" data-name="Trazado 188195" d="M1256.606,608.414h-.358l-5.39,13.246.371-.057Z" transform="translate(-1173.513 -482.404)" fill="#f79c8d"/>
        <path id="Trazado_188196" data-name="Trazado 188196" d="M1281.519,732.969a3.049,3.049,0,0,0,.386,2.6c.874,1.036,4.509,2.052,4.986,2.612a1.572,1.572,0,0,1,.441,1.039l-10.2-.281.111-3.08.47-2.214Z" transform="translate(-1190.391 -562.416)" fill="#f7a491"/>
        <path id="Trazado_188197" data-name="Trazado 188197" d="M1281.514,741.266s-2.621,1.06-3.887.432-1.228-.8-1.594-.568-.5,3.122-.5,3.122l11.469.337c.8-.019,1.2-.606.553-1.109a9.313,9.313,0,0,0-1.251-.743A35.852,35.852,0,0,0,1281.514,741.266Z" transform="translate(-1189.366 -567.595)" fill="#37297c"/>
        <path id="Trazado_188198" data-name="Trazado 188198" d="M1281.486,650.451c.788-1.659,2.581-3.819,5.736-2.518,3.009,1.241,3.817,4.29,2.867,7.413s-7.2,21.479-7.417,24l-4.99.033s.907-14.535,1.129-18.048A34.024,34.024,0,0,1,1281.486,650.451Z" transform="translate(-1190.745 -507.534)" fill="#5038a1"/>
        <path id="Trazado_188199" data-name="Trazado 188199" d="M1252.62,608.414h-16.68a1.087,1.087,0,0,0-1.006.677L1229.8,621.66h-9.2a.466.466,0,0,0-.466.467h0a.466.466,0,0,0,.466.467h26.172a1.827,1.827,0,0,0,1.667-1.083l5.172-11.559A1.091,1.091,0,0,0,1252.62,608.414Z" transform="translate(-1153.778 -482.404)" fill="#1a1447"/>
        <path id="Trazado_188200" data-name="Trazado 188200" d="M1282.61,626.694a.918.918,0,1,1-.688-1.2A.982.982,0,0,1,1282.61,626.694Z" transform="translate(-1192.75 -493.365)" fill="#fff"/>
        <g id="Grupo_132466" data-name="Grupo 132466" transform="translate(71.497 95.773)">
          <path id="Trazado_188201" data-name="Trazado 188201" d="M1243.792,525.143a12.793,12.793,0,0,1-1.475-.591,7.4,7.4,0,0,0-1.683-.634,4.056,4.056,0,0,0-3.413.91c-1.1,1.194-3.055.216-2.661,6.466.446,7.075,4.38,6.3,4.475,6.179s3.509-4.527,3.509-4.527,1.193,2.611,1.193,2.515S1249.831,527.176,1243.792,525.143Z" transform="translate(-1234.508 -523.864)" fill="#0e2e35"/>
          <path id="Trazado_188202" data-name="Trazado 188202" d="M1244.86,556.229l.339,2.528s.761,3.643-.218,4.345-4.162-4.448-4.162-4.448l.336-6.406Z" transform="translate(-1238.562 -542.097)" fill="#f7a491"/>
          <path id="Trazado_188203" data-name="Trazado 188203" d="M1241.455,554.322a7.255,7.255,0,0,0,4.1,4.049l-.288-2.144-3.7-3.982Z" transform="translate(-1238.97 -542.096)" fill="#f47458"/>
          <path id="Trazado_188204" data-name="Trazado 188204" d="M1243.877,532.676a3.371,3.371,0,0,1,3.883,3.409,25.677,25.677,0,0,1-.284,3.243c-.451,2.919-2.442,5.488-3.759,5.259s-4.63-2.747-4.046-6.9C1240.031,535.122,1241.7,533.027,1243.877,532.676Z" transform="translate(-1237.78 -529.497)" fill="#f7a491"/>
          <path id="Trazado_188205" data-name="Trazado 188205" d="M1238.908,545.745a.981.981,0,1,1-.746-1.327A1.086,1.086,0,0,1,1238.908,545.745Z" transform="translate(-1236.104 -537.06)" fill="#f7a491"/>
          <path id="Trazado_188206" data-name="Trazado 188206" d="M1239.359,535.115s1.592.4,2.183-.628,2.7-3.233,5.389-2.317-2.363-2.227-2.578-2.227-2.793-.018-2.793-.018-1.987,1.635-2.059,1.815-.645,2.138-.645,2.138Z" transform="translate(-1237.302 -527.757)" fill="#0e2e35"/>
        </g>
      </g>
    </g>
  </g>
</svg>
