<svg xmlns="http://www.w3.org/2000/svg" width="66.968" height="66.926" viewBox="0 0 66.968 66.926">
  <g id="Grupo_132686" data-name="Grupo 132686" transform="translate(913.391 -803.312)">
    <path id="Trazado_188006" data-name="Trazado 188006" d="M-804.4,803.312c1.6.292,3.226.484,4.794.9a21.116,21.116,0,0,1,9.776,5.778,21.676,21.676,0,0,1,6.025,11.581,22.231,22.231,0,0,1-10.958,23.451,20.043,20.043,0,0,1-6.774,2.458c-.68.111-.948.365-.841,1.043a4.227,4.227,0,0,1,0,.849c-.021.446-.015.791.537,1.014a1.284,1.284,0,0,1,.552,1c.034,4.836.063,9.673,0,14.509a4.4,4.4,0,0,1-4.487,4.341,4.414,4.414,0,0,1-4.383-4.443c-.04-4.771-.012-9.542-.017-14.313a1.173,1.173,0,0,1,.823-1.26.489.489,0,0,0,.258-.362c.025-.715.012-1.43.012-2.034-1.818-.572-3.606-.988-5.277-1.687a21.769,21.769,0,0,1-11.559-11.086,21.559,21.559,0,0,1-1.99-11.633,21.858,21.858,0,0,1,6.637-13.767,21.762,21.762,0,0,1,10.97-5.843c1.081-.226,2.188-.332,3.282-.494Zm-1.318,2.249a20.142,20.142,0,0,0-20.078,20.086,20.112,20.112,0,0,0,20.043,20.046,20.048,20.048,0,0,0,20.088-20.039A20.076,20.076,0,0,0-805.714,805.561Zm-2.136,46.88c-.036.074-.071.112-.071.15,0,4.459-.022,8.917.009,13.376a2,2,0,0,0,1.454,1.9,2.226,2.226,0,0,0,2.972-2.273c.011-4.22,0-8.439,0-12.659,0-.165-.031-.33-.047-.494Zm3.217-4.5H-806.8v2.172h2.165Z" transform="translate(-74.189)" fill="#5038a1"/>
    <path id="Trazado_188007" data-name="Trazado 188007" d="M-580.016,1135.712h-2.245c0-.637,0-1.237,0-1.836a3.414,3.414,0,0,0-2.881-3.713c-1.621-.419-3.248-.817-4.871-1.23-.948-.241-1.166-.523-1.181-1.508,0-.283.026-.569-.006-.849a2.228,2.228,0,0,1,1.167-2.449,2.475,2.475,0,0,0,1.064-2.271c0-2.286.038-4.575-.074-6.856a4.373,4.373,0,0,0-4.365-3.958,4.339,4.339,0,0,0-4.38,3.86c-.123,2.473-.057,4.957-.017,7.436a2.3,2.3,0,0,0,1.222,1.971,1.683,1.683,0,0,1,.925,1.776c-.043.453,0,.914-.009,1.371-.011.944-.237,1.236-1.143,1.466q-2.34.593-4.683,1.175c-2.219.55-3.093,1.658-3.094,3.941,0,.538,0,1.077,0,1.644h-2.134c-.426-3.284.275-6.009,3.343-7.3a32.823,32.823,0,0,1,4.2-1.167c.273-.073.55-.134.822-.21a.543.543,0,0,0,.24-1,5.572,5.572,0,0,1-2.025-4.86c.062-2.2-.094-4.414.144-6.589a6.174,6.174,0,0,1,4.69-5.454,6.341,6.341,0,0,1,6.952,2.089,6.558,6.558,0,0,1,1.625,4.5q.01,3.006,0,6.011a5.288,5.288,0,0,1-1.933,4.25.975.975,0,0,0-.262.721c.008.131.312.3.509.356,1.43.378,2.882.675,4.3,1.1a5.384,5.384,0,0,1,4,4.593,1.1,1.1,0,0,0,.1.233Z" transform="translate(-266.407 -265.474)" fill="#5038a1"/>
    <path id="Trazado_188008" data-name="Trazado 188008" d="M-886.59,1135.789h-2.228c0-.6,0-1.2,0-1.8a3.413,3.413,0,0,0-2.878-3.715c-1.643-.424-3.291-.824-4.935-1.242-.849-.216-1.1-.543-1.127-1.429-.009-.37.03-.744-.008-1.11a1.994,1.994,0,0,1,1.076-2.169,2.085,2.085,0,0,0,1.085-1.772c.045-2.568.127-5.143-.024-7.7a4.333,4.333,0,0,0-4.336-3.7c-2.078-.016-4.2,1.589-4.341,3.6-.175,2.555-.085,5.13-.054,7.7a2.285,2.285,0,0,0,1.225,1.968,1.681,1.681,0,0,1,.922,1.778c-.045.475,0,.958-.01,1.437a1.193,1.193,0,0,1-1.081,1.386q-2.372.6-4.748,1.186c-2.215.547-3.084,1.654-3.085,3.945,0,.522,0,1.044,0,1.618h-2.139c-.516-3.658.625-6.782,4.642-7.71,1-.23,1.984-.493,2.975-.741.253-.063.507-.125.758-.2a.545.545,0,0,0,.238-1,5.591,5.591,0,0,1-2.029-4.859c.049-1.916-.027-3.834.023-5.75a6.705,6.705,0,0,1,8.849-6.229,6.577,6.577,0,0,1,4.477,5.869c.092,2.435.054,4.878,0,7.315a4.841,4.841,0,0,1-1.772,3.517,1.247,1.247,0,0,0-.369.8c0,.124.388.32.627.384,1.24.329,2.489.625,3.734.935a5.6,5.6,0,0,1,4.523,5.5C-886.561,1134.326-886.59,1135.04-886.59,1135.789Z" transform="translate(0 -265.587)" fill="#5038a1"/>
    <path id="Trazado_188009" data-name="Trazado 188009" d="M-850.331,805.3l1.231,1.805a24.375,24.375,0,0,0-9.348,12.276,24.333,24.333,0,0,0-.2,15.436l-2.055.661A26.58,26.58,0,0,1-850.331,805.3Z" transform="translate(-44.636 -1.732)" fill="#5038a1"/>
    <path id="Trazado_188010" data-name="Trazado 188010" d="M-500.032,912.382l2.094-.675a25.831,25.831,0,0,1,1.188,10.375,26.271,26.271,0,0,1-4.592,12.868l-1.828-1.246a24.465,24.465,0,0,0,4.03-10.326A24.637,24.637,0,0,0-500.032,912.382Z" transform="translate(-356.492 -94.198)" fill="#5038a1"/>
    <path id="Trazado_188011" data-name="Trazado 188011" d="M-843.754,1047.033l1.033,2.131-1.955,1.07-1.121-2.314Z" transform="translate(-58.741 -211.8)" fill="#5038a1"/>
    <path id="Trazado_188012" data-name="Trazado 188012" d="M-733.178,876.177H-735.4c0-.247,0-.478,0-.709,0-1.568.014-3.136-.007-4.7a3.221,3.221,0,0,0-2.423-3.185c-1.718-.476-3.455-.883-5.184-1.317-1.074-.269-1.289-.534-1.293-1.619a6.232,6.232,0,0,0,0-.718,2.256,2.256,0,0,1,1.17-2.507,2.491,2.491,0,0,0,1.055-2.275c.012-2.112.036-4.225-.005-6.337a4.448,4.448,0,0,0-4.446-4.453,4.428,4.428,0,0,0-4.441,4.446c-.04,2.112-.014,4.225-.008,6.337a2.794,2.794,0,0,0,1.406,2.562,1.548,1.548,0,0,1,.825,1.57c-.031.477,0,.958-.007,1.437-.007.96-.262,1.3-1.173,1.53q-2.4.608-4.81,1.2a3.4,3.4,0,0,0-2.938,3.719c-.006,1.652,0,3.3,0,5h-2.236c0-1.229-.014-2.442,0-3.654a15.274,15.274,0,0,1,.13-2.8,5.4,5.4,0,0,1,4.186-4.354c1.365-.367,2.742-.687,4.108-1.048.181-.048.458-.2.468-.322a.889.889,0,0,0-.221-.676,5.422,5.422,0,0,1-1.986-4.613c.049-2.046-.025-4.095.029-6.141a6.675,6.675,0,0,1,8.9-6.045,6.71,6.71,0,0,1,4.435,6.181c.025,2.2.019,4.4,0,6.6a5.127,5.127,0,0,1-1.823,3.9,1.342,1.342,0,0,0-.356.806c-.011.095.363.285.584.344,1.448.391,2.921.7,4.351,1.145a5.381,5.381,0,0,1,3.921,5.2C-733.144,872.486-733.178,874.294-733.178,876.177Z" transform="translate(-133.364 -37.199)" fill="#5038a1"/>
    <path id="Trazado_188013" data-name="Trazado 188013" d="M-723.322,1056.326h-2.152v-5.472h2.152Z" transform="translate(-163.305 -215.121)" fill="#5038a1"/>
    <path id="Trazado_188014" data-name="Trazado 188014" d="M-606.373,1050.74h2.135v5.472h-2.135Z" transform="translate(-266.807 -215.022)" fill="#5038a1"/>
  </g>
</svg>
