<svg xmlns="http://www.w3.org/2000/svg" width="70.355" height="70.229" viewBox="0 0 70.355 70.229">
  <g id="Grupo_132716" data-name="Grupo 132716" transform="translate(505 -643)">
    <path id="Trazado_188509" data-name="Trazado 188509" d="M-477.243,643a.957.957,0,0,0,.231.121,6.26,6.26,0,0,1,4.323,3.3q7.4,13.33,14.822,26.65c.61,1.1,1.219,2.193,1.856,3.34-8.3,2.329-13.533,7.61-15.654,15.967h-26.715a6.178,6.178,0,0,1-6.518-5.1,1.859,1.859,0,0,0-.1-.249v-1.783c.732-1.51,1.406-3.051,2.207-4.524,1.93-3.55,3.92-7.068,5.886-10.6q6.562-11.791,13.117-23.587a6.36,6.36,0,0,1,4.461-3.423c.059-.012.109-.072.163-.109Zm1.1,22.7c0-1.369.012-2.738,0-4.106a2.063,2.063,0,0,0-2.037-2.135,2.061,2.061,0,0,0-2.078,2.163q-.016,4,0,8.007a2.063,2.063,0,0,0,2.072,2.17,2.073,2.073,0,0,0,2.045-2.2C-476.136,668.3-476.144,667-476.144,665.7Zm-2.078,14.328a2.081,2.081,0,0,0,2.076-2.021,2.08,2.08,0,0,0-2.007-2.089,2.079,2.079,0,0,0-2.11,2.055A2.08,2.08,0,0,0-478.222,680.029Z" fill="#5038a1"/>
    <path id="Trazado_188510" data-name="Trazado 188510" d="M-268.021,864.59c-.213,1-.368,2.016-.647,3a16.466,16.466,0,0,1-16.759,11.935,16.494,16.494,0,0,1-15.324-13.647,16.458,16.458,0,0,1,18-19.148,16.434,16.434,0,0,1,14.608,14.391,3.1,3.1,0,0,0,.124.454Zm-14.428-3.566c0-1.363,0-2.618,0-3.874a2.087,2.087,0,0,0-2.09-2.3,2.088,2.088,0,0,0-2.03,2.287q-.007,2.845,0,5.689a2.089,2.089,0,0,0,2.287,2.307q2.85.009,5.7,0a2.09,2.09,0,0,0,2.315-2.072,2.1,2.1,0,0,0-2.345-2.041C-279.867,861.022-281.121,861.024-282.449,861.024Z" transform="translate(-166.624 -166.317)" fill="#5038a1"/>
  </g>
</svg>
