<svg xmlns="http://www.w3.org/2000/svg" width="79.488" height="80" viewBox="0 0 79.488 80">
  <g id="Grupo_132688" data-name="Grupo 132688" transform="translate(938.189 -250.414)">
    <path id="Trazado_188020" data-name="Trazado 188020" d="M-858.749,330.414H-931.43a5.444,5.444,0,0,1-4.241-5.159h-2.513c0-3.8-.018-7.495.012-11.191a15.772,15.772,0,0,1,.264-3.1,16.981,16.981,0,0,1,11.93-13.407.742.742,0,0,0,.622-.875A6.6,6.6,0,0,0-927.5,291.9c-1.27-1.159-2.559-2.3-3.828-3.456a19.57,19.57,0,0,1-6.5-18.731,19.965,19.965,0,0,1,18.871-16.187c2.708-.044,5.421-.1,8.126,0,3.283.121,6.322-.268,8.45-3.114,3.724,3.066,5.812,6.743,5.043,11.713,6.692-3.691,13.649-4.583,20.865-2.239a24.934,24.934,0,0,1,15.548,13.979,25.659,25.659,0,0,1-11.482,33.091,25.724,25.724,0,0,1-35.468-12.414h-4.663c0,.77.04,1.473-.013,2.168-.039.525.183.705.646.853a17.222,17.222,0,0,1,12.186,16.624c.013,3.438,0,6.875,0,10.313,0,.228-.02.457-.036.783h-2.419l-.683,2.513h5.694V317.643h7.683v.875c0,2.865,0,5.73.006,8.594,0,.3-.153.739.408.745.7.007,1.392,0,2.185,0V312.516h7.692v15.3h2.541v-5.021h7.728V327.8h2.552V307.389h7.657v.994q0,9.181,0,18.361C-858.717,327.968-858.737,329.191-858.749,330.414Zm-66.526-56.457c1.159-3.534,3.3-5.087,6.981-5.088,3.281,0,6.563.036,9.844-.013a8.574,8.574,0,0,0,8.663-7.882,8.391,8.391,0,0,0-2.57-7,10.7,10.7,0,0,1-6.953,2.088c-2.889-.062-5.781-.015-8.672-.014a16.723,16.723,0,0,0-7.207,1.482c-6.336,2.983-9.927,7.989-10.393,14.97-.483,7.236,3.266,12.375,8.85,16.5a7.36,7.36,0,0,0,1.345-4.649c-3.594-.81-5.268-2.67-5.1-5.6C-930.34,276.158-928.354,274.315-925.275,273.957Zm12.812,10.281h7.522c.265-.778-.247-1.6.49-2.208.6-.492,1.149-1.05,1.766-1.621-2.409-2.855-2.233-6.194-2.168-9.308-1.783.124-3.459.31-5.138.341-2.993.055-5.989,0-8.983.024a3.8,3.8,0,0,0-3.843,3.805c-.013.408,0,.816,0,1.3-.875,0-1.652-.018-2.427,0a2.6,2.6,0,0,0-2.7,2.55,2.573,2.573,0,0,0,2.753,2.56c.772.008,1.544,0,2.319,0,.191,3.181.158,6.2-1.781,8.849a.707.707,0,0,0-.007.658,9.423,9.423,0,0,1,1.853,6.153,1.047,1.047,0,0,0,.223.7c1.171,1.216,2.372,2.4,3.6,3.637,1.253-1.248,2.471-2.456,3.68-3.671a.548.548,0,0,0,.16-.338c.012-1.03.007-2.06.007-3.189h-5.033v-2.6h12.242C-911.518,290.042-912.886,287.827-912.463,284.239Zm7.083,9.424c.073.18.15.4.248.605A23.16,23.16,0,0,0-880.492,307a23.1,23.1,0,0,0,19.057-25.567,23.063,23.063,0,0,0-28.244-19.6c-4.08.977-7.813,2.7-10.571,6.058a4.031,4.031,0,0,1-1.091,1,1.9,1.9,0,0,0-.983,2.063c.073,1.011.017,2.031.017,3.048a20.916,20.916,0,0,1,24.881-9.058,20.571,20.571,0,0,1,13.559,20.231,20.627,20.627,0,0,1-15.3,18.953c-8.682,2.346-20.124-1.722-24.3-12.207Zm9.38-4.233a12.767,12.767,0,0,0,14.3,7.383,12.875,12.875,0,0,0,10.132-13.575,12.9,12.9,0,0,0-11.383-11.725c-5.6-.53-11.961,3.17-13,7.57h9.066v-3.523l13.932,8.7-13.974,8.728v-3.562Zm-5.521-.046c.1.338.145.537.21.73A18.026,18.026,0,0,0-882.3,302.1a17.96,17.96,0,0,0,15.6-21.03A17.98,17.98,0,0,0-882.7,266.381a17.969,17.969,0,0,0-18.222,11.02,1.353,1.353,0,0,0,.545,1.717,1.419,1.419,0,0,0,1.812-.713,15.485,15.485,0,0,1,16.45-9.372,15.4,15.4,0,0,1,13.08,16.636,15.38,15.38,0,0,1-20.323,13.119,15.36,15.36,0,0,1-9.276-8.818c-.1-.236-.376-.537-.595-.558C-899.951,289.34-900.681,289.384-901.521,289.384Zm-27.115,12.253a1.323,1.323,0,0,0-.225.048,1.436,1.436,0,0,0-.2.12,13.731,13.731,0,0,0-6.37,10.186c-.344,3.482-.148,7.017-.188,10.528,0,.045.041.09.073.155h5.086V312.513h2.533v15.3h5.87c-1.095-1.081-2.034-2.039-3.011-2.957a.957.957,0,0,1-.3-1.087c1.168-4.584,2.267-9.186,3.483-13.757a3.107,3.107,0,0,0-.628-2.887l-3.576,2.127Zm26.269,21.074a5.207,5.207,0,0,0,.057-.524c0-2.889.042-5.78-.028-8.668a14.152,14.152,0,0,0-4.656-10.226c-.665-.632-1.432-1.157-2.251-1.809l-2.6,7.762-3.621-2.151a3.432,3.432,0,0,0-.647,2.665c1.138,4.241,2.094,8.532,3.277,12.76a2.634,2.634,0,0,1-.947,3.274,14.067,14.067,0,0,0-1.555,1.534,4.944,4.944,0,0,0-.358.465h5.723v-15.3h2.58v10.22Zm.062-35.873h17.914c.024.508.045.951.071,1.5l6.529-4.081-6.535-4.078c-.028.584-.049,1.012-.072,1.5h-.9c-4.449,0-8.9.094-13.346-.051a3.886,3.886,0,0,0-3.412,1.66.987.987,0,0,0-.235.544C-902.318,284.8-902.3,285.754-902.3,286.838Zm-16.662,40.508c1.185-1.194,2.348-2.344,3.475-3.527a.886.886,0,0,0,.106-.707q-1.559-6.316-3.163-12.621c-.053-.209-.259-.38-.394-.568-.147.175-.379.329-.43.529q-1.608,6.344-3.164,12.7a.922.922,0,0,0,.168.736C-921.277,325.038-920.149,326.153-918.967,327.346Zm57.658.478V309.956h-2.45v17.868Zm-20.507-.012V315.1h-2.5v12.713Zm-10.279.014v-7.615h-2.433v7.615Zm-28.944-24.588c-1.135-1.137-2.192-2.206-3.267-3.257a.583.583,0,0,0-.475-.121c-.513.137-1.013.324-1.568.508l1.692,5.041Zm4.128-.011,3.648,2.187,1.676-5.046a14.32,14.32,0,0,0-1.448-.461.849.849,0,0,0-.664.159C-914.752,301.068-915.774,302.1-916.912,303.227Zm12.053-16.345h-4.783c.156,1.235,1.859,2.357,2.969,2.466,1.662.164,1.811.057,1.814-1.627C-904.858,287.463-904.859,287.2-904.859,286.882Zm30.816,40.931h2.45v-2.485h-2.45Zm-58.95-2.5a2.278,2.278,0,0,0,2.425,2.435v-2.435Zm25.627,2.476a2.342,2.342,0,0,0,2.424-2.467h-2.424Zm-10.3-21.953c-1.345-.981-1.528-.974-2.55.067.506.4.257,1.442,1.268,1.422C-917.965,307.3-918.185,306.288-917.67,305.832Z" fill="#5038a1"/>
  </g>
</svg>
