<svg xmlns="http://www.w3.org/2000/svg" width="80.081" height="80" viewBox="0 0 80.081 80">
  <g id="Grupo_132687" data-name="Grupo 132687" transform="translate(447.468 -19.581)">
    <path id="Trazado_188015" data-name="Trazado 188015" d="M-416.32,23.017V19.581h18.055v3.431a47.56,47.56,0,0,1,11.125,3.723,44.154,44.154,0,0,1,8.274,5.13,2.69,2.69,0,0,0,1.832.606c3.224-.032,6.448-.014,9.727-.014V50.495h-17.961V32.469h2.569a40.689,40.689,0,0,0-15.535-6.8V37.579h-18.052V25.673a43.7,43.7,0,0,0-19.264,9.343h6.269V53.065h-17.992V35.041c2.144,0,4.263-.054,6.378.023a3.327,3.327,0,0,0,2.559-.984,45.257,45.257,0,0,1,21.118-10.844C-416.956,23.178-416.7,23.109-416.32,23.017Zm-24.893,20.154,1.487,1.708,6.292-7.2h-11.241V50.493h12.806V39.828l-7.514,8.572-3.515-3.5Zm63.494-.9,6.281-7.183h-11.253V47.915h12.783V37.276l-7.508,8.568-3.4-3.413,1.664-1.86Zm-35.97-20.126v12.83h12.8V24.342l-7.487,8.548-3.489-3.47,1.722-1.828,1.4,1.805,6.335-7.249Z" transform="translate(-0.153)" fill="#5038a1"/>
    <path id="Trazado_188016" data-name="Trazado 188016" d="M-243.654,127.392h2.482v2.5h-2.482Z" transform="translate(-159.869 -84.566)" fill="#5038a1"/>
    <path id="Trazado_188017" data-name="Trazado 188017" d="M-267.5,127.3h2.454v2.512H-267.5Z" transform="translate(-141.165 -84.497)" fill="#5038a1"/>
    <path id="Trazado_188018" data-name="Trazado 188018" d="M-291.459,127.3H-289v2.512h-2.454Z" transform="translate(-122.371 -84.497)" fill="#5038a1"/>
    <path id="Trazado_188019" data-name="Trazado 188019" d="M-442.192,199.568a14.794,14.794,0,0,1-2.46-5.859,6.948,6.948,0,0,1-.151-1.118c-.054-4.325-.572-8.7.238-12.962a14.119,14.119,0,0,1,22.693-8.336c.187.147.377.289.63.482a7.509,7.509,0,0,1,4.369-4.209,2.339,2.339,0,0,0,.933-.906,6.8,6.8,0,0,1,6-3.611,59.03,59.03,0,0,1,7.575.13,9.979,9.979,0,0,1,8.341,6.4q.081.184.171.365c.011.022.041.034.194.156a10.181,10.181,0,0,0,1.522-.979A11.959,11.959,0,0,1-379,166.54a1.109,1.109,0,0,0,.865.021c2.4-1.774,6.032-.8,7.995.907,2.691,2.337,3.466,6.008,2.011,9.667a10.528,10.528,0,0,1-4,4.9c1.945,1.724,2.724,3.781,1.719,6.228a5.127,5.127,0,0,1-4.863,3.214,6.64,6.64,0,0,1-3.057,4.208,1.428,1.428,0,0,0,1.161,1.434,14.543,14.543,0,0,1,9.749,14.774.715.715,0,0,1-.077.178h-79.859A14.409,14.409,0,0,1-442.192,199.568Zm41.8,1.486c-2.21-1.325-4.337-2.579-6.439-3.874a1.006,1.006,0,0,0-1.234.006c-1.479.927-2.988,1.807-4.486,2.7-.633.378-1.27.751-1.947,1.151l-1.989-4.537a15.1,15.1,0,0,0-5.121,12.984h28.332a15.056,15.056,0,0,0-5.136-12.976Zm-20.909-3a9.816,9.816,0,0,0,2.043-5.03c.188-2.246.126-4.512.2-6.768a1.129,1.129,0,0,0-.518-1.062,4.993,4.993,0,0,1-1.633-6.12,3.965,3.965,0,0,0-.665-4.129,11.286,11.286,0,0,0-12.521-3.551,11.562,11.562,0,0,0-7.9,10.481c-.07,3.254-.062,6.513.007,9.767a11.138,11.138,0,0,0,2.231,6.445,11.114,11.114,0,0,1,1.966-.819,2.77,2.77,0,0,0,2.175-2.294c-.213-.18-.441-.365-.661-.559a8.876,8.876,0,0,1-3.149-6.73c-.032-1.614-.012-3.229-.006-4.843a7,7,0,0,1,5.015-6.928.783.783,0,0,1,1.1.4,9.068,9.068,0,0,0,6.414,4.181,6.364,6.364,0,0,1,5.477,5.568,9.078,9.078,0,0,1-3.07,8.347c-.237.21-.478.414-.793.687.421.622.693,1.41,1.242,1.748A18.1,18.1,0,0,0-421.3,198.053Zm35.774-24.65c.02.148.039.251.047.354a7.781,7.781,0,0,0,7.415,7.346,7.77,7.77,0,0,0,8.012-6.783A5.22,5.22,0,0,0-375.2,168.2a2.613,2.613,0,0,0-2.517,2.2,2.586,2.586,0,0,0,1.773,2.826c.247.081.5.137.728.2v2.492c-3.543-.024-5.637-3.074-4.825-6.942-2.74-1.465-6.985-.853-9.648,1.452a7.756,7.756,0,0,1-3.013,2.051.973.973,0,0,0-.527.669c-.271,1.5-.491,3.01-.712,4.518a2,2,0,0,0,.006.847c.252.82.56,1.624.82,2.358.884-2.517,2.1-3.988,5.325-4.9l-.326-2.571Zm-15.46,7.772c0-1.291.012-2.582,0-3.873a2.528,2.528,0,0,0-2.637-2.643q-3.832-.022-7.664,0a2.508,2.508,0,0,0-2.605,2.59c-.018,2.582-.024,5.164,0,7.745a3.841,3.841,0,0,0,3.842,3.861c1.721.027,3.442.023,5.163,0a3.859,3.859,0,0,0,3.9-3.89C-400.969,183.7-400.985,182.439-400.984,181.175Zm30.885,28.318a8.8,8.8,0,0,0-.1-.89,11.851,11.851,0,0,0-7.725-9.008,1.074,1.074,0,0,0-1.27.245,7.233,7.233,0,0,1-9.4.439,2.255,2.255,0,0,0-2.969-.223c-.207.119-.419.232-.7.385a18.648,18.648,0,0,1,1.6,9.051Zm-7.682-25.719a.782.782,0,0,0-.182-.069,10.424,10.424,0,0,1-8.505-4.8,1.062,1.062,0,0,0-.859-.318,3.823,3.823,0,0,0-3.316,3.775q-.04,3.912,0,7.825a3.832,3.832,0,0,0,3.783,3.834c1.774.035,3.55.032,5.324,0a3.685,3.685,0,0,0,3.718-3.268C-377.658,188.431-377.781,186.091-377.781,183.774Zm-38.557-7.915c1.324-2.959,2.6-3.787,5.893-3.787q3.306,0,6.611,0a5.1,5.1,0,0,1,5.13,3.416.819.819,0,0,0,.453.445c.618.153,1.253.235,1.9.348a.3.3,0,0,0,.082-.1c1.664-4.435-1.259-9.734-5.958-10.36a51.079,51.079,0,0,0-8.2-.14,3.413,3.413,0,0,0-3.116,2.124,3.955,3.955,0,0,1-2.425,2.222c-.3.124-.58.28-.864.433a4.133,4.133,0,0,0-1.663,5.823Zm-18.647,3a4.184,4.184,0,0,0-2.141,3.6c-.051,1.8-.055,3.6,0,5.4a6.45,6.45,0,0,0,6.188,6.156c3.863.123,6.738-2.854,6.708-6.946a3.9,3.9,0,0,0-3.41-4.038c-.4-.069-.791-.154-1.18-.254A11.808,11.808,0,0,1-434.984,178.861Zm1.056,30.632a14.683,14.683,0,0,1-3.227-9.746c-3.956,1.179-7.7,6.027-7.559,9.746Zm43.883-13.805a6.67,6.67,0,0,1-3.076-4.207c-3.176-.289-4.779-1.838-5.368-5.276a6.793,6.793,0,0,1-3.093,4.322,1.825,1.825,0,0,0,1.24,1.666,14.861,14.861,0,0,1,4.734,3.42c.748.8,1.43,1.654,2.134,2.475a15.854,15.854,0,0,1,2.229-.947A1.444,1.444,0,0,0-390.045,195.687Zm-43.389.494c-1.451,1.706-1.164,3.617-1.054,5.554h7.6c.106-1.946.417-3.884-1.063-5.55A8.982,8.982,0,0,1-433.434,196.182Zm5.9,8.232h-6.319a11.479,11.479,0,0,0,3.161,4.707A11.506,11.506,0,0,0-427.529,204.414Zm40.031-7.805c-.491.682-.3,1.152.34,1.6a5.17,5.17,0,0,0,5.894.007c.835-.6.853-.689.341-1.61Zm-36.7,12.883a18.5,18.5,0,0,1,1.6-9.12l-1.632-.726a14.806,14.806,0,0,1-3.191,9.846Zm7.659-16.218a14.69,14.69,0,0,1,2.09-1.121,1.8,1.8,0,0,0,1.176-1.622,6.781,6.781,0,0,1-3.084-4.143l-.182.07Zm5.488-1.458.1.3c1.077.538,2.15,1.082,3.234,1.6a.676.676,0,0,0,.514.025c1.107-.531,2.2-1.089,3.286-1.631,0-.51-.157-.7-.668-.694-1.9.034-3.81,0-5.714.03C-410.558,191.454-410.806,191.688-411.055,191.816Zm-5.46-13.229a2.5,2.5,0,0,0-2.547,2.479,2.535,2.535,0,0,0,2.547,2.586Zm18.14,5.082a2.588,2.588,0,0,0,2.544-2.811,2.428,2.428,0,0,0-2.544-2.226Zm23.26,5.154a2.56,2.56,0,0,0,2.542-2.563,2.557,2.557,0,0,0-2.542-2.525Zm-18.152-5.184a3.009,3.009,0,0,0-.835.342,16.689,16.689,0,0,0-1.413,1.412,1.267,1.267,0,0,0-.278.641,2.49,2.49,0,0,0,2.527,2.761Zm-16.963,11.782c-2.236-1.364-2.92-1.418-4.026-.31l.964,2.21c.974-.584,1.863-1.116,2.749-1.652A3.147,3.147,0,0,0-410.229,195.42Zm9.629-.384c-1.568-1.077-2.132-1.009-4.043.456l3.057,1.831Z" transform="translate(0 -112.491)" fill="#5038a1"/>
  </g>
</svg>
