<svg xmlns="http://www.w3.org/2000/svg" width="136.973" height="136.973" viewBox="0 0 136.973 136.973">
  <g id="Grupo_132718" data-name="Grupo 132718" transform="translate(2453.429 6972.095)">
    <g id="Grupo_132717" data-name="Grupo 132717">
      <g id="Grupo_132715" data-name="Grupo 132715" transform="translate(-2453.429 -6972.095)">
        <g id="Trazado_137458" data-name="Trazado 137458" transform="translate(0 0)" fill="#5038a1">
          <path d="M 68.48631286621094 131.9726409912109 C 59.91350936889648 131.9726409912109 51.59981155395508 130.2947692871094 43.77611541748047 126.9856185913086 C 40.01535797119141 125.3949661254883 36.38774871826172 123.4259033203125 32.9940071105957 121.1331405639648 C 29.6312255859375 118.8612899780273 26.46885681152344 116.2520523071289 23.5947265625 113.3779220581055 C 20.72059631347656 110.503791809082 18.11135673522949 107.341423034668 15.83950805664062 103.9786376953125 C 13.5467472076416 100.5848999023438 11.57768249511719 96.95726776123047 9.987030029296875 93.196533203125 C 6.677877902984619 85.37283325195312 5.000008583068848 77.05912017822266 5.000008583068848 68.48631286621094 C 5.000008583068848 59.91350936889648 6.677877902984619 51.59981155395508 9.987030029296875 43.77611541748047 C 11.57768249511719 40.01535797119141 13.5467472076416 36.38774871826172 15.83950805664062 32.9940071105957 C 18.11135673522949 29.6312255859375 20.72059631347656 26.46885681152344 23.5947265625 23.5947265625 C 26.46885681152344 20.72059631347656 29.6312255859375 18.11135673522949 32.9940071105957 15.83950805664062 C 36.38774871826172 13.5467472076416 40.01535797119141 11.57768249511719 43.77611541748047 9.987030029296875 C 51.59981155395508 6.677877902984619 59.91350936889648 5.000008583068848 68.48631286621094 5.000008583068848 C 77.05912017822266 5.000008583068848 85.37283325195312 6.677877902984619 93.196533203125 9.987030029296875 C 96.95726776123047 11.57768249511719 100.5848999023438 13.5467472076416 103.9786376953125 15.83950805664062 C 107.341423034668 18.11135673522949 110.503791809082 20.72059631347656 113.3779220581055 23.5947265625 C 116.2520523071289 26.46885681152344 118.8612899780273 29.6312255859375 121.1331405639648 32.9940071105957 C 123.4259033203125 36.38774871826172 125.3949661254883 40.01535797119141 126.9856185913086 43.77611541748047 C 130.2947692871094 51.59981155395508 131.9726409912109 59.91350936889648 131.9726409912109 68.48631286621094 C 131.9726409912109 77.05912017822266 130.2947692871094 85.37283325195312 126.9856185913086 93.196533203125 C 125.3949661254883 96.95726776123047 123.4259033203125 100.5848999023438 121.1331405639648 103.9786376953125 C 118.8612899780273 107.341423034668 116.2520523071289 110.503791809082 113.3779220581055 113.3779220581055 C 110.503791809082 116.2520523071289 107.341423034668 118.8612899780273 103.9786376953125 121.1331405639648 C 100.5848999023438 123.4259033203125 96.95726776123047 125.3949661254883 93.196533203125 126.9856185913086 C 85.37283325195312 130.2947692871094 77.05912017822266 131.9726409912109 68.48631286621094 131.9726409912109 Z" stroke="none"/>
          <path d="M 68.48631286621094 10.00000762939453 C 36.23686981201172 10.00000762939453 10.00000762939453 36.23686981201172 10.00000762939453 68.48631286621094 C 10.00000762939453 100.7357559204102 36.23686981201172 126.9726181030273 68.48631286621094 126.9726181030273 C 100.7357559204102 126.9726181030273 126.9726181030273 100.7357559204102 126.9726181030273 68.48631286621094 C 126.9726181030273 36.23686981201172 100.7357559204102 10.00000762939453 68.48631286621094 10.00000762939453 M 68.48631286621094 0 C 106.3102569580078 0 136.9726257324219 30.66236877441406 136.9726257324219 68.48631286621094 C 136.9726257324219 106.3102569580078 106.3102569580078 136.9726257324219 68.48631286621094 136.9726257324219 C 30.66236877441406 136.9726257324219 0 106.3102569580078 0 68.48631286621094 C 0 30.66236877441406 30.66236877441406 0 68.48631286621094 0 Z" stroke="none" fill="#fff"/>
        </g>
      </g>
    </g>
    <g id="Grupo_132716" data-name="Grupo 132716" transform="translate(-4222.249 -7738.136)">
      <path id="Trazado_188574" data-name="Trazado 188574" d="M1868.436,1100.7a1.539,1.539,0,0,1-1.417.622q-29.895-.019-59.79-.011c-1.122,0-1.4-.283-1.405-1.407,0-.795-.01-1.589,0-2.384a.991.991,0,0,1,1.1-1.1c.1,0,.2,0,.306,0q29.895,0,59.79-.01a1.531,1.531,0,0,1,1.417.622Z" transform="translate(0 -245.457)" fill="#fff"/>
      <path id="Trazado_188575" data-name="Trazado 188575" d="M1874.842,803.041c1.86.863,2.455,1.767,2.3,3.546a7.569,7.569,0,0,1-1.461,3.954,7.8,7.8,0,0,1-6.32,3.264,10.382,10.382,0,0,1-7.246-2.38.952.952,0,0,0-1.288-.042c-1.387,1.064-2.761,2.146-4.153,3.2a1.092,1.092,0,0,1-.6.184c-.77.021-1.54.008-2.392.008,0-.787-.038-1.675.01-2.558a15.732,15.732,0,0,1,.328-3.5,7.54,7.54,0,0,1,6.173-5.564,2.751,2.751,0,0,0,.338-.114Z" transform="translate(-40.036)" fill="#fff"/>
      <path id="Trazado_188576" data-name="Trazado 188576" d="M1817.818,1138.519h58.663c.013.189.034.365.035.54q0,2.994,0,5.989c0,.951-.329,1.275-1.292,1.275h-56.11c-.966,0-1.293-.322-1.295-1.272C1817.816,1142.9,1817.818,1140.739,1817.818,1138.519Z" transform="translate(-10.038 -280.684)" fill="#fff"/>
      <path id="Trazado_188577" data-name="Trazado 188577" d="M2035.6,970.316c-1.912,0-3.785.084-5.646-.027a2.789,2.789,0,0,1-2.513-2.845q-.025-5.9,0-11.792a2.886,2.886,0,0,1,2.92-2.91q9.777-.019,19.555,0a2.891,2.891,0,0,1,2.949,2.944q.023,5.865,0,11.731a2.832,2.832,0,0,1-2.606,2.891c-1.826.085-3.659.02-5.55.02-.091-1.212-.185-2.4-.27-3.593-.1-1.381-.174-2.764-.287-4.143-.133-1.621-.947-2.719-2.376-2.914a12.428,12.428,0,0,0-3.28.008,2.638,2.638,0,0,0-2.275,2.455c-.234,2.574-.4,5.155-.587,7.733C2035.623,970,2035.613,970.117,2035.6,970.316Z" transform="translate(-185.411 -125.242)" fill="#fff"/>
      <path id="Trazado_188578" data-name="Trazado 188578" d="M1890.655,881.478l1.557-1.942c-1.129,0-2.1-.04-3.058.016a.866.866,0,0,0-.826.966.906.906,0,0,0,.863.942,11.61,11.61,0,0,0,1.3.009,5.731,5.731,0,0,1-.457.412,7.543,7.543,0,0,1-8.08.738,7.467,7.467,0,0,1-4.387-6.821c-.074-1.83-.058-3.667.012-5.5a2.234,2.234,0,0,1,.605-1.454c1-.891,2.111-1.648,3.17-2.452a12.733,12.733,0,0,0,11.849,1.613v.606c0,1.894-.029,3.789.009,5.682a9.466,9.466,0,0,1-1.057,5.2c.843,0,1.59.057,2.324-.014a1.883,1.883,0,0,0,1.646-1.78c.035-.668.007-1.34.007-2.064l-.937-.057V869.76a9.909,9.909,0,0,1,1.225.008,1.932,1.932,0,0,1,1.669,1.956c.014,1.955.021,3.911,0,5.866a3.891,3.891,0,0,1-3.9,3.885C1893.041,881.492,1891.884,881.478,1890.655,881.478Zm-5.286-.973a3.715,3.715,0,0,0,2.549-1.005.954.954,0,0,0,.139-1.408.977.977,0,0,0-1.371-.1,1.84,1.84,0,0,1-2.6.013.982.982,0,0,0-1.413.118.963.963,0,0,0,.194,1.4A3.717,3.717,0,0,0,1885.369,880.5Zm-2.928-7.816a.975.975,0,1,0-.974.961A.985.985,0,0,0,1882.441,872.689Zm7.827.013a.974.974,0,1,0-.986.948A.982.982,0,0,0,1890.268,872.7Z" transform="translate(-59.991 -53.007)" fill="#fff"/>
      <path id="Trazado_188579" data-name="Trazado 188579" d="M1826.684,998.486a5.655,5.655,0,0,0,1.515,4.644,3.07,3.07,0,0,0,3.969.986,3.783,3.783,0,0,1,.5,2.576c-.485,1.783-.822,3.607-1.245,5.409-.039.164-.242.413-.371.415-2.135.026-4.269.018-6.477.018v-3.077c0-.224,0-.448,0-.672-.016-.71-.4-1.149-1-1.136a.991.991,0,0,0-.955,1.115c-.01,1.039,0,2.077,0,3.116v.624h-4.8c-.023-.029-.069-.06-.069-.09.015-2.381-.145-4.78.1-7.138a6.4,6.4,0,0,1,4.823-5.634C1823.96,999.225,1825.279,998.887,1826.684,998.486Z" transform="translate(-9.946 -163.523)" fill="#fff"/>
      <path id="Trazado_188580" data-name="Trazado 188580" d="M1949.661,1012.422c-2.2,0-4.333.006-6.466-.015a.54.54,0,0,1-.371-.345c-.468-2.02-.978-4.034-1.32-6.076a5.831,5.831,0,0,1,.464-2.033,2.784,2.784,0,0,0,3.15-.114,8.409,8.409,0,0,0,1.977-2.5,13.231,13.231,0,0,0,.694-2.988c1.658.563,3.442,1.163,5.221,1.776a.823.823,0,0,1,.578.93c-.04,1.485-.029,2.972-.011,4.458a4.762,4.762,0,0,0,2.515,4.313.677.677,0,0,1,.424.7c-.029.606-.008,1.214-.008,1.857h-4.892c0-1.256.039-2.494-.025-3.726a1.44,1.44,0,0,0-.535-.988c-.625-.426-1.379.1-1.391.933C1949.648,1009.845,1949.661,1011.086,1949.661,1012.422Z" transform="translate(-113.509 -163.41)" fill="#fff"/>
      <path id="Trazado_188581" data-name="Trazado 188581" d="M2093.563,1019.326c-.136.014-.233.032-.33.032-1.749,0-3.5,0-5.343,0,.067-1.064.125-2.088.2-3.11.19-2.7.394-5.4.575-8.1.086-1.285.3-1.507,1.6-1.507.428,0,.855,0,1.283,0,.863.008,1.181.311,1.25,1.221q.194,2.587.371,5.175.2,2.923.4,5.846C2093.57,1019.024,2093.563,1019.161,2093.563,1019.326Z" transform="translate(-235.998 -170.348)" fill="#fff"/>
      <path id="Trazado_188582" data-name="Trazado 188582" d="M1931.8,987.828a5.5,5.5,0,0,0,2.928-4.858,3.346,3.346,0,0,1,2.406,4.925,7.573,7.573,0,0,1-.993,1.309.913.913,0,0,1-1.17.206C1933.954,988.9,1932.936,988.394,1931.8,987.828Z" transform="translate(-105.405 -150.541)" fill="#fff"/>
      <path id="Trazado_188583" data-name="Trazado 188583" d="M1887.153,982.779a5.523,5.523,0,0,0,2.939,4.9c-1.185.581-2.263,1.137-3.37,1.629a1,1,0,0,1-.8-.121,3.694,3.694,0,0,1-1.258-4.515A3.333,3.333,0,0,1,1887.153,982.779Z" transform="translate(-65.699 -150.381)" fill="#fff"/>
      <path id="Trazado_188584" data-name="Trazado 188584" d="M1850.633,892.729a10.387,10.387,0,0,1-1.206-.008,1.94,1.94,0,0,1-1.683-1.882c-.021-.61-.009-1.221,0-1.832a1.964,1.964,0,0,1,2.129-2.131c.241,0,.483,0,.765,0Z" transform="translate(-35.067 -70.143)" fill="#fff"/>
      <path id="Trazado_188585" data-name="Trazado 188585" d="M1917.481,1054.611h-3.961l1.287-5.808h1.381Z" transform="translate(-90.109 -205.621)" fill="#fff"/>
      <path id="Trazado_188586" data-name="Trazado 188586" d="M1913.666,982.245h3.845a3.111,3.111,0,0,1-1.69,3.143.631.631,0,0,1-.488-.054A3.287,3.287,0,0,1,1913.666,982.245Z" transform="translate(-90.231 -149.934)" fill="#fff"/>
      <path id="Trazado_188587" data-name="Trazado 188587" d="M1920.17,1024.486c-.452.408-.068,1.4-1.056,1.427-1.269.042-1.27.027-1.693-1.442C1918.45,1023.623,1918.957,1023.617,1920.17,1024.486Z" transform="translate(-93.373 -184.731)" fill="#fff"/>
      <path id="Trazado_188588" data-name="Trazado 188588" d="M1985.539,862.843a1.167,1.167,0,0,1,.488-1.435,8.98,8.98,0,0,0,.956-.887l.454,2.409Z" transform="translate(-150.306 -48.092)" fill="#fff"/>
    </g>
  </g>
</svg>
