<svg xmlns="http://www.w3.org/2000/svg" width="85" height="84.567" viewBox="0 0 85 84.567">
  <g id="Grupo_132672" data-name="Grupo 132672" transform="translate(-646.112 -93.244)">
    <path id="Trazado_187808" data-name="Trazado 187808" d="M731.112,130.218v1.328c-.454.616-.874,1.261-1.368,1.844-1.572,1.853-3.171,3.684-4.761,5.524,1.306,2.373,2.587,4.694,3.862,7.019.97,1.768.535,3.155-1.268,4.012-2.2,1.043-4.385,2.1-6.6,3.089a.935.935,0,0,0-.645,1.124c.228,2.339.425,4.681.627,7.022.194,2.246-.708,3.28-2.942,3.336-2.405.06-4.811.1-7.218.12a.852.852,0,0,0-.933.7c-.782,2.329-1.594,4.649-2.408,6.967a2.545,2.545,0,0,1-3.785,1.691c-2.139-.9-4.287-1.775-6.4-2.727a1.294,1.294,0,0,0-1.81.355c-1.544,1.771-3.189,3.454-4.8,5.163a2.526,2.526,0,0,1-4.084-.019c-1.687-1.793-3.384-3.577-5.04-5.4a.866.866,0,0,0-1.193-.237c-2.25.989-4.521,1.928-6.789,2.874a2.523,2.523,0,0,1-3.739-1.646c-.771-2.187-1.575-4.365-2.261-6.579a1.4,1.4,0,0,0-1.624-1.169c-2.267.033-4.535-.035-6.8-.1-2.081-.057-2.992-1.1-2.849-3.186.015-.221.047-.44.067-.66.19-2.2.366-4.409.578-6.61a.847.847,0,0,0-.592-1c-2.213-1-4.4-2.057-6.6-3.086-1.859-.87-2.309-2.239-1.316-4.052,1.274-2.324,2.554-4.645,3.854-7.008q-2.643-3.058-5.268-6.094c-1.3-1.5-1.165-2.923.4-4.121,1.932-1.478,3.859-2.965,5.824-4.4a.981.981,0,0,0,.4-1.308c-.741-2.314-1.434-4.643-2.129-6.971a2.552,2.552,0,0,1,2.048-3.544c2.393-.558,4.783-1.136,7.185-1.653.608-.131.78-.417.845-.99.284-2.5.583-5,.939-7.486a2.423,2.423,0,0,1,3.074-2.2c2.5.457,5,.918,7.488,1.431a.82.82,0,0,0,1.047-.468q1.94-3.283,3.939-6.531a2.471,2.471,0,0,1,3.712-.81c.669.442,1.317.914,1.975,1.372l4.884,3.393c2.257-1.573,4.453-3.112,6.657-4.637a2.508,2.508,0,0,1,3.993.849q1.943,3.185,3.857,6.387a.774.774,0,0,0,.976.458c2.379-.5,4.769-.945,7.159-1.39,2.144-.4,3.274.431,3.541,2.583.3,2.386.6,4.771.864,7.161a.851.851,0,0,0,.79.858c2.4.536,4.789,1.108,7.183,1.665a2.56,2.56,0,0,1,2.086,3.586c-.7,2.328-1.384,4.659-2.128,6.972a.975.975,0,0,0,.444,1.293c1.789,1.3,3.561,2.626,5.285,4.011A17.669,17.669,0,0,1,731.112,130.218Zm-42.531,29.241a23.93,23.93,0,1,0-23.889-23.991A23.924,23.924,0,0,0,688.581,159.459Z" fill="#261a4d"/>
    <path id="Trazado_187809" data-name="Trazado 187809" d="M790.31,217.522a18.931,18.931,0,1,1-18.9-18.959A18.935,18.935,0,0,1,790.31,217.522Zm-21.465,2c-1.354-1.374-2.463-2.525-3.6-3.648a2.5,2.5,0,0,0-3.686-.124,2.53,2.53,0,0,0,.2,3.691q2.426,2.442,4.867,4.868c1.425,1.421,2.743,1.422,4.169,0q4.284-4.278,8.562-8.563c.645-.645,1.313-1.27,1.924-1.946a2.5,2.5,0,0,0,.331-2.86,2.3,2.3,0,0,0-2.577-1.225,3.629,3.629,0,0,0-1.612.913c-2.708,2.648-5.375,5.338-8.042,8.027A4.733,4.733,0,0,0,768.844,219.52Z" transform="translate(-82.758 -81.966)" fill="#261a4d"/>
  </g>
</svg>
