<svg xmlns="http://www.w3.org/2000/svg" width="200" height="206.294" viewBox="0 0 200 206.294">
  <g id="Grupo_132716" data-name="Grupo 132716" transform="translate(-189.235 -501)">
    <path id="blob" d="M121.88-23.877C138.815,7.84,134.94,49.316,116,79.885,97.2,110.6,63.182,130.546,25.724,132.7c-37.6,2.009-78.79-13.634-89.841-39.754-11.051-26.263,8.037-62.716,28.56-96.586C-14.89-37.368,7.211-68.367,37.206-72.816,67.2-77.408,104.945-55.45,121.88-23.877Z" transform="translate(256.596 574.423)" fill="#fff0e5"/>
    <path id="Trazado_188686" data-name="Trazado 188686" d="M-1.863-2.943V-7.8H-6.588v-3.321h4.725v-4.86H1.863v4.86H6.588V-7.8H1.863v4.86Z" transform="translate(267.402 607.61) rotate(90)" fill="#ff6b00"/>
    <path id="Trazado_188687" data-name="Trazado 188687" d="M-1.863-2.943V-7.8H-6.588v-3.321h4.725v-4.86H1.863v4.86H6.588V-7.8H1.863v4.86Z" transform="translate(245.18 524.277) rotate(90)" fill="#ff6b00"/>
    <path id="Trazado_188688" data-name="Trazado 188688" d="M-1.863-2.943V-7.8H-6.588v-3.321h4.725v-4.86H1.863v4.86H6.588V-7.8H1.863v4.86Z" transform="translate(361.847 635.389) rotate(90)" fill="#ff6b00"/>
    <path id="Trazado_188689" data-name="Trazado 188689" d="M5.556,0A5.556,5.556,0,1,1,0,5.556,5.556,5.556,0,0,1,5.556,0Z" transform="translate(357.291 510.722) rotate(90)" fill="#ff6b00"/>
    <path id="Trazado_188690" data-name="Trazado 188690" d="M5.556,0A5.556,5.556,0,1,1,0,5.556,5.556,5.556,0,0,1,5.556,0Z" transform="translate(228.124 548.222) rotate(90)" fill="#ff6b00"/>
    <path id="Trazado_188691" data-name="Trazado 188691" d="M5.556,0A5.556,5.556,0,1,1,0,5.556,5.556,5.556,0,0,1,5.556,0Z" transform="translate(233.68 653.777) rotate(90)" fill="#ff6b00"/>
    <path id="Trazado_188692" data-name="Trazado 188692" d="M13.889,0A13.889,13.889,0,1,1,0,13.889,13.889,13.889,0,0,1,13.889,0Z" transform="translate(373.958 566.277) rotate(90)" fill="#ff6b00" opacity="0.1"/>
    <path id="Trazado_188693" data-name="Trazado 188693" d="M13.889,0A13.889,13.889,0,1,1,0,13.889,13.889,13.889,0,0,1,13.889,0Z" transform="translate(282.291 653.777) rotate(90)" fill="#ff6b00" opacity="0.1"/>
    <path id="Trazado_188694" data-name="Trazado 188694" d="M9.722,0A9.722,9.722,0,1,1,0,9.722,9.722,9.722,0,0,1,9.722,0Z" transform="translate(385.069 676) rotate(90)" fill="#ff6b00" opacity="0.1"/>
    <path id="Trazado_188695" data-name="Trazado 188695" d="M9.722,0A9.722,9.722,0,1,1,0,9.722,9.722,9.722,0,0,1,9.722,0Z" transform="translate(223.958 509.333) rotate(90)" fill="#ff6b00" opacity="0.1"/>
    <path id="Trazado_188696" data-name="Trazado 188696" d="M13.889,0A13.889,13.889,0,1,1,0,13.889,13.889,13.889,0,0,1,13.889,0Z" transform="translate(242.014 562.11) rotate(90)" fill="#ff6b00" opacity="0.1"/>
    <g id="Trazado_188697" data-name="Trazado 188697" transform="translate(287.847 648.222) rotate(90)" fill="none">
      <path d="M5.556,0A5.556,5.556,0,1,1,0,5.556,5.556,5.556,0,0,1,5.556,0Z" stroke="none"/>
      <path d="M 5.55555534362793 1.999995231628418 C 3.595015525817871 1.999995231628418 1.999995231628418 3.595015525817871 1.999995231628418 5.55555534362793 C 1.999995231628418 7.516095161437988 3.595015525817871 9.111115455627441 5.55555534362793 9.111115455627441 C 7.516095161437988 9.111115455627441 9.111115455627441 7.516095161437988 9.111115455627441 5.55555534362793 C 9.111115455627441 3.595015525817871 7.516095161437988 1.999995231628418 5.55555534362793 1.999995231628418 M 5.55555534362793 -4.76837158203125e-06 C 8.623805046081543 -4.76837158203125e-06 11.11111545562744 2.487305641174316 11.11111545562744 5.55555534362793 C 11.11111545562744 8.623805046081543 8.623805046081543 11.11111545562744 5.55555534362793 11.11111545562744 C 2.487305641174316 11.11111545562744 -4.76837158203125e-06 8.623805046081543 -4.76837158203125e-06 5.55555534362793 C -4.76837158203125e-06 2.487305641174316 2.487305641174316 -4.76837158203125e-06 5.55555534362793 -4.76837158203125e-06 Z" stroke="none" fill="#ff6b00"/>
    </g>
    <g id="Trazado_188698" data-name="Trazado 188698" transform="translate(315.624 519.056) rotate(90)" fill="none">
      <path d="M5.556,0A5.556,5.556,0,1,1,0,5.556,5.556,5.556,0,0,1,5.556,0Z" stroke="none"/>
      <path d="M 5.55555534362793 1.999995231628418 C 3.595015525817871 1.999995231628418 1.999995231628418 3.595015525817871 1.999995231628418 5.55555534362793 C 1.999995231628418 7.516095161437988 3.595015525817871 9.111115455627441 5.55555534362793 9.111115455627441 C 7.516095161437988 9.111115455627441 9.111115455627441 7.516095161437988 9.111115455627441 5.55555534362793 C 9.111115455627441 3.595015525817871 7.516095161437988 1.999995231628418 5.55555534362793 1.999995231628418 M 5.55555534362793 -4.76837158203125e-06 C 8.623805046081543 -4.76837158203125e-06 11.11111545562744 2.487305641174316 11.11111545562744 5.55555534362793 C 11.11111545562744 8.623805046081543 8.623805046081543 11.11111545562744 5.55555534362793 11.11111545562744 C 2.487305641174316 11.11111545562744 -4.76837158203125e-06 8.623805046081543 -4.76837158203125e-06 5.55555534362793 C -4.76837158203125e-06 2.487305641174316 2.487305641174316 -4.76837158203125e-06 5.55555534362793 -4.76837158203125e-06 Z" stroke="none" fill="#ff6b00"/>
    </g>
    <g id="Grupo_17" data-name="Grupo 17" transform="translate(257.489 612.271) rotate(-45)">
      <path id="Icon_awesome-hand-point-right" data-name="Icon awesome-hand-point-right" d="M85.321,21.975a7.3,7.3,0,0,1-7.257,7.1H61.889a7.968,7.968,0,0,1-1.02,11.492A7.42,7.42,0,0,1,58.2,50.661c1.454,7.96-3.555,11.544-11.761,11.544-.445,0-2.151-.033-2.592-.032C33.812,62.2,31.4,57.141,23.808,55.967a3.883,3.883,0,0,1-3.283-3.84V24.341h0a7.776,7.776,0,0,1,4.611-7.1c4.679-2.1,15.456-7.944,17.42-12.526C43.818,1.765,46.019,0,49.035,0a7.781,7.781,0,0,1,7.147,10.839,22.017,22.017,0,0,1-2.293,4.037H78.064a7.422,7.422,0,0,1,7.257,7.1Zm-69.77.056v31.1a3.888,3.888,0,0,1-3.888,3.888H3.888A3.888,3.888,0,0,1,0,53.133v-31.1a3.888,3.888,0,0,1,3.888-3.888h7.776A3.888,3.888,0,0,1,15.551,22.031ZM11.015,49.246a3.24,3.24,0,1,0-3.24,3.24A3.24,3.24,0,0,0,11.015,49.246Z" transform="translate(0 85.917) rotate(-90)" fill="#fff"/>
      <path id="Icon_awesome-hand-point-right-2" data-name="Icon awesome-hand-point-right" d="M85.321,21.975a7.3,7.3,0,0,1-7.257,7.1H61.889a7.968,7.968,0,0,1-1.02,11.492A7.42,7.42,0,0,1,58.2,50.661c1.454,7.96-3.555,11.544-11.761,11.544-.445,0-2.151-.033-2.592-.032C33.812,62.2,31.4,57.141,23.808,55.967a3.883,3.883,0,0,1-3.283-3.84V24.341h0a7.776,7.776,0,0,1,4.611-7.1c4.679-2.1,15.456-7.944,17.42-12.526C43.818,1.765,46.019,0,49.035,0a7.781,7.781,0,0,1,7.147,10.839,22.017,22.017,0,0,1-2.293,4.037H78.064a7.422,7.422,0,0,1,7.257,7.1Zm-69.77.056v31.1a3.888,3.888,0,0,1-3.888,3.888H3.888A3.888,3.888,0,0,1,0,53.133v-31.1a3.888,3.888,0,0,1,3.888-3.888h7.776A3.888,3.888,0,0,1,15.551,22.031ZM11.015,49.246a3.24,3.24,0,1,0-3.24,3.24A3.24,3.24,0,0,0,11.015,49.246Z" transform="translate(0.595 85.321) rotate(-90)" fill="none" stroke="#404040" stroke-width="3"/>
    </g>
    <path id="Trazado_43" data-name="Trazado 43" d="M1263.059,186.027s-5.147-61.973,66.91-68.789" transform="translate(-1019.9 434.417)" fill="none" stroke="#404040" stroke-linecap="round" stroke-width="3" stroke-dasharray="5"/>
    <g id="Grupo_18" data-name="Grupo 18" transform="translate(223.958 610.722)">
      <g id="Elipse_10" data-name="Elipse 10" transform="translate(0 0)" fill="#fff" stroke="#404040" stroke-width="3">
        <circle cx="19.444" cy="19.444" r="19.444" stroke="none"/>
        <circle cx="19.444" cy="19.444" r="17.944" fill="none"/>
      </g>
      <circle id="Elipse_14" data-name="Elipse 14" cx="6.944" cy="6.944" r="6.944" transform="translate(12.5 12.5)" fill="#404040"/>
    </g>
    <g id="Grupo_19" data-name="Grupo 19" transform="translate(298.958 534.333)">
      <circle id="Elipse_13" data-name="Elipse 13" cx="18.056" cy="18.056" r="18.056" transform="translate(0)" fill="#fff"/>
      <g id="Icon_feather-check-circle" data-name="Icon feather-check-circle" transform="translate(1.216 1.216)">
        <path id="Trazado_18" data-name="Trazado 18" d="M36.24,18.092v1.529A16.62,16.62,0,1,1,26.385,4.43" transform="translate(-3 -2.991)" fill="none" stroke="#404040" stroke-linecap="round" stroke-linejoin="round" stroke-width="3"/>
        <path id="Trazado_19" data-name="Trazado 19" d="M35.106,6,18.486,22.637,13.5,17.651" transform="translate(-1.866 -2.666)" fill="none" stroke="#404040" stroke-linecap="round" stroke-linejoin="round" stroke-width="3"/>
      </g>
    </g>
  </g>
</svg>
