<svg xmlns="http://www.w3.org/2000/svg" width="136.973" height="136.973" viewBox="0 0 136.973 136.973">
  <g id="Grupo_132721" data-name="Grupo 132721" transform="translate(5116.429 6488.299)">
    <g id="Grupo_132719" data-name="Grupo 132719" transform="translate(-5116.429 -6488.299)">
      <g id="Trazado_137458" data-name="Trazado 137458" transform="translate(0 0)" fill="#5038a1">
        <path d="M 68.48631286621094 131.9726409912109 C 59.91350936889648 131.9726409912109 51.59981155395508 130.2947692871094 43.77611541748047 126.9856185913086 C 40.01535797119141 125.3949661254883 36.38774871826172 123.4259033203125 32.9940071105957 121.1331405639648 C 29.6312255859375 118.8612899780273 26.46885681152344 116.2520523071289 23.5947265625 113.3779220581055 C 20.72059631347656 110.503791809082 18.11135673522949 107.341423034668 15.83950805664062 103.9786376953125 C 13.5467472076416 100.5848999023438 11.57768249511719 96.95726776123047 9.987030029296875 93.196533203125 C 6.677877902984619 85.37283325195312 5.000008583068848 77.05912017822266 5.000008583068848 68.48631286621094 C 5.000008583068848 59.91350936889648 6.677877902984619 51.59981155395508 9.987030029296875 43.77611541748047 C 11.57768249511719 40.01535797119141 13.5467472076416 36.38774871826172 15.83950805664062 32.9940071105957 C 18.11135673522949 29.6312255859375 20.72059631347656 26.46885681152344 23.5947265625 23.5947265625 C 26.46885681152344 20.72059631347656 29.6312255859375 18.11135673522949 32.9940071105957 15.83950805664062 C 36.38774871826172 13.5467472076416 40.01535797119141 11.57768249511719 43.77611541748047 9.987030029296875 C 51.59981155395508 6.677877902984619 59.91350936889648 5.000008583068848 68.48631286621094 5.000008583068848 C 77.05912017822266 5.000008583068848 85.37283325195312 6.677877902984619 93.196533203125 9.987030029296875 C 96.95726776123047 11.57768249511719 100.5848999023438 13.5467472076416 103.9786376953125 15.83950805664062 C 107.341423034668 18.11135673522949 110.503791809082 20.72059631347656 113.3779220581055 23.5947265625 C 116.2520523071289 26.46885681152344 118.8612899780273 29.6312255859375 121.1331405639648 32.9940071105957 C 123.4259033203125 36.38774871826172 125.3949661254883 40.01535797119141 126.9856185913086 43.77611541748047 C 130.2947692871094 51.59981155395508 131.9726409912109 59.91350936889648 131.9726409912109 68.48631286621094 C 131.9726409912109 77.05912017822266 130.2947692871094 85.37283325195312 126.9856185913086 93.196533203125 C 125.3949661254883 96.95726776123047 123.4259033203125 100.5848999023438 121.1331405639648 103.9786376953125 C 118.8612899780273 107.341423034668 116.2520523071289 110.503791809082 113.3779220581055 113.3779220581055 C 110.503791809082 116.2520523071289 107.341423034668 118.8612899780273 103.9786376953125 121.1331405639648 C 100.5848999023438 123.4259033203125 96.95726776123047 125.3949661254883 93.196533203125 126.9856185913086 C 85.37283325195312 130.2947692871094 77.05912017822266 131.9726409912109 68.48631286621094 131.9726409912109 Z" stroke="none"/>
        <path d="M 68.48631286621094 10.00000762939453 C 36.23686981201172 10.00000762939453 10.00000762939453 36.23686981201172 10.00000762939453 68.48631286621094 C 10.00000762939453 100.7357559204102 36.23686981201172 126.9726181030273 68.48631286621094 126.9726181030273 C 100.7357559204102 126.9726181030273 126.9726181030273 100.7357559204102 126.9726181030273 68.48631286621094 C 126.9726181030273 36.23686981201172 100.7357559204102 10.00000762939453 68.48631286621094 10.00000762939453 M 68.48631286621094 0 C 106.3102569580078 0 136.9726257324219 30.66236877441406 136.9726257324219 68.48631286621094 C 136.9726257324219 106.3102569580078 106.3102569580078 136.9726257324219 68.48631286621094 136.9726257324219 C 30.66236877441406 136.9726257324219 0 106.3102569580078 0 68.48631286621094 C 0 30.66236877441406 30.66236877441406 0 68.48631286621094 0 Z" stroke="none" fill="#fff"/>
      </g>
    </g>
    <g id="Grupo_132720" data-name="Grupo 132720" transform="translate(-6381.281 -7246.22)">
      <path id="Trazado_188568" data-name="Trazado 188568" d="M1360.547,1152.054a2.427,2.427,0,0,1-1.584-2.7c.053-.783.01-1.573.01-2.394h9.893c0,1.17.059,2.322-.02,3.465-.059.858-.765,1.274-1.466,1.628Z" transform="translate(-46.955 -294.653)" fill="#fff"/>
      <path id="Trazado_188569" data-name="Trazado 188569" d="M1564.26,1152.018a2.462,2.462,0,0,1-1.563-2.718c.053-.782.01-1.571.01-2.383h9.848c0,1.222.078,2.451-.029,3.664-.067.764-.784,1.124-1.433,1.436Z" transform="translate(-217.48 -294.618)" fill="#fff"/>
      <path id="Trazado_188570" data-name="Trazado 188570" d="M1357.287,875.34c-7.279,0-14.557-.051-21.835.027a4.047,4.047,0,0,1-4.267-4.286c.055-14.17.026-28.341.028-42.512a4.28,4.28,0,0,1,3.421-4.427,5.267,5.267,0,0,1,1.09-.084q21.591-.006,43.183,0a4.265,4.265,0,0,1,4.514,4.511q.005,21.378,0,42.756a3.74,3.74,0,0,1-3.993,4.014Q1368.358,875.349,1357.287,875.34Zm-.611-45.779c-.235-.017-.394-.039-.552-.039q-8.9,0-17.8,0c-1.121,0-1.632.526-1.632,1.652q0,10.73,0,21.46c0,1.185.52,1.7,1.712,1.7,2.6,0,5.2.012,7.8-.016a1.4,1.4,0,0,0,.888-.362q4.617-4.565,9.183-9.181a1.484,1.484,0,0,0,.384-.943c.025-4.532.017-9.064.017-13.6Zm1.323-.041c-.022.188-.038.267-.038.345,0,4.718-.007,9.436.012,14.154a1.164,1.164,0,0,0,.346.718q4.6,4.632,9.235,9.228a1.406,1.406,0,0,0,.892.355c2.542.028,5.084.016,7.626.016,1.409,0,1.873-.456,1.873-1.847q0-10.554,0-21.108c0-1.409-.448-1.859-1.859-1.859H1358Zm-17.514,38.721a3.4,3.4,0,1,0-3.413-3.4A3.415,3.415,0,0,0,1340.485,868.241Zm36.6-3.378a3.4,3.4,0,1,0-3.43,3.378A3.414,3.414,0,0,0,1377.086,864.863Zm-20.445-18.344-7.756,7.769h7.756Zm9.062,7.784-7.711-7.7v7.7Zm-8.418,8.066h8.048c.142,0,.285,0,.427,0,.418-.014.726-.186.733-.64.007-.49-.318-.662-.761-.674-.1,0-.2,0-.3,0h-16.218c-.162,0-.375-.057-.477.024-.228.179-.558.432-.553.648s.345.454.58.625c.108.078.316.02.478.02Zm.1,1.836h-8.107c-.86,0-1.147.164-1.139.651s.316.647,1.161.647q8.016,0,16.031,0a1.456,1.456,0,0,0,.714-.071.885.885,0,0,0,.419-.625c-.013-.206-.285-.434-.5-.574-.128-.085-.355-.026-.538-.026Zm-.1,4.417q4.205,0,8.411,0c.439,0,.783-.124.8-.625s-.32-.656-.76-.663c-.122,0-.244,0-.366,0q-8.045,0-16.09,0a1.346,1.346,0,0,0-.656.052c-.206.131-.451.4-.447.6s.264.448.469.6c.123.089.354.034.536.034Q1353.23,868.623,1357.283,868.621Z" transform="translate(-23.715 -24.384)" fill="#fff"/>
      <path id="Trazado_188571" data-name="Trazado 188571" d="M1395.145,798.314a5.214,5.214,0,0,1,4.91-3.381c3.74-.018,7.48-.006,11.219-.006,3.435,0,6.87-.017,10.3.007a5.265,5.265,0,0,1,4.692,2.683c.124.2.215.425.35.7Z" transform="translate(-77.249 0)" fill="#fff"/>
      <path id="Trazado_188572" data-name="Trazado 188572" d="M1306.17,868.474v12.455a3.294,3.294,0,0,1-3.163-2.446,3.765,3.765,0,0,1-.141-.96c-.013-1.868-.024-3.737,0-5.605A3.43,3.43,0,0,1,1306.17,868.474Z" transform="translate(0 -61.563)" fill="#fff"/>
      <path id="Trazado_188573" data-name="Trazado 188573" d="M1659.888,880.652V868.081a8.745,8.745,0,0,1,.99.234,3.472,3.472,0,0,1,2.3,3.276c.02,1.868.025,3.737,0,5.605A3.456,3.456,0,0,1,1659.888,880.652Z" transform="translate(-298.836 -61.234)" fill="#fff"/>
    </g>
  </g>
</svg>
