<svg xmlns="http://www.w3.org/2000/svg" width="84" height="46.525" viewBox="0 0 84 46.525">
  <g id="Grupo_132715" data-name="Grupo 132715" transform="translate(506.326 -803.29)">
    <path id="Trazado_188511" data-name="Trazado 188511" d="M-440.415,839.122c-.346-3.716-1.244-4.775-4.942-5.9-.64-4.585-2.754-6.242-7.075-5.5-.086-.2-.172-.413-.267-.622a5.234,5.234,0,0,0-8.749-1.269c-.727.838-1.392,1.73-1.97,2.453l-10.508-2.735V809.3h1.006c4.364,0,8.728-.019,13.092.012a7.566,7.566,0,0,0,3.621-.859c2.935-1.516,5.895-2.986,8.849-4.466a4.958,4.958,0,0,1,4.019-.365c-.236.261-.433.486-.639.7-2.5,2.631-5.007,5.252-7.493,7.895a5.049,5.049,0,0,0-1.152,5.594,5.069,5.069,0,0,0,4.6,3.4,5.086,5.086,0,0,0,4.011-1.436q3.437-3.2,6.868-6.408c.232-.217.471-.426.747-.676,2.856,2.136,5.716,4.22,8.514,6.383q6.84,5.287,13.61,10.665a2.152,2.152,0,0,1,.515,3.215,2.278,2.278,0,0,1-3.346.24,1.484,1.484,0,0,0-2.13,0,1.509,1.509,0,0,0,.015,2.131,2.26,2.26,0,0,1-.049,3.163,2.325,2.325,0,0,1-3.115.03,1.531,1.531,0,0,0-2.141-.012,1.514,1.514,0,0,0,.008,2.131,2.226,2.226,0,0,1-.085,3.159,2.211,2.211,0,0,1-3.1-.015,1.52,1.52,0,0,0-2.138,0,1.518,1.518,0,0,0,.022,2.134,2.233,2.233,0,0,1-.065,3.159,2.282,2.282,0,0,1-3.243-.1c-.4-.345-.76-.738-1.187-1.042a2.629,2.629,0,0,1-1.286-3.134c.574-2.537-1.558-5.141-4.172-5.595C-439.962,839.174-440.164,839.155-440.415,839.122Z" transform="translate(-24.809 -0.052)" fill="#5038a1"/>
    <path id="Trazado_188512" data-name="Trazado 188512" d="M-326.664,809.252v16.4c-1.488.228-2.954.445-4.417.682a4.464,4.464,0,0,0-1.273.313c-1.348.672-2.281.161-3.4-.714-6.705-5.237-13.483-10.381-20.254-15.533a2.962,2.962,0,0,0-4.2.267q-3.709,3.419-7.4,6.856a2.265,2.265,0,0,1-2.512.528,2,2,0,0,1-1.393-1.943,3,3,0,0,1,.635-1.822q4.4-4.772,8.93-9.425a5.277,5.277,0,0,1,6.316-.933c2.985,1.479,5.968,2.961,8.926,4.49a7.575,7.575,0,0,0,3.622.841c5.093-.027,10.187-.011,15.28-.011Z" transform="translate(-103.227 0)" fill="#5038a1"/>
    <path id="Trazado_188513" data-name="Trazado 188513" d="M-506.319,827.05q0-4.6,0-9.2c0-1.437.5-1.929,1.963-1.946.293,0,.586-.01.878,0a1.54,1.54,0,0,1,1.67,1.714c.026,1.138.007,2.278.007,3.417q0,7.58,0,15.159c0,.78.025,1.745-.834,1.922a7.333,7.333,0,0,1-3.043-.126c-.312-.072-.607-.96-.617-1.481C-506.348,833.359-506.319,830.2-506.319,827.05Z" transform="translate(0 -9.655)" fill="#5038a1"/>
    <path id="Trazado_188514" data-name="Trazado 188514" d="M-162.576,826.9q0,4.6,0,9.2c0,1.456-.488,1.943-1.94,1.962-.322,0-.644.011-.965-.007a1.5,1.5,0,0,1-1.6-1.593c-.034-.729-.01-1.46-.01-2.19q0-8.28,0-16.56c0-.794.035-1.654.887-1.916a3.206,3.206,0,0,1,3.1.243,2.148,2.148,0,0,1,.516,1.486C-162.553,820.654-162.576,823.779-162.576,826.9Z" transform="translate(-259.756 -9.366)" fill="#5038a1"/>
    <path id="Trazado_188515" data-name="Trazado 188515" d="M-400.717,929.2a2.59,2.59,0,0,1-2.035-1.257,1.959,1.959,0,0,1,.026-2.239c1.533-2.024,3.1-4.025,4.728-5.972a2.126,2.126,0,0,1,2.943-.222,2.167,2.167,0,0,1,.5,2.978c-1.5,2.008-3.073,3.971-4.684,5.894A4.826,4.826,0,0,1-400.717,929.2Z" transform="translate(-79.051 -88.625)" fill="#5038a1"/>
    <path id="Trazado_188516" data-name="Trazado 188516" d="M-369.574,946.2a7.723,7.723,0,0,1-.685,1.465c-1.047,1.4-2.14,2.77-3.245,4.127a2.281,2.281,0,0,1-3.258.452,2.251,2.251,0,0,1-.276-3.209q1.625-2.117,3.321-4.179a2.269,2.269,0,0,1,2.6-.737A2.554,2.554,0,0,1-369.574,946.2Z" transform="translate(-98.586 -107.723)" fill="#5038a1"/>
    <path id="Trazado_188517" data-name="Trazado 188517" d="M-419.761,906.64a8.275,8.275,0,0,1-.711,1.457c-1.033,1.374-2.113,2.715-3.2,4.049a2.279,2.279,0,0,1-3.253.486,2.263,2.263,0,0,1-.266-3.27c1.087-1.407,2.188-2.8,3.322-4.175a2.268,2.268,0,0,1,2.616-.66A2.546,2.546,0,0,1-419.761,906.64Z" transform="translate(-60.162 -77.391)" fill="#5038a1"/>
    <path id="Trazado_188518" data-name="Trazado 188518" d="M-350.224,976.546a2.355,2.355,0,0,1-1.969-3.481,32.049,32.049,0,0,1,2.87-3.629,2.192,2.192,0,0,1,2.949-.147,2.148,2.148,0,0,1,.466,2.906,38.423,38.423,0,0,1-2.774,3.485A5.556,5.556,0,0,1-350.224,976.546Z" transform="translate(-117.769 -126.73)" fill="#5038a1"/>
  </g>
</svg>
