<svg xmlns="http://www.w3.org/2000/svg" width="400" height="225.129" viewBox="0 0 400 225.129">
  <g id="Grupo_132656" data-name="Grupo 132656" transform="translate(3728 12112)">
    <g id="Grupo_132655" data-name="Grupo 132655" transform="translate(-5800.545 -13317.514)">
      <g id="Grupo_132045" data-name="Grupo 132045">
        <g id="Grupo_132044" data-name="Grupo 132044">
          <g id="Grupo_130790" data-name="Grupo 130790" transform="translate(2072.545 1219.069)">
            <g id="Grupo_130789" data-name="Grupo 130789">
              <path id="Trazado_115813" data-name="Trazado 115813" d="M2074.727,1335.026a259.537,259.537,0,0,1,26.953-17.289,190.922,190.922,0,0,1,29.266-13.166,138.629,138.629,0,0,1,31.845-7.243,97.611,97.611,0,0,1,16.875-.23c1.426.136,2.857.239,4.289.457.716.1,1.434.186,2.151.3l2.151.387c1.449.253,2.822.568,4.244.858,1.391.345,2.8.664,4.186,1.062,11.133,3.068,21.509,8.245,30.981,14.093,9.5,5.86,18.191,12.422,26.553,18.711,4.176,3.153,8.293,6.231,12.366,9.137,2.037,1.466,4.064,2.859,6.082,4.231,1.01.664,2.017,1.347,3.027,1.987l3.119,1.988c8.685,5.525,17.205,10.751,25.717,15.234,4.252,2.243,8.489,4.3,12.7,6.1q3.157,1.352,6.283,2.5c2.082.764,4.159,1.431,6.208,2.028,8.2,2.414,16.01,3.393,22.762,2.783a41.706,41.706,0,0,0,4.89-.732c.787-.161,1.555-.359,2.315-.561l1.123-.331c.341-.119.681-.224,1.018-.353a32.676,32.676,0,0,0,7.621-3.952c.587-.415,1.163-.839,1.719-1.291l2.149-1.676c.743-.577,1.426-1.2,2.139-1.778.7-.6,1.345-1.229,2.019-1.824a54.751,54.751,0,0,0,6.8-7.75,50.187,50.187,0,0,0,8.071-17.374,71.02,71.02,0,0,0,1.892-20.256,106.319,106.319,0,0,0-3.51-22.35,114.475,114.475,0,0,0-3.538-11.2c-.677-1.821-1.4-3.609-2.136-5.305-.37-.841-.754-1.659-1.128-2.4-.187-.371-.373-.733-.545-1.029a4.16,4.16,0,0,0-.241-.392c-.032-.038-.078-.115-.093-.105l-.019,0s-.018-.027,0,.038l.063.263a44.583,44.583,0,1,1,84.018-29.859h0l.222.723.137.492.213.819.351,1.462c.218.938.405,1.823.585,2.7.357,1.746.665,3.431.957,5.1.572,3.33,1.045,6.6,1.438,9.859.784,6.516,1.242,13.007,1.434,19.55a185.7,185.7,0,0,1-3.026,39.844,140.564,140.564,0,0,1-13.665,39.841,122.752,122.752,0,0,1-11.823,18.25,114.085,114.085,0,0,1-14.861,15.682,117.763,117.763,0,0,1-16.949,12.346c-1.479.854-2.947,1.729-4.433,2.538-1.494.784-2.978,1.6-4.479,2.332l-2.254,1.082c-.766.363-1.448.7-2.361,1.109-1.722.792-3.473,1.519-5.243,2.2a89.237,89.237,0,0,1-22.01,5.426c-.939.115-1.885.192-2.826.278-.92.066-1.827.125-2.74.172-1.821.078-3.64.121-5.446.094a94.628,94.628,0,0,1-10.683-.727,102.785,102.785,0,0,1-19.895-4.6,123.985,123.985,0,0,1-17.551-7.5,188.929,188.929,0,0,1-29.4-19.254c-8.85-6.936-16.949-14.2-24.715-21.36l-3.026-2.8c-1.038-.961-2.032-1.932-3.044-2.9-1.981-1.941-3.937-3.884-5.812-5.828-3.787-3.89-7.384-7.767-10.945-11.548-7.1-7.568-13.954-14.85-21.215-21.278a98.654,98.654,0,0,0-23.381-15.939c-1.052-.509-2.127-.945-3.2-1.421l-1.628-.637-.816-.321c-.272-.1-.544-.18-.815-.271l-1.634-.535c-.55-.168-1.11-.311-1.666-.47-1.108-.334-2.253-.567-3.391-.842-1.144-.248-2.31-.46-3.469-.669-1.175-.161-2.342-.388-3.535-.5l-1.785-.2c-.6-.065-1.2-.1-1.8-.145-1.2-.1-2.409-.144-3.622-.179-1.212-.064-2.431-.022-3.651-.037-1.22.009-2.445.067-3.67.1-1.225.1-2.452.167-3.68.28-1.223.138-2.458.232-3.684.4-2.457.3-4.908.714-7.35,1.21-1.222.243-2.445.491-3.657.786l-1.825.43-1.812.488a126.79,126.79,0,0,0-27.954,11.261,124.4,124.4,0,0,0-24.627,17.538,5.276,5.276,0,0,1-7.146-7.763,5.449,5.449,0,0,1,.45-.371Z" transform="translate(-2072.545 -1219.069)" fill="#fdb74d"/>
              <g id="Grupo_80729" data-name="Grupo 80729" transform="translate(47.959 6.967)">
                <ellipse id="Elipse_4784" data-name="Elipse 4784" cx="146.218" cy="98.133" rx="146.218" ry="98.133" fill="#8c6df2" opacity="0.25" style="isolation: isolate"/>
              </g>
            </g>
          </g>
        </g>
      </g>
      <g id="Grupo_132404" data-name="Grupo 132404">
        <g id="Grupo_132403" data-name="Grupo 132403">
          <g id="Grupo_132402" data-name="Grupo 132402">
            <g id="Grupo_132157" data-name="Grupo 132157">
              <g id="Grupo_132156" data-name="Grupo 132156" opacity="0.56">
                <path id="Trazado_187913" data-name="Trazado 187913" d="M2395.98,1239.1l-6.422-5.426-68,80.337h-53.688v-15.833h46.346l63.247-74.722-6.089-5.145,22.729-1.948Z" fill="#9c84dd"/>
              </g>
            </g>
            <g id="Grupo_132158" data-name="Grupo 132158">
              <rect id="Rectángulo_43842" data-name="Rectángulo 43842" width="157.922" height="123.908" rx="6.749" transform="translate(2185.501 1259.066)" fill="#9c84dd"/>
            </g>
            <g id="Grupo_132159" data-name="Grupo 132159">
              <path id="Trazado_187914" data-name="Trazado 187914" d="M2352.331,1259.876v107.71a8.1,8.1,0,0,1-7.067,8.031,7.953,7.953,0,0,1-1.03.066H2202.51a7.933,7.933,0,0,1-2.036-.26,8.1,8.1,0,0,1-6.066-7.837v-107.71a8.1,8.1,0,0,1,7.071-8.031,7.283,7.283,0,0,1,1.031-.066h141.724a8.089,8.089,0,0,1,8.1,8.1Z" fill="#e5e1ff"/>
            </g>
            <g id="Grupo_132160" data-name="Grupo 132160">
              <path id="Trazado_187915" data-name="Trazado 187915" d="M2352.331,1259.876v2.259H2194.408v-2.259a8.1,8.1,0,0,1,7.071-8.031,7.283,7.283,0,0,1,1.031-.066h141.724a8.089,8.089,0,0,1,8.1,8.1Z" fill="#e5e1ff"/>
            </g>
            <g id="Grupo_132161" data-name="Grupo 132161">
              <rect id="Rectángulo_43843" data-name="Rectángulo 43843" width="115.314" height="0.869" transform="translate(2233.776 1261.766) rotate(-0.115)" fill="#b3a4f5"/>
            </g>
            <g id="Grupo_132168" data-name="Grupo 132168" opacity="0.3">
              <g id="Grupo_132163" data-name="Grupo 132163">
                <g id="Grupo_132162" data-name="Grupo 132162">
                  <circle id="Elipse_5274" data-name="Elipse 5274" cx="2.108" cy="2.108" r="2.108" transform="translate(2336.873 1254.849)" fill="#9c84dd"/>
                </g>
              </g>
              <g id="Grupo_132165" data-name="Grupo 132165" opacity="0.5">
                <g id="Grupo_132164" data-name="Grupo 132164">
                  <circle id="Elipse_5275" data-name="Elipse 5275" cx="2.108" cy="2.108" r="2.108" transform="translate(2330.062 1254.849)" fill="#9c84dd"/>
                </g>
              </g>
              <g id="Grupo_132167" data-name="Grupo 132167" opacity="0.3">
                <g id="Grupo_132166" data-name="Grupo 132166">
                  <circle id="Elipse_5276" data-name="Elipse 5276" cx="2.108" cy="2.108" r="2.108" transform="translate(2323.25 1254.849)" fill="#9c84dd"/>
                </g>
              </g>
            </g>
            <g id="Grupo_132169" data-name="Grupo 132169">
              <path id="Trazado_187916" data-name="Trazado 187916" d="M2352.765,1361.437h-.868V1259.876a7.653,7.653,0,0,0-7.663-7.663H2236.166v-.869h108.068a8.522,8.522,0,0,1,8.531,8.532Z" fill="#b3a4f5"/>
            </g>
            <g id="Grupo_132171" data-name="Grupo 132171" opacity="0.7">
              <g id="Grupo_132170" data-name="Grupo 132170">
                <rect id="Rectángulo_43844" data-name="Rectángulo 43844" width="5.11" height="5.562" rx="1.659" transform="translate(2206.693 1330.916)" fill="#9c84dd"/>
              </g>
            </g>
            <g id="Grupo_132173" data-name="Grupo 132173" opacity="0.3">
              <g id="Grupo_132172" data-name="Grupo 132172">
                <rect id="Rectángulo_43845" data-name="Rectángulo 43845" width="73.828" height="5.562" transform="translate(2216.561 1330.916)" fill="#9c84dd"/>
              </g>
            </g>
            <g id="Grupo_132175" data-name="Grupo 132175" opacity="0.3">
              <g id="Grupo_132174" data-name="Grupo 132174">
                <rect id="Rectángulo_43846" data-name="Rectángulo 43846" width="90.05" height="5.562" transform="translate(2249.997 1321.71)" fill="#9c84dd"/>
              </g>
            </g>
            <g id="Grupo_132177" data-name="Grupo 132177" opacity="0.3">
              <g id="Grupo_132176" data-name="Grupo 132176">
                <rect id="Rectángulo_43847" data-name="Rectángulo 43847" width="45.163" height="5.562" transform="translate(2294.884 1330.916)" fill="#9c84dd"/>
              </g>
            </g>
            <g id="Grupo_132179" data-name="Grupo 132179" opacity="0.7">
              <g id="Grupo_132178" data-name="Grupo 132178">
                <rect id="Rectángulo_43848" data-name="Rectángulo 43848" width="5.11" height="5.562" rx="1.659" transform="translate(2206.693 1321.71)" fill="#9c84dd"/>
              </g>
            </g>
            <g id="Grupo_132181" data-name="Grupo 132181" opacity="0.3">
              <g id="Grupo_132180" data-name="Grupo 132180">
                <rect id="Rectángulo_43849" data-name="Rectángulo 43849" width="28.658" height="5.562" transform="translate(2216.561 1321.71)" fill="#9c84dd"/>
              </g>
            </g>
            <g id="Grupo_132183" data-name="Grupo 132183" opacity="0.7">
              <g id="Grupo_132182" data-name="Grupo 132182">
                <rect id="Rectángulo_43850" data-name="Rectángulo 43850" width="5.11" height="5.562" rx="1.659" transform="translate(2206.693 1312.505)" fill="#9c84dd"/>
              </g>
            </g>
            <g id="Grupo_132185" data-name="Grupo 132185" opacity="0.3">
              <g id="Grupo_132184" data-name="Grupo 132184">
                <rect id="Rectángulo_43851" data-name="Rectángulo 43851" width="34.305" height="5.562" transform="translate(2216.561 1312.505)" fill="#9c84dd"/>
              </g>
            </g>
            <g id="Grupo_132187" data-name="Grupo 132187" opacity="0.5">
              <g id="Grupo_132186" data-name="Grupo 132186">
                <rect id="Rectángulo_43852" data-name="Rectángulo 43852" width="133.195" height="21.912" rx="4.343" transform="translate(2206.852 1344.135)" fill="#9c84dd"/>
              </g>
            </g>
            <g id="Grupo_132193" data-name="Grupo 132193">
              <g id="Grupo_132188" data-name="Grupo 132188">
                <rect id="Rectángulo_43853" data-name="Rectángulo 43853" width="88.576" height="2.108" transform="translate(2212.516 1348.22)" fill="#e9eaff"/>
              </g>
              <g id="Grupo_132189" data-name="Grupo 132189">
                <rect id="Rectángulo_43854" data-name="Rectángulo 43854" width="58.144" height="2.108" transform="translate(2276.351 1353.967)" fill="#e9eaff"/>
              </g>
              <g id="Grupo_132190" data-name="Grupo 132190">
                <rect id="Rectángulo_43855" data-name="Rectángulo 43855" width="28.453" height="2.108" transform="translate(2306.041 1348.22)" fill="#e9eaff"/>
              </g>
              <g id="Grupo_132191" data-name="Grupo 132191">
                <rect id="Rectángulo_43856" data-name="Rectángulo 43856" width="58.617" height="2.108" transform="translate(2212.405 1353.967)" fill="#e9eaff"/>
              </g>
              <g id="Grupo_132192" data-name="Grupo 132192">
                <rect id="Rectángulo_43857" data-name="Rectángulo 43857" width="23.493" height="2.108" transform="translate(2212.405 1359.854)" fill="#e9eaff"/>
              </g>
            </g>
            <g id="Grupo_132195" data-name="Grupo 132195" opacity="0.5">
              <g id="Grupo_132194" data-name="Grupo 132194">
                <rect id="Rectángulo_43858" data-name="Rectángulo 43858" width="61.192" height="34.321" rx="3.466" transform="translate(2207.049 1271.408)" fill="#9c84dd"/>
              </g>
            </g>
            <g id="Grupo_132197" data-name="Grupo 132197" opacity="0.5">
              <g id="Grupo_132196" data-name="Grupo 132196">
                <rect id="Rectángulo_43859" data-name="Rectángulo 43859" width="61.192" height="34.321" rx="3.466" transform="translate(2278.499 1271.408)" fill="#9c84dd"/>
              </g>
            </g>
            <g id="Grupo_132198" data-name="Grupo 132198">
              <rect id="Rectángulo_43860" data-name="Rectángulo 43860" width="37.232" height="2.172" transform="translate(2282.64 1276.525)" fill="#e9eaff"/>
            </g>
            <g id="Grupo_132199" data-name="Grupo 132199">
              <rect id="Rectángulo_43861" data-name="Rectángulo 43861" width="24.44" height="2.172" transform="translate(2309.472 1282.445)" fill="#e9eaff"/>
            </g>
            <g id="Grupo_132200" data-name="Grupo 132200">
              <rect id="Rectángulo_43862" data-name="Rectángulo 43862" width="11.96" height="2.172" transform="translate(2321.952 1276.525)" fill="#e9eaff"/>
            </g>
            <g id="Grupo_132201" data-name="Grupo 132201">
              <rect id="Rectángulo_43863" data-name="Rectángulo 43863" width="24.638" height="2.172" transform="translate(2282.593 1282.445)" fill="#e9eaff"/>
            </g>
            <g id="Grupo_132202" data-name="Grupo 132202">
              <rect id="Rectángulo_43864" data-name="Rectángulo 43864" width="11.03" height="2.172" transform="translate(2282.593 1288.51)" fill="#e9eaff"/>
            </g>
            <g id="Grupo_132203" data-name="Grupo 132203">
              <rect id="Rectángulo_43865" data-name="Rectángulo 43865" width="40.628" height="2.172" transform="translate(2212.537 1276.525)" fill="#e9eaff"/>
            </g>
            <g id="Grupo_132204" data-name="Grupo 132204">
              <rect id="Rectángulo_43866" data-name="Rectángulo 43866" width="26.886" height="2.172" transform="translate(2212.486 1282.445)" fill="#e9eaff"/>
            </g>
            <g id="Grupo_132214" data-name="Grupo 132214">
              <g id="Grupo_132206" data-name="Grupo 132206" opacity="0.5">
                <g id="Grupo_132205" data-name="Grupo 132205">
                  <path id="Trazado_187917" data-name="Trazado 187917" d="M2334.46,1205.514h-80.317v36.263h4.881l1.024,14.571,13.177-14.571h61.235Z" fill="#9c84dd"/>
                </g>
              </g>
              <g id="Grupo_132207" data-name="Grupo 132207">
                <path id="Trazado_187918" data-name="Trazado 187918" d="M2328.371,1210.644h-80.317v35.771h6.85v20.839l14.2-20.839h59.266Z" fill="#e5e1ff"/>
              </g>
              <g id="Grupo_132209" data-name="Grupo 132209">
                <g id="Grupo_132208" data-name="Grupo 132208">
                  <path id="Trazado_187919" data-name="Trazado 187919" d="M2254.658,1268.052v-21.391h-6.85V1210.4h80.809v36.263h-59.382Zm-6.358-21.883h6.851v20.287l13.824-20.287h59.15V1210.89H2248.3Z" fill="#9c84dd"/>
                </g>
              </g>
              <g id="Grupo_132213" data-name="Grupo 132213">
                <g id="Grupo_132210" data-name="Grupo 132210">
                  <path id="Trazado_187920" data-name="Trazado 187920" d="M2263.328,1219.988h11.285v2.815h-8.174v4.593h7.7v2.815h-7.7v7.26h-3.111Z" fill="#5817fb"/>
                </g>
                <g id="Grupo_132211" data-name="Grupo 132211">
                  <path id="Trazado_187921" data-name="Trazado 187921" d="M2281.8,1219.988h2.692l7.531,17.483h-3.556l-1.629-4h-7.581l-1.581,4h-3.481Zm3.951,10.816-2.691-7.112-2.741,7.112Z" fill="#5817fb"/>
                </g>
                <g id="Grupo_132212" data-name="Grupo 132212">
                  <path id="Trazado_187922" data-name="Trazado 187922" d="M2312.738,1237.471h-10.174a11.061,11.061,0,0,1-3.79-.63,8.8,8.8,0,0,1-3.012-1.8,8.318,8.318,0,0,1-2-2.865,9.561,9.561,0,0,1-.728-3.815,8.522,8.522,0,0,1,2.716-6.334,9.193,9.193,0,0,1,2.926-1.827,9.926,9.926,0,0,1,7.087,0,9.179,9.179,0,0,1,2.926,1.827,8.528,8.528,0,0,1,2.717,6.334,8.048,8.048,0,0,1-.334,2.432,7.146,7.146,0,0,1-.876,1.852,6.385,6.385,0,0,1-1.2,1.346,10.386,10.386,0,0,1-1.272.914v.049h5.013Zm-10.593-15.112a5.892,5.892,0,0,0-2.334.457,5.506,5.506,0,0,0-1.852,1.271,5.979,5.979,0,0,0-1.222,1.926,6.464,6.464,0,0,0-.445,2.42,6.823,6.823,0,0,0,.445,2.482,5.9,5.9,0,0,0,1.235,1.975,5.7,5.7,0,0,0,1.864,1.3,5.823,5.823,0,0,0,2.358.469,6,6,0,0,0,2.383-.469,5.648,5.648,0,0,0,1.889-1.3,5.919,5.919,0,0,0,1.235-1.975,6.823,6.823,0,0,0,.444-2.482,6.464,6.464,0,0,0-.444-2.42,5.882,5.882,0,0,0-1.235-1.926,5.581,5.581,0,0,0-1.889-1.271A6.267,6.267,0,0,0,2302.145,1222.359Z" fill="#5817fb"/>
                </g>
              </g>
            </g>
            <g id="Grupo_132236" data-name="Grupo 132236">
              <g id="Grupo_132215" data-name="Grupo 132215">
                <path id="Trazado_187923" data-name="Trazado 187923" d="M2373.977,1411.58h0a4.035,4.035,0,0,1-5.675-.6l-40.823-50.444,6.277-5.073,40.823,50.444A4.035,4.035,0,0,1,2373.977,1411.58Z" fill="#826cc9"/>
              </g>
              <g id="Grupo_132216" data-name="Grupo 132216">
                <path id="Trazado_187924" data-name="Trazado 187924" d="M2375.069,1410.207a4.035,4.035,0,0,1-6.767.771l-40.823-50.444,2.663-2.152,40.823,50.444A4.03,4.03,0,0,0,2375.069,1410.207Z" fill="#6c59b2"/>
              </g>
              <g id="Grupo_132217" data-name="Grupo 132217">
                <path id="Trazado_187925" data-name="Trazado 187925" d="M2337.608,1356.558l-9.863,7.973a9.73,9.73,0,0,1-13.683-1.451h0l25-20.2h0A9.728,9.728,0,0,1,2337.608,1356.558Z" fill="#826cc9"/>
              </g>
              <g id="Grupo_132235" data-name="Grupo 132235">
                <g id="Grupo_132222" data-name="Grupo 132222" opacity="0.3">
                  <g id="Grupo_132221" data-name="Grupo 132221">
                    <g id="Grupo_132220" data-name="Grupo 132220">
                      <g id="Grupo_132219" data-name="Grupo 132219">
                        <g id="Grupo_132218" data-name="Grupo 132218">
                          <circle id="Elipse_5277" data-name="Elipse 5277" cx="39.78" cy="39.78" r="39.78" transform="matrix(0.542, -0.84, 0.84, 0.542, 2247.86, 1335.511)" fill="#e1e2ff"/>
                        </g>
                      </g>
                    </g>
                  </g>
                </g>
                <g id="Grupo_132227" data-name="Grupo 132227" opacity="0.7">
                  <g id="Grupo_132226" data-name="Grupo 132226">
                    <g id="Grupo_132225" data-name="Grupo 132225">
                      <g id="Grupo_132224" data-name="Grupo 132224">
                        <g id="Grupo_132223" data-name="Grupo 132223">
                          <path id="Trazado_187926" data-name="Trazado 187926" d="M2331.267,1338.421a32.638,32.638,0,0,1-42.99,16.8C2271.767,1347.987,2338.5,1321.911,2331.267,1338.421Z" fill="#fff"/>
                        </g>
                      </g>
                    </g>
                  </g>
                </g>
                <g id="Grupo_132232" data-name="Grupo 132232" opacity="0.5">
                  <g id="Grupo_132231" data-name="Grupo 132231">
                    <g id="Grupo_132230" data-name="Grupo 132230">
                      <g id="Grupo_132229" data-name="Grupo 132229">
                        <g id="Grupo_132228" data-name="Grupo 132228">
                          <path id="Trazado_187927" data-name="Trazado 187927" d="M2318.509,1292.748A36.678,36.678,0,0,0,2271,1313.561C2263.625,1332.429,2337.376,1300.121,2318.509,1292.748Z" fill="#fff"/>
                        </g>
                      </g>
                    </g>
                  </g>
                </g>
                <g id="Grupo_132234" data-name="Grupo 132234">
                  <g id="Grupo_132233" data-name="Grupo 132233">
                    <path id="Trazado_187928" data-name="Trazado 187928" d="M2321.192,1361.461a42.027,42.027,0,1,1,20.156-20.951A41.988,41.988,0,0,1,2321.192,1361.461Zm-34.72-71.585a37.533,37.533,0,1,0,31.44-.608A37.529,37.529,0,0,0,2286.472,1289.876Z" fill="#826cc9"/>
                  </g>
                </g>
              </g>
            </g>
            <g id="Grupo_132237" data-name="Grupo 132237">
              <circle id="Elipse_5278" data-name="Elipse 5278" cx="40.074" cy="40.074" r="40.074" transform="translate(2145.829 1226.052)" fill="#b3a4f5"/>
            </g>
            <g id="Grupo_132239" data-name="Grupo 132239">
              <g id="Grupo_132238" data-name="Grupo 132238">
                <path id="Trazado_187929" data-name="Trazado 187929" d="M2152.853,1250.052a40.169,40.169,0,0,1,20.489-25.471q1.353-.693,2.765-1.287c.22-.093.446-.187.669-.272a.433.433,0,0,1,.078-.031q.894-.359,1.808-.669a39.636,39.636,0,0,1,7.636-1.79q1.728-.229,3.5-.309c.6-.029,1.206-.041,1.816-.041a40.006,40.006,0,0,1,12.954,2.14q.56.19,1.113.4c.259.1.516.2.773.3.2.075.4.155.591.241q1.108.459,2.184.988a40.075,40.075,0,0,1,22.458,36.007c0,.209,0,.419,0,.628a40.074,40.074,0,1,1-78.832-10.834Z" fill="#e5e1ff"/>
              </g>
            </g>
            <g id="Grupo_132254" data-name="Grupo 132254">
              <g id="Grupo_132240" data-name="Grupo 132240">
                <path id="Trazado_187930" data-name="Trazado 187930" d="M2220.409,1253.485h-3.539c1.019-5.834-3.112-8.207-3.112-8.207,1.475,4.085.752,6.794.049,8.207h-36.19a15.031,15.031,0,0,1,.786-8.833,9.846,9.846,0,0,0-4.3,8.833h-12.005c-1.221-5.922,5.762-14.259,8.795-17.822,3.105-3.647,2.381-10.318,2.381-10.318l35.985-.1s-.724,6.671,2.381,10.318C2214.687,1239.143,2221.738,1247.559,2220.409,1253.485Z" fill="#9c84dd"/>
              </g>
              <g id="Grupo_132241" data-name="Grupo 132241">
                <circle id="Elipse_5279" data-name="Elipse 5279" cx="18.031" cy="18.031" r="18.031" transform="translate(2173.273 1208.148)" fill="#9c84dd"/>
              </g>
              <g id="Grupo_132243" data-name="Grupo 132243">
                <g id="Grupo_132242" data-name="Grupo 132242">
                  <path id="Trazado_187931" data-name="Trazado 187931" d="M2230.172,1271.223a40.084,40.084,0,0,1-77.11,0c.312-.291.647-.578,1-.856.1-.078.213-.156.326-.234a1.261,1.261,0,0,1,.13-.087c.135-.091.278-.183.426-.269.065-.04.134-.079.208-.118.348-.2.734-.391,1.151-.586.143-.07.287-.135.439-.2.708-.313,1.494-.626,2.336-.943l.352-.126c.365-.134.739-.269,1.125-.4.2-.074.4-.144.608-.213.165-.052.326-.109.487-.161.126-.048.256-.087.386-.13,1.494-.495,3.084-.995,4.7-1.5.356-.108.712-.221,1.068-.334.986-.309,1.981-.621,2.962-.938.209-.066.413-.135.621-.2.348-.117.7-.23,1.043-.348l.812-.273c.63-.213,1.242-.43,1.841-.647.343-.126.682-.257,1.017-.383.143-.056.282-.108.425-.165.183-.073.37-.143.548-.217.3-.117.582-.239.864-.36a14.324,14.324,0,0,0,5.1-3.145,9.31,9.31,0,0,0,1.92-4.9,21.564,21.564,0,0,0-.135-5.529,30.276,30.276,0,0,0-.6-3.071v0c-.143-.556-.243-.877-.243-.877h15.28s-.226.721-.478,1.867v.005a28.785,28.785,0,0,0-.469,2.875,20.189,20.189,0,0,0-.035,4.734,9.268,9.268,0,0,0,1.92,4.9,14.036,14.036,0,0,0,4.968,3.088c.178.078.352.152.535.226s.369.152.556.226c.056.026.112.048.169.069.13.053.265.1.4.157.386.152.786.3,1.185.451q.756.275,1.538.548c.217.074.434.147.656.226,1.25.425,2.545.842,3.848,1.25.338.109.682.218,1.025.326.43.135.864.269,1.294.408.143.044.287.087.43.135.287.087.573.178.856.265,2.024.634,3.974,1.26,5.715,1.885.209.069.409.148.608.217,1.2.443,2.281.882,3.193,1.325.152.074.3.143.434.217.213.109.408.217.595.326.07.039.13.074.191.113s.143.087.213.134a6.694,6.694,0,0,1,.56.391C2229.52,1270.645,2229.859,1270.932,2230.172,1271.223Z" fill="#ccc2ff"/>
                </g>
              </g>
              <g id="Grupo_132245" data-name="Grupo 132245" opacity="0.3">
                <g id="Grupo_132244" data-name="Grupo 132244">
                  <path id="Trazado_187932" data-name="Trazado 187932" d="M2199.257,1244s-.226.721-.478,1.867v.005a28.785,28.785,0,0,0-.469,2.875,9.658,9.658,0,0,1-7.006,2.35.481.481,0,0,1-.074-.009,10.368,10.368,0,0,1-6.406-3.136,30.276,30.276,0,0,0-.6-3.071v0c-.143-.556-.243-.877-.243-.877Z" fill="#9c84dd"/>
                </g>
              </g>
              <g id="Grupo_132246" data-name="Grupo 132246">
                <path id="Trazado_187933" data-name="Trazado 187933" d="M2206.206,1226.648c0,2.906-1.759,13.985-7.427,19.223v.005a9.777,9.777,0,0,1-7.475,2.762.376.376,0,0,1-.074-.009,10.785,10.785,0,0,1-7.01-3.744v0c-5.181-5.507-7.822-15.4-7.822-18.233a14.91,14.91,0,0,1,14.832-14.906h.074A14.905,14.905,0,0,1,2206.206,1226.648Z" fill="#ccc2ff"/>
              </g>
              <g id="Grupo_132248" data-name="Grupo 132248" opacity="0.3">
                <g id="Grupo_132247" data-name="Grupo 132247">
                  <path id="Trazado_187934" data-name="Trazado 187934" d="M2191.23,1211.742V1298.4H2179.3a40.169,40.169,0,0,1-26.242-27.18c.312-.291.647-.578,1-.856.1-.078.213-.156.326-.234a1.261,1.261,0,0,1,.13-.087c.135-.091.278-.183.426-.269.065-.04.134-.079.208-.118.348-.2.734-.391,1.151-.586.143-.07.287-.135.439-.2.708-.313,1.494-.626,2.336-.943l.352-.126c.365-.134.739-.269,1.125-.4.2-.074.4-.144.608-.213.165-.052.326-.109.487-.161.126-.048.256-.087.386-.13,1.494-.495,3.084-.995,4.7-1.5.356-.108.712-.221,1.068-.334.986-.309,1.981-.621,2.962-.938.209-.066.413-.135.621-.2.348-.117.7-.23,1.043-.348l.812-.273c.63-.213,1.242-.43,1.841-.647.343-.126.682-.257,1.017-.383.143-.056.282-.108.425-.165.183-.073.37-.143.548-.217.3-.117.582-.239.864-.36a14.324,14.324,0,0,0,5.1-3.145,9.31,9.31,0,0,0,1.92-4.9,25.182,25.182,0,0,0-.739-8.6v0c-5.181-5.507-7.822-15.4-7.822-18.233A14.91,14.91,0,0,1,2191.23,1211.742Z" fill="#9c84dd"/>
                </g>
              </g>
              <g id="Grupo_132249" data-name="Grupo 132249">
                <path id="Trazado_187935" data-name="Trazado 187935" d="M2230.172,1271.222a40.089,40.089,0,0,1-77.112,0c.314-.29.651-.576,1.006-.853.1-.081.21-.158.324-.236.042-.031.086-.06.13-.088.135-.091.278-.179.428-.268.065-.039.135-.077.205-.116.348-.2.734-.4,1.152-.589.142-.068.288-.135.438-.2.708-.313,1.494-.627,2.34-.941l.35-.13c.363-.132.739-.267,1.123-.4.2-.07.405-.14.612-.21l.483-.164c.13-.044.259-.085.389-.13,1.494-.495,3.084-.993,4.7-1.5.353-.111.711-.22,1.066-.334.989-.309,1.982-.623,2.963-.939.207-.068.415-.135.619-.2.351-.114.7-.228,1.043-.345.275-.091.545-.181.815-.275.627-.212,1.242-.43,1.839-.648.345-.125.685-.254,1.017-.381.142-.052.285-.109.425-.164l.55-.218a19.232,19.232,0,0,0,28.621-.189l.555.226c.057.023.112.046.169.067.132.054.267.106.4.158.387.151.783.3,1.186.449.5.184,1.014.366,1.535.547l.656.226c1.251.425,2.545.843,3.847,1.253.343.109.682.218,1.025.324.433.138.866.272,1.3.407.142.044.288.089.43.135.286.088.571.179.856.267,2.021.636,3.974,1.261,5.715,1.884.207.072.41.147.609.22,1.2.441,2.278.882,3.191,1.323.15.073.3.145.436.218.21.109.407.218.594.324.067.039.129.075.192.114l.212.132a6.734,6.734,0,0,1,.561.4C2229.521,1270.646,2229.858,1270.932,2230.172,1271.222Z" fill="#9c84dd"/>
              </g>
              <g id="Grupo_132251" data-name="Grupo 132251">
                <g id="Grupo_132250" data-name="Grupo 132250">
                  <path id="Trazado_187936" data-name="Trazado 187936" d="M2208.01,1262.6a22.568,22.568,0,0,1-32.926.051c.69-.252,1.356-.506,1.992-.763.294-.119.582-.237.863-.359a19.746,19.746,0,0,0,27.226-.057c.175.077.352.152.533.227C2206.428,1262,2207.2,1262.3,2208.01,1262.6Z" fill="#8169cc"/>
                </g>
              </g>
              <g id="Grupo_132252" data-name="Grupo 132252">
                <path id="Trazado_187937" data-name="Trazado 187937" d="M2175.759,1228.628s10.422-.677,13.757-17.145C2189.516,1211.483,2175.133,1211.483,2175.759,1228.628Z" fill="#9c84dd"/>
              </g>
              <g id="Grupo_132253" data-name="Grupo 132253">
                <path id="Trazado_187938" data-name="Trazado 187938" d="M2206.713,1229.1s-18.031-2.5-21.157-17.509c0,0,8.963-2.71,16.05,2.084s5.524,15.321,5.524,15.321Z" fill="#9c84dd"/>
              </g>
            </g>
            <g id="Grupo_132256" data-name="Grupo 132256">
              <g id="Grupo_132255" data-name="Grupo 132255">
                <path id="Trazado_187939" data-name="Trazado 187939" d="M2191.616,1300.766a40.136,40.136,0,0,1-24.627-8.344,40.372,40.372,0,0,1-15.693-28.237l.864-.084a39.638,39.638,0,0,0,79.09-3.222c0-.207,0-.414,0-.621a39.7,39.7,0,0,0-4.8-18.928l.763-.415a40.571,40.571,0,0,1,4.907,19.343c0,.212,0,.423-.005.635a40.389,40.389,0,0,1-15.876,31.529A40.138,40.138,0,0,1,2191.616,1300.766Z" fill="#b3a4f5"/>
              </g>
            </g>
            <g id="Grupo_132372" data-name="Grupo 132372">
              <g id="Grupo_132356" data-name="Grupo 132356">
                <g id="Grupo_132275" data-name="Grupo 132275">
                  <g id="Grupo_132257" data-name="Grupo 132257">
                    <path id="Trazado_187940" data-name="Trazado 187940" d="M2164.01,1364.751l-20.658-.057c-2.693-4.067-9.987-37.643-10.419-41.26a5.665,5.665,0,0,0-3.621-4.693c0-.016,0-.032,0-.047h20.3a5.672,5.672,0,0,1,3.756,4.74C2153.815,1327.19,2161.595,1362.961,2164.01,1364.751Z" fill="#826cc9"/>
                  </g>
                  <g id="Grupo_132258" data-name="Grupo 132258">
                    <path id="Trazado_187941" data-name="Trazado 187941" d="M2193.085,1364.594H2148.8a6.532,6.532,0,0,1-6.321-4.887l-9.947-38.227a3.722,3.722,0,0,0-4.54-2.665h0a3.722,3.722,0,0,0-2.665,4.54l10.553,40.557a10.861,10.861,0,0,0,10.511,8.127h46.7a3.723,3.723,0,0,0,3.723-3.723h0A3.722,3.722,0,0,0,2193.085,1364.594Z" fill="#6c59b2"/>
                  </g>
                  <g id="Grupo_132266" data-name="Grupo 132266">
                    <g id="Grupo_132259" data-name="Grupo 132259">
                      <path id="Rectángulo_43867" data-name="Rectángulo 43867" d="M0,0H35.414a0,0,0,0,1,0,0V.13a3.626,3.626,0,0,1-3.626,3.626H3.626A3.626,3.626,0,0,1,0,.13V0A0,0,0,0,1,0,0Z" transform="translate(2149.835 1371.994)" fill="#5e50a3"/>
                    </g>
                    <g id="Grupo_132260" data-name="Grupo 132260">
                      <rect id="Rectángulo_43868" data-name="Rectángulo 43868" width="3.309" height="27.365" transform="translate(2165.888 1374.945)" fill="#5e50a3"/>
                    </g>
                    <g id="Grupo_132261" data-name="Grupo 132261">
                      <path id="Rectángulo_43869" data-name="Rectángulo 43869" d="M0,0H6.8a0,0,0,0,1,0,0V2.174A3.281,3.281,0,0,1,3.516,5.455H3.281A3.281,3.281,0,0,1,0,2.174V0A0,0,0,0,1,0,0Z" transform="translate(2164.144 1375.169)" fill="#5e50a3"/>
                    </g>
                    <g id="Grupo_132262" data-name="Grupo 132262">
                      <path id="Rectángulo_43870" data-name="Rectángulo 43870" d="M0,0H6.8a0,0,0,0,1,0,0V2.174A3.281,3.281,0,0,1,3.516,5.455H3.281A3.281,3.281,0,0,1,0,2.174V0A0,0,0,0,1,0,0Z" transform="translate(2170.94 1398.521) rotate(-180)" fill="#5e50a3"/>
                    </g>
                    <g id="Grupo_132263" data-name="Grupo 132263">
                      <path id="Trazado_187942" data-name="Trazado 187942" d="M2165.91,1396.877l-20.593,6.915a1.342,1.342,0,0,0-.915,1.272v5.116h2.013v-2.9a1.341,1.341,0,0,1,1.075-1.315l18.4-3.718Z" fill="#5e50a3"/>
                    </g>
                    <g id="Grupo_132264" data-name="Grupo 132264">
                      <path id="Trazado_187943" data-name="Trazado 187943" d="M2169.062,1396.877l.023,5.366,18.507,3.709a1.342,1.342,0,0,1,1.078,1.316v2.912h2.012v-5.044a1.342,1.342,0,0,0-.913-1.272Z" fill="#5e50a3"/>
                    </g>
                    <g id="Grupo_132265" data-name="Grupo 132265">
                      <path id="Trazado_187944" data-name="Trazado 187944" d="M2169.377,1396.524l-3.6-.048.554,7.683q.209,2.874.208,5.757v.264h2.012q0-3.146.247-6.282Z" fill="#5e50a3"/>
                    </g>
                  </g>
                  <g id="Grupo_132270" data-name="Grupo 132270">
                    <g id="Grupo_132267" data-name="Grupo 132267">
                      <circle id="Elipse_5280" data-name="Elipse 5280" cx="4.829" cy="4.829" r="4.829" transform="translate(2139.875 1416.418) rotate(-80.874)" fill="#5e50a3"/>
                    </g>
                    <g id="Grupo_132268" data-name="Grupo 132268">
                      <circle id="Elipse_5281" data-name="Elipse 5281" cx="4.829" cy="4.829" r="4.829" transform="translate(2162.713 1407.587)" fill="#5e50a3"/>
                    </g>
                    <g id="Grupo_132269" data-name="Grupo 132269">
                      <circle id="Elipse_5282" data-name="Elipse 5282" cx="4.829" cy="4.829" r="4.829" transform="matrix(0.192, -0.981, 0.981, 0.192, 2184.011, 1416.23)" fill="#5e50a3"/>
                    </g>
                  </g>
                  <g id="Grupo_132274" data-name="Grupo 132274">
                    <g id="Grupo_132271" data-name="Grupo 132271">
                      <circle id="Elipse_5283" data-name="Elipse 5283" cx="3.421" cy="3.421" r="3.421" transform="translate(2141.988 1408.995)" fill="#6c59b2"/>
                    </g>
                    <g id="Grupo_132272" data-name="Grupo 132272">
                      <circle id="Elipse_5284" data-name="Elipse 5284" cx="3.421" cy="3.421" r="3.421" transform="translate(2164.122 1408.995)" fill="#6c59b2"/>
                    </g>
                    <g id="Grupo_132273" data-name="Grupo 132273">
                      <circle id="Elipse_5285" data-name="Elipse 5285" cx="3.421" cy="3.421" r="3.421" transform="translate(2185.566 1414.968) rotate(-76.847)" fill="#6c59b2"/>
                    </g>
                  </g>
                </g>
                <g id="Grupo_132355" data-name="Grupo 132355">
                  <g id="Grupo_132352" data-name="Grupo 132352">
                    <g id="Grupo_132347" data-name="Grupo 132347">
                      <g id="Grupo_132276" data-name="Grupo 132276">
                        <path id="Trazado_187945" data-name="Trazado 187945" d="M2172.119,1294.837a6.128,6.128,0,0,1,.092.761,4.666,4.666,0,0,0,.027.565v.007c.254,2.624,2.3,5.348,3.658,8.011.107.207.2.411.284.614,1.491,3.55-.5,5.587-.5,5.587l-.892.027a3.543,3.543,0,0,0,.588-2.5,9.363,9.363,0,0,1-1.51,2.521h-9.989v-7.3Z" fill="#48395f"/>
                      </g>
                      <g id="Grupo_132277" data-name="Grupo 132277">
                        <ellipse id="Elipse_5286" data-name="Elipse 5286" cx="9.306" cy="9.096" rx="9.306" ry="9.096" transform="translate(2153.787 1285.179)" fill="#48395f"/>
                      </g>
                      <g id="Grupo_132284" data-name="Grupo 132284">
                        <g id="Grupo_132283" data-name="Grupo 132283">
                          <g id="Grupo_132282" data-name="Grupo 132282">
                            <g id="Grupo_132281" data-name="Grupo 132281">
                              <g id="Grupo_132280" data-name="Grupo 132280">
                                <g id="Grupo_132279" data-name="Grupo 132279">
                                  <g id="Grupo_132278" data-name="Grupo 132278">
                                    <path id="Trazado_187946" data-name="Trazado 187946" d="M2162.617,1297.748c-.227.685-1.6.844-3.078.354s-2.405-1.4-2.255-2.127c.2-.961,1.6-.843,3.077-.354S2162.844,1297.063,2162.617,1297.748Z" fill="#e5bba1"/>
                                  </g>
                                </g>
                              </g>
                            </g>
                          </g>
                        </g>
                      </g>
                      <g id="Grupo_132292" data-name="Grupo 132292">
                        <g id="Grupo_132291" data-name="Grupo 132291">
                          <g id="Grupo_132290" data-name="Grupo 132290">
                            <g id="Grupo_132289" data-name="Grupo 132289">
                              <g id="Grupo_132288" data-name="Grupo 132288">
                                <g id="Grupo_132287" data-name="Grupo 132287">
                                  <g id="Grupo_132286" data-name="Grupo 132286">
                                    <g id="Grupo_132285" data-name="Grupo 132285">
                                      <path id="Trazado_187947" data-name="Trazado 187947" d="M2167.557,1307.413c1.905,1.9,1.737,4.545.429,6.9-.987,1.777-2.344,3.106-4.1,2.495a11.569,11.569,0,0,1-4.678-3.7,4.473,4.473,0,0,1,.585-6.158.676.676,0,0,0,.052-.053c.514-.6.517-5.482.487-7.9-.011-.813-.025-1.347-.025-1.347l7.027,3.188s-.165,1.989-.274,3.6c-.064.956-.091,1.78-.086,1.983A1.461,1.461,0,0,0,2167.557,1307.413Z" fill="#e4c2ad"/>
                                    </g>
                                  </g>
                                </g>
                              </g>
                            </g>
                          </g>
                        </g>
                      </g>
                      <g id="Grupo_132300" data-name="Grupo 132300">
                        <g id="Grupo_132299" data-name="Grupo 132299">
                          <g id="Grupo_132298" data-name="Grupo 132298">
                            <g id="Grupo_132297" data-name="Grupo 132297">
                              <g id="Grupo_132296" data-name="Grupo 132296">
                                <g id="Grupo_132295" data-name="Grupo 132295">
                                  <g id="Grupo_132294" data-name="Grupo 132294">
                                    <g id="Grupo_132293" data-name="Grupo 132293">
                                      <path id="Trazado_187948" data-name="Trazado 187948" d="M2167.33,1300.833s-.165,1.989-.274,3.6a3.767,3.767,0,0,1-1.529.193c-3.788-.451-5.224-6.984-5.224-6.984Z" fill="#e5bba1"/>
                                    </g>
                                  </g>
                                </g>
                              </g>
                            </g>
                          </g>
                        </g>
                      </g>
                      <g id="Grupo_132308" data-name="Grupo 132308">
                        <g id="Grupo_132307" data-name="Grupo 132307">
                          <g id="Grupo_132306" data-name="Grupo 132306">
                            <g id="Grupo_132305" data-name="Grupo 132305">
                              <g id="Grupo_132304" data-name="Grupo 132304">
                                <g id="Grupo_132303" data-name="Grupo 132303">
                                  <g id="Grupo_132302" data-name="Grupo 132302">
                                    <g id="Grupo_132301" data-name="Grupo 132301">
                                      <path id="Trazado_187949" data-name="Trazado 187949" d="M2171.3,1295.078c.014.275.021.547.019.814a11.812,11.812,0,0,1-.277,2.5c-.692,3.055-2.616,5.092-5.124,5.223-3.332.176-6.019-3.6-6.273-8.423a6.729,6.729,0,0,1,.2-2.976c.484-.548,4.7-3.184,7.286-2.789a21.912,21.912,0,0,1,3.6.92A27.41,27.41,0,0,1,2171.3,1295.078Z" fill="#e4c2ad"/>
                                    </g>
                                  </g>
                                </g>
                              </g>
                            </g>
                          </g>
                        </g>
                      </g>
                      <g id="Grupo_132310" data-name="Grupo 132310">
                        <g id="Grupo_132309" data-name="Grupo 132309">
                          <path id="Trazado_187950" data-name="Trazado 187950" d="M2184.214,1328.672l-5.172,6.069-.019.021-.053-.091-4.865-8.342-.293-.5-.042-.584-.029-.411-.051-.683-.084-1.174-.07-.965-.061-.852-.171-2.356-.337-4.675-.141-1.971-.118-1.627-.021-.291-.146-2.012,0,0c.017.01,1.476.3,4.756,6.253,1.726,3.135,4.835,10.081,6.093,12.579.071.146.141.283.206.411C2183.978,1328.221,2184.214,1328.672,2184.214,1328.672Z" fill="#f8e25c"/>
                        </g>
                      </g>
                      <g id="Grupo_132311" data-name="Grupo 132311">
                        <path id="Trazado_187951" data-name="Trazado 187951" d="M2154.183,1309.386c.033.65.144,2.761.365,5.107.159,1.691.367,3.507.644,4.993v0c.069.389.146.754.226,1.086.152.621,3.353,9.13,3.368,9.209.03.168,3.669-1.206,7.593-2.737,1.017-.4,2.056-.805,3.054-1.2,3.051-1.211,5.738-2.291,6.412-2.564.108-.045.166-.066.166-.066a2.544,2.544,0,0,0,.455-.367,3.482,3.482,0,0,0,.483-.588,6.2,6.2,0,0,0,.219-3.332,19.808,19.808,0,0,0-3.113-6.79c-.112-.148-.227-.292-.339-.429-.174-.211-.339-.41-.513-.612-.558-.657-1.1-1.249-1.591-1.754-.111-.116-.219-.227-.322-.33-.534-.554-.974-.973-1.243-1.22l-1.168-.187-1.343-.21h-.018l-1.67-.1-5.452-.721-.5.236c-.587.271-1.58.726-2.411,1.084-.324.14-.623.264-.863.357-.065.023-.127.049-.191.073l0,0-.559.259-1.5.709Z" fill="#e4c2ad"/>
                      </g>
                      <g id="Grupo_132313" data-name="Grupo 132313">
                        <g id="Grupo_132312" data-name="Grupo 132312">
                          <path id="Trazado_187952" data-name="Trazado 187952" d="M2144.653,1328.725c0-.026.013-.053.017-.079l.005-.013c1.12-4.021,4.551-16.287,5.8-17.36l0,0a.166.166,0,0,0,.022-.017l1.533-.826.026-.013a.313.313,0,0,1,.035-.017l.026-.013c.226-.113.465-.23.713-.352l1.268-.608.078-.039c.061-.026.122-.056.182-.087.53-.252,1.047-.495,1.5-.708l-.087,1.837-.039.856-.022.434-.2,4.3-.139,1.533-.13,1.329-.052.613-.061.655-.022.2,0,.074-.109.3-.291.8-.073.2-2.3,6.272-.022.052a3.627,3.627,0,0,1-.23.291,2.663,2.663,0,0,1-.187.2l-.009.009c-.03.035-.056.057-.082.083-.052.047-.1.095-.157.139-.073.06-.147.117-.225.178a2.5,2.5,0,0,1-.226.16,5.753,5.753,0,0,1-.517.309c-.1.048-.182.095-.282.134-.126.061-.257.118-.391.17a1.8,1.8,0,0,1-.174.069c-.061.022-.117.044-.182.065a.171.171,0,0,1-.031.009h-.009c-.16.031-3.231,1.416-4.286.573-.17-.138-.348-.286-.53-.438-.065-.057-.135-.109-.2-.165s-.13-.1-.2-.161l0,0c0-.009,0-.018.009-.026Z" fill="#f8e25c"/>
                        </g>
                      </g>
                      <g id="Grupo_132314" data-name="Grupo 132314">
                        <path id="Trazado_187953" data-name="Trazado 187953" d="M2153.164,1317.774l5.478,13.274.072.17.147.339,8.032-3.4,7.452-3.157.009,0a4.7,4.7,0,0,0,2.594-2.733,6.164,6.164,0,0,0,.219-3.331c-.464-2.406-4.53-10.732-4.53-10.732h0a12.666,12.666,0,0,1-15.795,3.731l-1-.5-1.295,3.062Z" fill="#f8e25c"/>
                      </g>
                      <g id="Grupo_132335" data-name="Grupo 132335">
                        <g id="Grupo_132316" data-name="Grupo 132316">
                          <g id="Grupo_132315" data-name="Grupo 132315">
                            <path id="Trazado_187954" data-name="Trazado 187954" d="M2179.62,1352.318l-8.429-1.909.1-1.5,8.429,1.909Z" fill="#4c485b"/>
                          </g>
                        </g>
                        <g id="Grupo_132322" data-name="Grupo 132322">
                          <g id="Grupo_132317" data-name="Grupo 132317">
                            <path id="Trazado_187955" data-name="Trazado 187955" d="M2209.211,1401.726a3.131,3.131,0,0,1-.4.152h-.009c-.06.022-.126.043-.191.061l-.008,0c-.044.013-.092.026-.139.035-.135.035-.278.061-.43.091-.083.013-.165.026-.257.044l-.43.052c-.06,0-.126.008-.191.017h-.026c-.191.013-.386.026-.586.026h-.222c-.269-.009-.543-.022-.812-.056h-.009a4.147,4.147,0,0,1-2.771-1.325,4.23,4.23,0,0,0-1.1-.951c-.1-.057-.2-.113-.3-.165a5.276,5.276,0,0,0-.595-.278l-.23-.091c-.061-.027-.122-.048-.182-.07s-.1-.035-.157-.056c-.095-.035-.191-.066-.286-.1h-.005c-.764-.252-1.537-.456-2.2-.747h0a3.76,3.76,0,0,1-1.02-.621l-.005,0c-.017-.018-.039-.035-.056-.053a.228.228,0,0,0-.031-.03,2.455,2.455,0,0,1-.408-.525v-.005l-.039-.065a3.67,3.67,0,0,1-.36-2.519v0a1.279,1.279,0,0,1,.034-.178c.013-.079.031-.161.052-.244l.026-.113.079-.3.013-.052.008-.021,0-.014,0-.026c.1-.343.222-.716.365-1.129.03-.095.065-.191.1-.291q.1-.293.221-.612c.309-.86-.173-3.266-.977-6.246-1.524-5.642-4.217-13.321-4.912-16.387-1.06-4.682,1.047-5.568.1-7.244a1.527,1.527,0,0,0-1.581-.747,6.684,6.684,0,0,0-.86.082c-.13.022-.269.043-.408.07-.044.008-.083.017-.126.021s-.061.013-.091.022c-.048.009-.1.017-.157.03-.082.018-.165.031-.252.052l-.008.005a.818.818,0,0,0-.135.03.867.867,0,0,0-.139.031c-.091.017-.191.039-.286.06-.053.013-.1.026-.152.035s-.1.022-.153.039h-.026c-.091.026-.191.048-.286.07s-.213.048-.322.078c-.217.052-.451.1-.69.161l-.209.052c-.3.069-.612.143-.933.226s-.656.152-1,.234l-.069.013c-.174.039-.356.083-.543.122-.339.078-.691.16-1.051.239l-.074.013c-.009,0-.017,0-.026,0l-.009,0c-.2.044-.4.087-.608.135s-.417.087-.634.13c-.439.1-.9.187-1.372.278-.821.165-1.638.309-2.433.443h-.03l-.013.005c-3.188.516-17.069-1.069-18.255-3.527-.022-.048-.048-.1-.069-.148a13.616,13.616,0,0,1-.626-9.559,11.286,11.286,0,0,1,.617-1.49l.13-.248c.065-.121.135-.247.209-.369h0a.346.346,0,0,1,.039-.061,8.744,8.744,0,0,1,3.166-3.114c.048-.03.1-.056.148-.087.031-.013.065-.03.1-.047v-.009a7.628,7.628,0,0,1,1.151-.452c.439-.139.9-.26,1.312-.36a.352.352,0,0,1,.065-.013,10.549,10.549,0,0,1,1.107-.226l1.2.139c1.859.221,5.533.66,8.465,1.055,1.142.157,2.176.309,2.94.435l.027,0c.321.056.595.1.812.148.321.065.643.134.968.2,3.345.712,6.841,1.563,10.051,2.436a39.782,39.782,0,0,1,6.58,2.467c.182.092.36.187.538.283a14.377,14.377,0,0,1,1.472.9c.148.1.291.209.426.317a6.967,6.967,0,0,1,1.672,1.768c1.412,2.241-.034,22.9.726,33.738a20.814,20.814,0,0,0,.894,5.49,2.2,2.2,0,0,0,.126.291,24.312,24.312,0,0,0,2.962,4.183c.165.282.335.564.5.834a17.568,17.568,0,0,0,1.968,2.527h0a2.484,2.484,0,0,1,.938.252C2208.72,1401.465,2208.942,1401.583,2209.211,1401.726Z" fill="#e4c2ad"/>
                          </g>
                          <g id="Grupo_132321" data-name="Grupo 132321">
                            <g id="Grupo_132318" data-name="Grupo 132318">
                              <path id="Trazado_187956" data-name="Trazado 187956" d="M2209.215,1402.664l-6.111-.121-2.6-3.2-4.256-5.243.165-1.628.026-.3.2-1.928-.951-4.93-.291-1.507,4.834-3.462s.547,4.2.943,7.462a20.814,20.814,0,0,0,.894,5.49,2.2,2.2,0,0,0,.126.291,24.312,24.312,0,0,0,2.962,4.183c.165.282.335.564.5.834a17.568,17.568,0,0,0,1.968,2.527h0c.3.33.586.613.83.843C2208.916,1402.412,2209.215,1402.664,2209.215,1402.664Z" fill="#e4c2ad"/>
                            </g>
                            <g id="Grupo_132319" data-name="Grupo 132319">
                              <path id="Trazado_187957" data-name="Trazado 187957" d="M2212.282,1404.788a1.136,1.136,0,0,1-.617.5l-7.041.926a1.909,1.909,0,0,1-1.95-1.169c-.968-2.085-2.4-5.759-4.152-6.158l-.026,0,.752,8.048-1.2.161-1.476-8.005a2.259,2.259,0,0,1-.469-.643c-.465-.855-1.008-2.662-.287-5.95a2.415,2.415,0,0,1,.53-.035.389.389,0,0,1,.074.005,4.285,4.285,0,0,1,3.262,1.819c1.719,2.237,3.813,7.206,4.808,7.175a21.919,21.919,0,0,1,3.14-.33h0a2.484,2.484,0,0,1,.938.252c.152.078.374.2.643.339.678.36,1.655.882,2.615,1.4A1.182,1.182,0,0,1,2212.282,1404.788Z" fill="#9c84dd"/>
                            </g>
                            <g id="Grupo_132320" data-name="Grupo 132320">
                              <path id="Trazado_187958" data-name="Trazado 187958" d="M2212.283,1404.786a1.134,1.134,0,0,1-.617.5l-7.039.927a1.906,1.906,0,0,1-1.952-1.167c-.969-2.085-2.405-5.759-4.154-6.16l-.025,0,.752,8.048-1.2.163-1.476-8.006a2.353,2.353,0,0,1-.471-.643,9.759,9.759,0,0,1,3.01.078c1.15.34,2.952,4.116,3.423,5.153s1.233,1.98,1.657,2.062S2212.03,1404.82,2212.283,1404.786Z" fill="#7e69c4"/>
                            </g>
                          </g>
                        </g>
                        <g id="Grupo_132323" data-name="Grupo 132323">
                          <path id="Trazado_187959" data-name="Trazado 187959" d="M2153.418,1343.055c.128-.108.267-.23.412-.365.167-.147.343-.31.521-.481a9.258,9.258,0,0,0,2.047-2.51l0,0c.38-.914.031.616-.31,1.979-.015.053-.028.105-.041.157-.007.024-.011.048-.018.071-.145.593-.286,1.127-.351,1.368-.022.093-.037.143-.037.143l-2.451.2Z" fill="#e4c2ad"/>
                        </g>
                        <g id="Grupo_132324" data-name="Grupo 132324">
                          <path id="Trazado_187960" data-name="Trazado 187960" d="M2151.092,1354.5a.2.2,0,0,1,.01.052c.014.109.028.222.047.33a2.991,2.991,0,0,0,.052.3.679.679,0,0,0,.028.137c.028.16.061.321.1.481.009.052.024.1.038.156.037.165.085.325.136.486.01.047.029.094.043.141.047.16.1.316.16.472.019.047.033.089.052.132.038.1.076.207.123.306s.08.2.127.3a1.373,1.373,0,0,0,.08.17c.057.132.123.264.189.392.094.179.188.358.292.533.019.033.038.061.052.089.1.165.2.33.307.486,0,.009.014.014.019.023a12.791,12.791,0,0,0,2.9,2.764,6.734,6.734,0,0,0,.7.146c.01,0,.01.005.019.005,1.259.212,2.24-.514,3.5-.91h0c.146-.047.292-.094.443-.127a10.661,10.661,0,0,0,8.433-9.4,9.038,9.038,0,0,0-.01-1.561,9.674,9.674,0,0,0-.2-1.269,9.378,9.378,0,0,0-.467-1.467c-.1-.25-.208-.495-.33-.731a9.208,9.208,0,0,0-.472-.835c-.042-.061-.08-.127-.127-.188a9.366,9.366,0,0,0-.75-.976c-.113-.128-.236-.26-.359-.387a.993.993,0,0,0-.07-.071c-.184-.189-.378-.363-.581-.538-.146-.127-.3-.25-.457-.368,0,0-.009,0-.014-.009a10.651,10.651,0,0,0-4.353-1.957,10.186,10.186,0,0,0-1.156-.165h0a11.269,11.269,0,0,0-2.92.108l-.311.057c-.094.019-.189.038-.278.061-.019,0-.038.01-.057.01-.292.07-.58.146-.863.231s-.552.188-.821.292c-.245.094-.476.2-.707.311l-.005.005c-.047.113-.094.236-.151.354-.023.056-.047.118-.071.174v.005c-.037.094-.075.184-.113.278s-.075.184-.113.279c-.009.028-.024.056-.033.089,0,.01-.009.014-.009.024s-.019.047-.029.07c-.018.048-.042.1-.061.156-.09.222-.184.476-.283.755-.042.108-.085.226-.123.344-.033.085-.061.174-.089.264-.038.109-.076.217-.109.33-.2.618-.41,1.307-.6,2.042-.081.312-.161.632-.236.963s-.146.66-.212,1-.128.68-.18,1.029-.1.7-.136,1.047v.009a.3.3,0,0,0,0,.066c-.01.075-.019.151-.024.231v.005A13.994,13.994,0,0,0,2151.092,1354.5Z" fill="#e4c2ad"/>
                        </g>
                        <g id="Grupo_132325" data-name="Grupo 132325">
                          <path id="Trazado_187961" data-name="Trazado 187961" d="M2191.43,1360.448c0,.074,0,.152,0,.23,0,.017,0,.03,0,.043v.035a25.793,25.793,0,0,1-.369,2.845v.022c-.152.907-.352,1.924-.578,3.027v0c0,.009,0,.013,0,.018-1.79,8.708-5.477,22.815-5.824,29.33a11.222,11.222,0,0,0,.056,2.2,2.228,2.228,0,0,0,.056.312v.005l.018.06a.284.284,0,0,0,.013.07c.078.3.2.669.347,1.073a40.715,40.715,0,0,0,.96,4.321,17.522,17.522,0,0,0,1.19,2.98,2.376,2.376,0,0,1,.83.5l.577.56c-.039,0-.078,0-.117,0-.1-.005-.2-.009-.313-.018-.147-.013-.291-.026-.443-.043h0a1.113,1.113,0,0,0-.139-.026h0l-.013-.005h-.009c-.135-.017-.274-.043-.408-.069-.039-.005-.074-.013-.117-.022a.1.1,0,0,1-.031-.013h-.017l-.009,0c-.056-.013-.117-.022-.174-.035-.013,0-.021,0-.03-.013l-.209-.048c-.06-.022-.126-.039-.186-.061s-.092-.021-.126-.034c-.013-.005-.026-.005-.035-.009-.039-.013-.078-.03-.113-.039s-.082-.031-.122-.048-.1-.039-.156-.056c-.017-.009-.048-.018-.065-.026-.035-.018-.078-.031-.109-.044a.522.522,0,0,0-.091-.039c-.117-.056-.23-.113-.347-.169-.044-.022-.092-.052-.135-.074-.026-.018-.052-.031-.074-.044-.043-.026-.074-.047-.117-.069s-.109-.074-.165-.109l-.156-.117a.611.611,0,0,1-.092-.069c-.047-.04-.091-.074-.139-.113-.026-.022-.047-.048-.073-.066s-.035-.034-.057-.052a.671.671,0,0,1-.061-.065,3.008,3.008,0,0,1-.378-.465c-.017-.021-.034-.052-.056-.078-.044-.082-.091-.165-.135-.256-.026-.048-.048-.1-.078-.148a.4.4,0,0,1-.026-.043,1.179,1.179,0,0,0-.061-.109.062.062,0,0,0-.017-.03c-.013-.017-.022-.035-.035-.052a.633.633,0,0,0-.048-.074.061.061,0,0,1-.017-.026c-.035-.044-.061-.091-.1-.135a3.471,3.471,0,0,0-.256-.312c-.03-.035-.065-.074-.1-.113a1.26,1.26,0,0,1-.1-.109.231.231,0,0,0-.022-.017c-.043-.039-.083-.079-.126-.118s-.078-.069-.117-.108l-.005-.005c-.047-.039-.095-.082-.147-.117-.035-.03-.07-.056-.1-.087s-.092-.069-.135-.1-.087-.065-.13-.095a.12.12,0,0,1-.022-.013c-.065-.053-.135-.087-.2-.135a.163.163,0,0,1-.035-.026c-.082-.057-.165-.109-.247-.156l0-.009-.256-.157c-.108-.065-.221-.13-.33-.191l-.065-.039c-.169-.1-.335-.191-.5-.291h0c-.069-.034-.13-.074-.2-.113s-.122-.078-.183-.113l-.026-.013c-.095-.065-.195-.126-.286-.182-.031-.022-.066-.043-.1-.065-.07-.048-.135-.091-.2-.13a.83.83,0,0,1-.1-.079c-.065-.043-.122-.087-.182-.134a.985.985,0,0,1-.1-.087c-.057-.044-.1-.087-.157-.13s-.113-.109-.16-.166c-.026-.021-.048-.047-.07-.069-.069-.083-.135-.165-.195-.252-.022-.03-.039-.052-.057-.078a.14.14,0,0,0-.017-.022c-.018-.03-.035-.061-.052-.087a2.363,2.363,0,0,1-.183-.4.456.456,0,0,0-.03-.065.451.451,0,0,0-.017-.057v0a.621.621,0,0,0-.018-.07,3.534,3.534,0,0,1-.1-.49c-.008-.04-.008-.083-.013-.122s-.017-.1-.017-.148a1.233,1.233,0,0,0-.009-.134v-.139a.584.584,0,0,1,.009-.126v-.092a.894.894,0,0,0,.017-.117c0-.043.009-.078.013-.117l.005-.013a.736.736,0,0,1,.013-.1c.017-.065.026-.131.043-.191a1.133,1.133,0,0,1,.03-.113.207.207,0,0,1,.009-.035c.013-.039.022-.083.035-.13a4.376,4.376,0,0,1,.178-.465v-.009c.043-.117.1-.239.165-.365l.026-.052.017-.043c.005-.013.013-.022.018-.035.039-.074.082-.148.126-.23l.061-.122.013-.021c.008-.009.008-.014.013-.018l0,0c.174-.322.382-.669.612-1.047l0,0c.052-.083.108-.165.16-.252.105-.161.213-.335.326-.508.469-.73.495-2.988.322-5.864-.357-5.881-1.555-14.341-1.542-17.573a9.552,9.552,0,0,1,.669-3.8l0-.008v-.009a1.86,1.86,0,0,1,.1-.217c.065-.148.13-.278.2-.408s.131-.252.2-.365c.03-.057.065-.113.091-.17.117-.208.217-.4.308-.582.031-.06.057-.121.083-.182l.065-.182c.017-.066.03-.122.048-.183a1.778,1.778,0,0,0,.021-.63.912.912,0,0,0-.03-.178c-.013-.043-.022-.087-.035-.13a.935.935,0,0,0-.061-.169.278.278,0,0,0-.026-.057,1.3,1.3,0,0,0-.182-.3.079.079,0,0,0-.03-.035.382.382,0,0,1-.039-.048c-.035-.03-.079-.065-.113-.1-.022-.013-.035-.026-.057-.039a1.592,1.592,0,0,0-.439-.221l-.086-.031c-.031-.008-.053-.013-.079-.021a3.416,3.416,0,0,0-.5-.109c-.022,0-.044,0-.07,0s-.074-.013-.117-.018c-.17-.021-.348-.034-.547-.052-.126,0-.261-.013-.4-.021h-.065c-.091,0-.178-.005-.269-.005-.109,0-.218,0-.331,0a.4.4,0,0,0-.069,0c-.091,0-.187,0-.282,0h-.5c-.283,0-.582,0-.9,0-.144,0-.283,0-.43,0-.335.005-.7.005-1.065.009-.095,0-.186,0-.278,0h-1.468c-.338,0-.69,0-1.051,0h-.043c-.087,0-.169,0-.256,0-.231,0-.465-.005-.7-.009-.122,0-.247,0-.373,0-.443-.005-.917-.022-1.4-.04-.687-.017-1.368-.047-2.033-.086a.066.066,0,0,0-.035-.005c-.134-.008-.278-.013-.417-.021l-.021-.005c-.27-.013-.539-.035-.808-.052-1.512-.113-2.941-.265-4.265-.43a22.467,22.467,0,0,1-4.365-.508,3.239,3.239,0,0,1-.3-.2,12.878,12.878,0,0,1-2.9-2.762c0-.009-.013-.013-.017-.026-.1-.152-.208-.317-.3-.482-.017-.031-.035-.057-.052-.091-.1-.174-.2-.348-.295-.535-.066-.126-.131-.256-.187-.391a1.459,1.459,0,0,1-.083-.169c-.043-.1-.087-.2-.126-.295s-.082-.2-.121-.309a1.022,1.022,0,0,1-.052-.13c-.057-.156-.113-.313-.161-.473-.013-.048-.035-.1-.044-.139a4.858,4.858,0,0,1-.134-.487.89.89,0,0,1-.039-.156c-.044-.161-.074-.322-.1-.482a.752.752,0,0,1-.027-.135,2.4,2.4,0,0,1-.052-.3c-.021-.109-.039-.221-.052-.334,0-.013,0-.031,0-.048a13.829,13.829,0,0,1-.035-2.467v0c0-.074.009-.157.018-.231a.139.139,0,0,0,0-.039v-.035c.022-.178.039-.351.069-.525s.048-.352.074-.526c.052-.347.113-.686.178-1.025s.139-.677.213-1,.156-.651.235-.964c.195-.734.4-1.424.6-2.041.035-.113.074-.222.109-.33.03-.091.056-.178.091-.265.039-.117.083-.235.122-.343.1-.278.2-.534.278-.756.021-.056.043-.109.065-.156l.026-.074a.027.027,0,0,0,.009-.022.8.8,0,0,0,.039-.087c.039-.1.074-.191.113-.278s.073-.186.113-.278v0c.021-.056.047-.122.069-.178.113-.065.226-.126.339-.187.3-.156.612-.291.925-.417.265-.095.538-.187.812-.256h0c.152-.043.309-.083.465-.113a9.638,9.638,0,0,1,3.314-.1,21.93,21.93,0,0,1,3.935,1.094c.091.031.187.065.282.1a.177.177,0,0,0,.048.022c.374.13.769.282,1.173.434v0c.048.018.095.039.143.052s.122.044.187.07l.013,0c.074.031.148.057.221.087.244.091.487.191.73.291l.187.07,0,0c.1.043.213.087.322.13.295.122.6.243.9.369h0c.235.1.465.2.7.3.144.057.278.118.422.178.243.1.486.209.734.313.034.018.06.026.1.048.843.365,1.716.76,2.6,1.168l.9.413c.322.152.652.3.978.46.243.118.5.235.742.352,1.859.89,3.727,1.816,5.529,2.749.652.343,1.29.678,1.92,1.012a.684.684,0,0,1,.083.044c.6.339,1.19.677,1.746,1.012.816.495,1.581.986,2.284,1.476.2.135.391.274.573.409a.071.071,0,0,0,.018.017,1.3,1.3,0,0,1,.165.126,2.106,2.106,0,0,1,.191.139c.182.135.36.274.539.408.1.091.212.174.312.261.018.009.026.022.044.03.091.078.178.152.269.226.048.044.1.087.148.13.034.035.078.07.117.109.026.022.056.052.082.074.239.213.461.421.661.634l.008,0,.078.078a.307.307,0,0,1,.031.035c.043.048.087.091.135.139s.065.074.1.109c.135.147.27.3.387.443.061.078.117.152.178.226.017.026.035.043.052.069l0,0s.005,0,.005.009c.078.109.156.213.239.326.026.039.043.074.074.113a.614.614,0,0,0,.047.069c.026.048.057.092.079.135v0a.169.169,0,0,1,.03.035c.052.083.091.161.135.243a.3.3,0,0,1,.039.07c.017.026.03.052.047.074.022.043.044.087.061.126s.031.069.052.108c.079.174.152.343.213.513A2.525,2.525,0,0,1,2191.43,1360.448Z" fill="#e4c2ad"/>
                        </g>
                        <g id="Grupo_132326" data-name="Grupo 132326">
                          <path id="Trazado_187962" data-name="Trazado 187962" d="M2173.9,1338.864v.035h.013Z" fill="#3138a5"/>
                        </g>
                        <g id="Grupo_132327" data-name="Grupo 132327">
                          <path id="Trazado_187963" data-name="Trazado 187963" d="M2151.092,1354.5c0,.019,0,.033,0,.048.014.113.033.226.052.334a2.991,2.991,0,0,0,.052.3.679.679,0,0,0,.028.137c.028.16.061.321.1.481.009.052.024.1.038.156.037.165.085.325.136.486.01.047.029.094.043.141.047.16.1.316.16.472.019.047.033.089.052.132.038.1.076.207.123.306s.08.2.127.3a1.373,1.373,0,0,0,.08.17c.057.132.123.264.189.392.094.184.188.358.292.533.019.033.038.061.052.089.1.165.2.33.307.486,0,.009.014.014.019.023a12.791,12.791,0,0,0,2.9,2.764c.095.071.194.137.293.2a13.285,13.285,0,0,0,7.249,2.193h.07l14.362-.033,2.41,0,2.726-2.344.009-.01,3.415-2.924.184-.165,2.876-2.462,6.268-5.857.123-.118.113-.109h0v-.005a.018.018,0,0,1-.01,0c-.009-.005-.023-.01-.037-.019l-.033-.014a.171.171,0,0,1-.038-.019,0,0,0,0,0-.005-.005c-.023-.009-.052-.023-.085-.038s-.066-.033-.1-.047-.062-.028-.09-.042l-.057-.029s-.009,0-.014,0c-.745-.354-2.315-1.094-4.3-2.019-2.42-1.122-5.452-2.509-8.334-3.773-3.509-1.542-7.791-3.061-8-3.292a3.521,3.521,0,0,1-.533-.768,0,0,0,0,0-.005-.005,3.5,3.5,0,0,1-.41-1.632v-.005l-3.929-.273-1.467-.1-.363-.024-12.243-.858h-.005l-1.4,2.872-.014.029h0c-.259.6-.542,1.273-.835,1.98v.005c-.047.113-.094.236-.151.354-.023.056-.047.118-.071.174v.005c-.037.094-.075.184-.113.278s-.075.184-.113.279a.7.7,0,0,1-.038.089.023.023,0,0,1-.009.019c-.01.028-.019.047-.028.075-.019.048-.043.1-.062.156-.085.222-.184.476-.278.755-.042.108-.085.226-.123.344-.033.085-.061.174-.089.264-.038.109-.076.217-.109.33-.2.618-.41,1.307-.6,2.042-.081.312-.161.632-.236.963s-.146.66-.212,1c-.128.68-.236,1.373-.316,2.076v.009a.057.057,0,0,0,0,.028.108.108,0,0,1-.005.038c-.009.075-.014.156-.019.231v.005A11.31,11.31,0,0,0,2151.092,1354.5Z" fill="#9c84dd"/>
                        </g>
                        <g id="Grupo_132328" data-name="Grupo 132328">
                          <path id="Trazado_187964" data-name="Trazado 187964" d="M2179.27,1368.077l8.135-6.861,2.757-2.324.614-.517,7.572-6.387a14.333,14.333,0,0,0-1.473-.905c-.175-.094-.74-.38-.923-.469l-10.165,9.254-2.8,2.383-2.761,2.354a.208.208,0,0,1,.022.056,1.073,1.073,0,0,1,.064.173c.344,1.164-.425,1.748-1.042,3.226l0,0Z" fill="#e5bba1"/>
                        </g>
                        <g id="Grupo_132329" data-name="Grupo 132329">
                          <rect id="Rectángulo_43871" data-name="Rectángulo 43871" width="19.416" height="0.434" transform="translate(2154.952 1341.398)" fill="#7e69c4"/>
                        </g>
                        <g id="Grupo_132330" data-name="Grupo 132330">
                          <path id="Trazado_187965" data-name="Trazado 187965" d="M2190.951,1365.232l-.493-.129c.01-.038,1-3.848.639-5.5-.331-1.526-1.075-1.751-1.083-1.753l.123-.494c.043.01,1.052.271,1.458,2.139C2191.98,1361.266,2190.993,1365.071,2190.951,1365.232Z" fill="#e5bba1"/>
                        </g>
                        <g id="Grupo_132334" data-name="Grupo 132334">
                          <g id="Grupo_132331" data-name="Grupo 132331">
                            <path id="Trazado_187966" data-name="Trazado 187966" d="M2188.381,1408.936l-5.833-1.82-1.668-3.957-2.38-5.646-.178-.421.612-1.516a13.063,13.063,0,0,0,1.208-6.133l.23-2.471,5.6-1.976s-.83,5.368-1.373,8.652a11.9,11.9,0,0,0,.044,2.354c.091,1.059.256,2.358.49,3.722a40.715,40.715,0,0,0,.96,4.321,17.522,17.522,0,0,0,1.19,2.98c.191.382.374.716.534,1C2188.151,1408.6,2188.381,1408.936,2188.381,1408.936Z" fill="#e4c2ad"/>
                          </g>
                          <g id="Grupo_132332" data-name="Grupo 132332">
                            <path id="Trazado_187967" data-name="Trazado 187967" d="M2190.735,1411.828a1.143,1.143,0,0,1-.734.309l-7.019-1.073a1.9,1.9,0,0,1-1.546-1.663c-.352-2.276-.7-6.2-2.272-7.076l-.026,0-1.52,7.935-1.2-.178.817-8.1a2.3,2.3,0,0,1-.274-.747c-.2-.951-.222-2.836,1.385-5.794a2.6,2.6,0,0,1,.591.139,6.884,6.884,0,0,1,2.623,2.658c.748,1.92,1.286,5.294,1.894,7.071.222.656.456,1.094.717,1.164.021,0,.043.013.069.017a19.313,19.313,0,0,1,3.049.539,2.376,2.376,0,0,1,.83.5l.577.56c.543.53,1.312,1.281,2.068,2.015A1.189,1.189,0,0,1,2190.735,1411.828Z" fill="#9c84dd"/>
                          </g>
                          <g id="Grupo_132333" data-name="Grupo 132333">
                            <path id="Trazado_187968" data-name="Trazado 187968" d="M2190.733,1411.83a1.134,1.134,0,0,1-.731.308l-7.018-1.075a1.9,1.9,0,0,1-1.549-1.665c-.349-2.273-.7-6.2-2.27-7.074l-.026,0-1.523,7.938-1.2-.179.816-8.1a2.366,2.366,0,0,1-.272-.749,9.712,9.712,0,0,1,2.869.915c1.008.647,1.686,4.776,1.848,5.9a4.066,4.066,0,0,0,1.016,2.442C2183.07,1410.682,2190.481,1411.792,2190.733,1411.83Z" fill="#7e69c4"/>
                          </g>
                        </g>
                      </g>
                      <g id="Grupo_132336" data-name="Grupo 132336">
                        <path id="Trazado_187969" data-name="Trazado 187969" d="M2154.477,1340.536h19.882l-.534-8.159,2.021-9.093-21.508-2.649,2.91,10.728-2.752,9.146Z" fill="#f8e25c"/>
                      </g>
                      <g id="Grupo_132337" data-name="Grupo 132337">
                        <path id="Trazado_187970" data-name="Trazado 187970" d="M2154.364,1309.3l1.376,1.986,3.911,5.641,1.483-1.114v0l.436-.329,1.149-.863,4.922.271,1.316.073.154-.138,1.269-1.116,4.262-.63-2-4.865-3.765-.6a6.264,6.264,0,0,1-.594,1.22c-.082.131-.168.26-.258.382a6.231,6.231,0,0,1-9.286.97l-.4-.36,0-.005-.055-.051-1.664-1.509c-.065.023-.127.049-.191.073l0,0-.559.259Z" fill="#f8e25c"/>
                      </g>
                      <g id="Grupo_132338" data-name="Grupo 132338">
                        <path id="Trazado_187971" data-name="Trazado 187971" d="M2169.612,1324.837a10.8,10.8,0,0,0,3.474,1.411,6.407,6.407,0,0,0,2.054.018l.482-1.946a12.156,12.156,0,0,1-3.34.678C2170.921,1324.989,2169.706,1324.846,2169.612,1324.837Z" fill="#eccc6b"/>
                      </g>
                      <g id="Grupo_132339" data-name="Grupo 132339">
                        <path id="Trazado_187972" data-name="Trazado 187972" d="M2167.507,1324.834a8.63,8.63,0,0,1-5.243,1.738,6.051,6.051,0,0,1-4.536-2.092,16.387,16.387,0,0,0,4.89,1.061A35.6,35.6,0,0,0,2167.507,1324.834Z" fill="#eccc6b"/>
                      </g>
                      <g id="Grupo_132340" data-name="Grupo 132340">
                        <path id="Trazado_187973" data-name="Trazado 187973" d="M2163.629,1335.774l-1.082,2.332-.539,1.164s-.047-.009-.147-.035l-.382-.091-.3-.074h0l-.443-.113c-.622-.152-1.438-.364-2.376-.608-.487-.195-1.03-.417-1.616-.651a.015.015,0,0,0-.013-.005c-.391-.165-.808-.334-1.233-.508-.317-.13-.639-.265-.969-.4s-.664-.273-1-.417c-.048-.017-.091-.039-.139-.056-.617-.261-1.238-.526-1.855-.791a.22.22,0,0,1-.035-.017c-.269-.113-.534-.23-.8-.347-.53-.231-1.046-.456-1.546-.682-.082-.035-.156-.07-.234-.109s-.161-.069-.239-.1l-.626-.287-.265-.121c-1.229-.574-2.458-1.277-2.619-1.368l-.017-.009a1.927,1.927,0,0,1-.413-.421,8.686,8.686,0,0,1-.4-1.408c0-.108,0-.208,0-.312.009-.213.022-.409.048-.6a.264.264,0,0,1,.009-.061.06.06,0,0,1,0-.026v0l.217-.852c.013-.017.022-.039.035-.06v-.009l0-.009a2.666,2.666,0,0,1,.6-.842l.473-.456a5.311,5.311,0,0,1,4.183-.126,15.449,15.449,0,0,1,2.163,1.051c.061.03.117.06.178.095.63.356,1.329.76,2.05,1.2.048.026.091.052.139.083.908.547,1.854,1.133,2.78,1.719,2.176,1.377,4.213,2.732,5.251,3.449.117.082.212.148.3.208h0l0,.005h0v0c.06.044.117.083.165.117.121.087.2.148.23.17v0C2163.472,1335.639,2163.629,1335.774,2163.629,1335.774Z" fill="#e4c2ad"/>
                      </g>
                      <g id="Grupo_132341" data-name="Grupo 132341">
                        <path id="Trazado_187974" data-name="Trazado 187974" d="M2170.973,1336.415l-.87-.144c-.656-.1-2.4-1-3.543-1.237a18.734,18.734,0,0,0-3.927.076l-2.052,3.246s.773.947,1.557,1.814c.134.145.263.289.392.423a5.12,5.12,0,0,0,1.058.939,15.633,15.633,0,0,0,2.157.866c.071.02.142.04.215.057s.16.04.243.056.155.033.233.047c.339.085,1.07.242,1.81.351h0l.241.032.218.031a3,3,0,0,0,1.49-.058c.592-.386-.084-.625-.084-.625a11.159,11.159,0,0,0,2.2.115c.206-.033.351-.086.394-.174a.475.475,0,0,0-.2-.6.554.554,0,0,0-.086-.057s.034.008.095.018a2.369,2.369,0,0,0,.488.053c.294,0,.608-.06.663-.328.045-.239-.177-.456-.434-.62a3.277,3.277,0,0,0-.44-.228c-.142-.06-.239-.093-.239-.093a1.533,1.533,0,0,0,.261,0c.26-.026.583-.134.336-.553a.609.609,0,0,0-.168-.163,22.06,22.06,0,0,0-4.62-1.444,1.974,1.974,0,0,1-1.079-.455.627.627,0,0,1-.1-.526c0-.005,0-.005,0-.009.077-.471,1.888.169,2.688.146a1.617,1.617,0,0,0,1.184-.762A.121.121,0,0,0,2170.973,1336.415Z" fill="#e4c2ad"/>
                      </g>
                      <g id="Grupo_132342" data-name="Grupo 132342">
                        <path id="Trazado_187975" data-name="Trazado 187975" d="M2162.812,1334.106l-.334.773-.635,1.472v.005l0,.008,0,.005,0,.013-.386.908-.3.716h0l-.287.673-.117.278-.126.291s-.886-.352-2.25-.9c-.487-.195-1.03-.417-1.616-.651a.015.015,0,0,0-.013-.005c-.391-.165-.808-.334-1.233-.508-.317-.13-.639-.265-.969-.4s-.664-.273-1-.417c-.048-.017-.091-.039-.139-.056-.617-.261-1.238-.526-1.855-.791a.22.22,0,0,1-.035-.017c-.269-.113-.534-.23-.8-.347-.53-.231-1.046-.456-1.546-.682-.082-.035-.156-.07-.234-.109s-.161-.069-.239-.1l-.626-.287-.265-.121c-1.229-.574-2.458-1.277-2.619-1.368l-.017-.009a1.927,1.927,0,0,1-.413-.421,2.352,2.352,0,0,1-.347-2.324.264.264,0,0,1,.009-.061.06.06,0,0,1,0-.026v0l.217-.852c.013-.039.031-.082.052-.139l.005-.013c.034-.086.078-.191.126-.308a3.061,3.061,0,0,1,3-1.85h.109c.864-.065,2.519.577,4.426,1.516.816.4,1.681.855,2.545,1.333.721.4,1.446.812,2.15,1.22C2160.15,1332.364,2162.812,1334.106,2162.812,1334.106Z" fill="#f8e25c"/>
                      </g>
                      <g id="Grupo_132343" data-name="Grupo 132343">
                        <path id="Trazado_187976" data-name="Trazado 187976" d="M2162.479,1334.877l.308.212.23-.018-1.613,4.264-.224-.264-.448-.113Z" fill="#e5bba1"/>
                      </g>
                      <g id="Grupo_132344" data-name="Grupo 132344">
                        <path id="Trazado_187977" data-name="Trazado 187977" d="M2175.112,1326.91l-.417-.12.695-2.4.1-.038c.064-.024,1.6-.632,1.7-3.333.1-2.836-3.523-9.832-3.56-9.9l.385-.2c.152.291,3.718,7.169,3.609,10.119-.1,2.626-1.481,3.484-1.883,3.679Z" fill="#eccc6b"/>
                      </g>
                      <g id="Grupo_132345" data-name="Grupo 132345">
                        <path id="Trazado_187978" data-name="Trazado 187978" d="M2159.39,1295.363a1.656,1.656,0,0,0,1.57-.2c.72-.561,1.174-3.042,2.681-3.432s1.863-.411,4.636-.094,3.061-.209,3.061-.209-.668-1.755-1.082-1.65c-.273.069-5.921-2.138-9.531-.21,0,0-1.843,1.925-1.87,2.571Z" fill="#48395f"/>
                      </g>
                      <g id="Grupo_132346" data-name="Grupo 132346">
                        <path id="Trazado_187979" data-name="Trazado 187979" d="M2150.97,1310.428h1.079c-.289-1.3-.794-4.358.276-6.629,0,0-.032,4.755,1.5,6.629h7.148a21.361,21.361,0,0,1-.421-7.316c.036-.19.077-.381.127-.567.826-3.211-.565-4.23-.565-4.23s-4.807-.189-5.466-2.017l-.817-2.267a7.872,7.872,0,0,1-1.173,5.3C2151.5,1300.97,2148.447,1304.721,2150.97,1310.428Z" fill="#48395f"/>
                      </g>
                    </g>
                    <g id="Grupo_132348" data-name="Grupo 132348">
                      <path id="Trazado_187980" data-name="Trazado 187980" d="M2197.716,1329.549s-.044.026-.135.068-.205.1-.354.177c-.08.042-.171.086-.272.137h0l-.415.2c-.519.255-1.191.578-1.965.947l-10.245,3.2a.163.163,0,0,1-.03.009l-.012,0-.664.185a17.167,17.167,0,0,1-3.166.717.054.054,0,0,0-.019,0,1.839,1.839,0,0,1-.586-.055,2.532,2.532,0,0,1-.613-.225l-.009,0a.138.138,0,0,1-.025-.022,1.872,1.872,0,0,1-.137-.128.344.344,0,0,1-.025-.025.977.977,0,0,1-.072-.07l-1.41-2.415a2.957,2.957,0,0,1,0-.654l.067-.653a5.333,5.333,0,0,1,3.12-2.791,17.656,17.656,0,0,1,2.531-.626c.105-.021.213-.04.322-.061.626-.116,1.307-.232,2.017-.343.053-.011.106-.017.163-.026,3.507-.563,7.68-1.039,9.47-1.216.141-.01.259-.023.366-.034,0,0,0,0,.007,0l.006,0,0,0,.207-.015.282-.019,0,0,.584.014Z" fill="#e4c2ad"/>
                    </g>
                    <g id="Grupo_132349" data-name="Grupo 132349">
                      <path id="Trazado_187981" data-name="Trazado 187981" d="M2202.739,1321.595l-.759.45c-.57.341-2.476.78-3.508,1.333a18.7,18.7,0,0,0-2.956,2.587l.519,3.805s1.2.226,2.359.385c.2.025.388.052.573.072a5.1,5.1,0,0,0,1.414.037,15.712,15.712,0,0,0,2.208-.726c.067-.03.134-.06.2-.095s.149-.072.223-.113.14-.074.209-.114c.314-.153.974-.5,1.61-.9h0l.2-.131c.062-.037.126-.079.187-.117.562-.374,1.03-.751,1.1-1,.2-.676-.468-.424-.468-.424a11.181,11.181,0,0,0,1.762-1.331c.136-.158.213-.291.189-.387a.476.476,0,0,0-.545-.33.625.625,0,0,0-.1.013l.085-.048a2.432,2.432,0,0,0,.407-.273c.225-.189.427-.438.3-.678-.119-.212-.429-.236-.731-.2a3.371,3.371,0,0,0-.483.108c-.147.046-.244.083-.244.083a1.477,1.477,0,0,0,.2-.169c.182-.186.36-.477-.1-.64a.635.635,0,0,0-.233-.016,22.029,22.029,0,0,0-4.465,1.869,1.991,1.991,0,0,1-1.119.347.631.631,0,0,1-.419-.335l-.006-.008c-.244-.409,1.554-1.085,2.151-1.618a1.613,1.613,0,0,0,.415-1.345A.12.12,0,0,0,2202.739,1321.595Z" fill="#e4c2ad"/>
                    </g>
                    <g id="Grupo_132350" data-name="Grupo 132350">
                      <path id="Trazado_187982" data-name="Trazado 187982" d="M2196.628,1330.437l-2.055.643-10.245,3.2-.03.009-.012,0-.664.185a17.167,17.167,0,0,1-3.166.717.054.054,0,0,0-.019,0,1.839,1.839,0,0,1-.586-.055,2.532,2.532,0,0,1-.613-.225l-.009,0a.138.138,0,0,1-.025-.022,1.872,1.872,0,0,1-.137-.128.344.344,0,0,1-.025-.025.977.977,0,0,1-.072-.07l-1.41-2.415a2.113,2.113,0,0,1,.145-2.039,4.153,4.153,0,0,1,.98-1.382c1.625-1.522,16.322-3.754,16.322-3.754l.241.8.463,1.537.005.008v0l.733,2.409.089.291Z" fill="#f8e25c"/>
                    </g>
                    <g id="Grupo_132351" data-name="Grupo 132351">
                      <path id="Trazado_187983" data-name="Trazado 187983" d="M2195.248,1325.885l.372-.036.165-.162,1.51,4.3-.342-.058-.416.2Z" fill="#e5bba1"/>
                    </g>
                  </g>
                  <g id="Grupo_132353" data-name="Grupo 132353">
                    <rect id="Rectángulo_43872" data-name="Rectángulo 43872" width="0.434" height="6.446" transform="translate(2157.391 1331.072) rotate(-57.548)" fill="#eccc6b"/>
                  </g>
                  <g id="Grupo_132354" data-name="Grupo 132354">
                    <rect id="Rectángulo_43873" data-name="Rectángulo 43873" width="0.434" height="4.295" transform="matrix(0.354, -0.935, 0.935, 0.354, 2156.164, 1337.679)" fill="#eccc6b"/>
                  </g>
                </g>
              </g>
              <g id="Grupo_132365" data-name="Grupo 132365">
                <g id="Grupo_132357" data-name="Grupo 132357">
                  <path id="Trazado_187984" data-name="Trazado 187984" d="M2126.651,1385.421" fill="#ab7da7"/>
                </g>
                <g id="Grupo_132364" data-name="Grupo 132364">
                  <g id="Grupo_132358" data-name="Grupo 132358">
                    <rect id="Rectángulo_43874" data-name="Rectángulo 43874" width="114.14" height="2.861" transform="translate(2124.433 1344.322)" fill="#826cc9"/>
                  </g>
                  <g id="Grupo_132359" data-name="Grupo 132359">
                    <rect id="Rectángulo_43875" data-name="Rectángulo 43875" width="26.488" height="2.861" transform="translate(2124.433 1344.322)" fill="#5e50a3"/>
                  </g>
                  <g id="Grupo_132360" data-name="Grupo 132360">
                    <rect id="Rectángulo_43876" data-name="Rectángulo 43876" width="1.931" height="69.901" transform="translate(2212.084 1347.184)" fill="#826cc9"/>
                  </g>
                  <g id="Grupo_132361" data-name="Grupo 132361">
                    <rect id="Rectángulo_43877" data-name="Rectángulo 43877" width="1.931" height="69.901" transform="translate(2236.642 1347.184)" fill="#826cc9"/>
                  </g>
                  <g id="Grupo_132362" data-name="Grupo 132362">
                    <rect id="Rectángulo_43878" data-name="Rectángulo 43878" width="1.931" height="69.901" transform="translate(2148.991 1347.184)" fill="#5e50a3"/>
                  </g>
                  <g id="Grupo_132363" data-name="Grupo 132363">
                    <rect id="Rectángulo_43879" data-name="Rectángulo 43879" width="1.931" height="69.901" transform="translate(2124.433 1347.184)" fill="#5e50a3"/>
                  </g>
                </g>
              </g>
              <g id="Grupo_132366" data-name="Grupo 132366">
                <path id="Trazado_187985" data-name="Trazado 187985" d="M2190.065,1342.328h-14.54a2.02,2.02,0,0,0-2.02,2.02h18.58A2.02,2.02,0,0,0,2190.065,1342.328Z" fill="#6c59b2"/>
              </g>
              <g id="Grupo_132367" data-name="Grupo 132367">
                <path id="Trazado_187986" data-name="Trazado 187986" d="M2190.043,1337.888l29.326-.138a2.117,2.117,0,0,0,2.108-2.127l4.62-17.643a2.116,2.116,0,0,0-2.127-2.107l-29.327.138c-1.169.005-1.829.822-2.107,2.127l-4.482,17.116a2.048,2.048,0,0,0,1.989,2.634Z" fill="#5e50a3"/>
              </g>
              <g id="Grupo_132368" data-name="Grupo 132368">
                <path id="Trazado_187987" data-name="Trazado 187987" d="M2192.57,1337.876l29.326-.137a2.361,2.361,0,0,0,2.108-2.128l4.482-17.115a2.094,2.094,0,0,0-1.164-2.472,2.118,2.118,0,0,0-.825-.163l-29.327.138a2.288,2.288,0,0,0-2.321,2.169l-4.268,17.074a2.048,2.048,0,0,0,1.989,2.634Z" fill="#6c59b2"/>
              </g>
              <g id="Grupo_132369" data-name="Grupo 132369">
                <path id="Trazado_187988" data-name="Trazado 187988" d="M2193.415,1342.5l9.486-.044a1.04,1.04,0,0,0,.913-.6,1.437,1.437,0,0,0,.13-.385c.3-1.441,2.515-12.191,2.516-12.341a.627.627,0,0,1,.631-.614l4.064-.019a.631.631,0,0,1,.614.455l-2.117,14.336a2.951,2.951,0,0,0-.018.443.627.627,0,0,1-.631.614l-2.5.012-1.565.007-11.515.054a.714.714,0,0,1-.727-.7l0-.507A.715.715,0,0,1,2193.415,1342.5Z" fill="#5e50a3"/>
              </g>
              <g id="Grupo_132370" data-name="Grupo 132370">
                <path id="Trazado_187989" data-name="Trazado 187989" d="M2194.417,1342.494l9.606-.046c.451,0,.676-.422.765-.867,0,0,2.673-12.3,2.673-12.456a.626.626,0,0,1,.631-.613l4.064-.019a.629.629,0,0,1,.614.454l-2.157,14.613c-.085.5-.192.778-.609.78l-2.5.012-1.566.007-11.514.054a.715.715,0,0,1-.728-.7l0-.508A.714.714,0,0,1,2194.417,1342.494Z" fill="#6c59b2"/>
              </g>
              <g id="Grupo_132371" data-name="Grupo 132371">
                <path id="Trazado_187990" data-name="Trazado 187990" d="M2211.869,1337.425l-.429-.069,1.252-7.828a.735.735,0,0,0-.142-.563.632.632,0,0,0-.436-.25.765.765,0,0,0-.085-.005l-3.578.017,0-.434,3.579-.017a.971.971,0,0,1,.133.007,1.058,1.058,0,0,1,.735.418,1.176,1.176,0,0,1,.226.895Z" fill="#5e50a3"/>
              </g>
            </g>
            <g id="Grupo_132380" data-name="Grupo 132380">
              <g id="Grupo_132374" data-name="Grupo 132374" opacity="0.5">
                <g id="Grupo_132373" data-name="Grupo 132373">
                  <path id="Trazado_187991" data-name="Trazado 187991" d="M2418.582,1312.562h-54.729v24.71h3.326l-.774,11.691,10.451-11.691h41.727Z" fill="#9c84dd"/>
                </g>
              </g>
              <g id="Grupo_132375" data-name="Grupo 132375">
                <path id="Trazado_187992" data-name="Trazado 187992" d="M2414.333,1315.938H2359.6v24.375h4.668v14.2l9.676-14.2h40.385Z" fill="#e5e1ff"/>
              </g>
              <g id="Grupo_132376" data-name="Grupo 132376">
                <path id="Trazado_187993" data-name="Trazado 187993" d="M2364.1,1355.057v-14.576h-4.668v-24.71H2414.5v24.71h-40.464Zm-4.333-14.911h4.668v13.823l9.42-13.823h40.306v-24.04h-54.394Z" fill="#9c84dd"/>
              </g>
              <g id="Grupo_132377" data-name="Grupo 132377">
                <rect id="Rectángulo_43880" data-name="Rectángulo 43880" width="39.999" height="1.326" transform="translate(2366.846 1322.07)" fill="#5817fb"/>
              </g>
              <g id="Grupo_132378" data-name="Grupo 132378">
                <rect id="Rectángulo_43881" data-name="Rectángulo 43881" width="39.999" height="1.326" transform="translate(2366.846 1327.385)" fill="#9c84dd"/>
              </g>
              <g id="Grupo_132379" data-name="Grupo 132379">
                <rect id="Rectángulo_43882" data-name="Rectángulo 43882" width="39.999" height="1.326" transform="translate(2366.846 1332.826)" fill="#9c84dd"/>
              </g>
            </g>
            <g id="Grupo_132389" data-name="Grupo 132389">
              <g id="Grupo_132382" data-name="Grupo 132382" opacity="0.5">
                <g id="Grupo_132381" data-name="Grupo 132381">
                  <path id="Trazado_187994" data-name="Trazado 187994" d="M2275.525,1387.086h36.607v16.528h-2.225l.405,7.759-6.877-7.759h-27.91Z" fill="#9c84dd"/>
                </g>
              </g>
              <g id="Grupo_132383" data-name="Grupo 132383">
                <path id="Trazado_187995" data-name="Trazado 187995" d="M2278.271,1389.344h36.607v16.3h-3.122v9.5l-6.472-9.5h-27.012Z" fill="#e5e1ff"/>
              </g>
              <g id="Grupo_132384" data-name="Grupo 132384">
                <path id="Trazado_187996" data-name="Trazado 187996" d="M2305.224,1405.76h-27.065v-16.528h36.831v16.528h-3.122v9.75Zm9.542-16.3h-36.382v16.08h26.959l6.3,9.246v-9.246h3.122Z" fill="#9c84dd"/>
              </g>
              <g id="Grupo_132388" data-name="Grupo 132388">
                <g id="Grupo_132385" data-name="Grupo 132385">
                  <rect id="Rectángulo_43883" data-name="Rectángulo 43883" width="26.754" height="0.887" transform="translate(2283.28 1393.445)" fill="#9c84dd"/>
                </g>
                <g id="Grupo_132386" data-name="Grupo 132386">
                  <rect id="Rectángulo_43884" data-name="Rectángulo 43884" width="26.754" height="0.887" transform="translate(2283.28 1397.001)" fill="#9c84dd"/>
                </g>
                <g id="Grupo_132387" data-name="Grupo 132387">
                  <rect id="Rectángulo_43885" data-name="Rectángulo 43885" width="26.754" height="0.887" transform="translate(2283.28 1400.64)" fill="#5817fb"/>
                </g>
              </g>
            </g>
            <g id="Grupo_132401" data-name="Grupo 132401">
              <g id="Grupo_132390" data-name="Grupo 132390">
                <path id="Trazado_187997" data-name="Trazado 187997" d="M2159.778,1294.844s-1.441-8.334,5.265-9.549a9.165,9.165,0,0,0-1.383-.124,7.877,7.877,0,0,0-1.279.158c-.315.046-5.3,1.928-3.9,9.718Z" fill="#7e69c4"/>
              </g>
              <g id="Grupo_132392" data-name="Grupo 132392" opacity="0.4" style="mix-blend-mode: multiply;isolation: isolate">
                <g id="Grupo_132391" data-name="Grupo 132391">
                  <path id="Trazado_187998" data-name="Trazado 187998" d="M2163.173,1285.2c-.16.026-.282.05-.331.057-.315.046-5.3,1.927-3.9,9.711l-.461.074c-1.408-7.79,3.579-9.672,3.893-9.718C2162.475,1285.315,2162.8,1285.245,2163.173,1285.2Z" fill="#7e69c4"/>
                </g>
              </g>
              <g id="Grupo_132400" data-name="Grupo 132400">
                <g id="Grupo_132394" data-name="Grupo 132394">
                  <g id="Grupo_132393" data-name="Grupo 132393">
                    <path id="Trazado_187999" data-name="Trazado 187999" d="M2163.631,1302.236a4.364,4.364,0,0,1-3.107-1.424l.517-.4-.259.2.258-.2c.058.073,1.456,1.78,4.639.964l.163.635A6.975,6.975,0,0,1,2163.631,1302.236Z" fill="#7e69c4"/>
                  </g>
                </g>
                <g id="Grupo_132395" data-name="Grupo 132395">
                  <ellipse id="Elipse_5287" data-name="Elipse 5287" cx="2.366" cy="3.495" rx="2.366" ry="3.495" transform="translate(2156.625 1295.385) rotate(-17.75)" fill="#7e69c4"/>
                </g>
                <g id="Grupo_132396" data-name="Grupo 132396">
                  <path id="Trazado_188000" data-name="Trazado 188000" d="M2161.756,1297.412c.588,1.838.056,3.651-1.188,4.049s-2.731-.769-3.319-2.607-.057-3.651,1.188-4.049S2161.167,1295.573,2161.756,1297.412Z" fill="#9c84dd"/>
                </g>
                <g id="Grupo_132397" data-name="Grupo 132397" opacity="0.5">
                  <path id="Trazado_188001" data-name="Trazado 188001" d="M2159.257,1297.452c.116.79-.225,1.495-.76,1.573s-1.063-.5-1.178-1.291.225-1.495.76-1.573S2159.142,1296.661,2159.257,1297.452Z" fill="#fff"/>
                </g>
                <g id="Grupo_132398" data-name="Grupo 132398">
                  <path id="Trazado_188002" data-name="Trazado 188002" d="M2166.086,1302.307a.726.726,0,0,1-.2-1.437.3.3,0,0,1,.063-.011.723.723,0,0,1,.787.622.09.09,0,0,1,.007.032A.723.723,0,0,1,2166.086,1302.307Z" fill="#9c84dd"/>
                </g>
                <g id="Grupo_132399" data-name="Grupo 132399" opacity="0.5">
                  <path id="Trazado_188003" data-name="Trazado 188003" d="M2166.732,1301.481a.516.516,0,0,1-.405.269.528.528,0,0,1-.445-.88.3.3,0,0,1,.063-.011A.723.723,0,0,1,2166.732,1301.481Z" fill="#fff"/>
                </g>
              </g>
            </g>
          </g>
        </g>
      </g>
    </g>
  </g>
</svg>
