<svg xmlns="http://www.w3.org/2000/svg" width="170.998" height="170.674" viewBox="0 0 170.998 170.674">
  <g id="Grupo_132684" data-name="Grupo 132684" transform="translate(180.133 -781.344)">
    <path id="Trazado_188021" data-name="Trazado 188021" d="M-157.259,939.4v5.57h1.725c3.976,0,7.952-.016,11.928.006,2.337.013,3.385,1.039,3.395,3.353q.034,8,0,15.993c-.009,2.33-1.047,3.385-3.362,3.388q-16.556.024-33.112,0c-2.39,0-3.389-1.06-3.4-3.532q-.021-7.819,0-15.637c.006-2.566.991-3.558,3.538-3.567,4.441-.015,8.882,0,13.55,0,0-.8,0-1.49,0-2.178,0-10.159-.939-9.195,9.3-9.2q26.97,0,53.941,0h2.2v-5.61h-5.591c0-2.016-.036-3.831.015-5.643a1.428,1.428,0,0,0-1.15-1.657c-1.842-.63-3.612-1.473-5.627-2.319l-4.237,4.65-12.42-12.4c1-.948,2.248-2.193,3.57-3.35a1.609,1.609,0,0,0,.429-2.4,12.964,12.964,0,0,1-1.549-3.568c-.385-1.6-1.221-2.019-2.762-1.87-1.516.146-3.057.032-4.686.032V882.406c1.771,0,3.584-.052,5.392.02a1.491,1.491,0,0,0,1.765-1.255,15.224,15.224,0,0,1,1.575-3.751c.879-1.4.6-2.287-.612-3.248s-2.275-2.07-3.442-3.149a6.694,6.694,0,0,1,.961-1.123c2.528-1.738,2.916-4.156,2.868-7.074-.166-10.126-.04-20.256-.085-30.385-.008-1.872.28-3.443,2.436-4.127L-128.8,818.6l-8.077,9.674c2.042.79,2.413,2.3,2.4,4.191-.058,9.358-.027,18.717-.027,28.076V862.4h-5.647V834.074a10.17,10.17,0,0,1-2.868-.056,4.251,4.251,0,0,1-2.472-1.618,3.287,3.287,0,0,1,.287-2.9c4.649-5.766,9.413-11.441,14.2-17.091a2.72,2.72,0,0,1,4.465.074c4.709,5.565,9.4,11.143,13.975,16.819a3.413,3.413,0,0,1,.452,3.028c-.44.835-1.749,1.321-2.775,1.7a7.579,7.579,0,0,1-2.4.047V861.17l2.6-2.365c1.212,1.25,2.437,2.429,3.56,3.7.811.918,1.492,1.236,2.686.494a15.447,15.447,0,0,1,3.917-1.644c1.163-.331,1.433-.935,1.377-2.037-.087-1.7-.023-3.413-.023-5.224H-86.08c0,1.886-.078,3.712.049,5.524a2.106,2.106,0,0,0,1.038,1.459c1.808.867,3.694,1.573,5.878,2.474l4.393-4.992,2.744,2.6V834.08c-.628,0-1.26-.025-1.89,0-1.463.068-2.724-.241-3.4-1.71-.65-1.41-.017-2.487.871-3.543,4.116-4.9,8.2-9.828,12.316-14.732,3.2-3.819,4.1-3.809,7.349.071,4.033,4.816,8.041,9.654,12.082,14.465.957,1.14,1.764,2.271.99,3.832-.722,1.455-2.016,1.685-3.459,1.618-.579-.027-1.159,0-1.868,0v28.3h-5.757v-1.857c0-9.359.025-18.717-.021-28.076-.009-1.872.278-3.444,2.436-4.128l-8.106-9.718-8.077,9.672c2.039.79,2.41,2.3,2.4,4.191-.056,10.6.028,21.206-.076,31.807-.019,2,.391,3.543,1.968,4.785a20,20,0,0,1,1.807,1.886c-1.339,1.285-2.614,2.576-3.965,3.781a1.473,1.473,0,0,0-.412,2.114,28.082,28.082,0,0,1,1.875,4.4,1.514,1.514,0,0,0,1.8,1.208c1.767-.068,3.539-.019,5.416-.019v17.048c-1.753,0-3.565.047-5.374-.019a1.526,1.526,0,0,0-1.789,1.225c-.624,1.84-1.471,3.6-2.374,5.753l4.762,4.2-12.3,12.285c-1.137-1.194-2.41-2.439-3.57-3.782a1.548,1.548,0,0,0-2.275-.332,26.092,26.092,0,0,1-4.253,1.774,1.5,1.5,0,0,0-1.232,1.772c.079,1.768.022,3.542.022,5.508h-5.591V933.6h1.983q29.641,0,59.282,0c3.363,0,4.146.8,4.148,4.213,0,2.3,0,4.607,0,7.075.656.031,1.224.081,1.793.081,3.976.007,7.952-.012,11.928.011,2.247.013,3.347,1.041,3.36,3.205q.047,8.174,0,16.348c-.012,2.092-1.1,3.172-3.21,3.177q-16.734.031-33.468,0c-2.1,0-3.168-1.1-3.18-3.2q-.043-8.085,0-16.17c.009-2.318,1.051-3.345,3.389-3.356,4.5-.021,8.995-.006,13.593-.006V939.43h-59.6v5.545h12.6c3.637,0,4.365.726,4.366,4.351,0,4.917.008,9.833,0,14.749-.006,2.669-.977,3.642-3.648,3.644q-16.289.012-32.578,0c-2.678,0-3.643-.969-3.648-3.64q-.016-7.73,0-15.46c.006-2.676.966-3.634,3.644-3.641,4.389-.012,8.777,0,13.305,0V939.4Zm62.6-68.358a19.944,19.944,0,0,0-19.9,20.067A19.973,19.973,0,0,0-94.682,910.85a19.955,19.955,0,0,0,19.99-20.16A19.953,19.953,0,0,0-94.663,871.046Zm-14.112,79.69v11.193h28.267V950.736Z" transform="translate(-0.022 -15.709)" fill="#302160"/>
    <path id="Trazado_188022" data-name="Trazado 188022" d="M110.047,971.844H90.215V949.132h19.833a10.272,10.272,0,0,1,.056-2.867,4.253,4.253,0,0,1,1.6-2.476,3.3,3.3,0,0,1,2.914.266c5.774,4.644,11.456,9.4,17.112,14.19a2.714,2.714,0,0,1-.032,4.462c-5.618,4.741-11.255,9.462-16.993,14.056a3.535,3.535,0,0,1-3.064.3c-.753-.336-1.237-1.572-1.546-2.507A9.7,9.7,0,0,1,110.047,971.844Z" transform="translate(-142.02 -85.22)" fill="#302160"/>
    <path id="Trazado_188023" data-name="Trazado 188023" d="M-157.318,948.9h19.8v22.7h-19.8c0,.879-.021,1.569,0,2.258a3,3,0,0,1-1.719,3.209,3.026,3.026,0,0,1-3.415-.762q-6.479-5.416-12.979-10.809c-1.048-.872-2.1-1.739-3.14-2.619-2.064-1.746-2.094-3.448-.047-5.16,5.365-4.486,10.752-8.945,16.116-13.432,1.072-.9,2.173-1.45,3.561-.759a3.084,3.084,0,0,1,1.623,3.273C-157.341,947.433-157.318,948.072-157.318,948.9Z" transform="translate(0 -85.034)" fill="#302160"/>
    <path id="Trazado_188024" data-name="Trazado 188024" d="M-30.085,804.15a9.373,9.373,0,0,1-2.772-.052,4.822,4.822,0,0,1-2.606-1.693,3.236,3.236,0,0,1,.354-2.89c4.652-5.761,9.413-11.435,14.207-17.08a2.677,2.677,0,0,1,4.34.038c4.789,5.649,9.555,11.32,14.229,17.063,1.589,1.952.338,4.425-2.182,4.6-.876.061-1.759.01-2.827.01v16.981H-30.085Z" transform="translate(-75.894)" fill="#302160"/>
    <path id="Trazado_188025" data-name="Trazado 188025" d="M-18.369,883.046h-5.479v-5.463h5.479Z" transform="translate(-82.1 -50.557)" fill="#302160"/>
    <path id="Trazado_188026" data-name="Trazado 188026" d="M12.126,882.953v-5.459H17.6v5.459Z" transform="translate(-100.998 -50.51)" fill="#302160"/>
    <path id="Trazado_188027" data-name="Trazado 188027" d="M-95.983,936.9v-5.4h5.536v5.4Z" transform="translate(-44.206 -78.878)" fill="#302160"/>
    <path id="Trazado_188028" data-name="Trazado 188028" d="M84.142,936.931v-5.469h5.51v5.469Z" transform="translate(-138.83 -78.861)" fill="#302160"/>
  </g>
</svg>
