<svg xmlns="http://www.w3.org/2000/svg" width="136.973" height="136.973" viewBox="0 0 136.973 136.973">
  <g id="Grupo_132719" data-name="Grupo 132719" transform="translate(2221.429 6930)">
    <g id="Grupo_132716" data-name="Grupo 132716" transform="translate(-2221.429 -6930)">
      <g id="Trazado_137458" data-name="Trazado 137458" transform="translate(0 0)" fill="#5038a1">
        <path d="M 68.48631286621094 131.9726409912109 C 59.91350936889648 131.9726409912109 51.59981155395508 130.2947692871094 43.77611541748047 126.9856185913086 C 40.01535797119141 125.3949661254883 36.38774871826172 123.4259033203125 32.9940071105957 121.1331405639648 C 29.6312255859375 118.8612899780273 26.46885681152344 116.2520523071289 23.5947265625 113.3779220581055 C 20.72059631347656 110.503791809082 18.11135673522949 107.341423034668 15.83950805664062 103.9786376953125 C 13.5467472076416 100.5848999023438 11.57768249511719 96.95726776123047 9.987030029296875 93.196533203125 C 6.677877902984619 85.37283325195312 5.000008583068848 77.05912017822266 5.000008583068848 68.48631286621094 C 5.000008583068848 59.91350936889648 6.677877902984619 51.59981155395508 9.987030029296875 43.77611541748047 C 11.57768249511719 40.01535797119141 13.5467472076416 36.38774871826172 15.83950805664062 32.9940071105957 C 18.11135673522949 29.6312255859375 20.72059631347656 26.46885681152344 23.5947265625 23.5947265625 C 26.46885681152344 20.72059631347656 29.6312255859375 18.11135673522949 32.9940071105957 15.83950805664062 C 36.38774871826172 13.5467472076416 40.01535797119141 11.57768249511719 43.77611541748047 9.987030029296875 C 51.59981155395508 6.677877902984619 59.91350936889648 5.000008583068848 68.48631286621094 5.000008583068848 C 77.05912017822266 5.000008583068848 85.37283325195312 6.677877902984619 93.196533203125 9.987030029296875 C 96.95726776123047 11.57768249511719 100.5848999023438 13.5467472076416 103.9786376953125 15.83950805664062 C 107.341423034668 18.11135673522949 110.503791809082 20.72059631347656 113.3779220581055 23.5947265625 C 116.2520523071289 26.46885681152344 118.8612899780273 29.6312255859375 121.1331405639648 32.9940071105957 C 123.4259033203125 36.38774871826172 125.3949661254883 40.01535797119141 126.9856185913086 43.77611541748047 C 130.2947692871094 51.59981155395508 131.9726409912109 59.91350936889648 131.9726409912109 68.48631286621094 C 131.9726409912109 77.05912017822266 130.2947692871094 85.37283325195312 126.9856185913086 93.196533203125 C 125.3949661254883 96.95726776123047 123.4259033203125 100.5848999023438 121.1331405639648 103.9786376953125 C 118.8612899780273 107.341423034668 116.2520523071289 110.503791809082 113.3779220581055 113.3779220581055 C 110.503791809082 116.2520523071289 107.341423034668 118.8612899780273 103.9786376953125 121.1331405639648 C 100.5848999023438 123.4259033203125 96.95726776123047 125.3949661254883 93.196533203125 126.9856185913086 C 85.37283325195312 130.2947692871094 77.05912017822266 131.9726409912109 68.48631286621094 131.9726409912109 Z" stroke="none"/>
        <path d="M 68.48631286621094 10.00000762939453 C 36.23686981201172 10.00000762939453 10.00000762939453 36.23686981201172 10.00000762939453 68.48631286621094 C 10.00000762939453 100.7357559204102 36.23686981201172 126.9726181030273 68.48631286621094 126.9726181030273 C 100.7357559204102 126.9726181030273 126.9726181030273 100.7357559204102 126.9726181030273 68.48631286621094 C 126.9726181030273 36.23686981201172 100.7357559204102 10.00000762939453 68.48631286621094 10.00000762939453 M 68.48631286621094 0 C 106.3102569580078 0 136.9726257324219 30.66236877441406 136.9726257324219 68.48631286621094 C 136.9726257324219 106.3102569580078 106.3102569580078 136.9726257324219 68.48631286621094 136.9726257324219 C 30.66236877441406 136.9726257324219 0 106.3102569580078 0 68.48631286621094 C 0 30.66236877441406 30.66236877441406 0 68.48631286621094 0 Z" stroke="none" fill="#fff"/>
      </g>
    </g>
    <g id="Grupo_132717" data-name="Grupo 132717" transform="translate(-3565.723 -7846.893)">
      <path id="Trazado_188661" data-name="Trazado 188661" d="M1438.581,1225.964c-1.187-1.41-2.365-2.828-3.564-4.228q-4.636-5.413-9.287-10.812c-.145-.169-.285-.342-.479-.576l7.01-6.026,13.4,15.6-6.96,6.044Z" transform="translate(-35.963 -209.649)" fill="#fff"/>
      <path id="Trazado_188662" data-name="Trazado 188662" d="M1498.891,978.423h3.55v3.656h-.676c-2.742,0-5.485.012-8.227-.012a.875.875,0,0,0-.892.537c-1.5,2.742-3.029,5.466-4.531,8.207a25.348,25.348,0,0,1-9.638,9.922c-2.893,1.684-5.791,3.36-8.845,5.132a2.063,2.063,0,0,0-.22-.4q-4.957-5.783-9.931-11.551a.857.857,0,0,1-.2-1.028c.649-1.416,1.179-2.9,1.962-4.237a7.479,7.479,0,0,0,1.174-3.526c.039-.987.008-1.978.008-3.023H1452.8v-3.672h3.551c1.32-11.572,7.628-18.373,19.012-20.561a2.488,2.488,0,0,1-.18-2.2,3.587,3.587,0,0,1,.974-1.277,2.487,2.487,0,0,1,3.057.068c1.033.8,1.245,1.923.678,3.406C1491.24,960.032,1497.555,966.825,1498.891,978.423Zm-27.328,3.683a33.52,33.52,0,0,0,.036,4.191,3.889,3.889,0,0,0,3.208,3.185,3.952,3.952,0,0,0,4.262-1.821c1.1-1.726,2.095-3.519,3.131-5.286a.9.9,0,0,0,.058-.268Z" transform="translate(-59.029 0)" fill="#fff"/>
      <path id="Trazado_188663" data-name="Trazado 188663" d="M1382.294,1026.4v-3.59h10.455v3.59Z" transform="translate(0 -57.694)" fill="#fff"/>
      <path id="Trazado_188664" data-name="Trazado 188664" d="M1403.086,981.5v-3.585h7.065V981.5Z" transform="translate(-17.406 -20.109)" fill="#fff"/>
      <path id="Trazado_188665" data-name="Trazado 188665" d="M1403.086,1071.329v-3.584h7.065v3.584Z" transform="translate(-17.406 -95.312)" fill="#fff"/>
    </g>
  </g>
</svg>
