<svg xmlns="http://www.w3.org/2000/svg" width="504.99" height="341.333" viewBox="0 0 504.99 341.333">
  <g id="Grupo_132670" data-name="Grupo 132670" transform="translate(-689.838 239.898)">
    <g id="Grupo_132092" data-name="Grupo 132092">
      <g id="Grupo_131879" data-name="Grupo 131879">
        <ellipse id="Elipse_4784" data-name="Elipse 4784" cx="203.812" cy="136.787" rx="203.812" ry="136.787" transform="translate(738.684 -191.819)" fill="#8c6df2" opacity="0.25" style="isolation: isolate"/>
      </g>
      <path id="Trazado_187771" data-name="Trazado 187771" d="M1192.929-130.517a337.19,337.19,0,0,1-30.379,28.439,248.245,248.245,0,0,1-34.3,23.713,180.3,180.3,0,0,1-39,16.75,127.078,127.078,0,0,1-21.514,4.265c-1.855.161-3.709.366-5.59.424-.938.04-1.876.1-2.82.12l-2.84.012c-1.907.018-3.742-.062-5.626-.1-1.861-.114-3.74-.19-5.6-.372-14.949-1.3-29.429-5.475-42.911-10.721-13.524-5.254-26.171-11.594-38.339-17.664-6.079-3.048-12.066-6.012-17.954-8.769-2.949-1.394-5.865-2.7-8.769-3.975-1.447-.611-2.894-1.248-4.331-1.827l-4.457-1.805c-12.4-5.018-24.519-9.691-36.452-13.418-5.961-1.867-11.865-3.5-17.668-4.807-2.9-.655-5.777-1.235-8.618-1.721s-5.651-.85-8.41-1.132c-11.045-1.156-21.261-.569-29.746,1.8a54.033,54.033,0,0,0-6.077,2.086c-.968.39-1.9.825-2.826,1.263l-1.358.686c-.408.233-.818.446-1.218.691a42.465,42.465,0,0,0-8.811,6.844c-.651.668-1.289,1.345-1.893,2.054l-2.352,2.644c-.813.912-1.54,1.864-2.316,2.776-.748.93-1.429,1.886-2.151,2.809a71.111,71.111,0,0,0-6.874,11.511,63.657,63.657,0,0,0-4.294,11.827,64.371,64.371,0,0,0-1.927,12.271,92.271,92.271,0,0,0,2.349,26.332A138.106,138.106,0,0,0,797.6-9.769a148.714,148.714,0,0,0,7.155,13.482C806.053,5.88,807.394,8,808.737,9.99c.67.988,1.352,1.944,2.005,2.81.325.43.649.848.938,1.187a5.774,5.774,0,0,0,.4.443c.05.04.122.124.144.112l.024.006c0-.006.03.03-.007-.049l-.142-.321A57.935,57.935,0,0,1,711.747,72.1l-.454-.872-.29-.6-.465-1-.793-1.789c-.5-1.151-.948-2.235-1.383-3.311-.867-2.147-1.658-4.228-2.426-6.292-1.515-4.121-2.887-8.186-4.158-12.262-2.539-8.138-4.647-16.326-6.433-24.642A241.334,241.334,0,0,1,689.839-30.3a182.646,182.646,0,0,1,8.088-54.138,159.46,159.46,0,0,1,10.819-26.106,148.328,148.328,0,0,1,15.305-23.543,152.991,152.991,0,0,1,18.758-19.768c1.688-1.439,3.36-2.9,5.069-4.287,1.725-1.353,3.428-2.745,5.175-4.033l2.625-1.912c.894-.646,1.686-1.232,2.757-1.973,2.015-1.418,4.084-2.76,6.184-4.046a115.869,115.869,0,0,1,26.85-12.109c1.173-.367,2.363-.689,3.546-1.018,1.161-.3,2.306-.589,3.46-.864,2.31-.53,4.623-1.013,6.939-1.4a122.93,122.93,0,0,1,13.825-1.59,133.541,133.541,0,0,1,26.507,1.2,160.878,160.878,0,0,1,24.2,5.45,245.523,245.523,0,0,1,42.107,17.688c12.942,6.781,25,14.165,36.613,21.484l4.527,2.868c1.554.984,3.053,1.992,4.573,2.989,2.99,2.013,5.945,4.038,8.8,6.08,5.755,4.078,11.265,8.19,16.7,12.183,10.859,8,21.328,15.7,32.122,22.2,10.771,6.533,21.9,11.775,33.633,14.868,1.464.4,2.942.708,4.421,1.063l2.231.431,1.119.218c.371.065.737.1,1.106.155l2.214.3c.742.086,1.492.136,2.24.209,1.494.166,3.013.2,4.531.278,1.521.049,3.054.044,4.591.039,1.539-.072,3.084-.056,4.634-.2l2.329-.163c.778-.059,1.554-.159,2.333-.239,1.558-.152,3.113-.388,4.671-.624,1.563-.2,3.112-.544,4.675-.812,1.558-.3,3.109-.661,4.668-.994,1.542-.409,3.094-.79,4.636-1.223,1.533-.465,3.086-.875,4.613-1.384,3.069-.968,6.106-2.067,9.109-3.276,1.5-.6,3.009-1.2,4.49-1.866l2.232-.978,2.2-1.05a164.759,164.759,0,0,0,33.075-20.969,161.676,161.676,0,0,0,27.348-28.208,6.856,6.856,0,0,1,9.6-1.373,6.857,6.857,0,0,1,1.373,9.6,7.273,7.273,0,0,1-.5.594Z" fill="#fdb74d"/>
    </g>
    <g id="Grupo_132155" data-name="Grupo 132155">
      <g id="Grupo_132119" data-name="Grupo 132119">
        <g id="Grupo_132103" data-name="Grupo 132103">
          <path id="Trazado_187810" data-name="Trazado 187810" d="M740.071-26.217a59.567,59.567,0,0,0,4.241,10.53L730.378-2.01a.031.031,0,0,0,0,.044L755.049,23.17a.031.031,0,0,0,.044,0L769.029,9.493a59.953,59.953,0,0,0,10.447,4.443h0l-.182,19.525a.031.031,0,0,0,.031.031l35.219.329a.031.031,0,0,0,.032-.031l.182-19.54h0a59.374,59.374,0,0,0,10.536-4.225l13.671,13.928a.03.03,0,0,0,.044,0L864.145-.718a.031.031,0,0,0,0-.044L850.47-14.694a60.147,60.147,0,0,0,4.439-10.451h0l19.526.182a.031.031,0,0,0,.032-.031l.329-35.219a.031.031,0,0,0-.031-.031l-19.538-.183h0A59.131,59.131,0,0,0,851-70.96l13.93-13.673a.031.031,0,0,0,0-.044l-24.672-25.136a.031.031,0,0,0-.044,0l-13.938,13.68a59.559,59.559,0,0,0-10.445-4.446h0l.182-19.523a.031.031,0,0,0-.031-.031l-35.219-.329a.031.031,0,0,0-.031.031l-.183,19.528a59.642,59.642,0,0,0-10.529,4.243L756.342-110.6a.031.031,0,0,0-.044,0L731.161-85.926a.031.031,0,0,0,0,.044l13.673,13.931A59.509,59.509,0,0,0,740.406-61.5h0l-19.535-.183a.031.031,0,0,0-.031.031l-.329,35.219a.031.031,0,0,0,.031.032l19.529.182Zm49.512-54.039a38.567,38.567,0,0,1,45.91,29.445A38.565,38.565,0,0,1,806.048-4.9a38.566,38.566,0,0,1-45.91-29.445A38.567,38.567,0,0,1,789.583-80.256Z" fill="#fff"/>
        </g>
        <g id="Grupo_132118" data-name="Grupo 132118">
          <path id="Trazado_187811" data-name="Trazado 187811" d="M971.5-151.56v184.6h9.5V-15.005H1095.45V33.037h7.343v-184.6Zm9.5,74.7H1095.45V-28.45H981.006Zm0-61.853H1095.45V-90.3H981.006Z" fill="#b787f4"/>
          <g id="Grupo_132105" data-name="Grupo 132105">
            <rect id="Rectángulo_43782" data-name="Rectángulo 43782" width="16.734" height="48.347" transform="translate(1090.591 -90.363) rotate(180)" fill="#8624ef"/>
            <path id="Trazado_187812" data-name="Trazado 187812" d="M1077.692-100.428a4.532,4.532,0,0,0,4.532,4.532,4.532,4.532,0,0,0,4.532-4.532,4.532,4.532,0,0,0-4.532-4.532A4.532,4.532,0,0,0,1077.692-100.428Z" fill="#fff"/>
            <circle id="Elipse_5266" data-name="Elipse 5266" cx="3.554" cy="3.554" r="3.554" transform="translate(1078.67 -103.982)" fill="#e9ddfe"/>
            <rect id="Rectángulo_43783" data-name="Rectángulo 43783" width="10.633" height="23.009" transform="translate(1087.454 -109.55) rotate(180)" fill="#b372eb"/>
            <g id="Grupo_132104" data-name="Grupo 132104">
              <rect id="Rectángulo_43784" data-name="Rectángulo 43784" width="8.97" height="0.374" transform="translate(1086.622 -111.991) rotate(180)" fill="#e9ddfe"/>
              <rect id="Rectángulo_43785" data-name="Rectángulo 43785" width="8.97" height="0.374" transform="translate(1086.622 -115.263) rotate(180)" fill="#e9ddfe"/>
              <rect id="Rectángulo_43786" data-name="Rectángulo 43786" width="8.97" height="0.374" transform="translate(1086.622 -118.535) rotate(180)" fill="#e9ddfe"/>
              <rect id="Rectángulo_43787" data-name="Rectángulo 43787" width="8.97" height="0.374" transform="translate(1086.622 -125.079) rotate(180)" fill="#e9ddfe"/>
              <rect id="Rectángulo_43788" data-name="Rectángulo 43788" width="8.97" height="0.374" transform="translate(1086.622 -128.351) rotate(180)" fill="#e9ddfe"/>
              <rect id="Rectángulo_43789" data-name="Rectángulo 43789" width="8.97" height="0.374" transform="translate(1086.622 -121.807) rotate(180)" fill="#e9ddfe"/>
            </g>
          </g>
          <g id="Grupo_132107" data-name="Grupo 132107">
            <rect id="Rectángulo_43790" data-name="Rectángulo 43790" width="16.734" height="48.347" transform="translate(1057.123 -90.363) rotate(180)" fill="#cbabf4"/>
            <path id="Trazado_187813" data-name="Trazado 187813" d="M1044.224-100.428a4.532,4.532,0,0,0,4.532,4.532,4.532,4.532,0,0,0,4.532-4.532,4.532,4.532,0,0,0-4.532-4.532A4.532,4.532,0,0,0,1044.224-100.428Z" fill="#fff"/>
            <circle id="Elipse_5267" data-name="Elipse 5267" cx="3.554" cy="3.554" r="3.554" transform="translate(1045.202 -103.982)" fill="#e9ddfe"/>
            <rect id="Rectángulo_43791" data-name="Rectángulo 43791" width="10.633" height="23.009" transform="translate(1053.986 -109.55) rotate(180)" fill="#fff"/>
            <g id="Grupo_132106" data-name="Grupo 132106">
              <rect id="Rectángulo_43792" data-name="Rectángulo 43792" width="8.97" height="0.374" transform="translate(1053.154 -111.991) rotate(180)" fill="#b372eb"/>
              <rect id="Rectángulo_43793" data-name="Rectángulo 43793" width="8.97" height="0.374" transform="translate(1053.154 -115.263) rotate(180)" fill="#b372eb"/>
              <rect id="Rectángulo_43794" data-name="Rectángulo 43794" width="8.97" height="0.374" transform="translate(1053.154 -118.535) rotate(180)" fill="#b372eb"/>
              <rect id="Rectángulo_43795" data-name="Rectángulo 43795" width="8.97" height="0.374" transform="translate(1053.154 -125.079) rotate(180)" fill="#b372eb"/>
              <rect id="Rectángulo_43796" data-name="Rectángulo 43796" width="8.97" height="0.374" transform="translate(1053.154 -128.351) rotate(180)" fill="#b372eb"/>
              <rect id="Rectángulo_43797" data-name="Rectángulo 43797" width="8.97" height="0.374" transform="translate(1053.154 -121.807) rotate(180)" fill="#b372eb"/>
            </g>
          </g>
          <g id="Grupo_132109" data-name="Grupo 132109">
            <rect id="Rectángulo_43798" data-name="Rectángulo 43798" width="16.734" height="48.347" transform="translate(1073.857 -90.363) rotate(180)" fill="#5c278e"/>
            <path id="Trazado_187814" data-name="Trazado 187814" d="M1060.958-100.428a4.532,4.532,0,0,0,4.532,4.532,4.532,4.532,0,0,0,4.532-4.532,4.532,4.532,0,0,0-4.532-4.532A4.532,4.532,0,0,0,1060.958-100.428Z" fill="#fff"/>
            <circle id="Elipse_5268" data-name="Elipse 5268" cx="3.554" cy="3.554" r="3.554" transform="translate(1061.936 -103.982)" fill="#e9ddfe"/>
            <rect id="Rectángulo_43799" data-name="Rectángulo 43799" width="10.633" height="23.009" transform="translate(1070.72 -109.55) rotate(180)" fill="#b372eb"/>
            <g id="Grupo_132108" data-name="Grupo 132108">
              <rect id="Rectángulo_43800" data-name="Rectángulo 43800" width="8.97" height="0.374" transform="translate(1069.888 -111.991) rotate(180)" fill="#e9ddfe"/>
              <rect id="Rectángulo_43801" data-name="Rectángulo 43801" width="8.97" height="0.374" transform="translate(1069.888 -115.263) rotate(180)" fill="#e9ddfe"/>
              <rect id="Rectángulo_43802" data-name="Rectángulo 43802" width="8.97" height="0.374" transform="translate(1069.888 -118.535) rotate(180)" fill="#e9ddfe"/>
              <rect id="Rectángulo_43803" data-name="Rectángulo 43803" width="8.97" height="0.374" transform="translate(1069.888 -125.079) rotate(180)" fill="#e9ddfe"/>
              <rect id="Rectángulo_43804" data-name="Rectángulo 43804" width="8.97" height="0.374" transform="translate(1069.888 -128.351) rotate(180)" fill="#e9ddfe"/>
              <rect id="Rectángulo_43805" data-name="Rectángulo 43805" width="8.97" height="0.374" transform="translate(1069.888 -121.807) rotate(180)" fill="#e9ddfe"/>
            </g>
          </g>
          <g id="Grupo_132111" data-name="Grupo 132111">
            <rect id="Rectángulo_43806" data-name="Rectángulo 43806" width="16.734" height="48.347" transform="translate(1042.892 -76.828)" fill="#8624ef"/>
            <path id="Trazado_187815" data-name="Trazado 187815" d="M1055.791-38.545a4.532,4.532,0,0,1-4.532,4.532,4.532,4.532,0,0,1-4.532-4.532,4.532,4.532,0,0,1,4.532-4.532A4.532,4.532,0,0,1,1055.791-38.545Z" fill="#fff"/>
            <circle id="Elipse_5269" data-name="Elipse 5269" cx="3.554" cy="3.554" r="3.554" transform="translate(1047.704 -42.099)" fill="#e9ddfe"/>
            <rect id="Rectángulo_43807" data-name="Rectángulo 43807" width="10.633" height="23.009" transform="translate(1046.029 -70.677)" fill="#b372eb"/>
            <g id="Grupo_132110" data-name="Grupo 132110">
              <rect id="Rectángulo_43808" data-name="Rectángulo 43808" width="8.97" height="0.374" transform="translate(1046.861 -50.482)" fill="#e9ddfe"/>
              <rect id="Rectángulo_43809" data-name="Rectángulo 43809" width="8.97" height="0.374" transform="translate(1046.861 -53.754)" fill="#e9ddfe"/>
              <rect id="Rectángulo_43810" data-name="Rectángulo 43810" width="8.97" height="0.374" transform="translate(1046.861 -57.026)" fill="#e9ddfe"/>
              <rect id="Rectángulo_43811" data-name="Rectángulo 43811" width="8.97" height="0.374" transform="translate(1046.861 -63.57)" fill="#e9ddfe"/>
              <rect id="Rectángulo_43812" data-name="Rectángulo 43812" width="8.97" height="0.374" transform="translate(1046.861 -66.842)" fill="#e9ddfe"/>
              <rect id="Rectángulo_43813" data-name="Rectángulo 43813" width="8.97" height="0.374" transform="translate(1046.861 -60.298)" fill="#e9ddfe"/>
            </g>
          </g>
          <g id="Grupo_132113" data-name="Grupo 132113">
            <rect id="Rectángulo_43814" data-name="Rectángulo 43814" width="16.734" height="48.348" transform="translate(1019.381 -138.681)" fill="#8624ef"/>
            <path id="Trazado_187816" data-name="Trazado 187816" d="M1032.281-100.4a4.532,4.532,0,0,1-4.532,4.532,4.533,4.533,0,0,1-4.533-4.532,4.533,4.533,0,0,1,4.533-4.532A4.532,4.532,0,0,1,1032.281-100.4Z" fill="#fff"/>
            <circle id="Elipse_5270" data-name="Elipse 5270" cx="3.554" cy="3.554" r="3.554" transform="translate(1024.194 -103.952)" fill="#e9ddfe"/>
            <rect id="Rectángulo_43815" data-name="Rectángulo 43815" width="10.633" height="23.009" transform="translate(1022.519 -132.53)" fill="#b372eb"/>
            <g id="Grupo_132112" data-name="Grupo 132112">
              <rect id="Rectángulo_43816" data-name="Rectángulo 43816" width="8.97" height="0.374" transform="translate(1023.351 -112.335)" fill="#e9ddfe"/>
              <rect id="Rectángulo_43817" data-name="Rectángulo 43817" width="8.97" height="0.374" transform="translate(1023.351 -115.607)" fill="#e9ddfe"/>
              <rect id="Rectángulo_43818" data-name="Rectángulo 43818" width="8.97" height="0.374" transform="translate(1023.351 -118.879)" fill="#e9ddfe"/>
              <rect id="Rectángulo_43819" data-name="Rectángulo 43819" width="8.97" height="0.374" transform="translate(1023.351 -125.423)" fill="#e9ddfe"/>
              <rect id="Rectángulo_43820" data-name="Rectángulo 43820" width="8.97" height="0.374" transform="translate(1023.351 -128.695)" fill="#e9ddfe"/>
              <rect id="Rectángulo_43821" data-name="Rectángulo 43821" width="8.97" height="0.374" transform="translate(1023.351 -122.151)" fill="#e9ddfe"/>
            </g>
          </g>
          <g id="Grupo_132115" data-name="Grupo 132115">
            <rect id="Rectángulo_43822" data-name="Rectángulo 43822" width="16.734" height="45.706" transform="translate(1059.487 -72.449) rotate(-15.712)" fill="#cbabf4"/>
            <path id="Trazado_187817" data-name="Trazado 187817" d="M1081.556-41.632a4.532,4.532,0,0,1-3.135,5.59,4.533,4.533,0,0,1-5.591-3.135,4.534,4.534,0,0,1,3.136-5.591A4.533,4.533,0,0,1,1081.556-41.632Z" fill="#fff"/>
            <path id="Trazado_187818" data-name="Trazado 187818" d="M1078.156-36.983a3.557,3.557,0,0,1-4.384-2.459,3.557,3.557,0,0,1,2.459-4.384,3.557,3.557,0,0,1,4.384,2.459A3.558,3.558,0,0,1,1078.156-36.983Z" fill="#e9ddfe"/>
            <rect id="Rectángulo_43823" data-name="Rectángulo 43823" width="10.633" height="22.144" transform="translate(1063.887 -68.393) rotate(-15.712)" fill="#fff"/>
            <g id="Grupo_132114" data-name="Grupo 132114">
              <rect id="Rectángulo_43824" data-name="Rectángulo 43824" width="8.97" height="0.36" transform="translate(1069.951 -49.909) rotate(-15.712)" fill="#b372eb"/>
              <rect id="Rectángulo_43825" data-name="Rectángulo 43825" width="8.97" height="0.36" transform="translate(1069.098 -52.94) rotate(-15.712)" fill="#b372eb"/>
              <rect id="Rectángulo_43826" data-name="Rectángulo 43826" width="8.97" height="0.36" transform="translate(1068.246 -55.971) rotate(-15.712)" fill="#b372eb"/>
              <rect id="Rectángulo_43827" data-name="Rectángulo 43827" width="8.97" height="0.36" transform="translate(1066.54 -62.034) rotate(-15.712)" fill="#b372eb"/>
              <rect id="Rectángulo_43828" data-name="Rectángulo 43828" width="8.97" height="0.36" transform="translate(1065.688 -65.065) rotate(-15.712)" fill="#b372eb"/>
              <rect id="Rectángulo_43829" data-name="Rectángulo 43829" width="8.97" height="0.36" transform="translate(1067.393 -59.003) rotate(-15.712)" fill="#b372eb"/>
            </g>
          </g>
          <g id="Grupo_132117" data-name="Grupo 132117">
            <rect id="Rectángulo_43830" data-name="Rectángulo 43830" width="16.734" height="48.347" transform="translate(1026.154 -76.828)" fill="#cbabf4"/>
            <path id="Trazado_187819" data-name="Trazado 187819" d="M1039.053-38.545a4.532,4.532,0,0,1-4.532,4.532,4.533,4.533,0,0,1-4.533-4.532,4.533,4.533,0,0,1,4.533-4.532A4.532,4.532,0,0,1,1039.053-38.545Z" fill="#fff"/>
            <circle id="Elipse_5271" data-name="Elipse 5271" cx="3.554" cy="3.554" r="3.554" transform="translate(1030.966 -42.099)" fill="#e9ddfe"/>
            <rect id="Rectángulo_43831" data-name="Rectángulo 43831" width="10.633" height="23.009" transform="translate(1029.291 -70.677)" fill="#fff"/>
            <g id="Grupo_132116" data-name="Grupo 132116">
              <rect id="Rectángulo_43832" data-name="Rectángulo 43832" width="8.97" height="0.374" transform="translate(1030.123 -50.482)" fill="#b372eb"/>
              <rect id="Rectángulo_43833" data-name="Rectángulo 43833" width="8.97" height="0.374" transform="translate(1030.123 -53.754)" fill="#b372eb"/>
              <rect id="Rectángulo_43834" data-name="Rectángulo 43834" width="8.97" height="0.374" transform="translate(1030.123 -57.026)" fill="#b372eb"/>
              <rect id="Rectángulo_43835" data-name="Rectángulo 43835" width="8.97" height="0.374" transform="translate(1030.123 -63.57)" fill="#b372eb"/>
              <rect id="Rectángulo_43836" data-name="Rectángulo 43836" width="8.97" height="0.374" transform="translate(1030.123 -66.842)" fill="#b372eb"/>
              <rect id="Rectángulo_43837" data-name="Rectángulo 43837" width="8.97" height="0.374" transform="translate(1030.123 -60.298)" fill="#b372eb"/>
            </g>
          </g>
        </g>
      </g>
      <g id="Grupo_132134" data-name="Grupo 132134">
        <g id="Grupo_132120" data-name="Grupo 132120">
          <path id="Trazado_187820" data-name="Trazado 187820" d="M945.54-189.2H851.278l-.928-10a17.128,17.128,0,0,1,17.338-19.113h56.037A21.42,21.42,0,0,1,944.612-199.2Z" fill="#eaa813"/>
          <path id="Trazado_187821" data-name="Trazado 187821" d="M891.748-239.9a13.235,13.235,0,0,0-13.4,14.769,16.551,16.551,0,0,0,16.14,14.769,13.235,13.235,0,0,0,13.4-14.769A16.551,16.551,0,0,0,891.748-239.9Zm2.006,21.61a7.678,7.678,0,0,1-7.477-6.841,6.138,6.138,0,0,1,6.207-6.842,7.676,7.676,0,0,1,7.476,6.842A6.137,6.137,0,0,1,893.754-218.288Z" fill="#eaa813"/>
        </g>
        <path id="Trazado_187822" data-name="Trazado 187822" d="M993.692,33.037h-152.7a12.285,12.285,0,0,1-11.98-10.962L808.574-198.114a9.824,9.824,0,0,1,9.945-10.962h152.7a12.286,12.286,0,0,1,11.98,10.962l20.439,220.189A9.824,9.824,0,0,1,993.692,33.037Z" fill="#3e1667"/>
        <path id="Trazado_187823" data-name="Trazado 187823" d="M997.376,33.037h-152.7A12.285,12.285,0,0,1,832.7,22.075L812.258-198.114a9.824,9.824,0,0,1,9.945-10.962H974.9a12.285,12.285,0,0,1,11.98,10.962l20.439,220.189A9.824,9.824,0,0,1,997.376,33.037Z" fill="#8624ef"/>
        <path id="Trazado_187824" data-name="Trazado 187824" d="M987.317,6.2H849.753L831.121-194.527H968.685Z" fill="#b99ce5"/>
        <path id="Trazado_187825" data-name="Trazado 187825" d="M858.322-9.221,842.552-179.11a4.855,4.855,0,0,1,4.915-5.418H954.2a6.072,6.072,0,0,1,5.92,5.418L975.886-9.221A4.855,4.855,0,0,1,970.971-3.8H864.242A6.072,6.072,0,0,1,858.322-9.221Z" fill="#fff"/>
        <g id="Grupo_132121" data-name="Grupo 132121">
          <path id="Trazado_187826" data-name="Trazado 187826" d="M951.656-189.2H857.393l-.928-10A17.128,17.128,0,0,1,873.8-218.31H929.84A21.419,21.419,0,0,1,950.727-199.2Z" fill="#ffc121"/>
          <path id="Trazado_187827" data-name="Trazado 187827" d="M897.863-239.9a13.236,13.236,0,0,0-13.4,14.769A16.551,16.551,0,0,0,900.6-210.36,13.236,13.236,0,0,0,914-225.129,16.553,16.553,0,0,0,897.863-239.9Zm2.007,21.61a7.676,7.676,0,0,1-7.477-6.841,6.138,6.138,0,0,1,6.207-6.842,7.677,7.677,0,0,1,7.476,6.842A6.137,6.137,0,0,1,899.87-218.288Z" fill="#ffc121"/>
        </g>
        <path id="Trazado_187828" data-name="Trazado 187828" d="M951.656-189.2H857.393l-.928-10h94.262Z" fill="#ffdc21"/>
        <g id="Grupo_132132" data-name="Grupo 132132">
          <g id="Grupo_132122" data-name="Grupo 132122">
            <path id="Trazado_187829" data-name="Trazado 187829" d="M946.505-132.953H861.148a2.008,2.008,0,0,1-1.958-1.792h0a1.606,1.606,0,0,1,1.625-1.792h85.358a2.009,2.009,0,0,1,1.958,1.792h0A1.606,1.606,0,0,1,946.505-132.953Z" fill="#6033ca"/>
            <path id="Trazado_187830" data-name="Trazado 187830" d="M947.251-124.917H861.894a2.008,2.008,0,0,1-1.958-1.792h0a1.605,1.605,0,0,1,1.625-1.791h85.358a2.008,2.008,0,0,1,1.958,1.791h0A1.606,1.606,0,0,1,947.251-124.917Z" fill="#6033ca"/>
            <path id="Trazado_187831" data-name="Trazado 187831" d="M887.994-116.881H862.64a2.008,2.008,0,0,1-1.958-1.791h0a1.606,1.606,0,0,1,1.625-1.792h25.354a2.008,2.008,0,0,1,1.958,1.792h0A1.605,1.605,0,0,1,887.994-116.881Z" fill="#6033ca"/>
          </g>
          <g id="Grupo_132125" data-name="Grupo 132125">
            <g id="Grupo_132123" data-name="Grupo 132123">
              <path id="Trazado_187832" data-name="Trazado 187832" d="M949.771-97.773h-54.42a2.008,2.008,0,0,1-1.958-1.792h0a1.605,1.605,0,0,1,1.625-1.791h54.42a2.008,2.008,0,0,1,1.959,1.791h0A1.606,1.606,0,0,1,949.771-97.773Z" fill="#6033ca"/>
              <path id="Trazado_187833" data-name="Trazado 187833" d="M950.517-89.737H896.1a2.008,2.008,0,0,1-1.958-1.791h0a1.606,1.606,0,0,1,1.625-1.792h54.42a2.007,2.007,0,0,1,1.958,1.792h0A1.6,1.6,0,0,1,950.517-89.737Z" fill="#6033ca"/>
              <path id="Trazado_187834" data-name="Trazado 187834" d="M922.2-81.7H896.843a2.008,2.008,0,0,1-1.958-1.792h0a1.606,1.606,0,0,1,1.625-1.792h25.354a2.008,2.008,0,0,1,1.958,1.792h0A1.606,1.606,0,0,1,922.2-81.7Z" fill="#6033ca"/>
            </g>
            <g id="Grupo_132124" data-name="Grupo 132124">
              <path id="Trazado_187835" data-name="Trazado 187835" d="M883.6-103.131H863.853a1.549,1.549,0,0,0-1.568,1.729l1.833,19.748a1.937,1.937,0,0,0,1.889,1.728h19.748a1.55,1.55,0,0,0,1.568-1.728L885.489-101.4A1.936,1.936,0,0,0,883.6-103.131Zm1.3,20.736a.1.1,0,0,1-.105.114H866.529a.129.129,0,0,1-.126-.114l-1.7-18.266a.1.1,0,0,1,.1-.116h18.266a.129.129,0,0,1,.126.116Z" fill="#b99ce5"/>
              <path id="Trazado_187836" data-name="Trazado 187836" d="M878.162-84.833l-9.578-6.949,2.6-3.8,5.547,4.024,11.151-15.9,4.045,2.992Z" fill="#ffc121"/>
            </g>
          </g>
          <g id="Grupo_132128" data-name="Grupo 132128">
            <g id="Grupo_132126" data-name="Grupo 132126">
              <path id="Trazado_187837" data-name="Trazado 187837" d="M952.746-65.726h-54.42a2.007,2.007,0,0,1-1.958-1.792h0a1.6,1.6,0,0,1,1.625-1.791h54.42a2.007,2.007,0,0,1,1.958,1.791h0A1.606,1.606,0,0,1,952.746-65.726Z" fill="#6033ca"/>
              <path id="Trazado_187838" data-name="Trazado 187838" d="M953.492-57.69h-54.42a2.007,2.007,0,0,1-1.958-1.791h0a1.605,1.605,0,0,1,1.625-1.792h54.42a2.008,2.008,0,0,1,1.958,1.792h0A1.605,1.605,0,0,1,953.492-57.69Z" fill="#6033ca"/>
              <path id="Trazado_187839" data-name="Trazado 187839" d="M925.171-49.653H899.818a2.009,2.009,0,0,1-1.959-1.792h0a1.606,1.606,0,0,1,1.626-1.792h25.354a2.008,2.008,0,0,1,1.958,1.792h0A1.606,1.606,0,0,1,925.171-49.653Z" fill="#6033ca"/>
            </g>
            <g id="Grupo_132127" data-name="Grupo 132127">
              <path id="Trazado_187840" data-name="Trazado 187840" d="M886.576-71.084H866.827a1.549,1.549,0,0,0-1.567,1.729l1.833,19.748a1.936,1.936,0,0,0,1.888,1.728h19.748a1.548,1.548,0,0,0,1.568-1.728l-1.833-19.748A1.936,1.936,0,0,0,886.576-71.084Zm1.3,20.736a.1.1,0,0,1-.1.115H869.5a.129.129,0,0,1-.126-.115l-1.7-18.266a.1.1,0,0,1,.1-.116h18.266a.129.129,0,0,1,.126.116Z" fill="#b99ce5"/>
              <path id="Trazado_187841" data-name="Trazado 187841" d="M881.137-52.786l-9.579-6.948,2.6-3.8,5.548,4.024,11.151-15.9,4.045,2.991Z" fill="#ffc121"/>
            </g>
          </g>
          <g id="Grupo_132131" data-name="Grupo 132131">
            <g id="Grupo_132129" data-name="Grupo 132129">
              <path id="Trazado_187842" data-name="Trazado 187842" d="M955.72-33.679H901.3a2.008,2.008,0,0,1-1.958-1.792h0a1.606,1.606,0,0,1,1.626-1.791h54.42a2.008,2.008,0,0,1,1.958,1.791h0A1.606,1.606,0,0,1,955.72-33.679Z" fill="#6033ca"/>
              <path id="Trazado_187843" data-name="Trazado 187843" d="M956.466-25.643h-54.42a2.008,2.008,0,0,1-1.958-1.791h0a1.606,1.606,0,0,1,1.626-1.792h54.42a2.008,2.008,0,0,1,1.958,1.792h0A1.605,1.605,0,0,1,956.466-25.643Z" fill="#6033ca"/>
              <path id="Trazado_187844" data-name="Trazado 187844" d="M928.146-17.606H902.792a2.009,2.009,0,0,1-1.958-1.792h0a1.606,1.606,0,0,1,1.626-1.792h25.353a2.007,2.007,0,0,1,1.958,1.792h0A1.606,1.606,0,0,1,928.146-17.606Z" fill="#6033ca"/>
            </g>
            <g id="Grupo_132130" data-name="Grupo 132130">
              <path id="Trazado_187845" data-name="Trazado 187845" d="M889.55-39.037H869.8a1.55,1.55,0,0,0-1.568,1.729l1.834,19.748a1.936,1.936,0,0,0,1.888,1.728H891.7a1.548,1.548,0,0,0,1.568-1.728l-1.833-19.748A1.937,1.937,0,0,0,889.55-39.037Zm1.3,20.736a.1.1,0,0,1-.1.115H872.478a.128.128,0,0,1-.125-.115l-1.7-18.266a.1.1,0,0,1,.105-.115h18.266a.129.129,0,0,1,.126.115Z" fill="#b99ce5"/>
              <path id="Trazado_187846" data-name="Trazado 187846" d="M884.111-20.739l-9.578-6.948,2.6-3.8,5.547,4.024,11.151-15.9,4.045,2.991Z" fill="#ffc121"/>
            </g>
          </g>
        </g>
        <g id="Grupo_132133" data-name="Grupo 132133">
          <path id="Trazado_187847" data-name="Trazado 187847" d="M856.31-171.719l2.736,30.225h5.747l-2.736-30.225Z" transform="translate(30 -2.929)" fill="#6033ca"/>
          <path id="Trazado_187848" data-name="Trazado 187848" d="M876.955-154.349a17.994,17.994,0,0,0-3.171-4.077L871.169-161a12.97,12.97,0,0,1-1.753-1.986,4.167,4.167,0,0,1-.552-1.89,2.947,2.947,0,0,1,.179-1.678c.053-.1.2-.348.829-.348a.855.855,0,0,1,.865.531,8.5,8.5,0,0,1,.569,2.778l.243,2.68h5.4l-.228-2.521a13.162,13.162,0,0,0-1.838-6.233c-1.043-1.54-2.825-2.321-5.294-2.321s-4.19.681-5.135,2.025c-.917,1.306-1.249,3.191-1.016,5.763a9.918,9.918,0,0,0,1.268,4.152,15.674,15.674,0,0,0,2.734,3.383l2.331,2.2a12.237,12.237,0,0,1,2.219,2.676,7.074,7.074,0,0,1,.856,2.9,5.836,5.836,0,0,1-.091,2.331c-.044.12-.136.366-.8.366a1.029,1.029,0,0,1-1.033-.611,9.306,9.306,0,0,1-.645-3.143l-.319-3.516h-5.517l.3,3.308a13.583,13.583,0,0,0,2.028,6.623,6.3,6.3,0,0,0,5.486,2.439c2.508,0,4.245-.758,5.165-2.256.877-1.432,1.178-3.525.917-6.4A11.712,11.712,0,0,0,876.955-154.349Z" transform="translate(31.831 -3)" fill="#6033ca"/>
          <path id="Trazado_187849" data-name="Trazado 187849" d="M889.6-163.438a11.439,11.439,0,0,0-2.155-6.289,6.741,6.741,0,0,0-5.519-2.264,6.281,6.281,0,0,0-4.861,1.816c-1.322,1.448-1.851,3.756-1.57,6.859l1.2,13.209a12.052,12.052,0,0,0,2.275,6.679,6.875,6.875,0,0,0,5.58,2.335c2.451,0,4.2-.806,5.211-2.4.971-1.533,1.311-3.738,1.039-6.737Zm-7.136,13.259-1.219-13.473a6.268,6.268,0,0,1,.14-2.675c.1-.267.278-.514.863-.514a.978.978,0,0,1,.994.57,8.462,8.462,0,0,1,.588,2.757l1.217,13.455a10.28,10.28,0,0,1-.035,3.279c-.092.33-.263.533-.835.533a1.031,1.031,0,0,1-1.067-.616h0A10.636,10.636,0,0,1,882.46-150.179Z" transform="translate(34.957 -3)" fill="#6033ca"/>
        </g>
      </g>
      <g id="Grupo_132137" data-name="Grupo 132137">
        <g id="Grupo_132136" data-name="Grupo 132136">
          <path id="Trazado_187854" data-name="Trazado 187854" d="M1005.154-26.972l6.19,4.887c2.38-2.3,18.144-10.466,18.735-16.465a7.35,7.35,0,0,0-1.732-6.051c-3.238-3.18-6.932-2.454-9.828.276C1015.364-41.35,1005.154-26.972,1005.154-26.972Z" fill="#3e1667"/>
          <path id="Trazado_187855" data-name="Trazado 187855" d="M1018.3,88.891h-4.945l-.433-5.17h4.945Z" fill="#e7c5c0"/>
          <path id="Trazado_187856" data-name="Trazado 187856" d="M1064.711,88.891h-4.945l-1.934-5.17h4.945Z" fill="#e7c5c0"/>
          <path id="Trazado_187857" data-name="Trazado 187857" d="M1030.224-45.744l9.336-.12-3.927-10.656-5.234,1.332Z" fill="#f7c1b8"/>
          <path id="Trazado_187858" data-name="Trazado 187858" d="M1046.942-3.768l4.035-40.643a3.977,3.977,0,0,0-3.617-4.226l-24.237,1.979a3.4,3.4,0,0,0-3.536,3.637L1022.9-3.768Z" fill="#3e1667"/>
          <path id="Trazado_187859" data-name="Trazado 187859" d="M1046.933-3.768l-9.251,12.244L1019.776,85.4h-9.232l12.21-89.166Z" fill="#551eaf"/>
          <path id="Trazado_187860" data-name="Trazado 187860" d="M1027.214-3.768l2.2,10.343a5.776,5.776,0,0,0,5.681,4.73h0L1055.926,85.4h9.016L1046.933-3.768Z" fill="#6033ca"/>
          <path id="Trazado_187861" data-name="Trazado 187861" d="M1037.687-62.429a1.691,1.691,0,0,0,1.775,1.6,1.691,1.691,0,0,0,1.6-1.775,1.691,1.691,0,0,0-1.776-1.6A1.689,1.689,0,0,0,1037.687-62.429Z" fill="#f7c1b8"/>
          <path id="Trazado_187862" data-name="Trazado 187862" d="M1029.869-71.68a5.286,5.286,0,0,0-3.237,2.1,5.138,5.138,0,0,0-.938,3.221h0l.2,6.2c.2,3.872,3.245,7.056,6.923,6.928a6.845,6.845,0,0,0,6.4-7.359l-.176-5.718,0-.007S1038.657-73.052,1029.869-71.68Z" fill="#f7c1b8"/>
          <path id="Trazado_187863" data-name="Trazado 187863" d="M1039.162-62.547c-2.691,5.277-5.053,1.937-7.9,2.182-2.361.2-3.991,3.5-5.363-1.1-.205,7.167,3.245,8.359,6.923,8.231C1036.546-53.364,1040.156-54.684,1039.162-62.547Z" fill="#3e1667"/>
          <path id="Trazado_187864" data-name="Trazado 187864" d="M1013.011,86.548l2.724,1.195,2.528-1.195,2.27,7.408H999.491c0-3.7,7.91-3.7,7.91-3.7Z" fill="#3e1667"/>
          <path id="Trazado_187865" data-name="Trazado 187865" d="M1058.992,86.548l2.723,1.195,2.529-1.195,2.269,7.408h-21.042c0-3.7,7.911-3.7,7.911-3.7Z" fill="#3e1667"/>
          <g id="Grupo_132135" data-name="Grupo 132135">
            <path id="Trazado_187866" data-name="Trazado 187866" d="M932.838-60.6a33.516,33.516,0,0,0,13.8,45.345,33.517,33.517,0,0,0,45.346-13.8,33.515,33.515,0,0,0-13.8-45.345A33.516,33.516,0,0,0,932.838-60.6Zm51.154,27.284A24.487,24.487,0,0,1,950.9-23.248a24.488,24.488,0,0,1-10.071-33.093,24.487,24.487,0,0,1,33.093-10.07A24.487,24.487,0,0,1,983.992-33.319Z" fill="#ffc121"/>
            <rect id="Rectángulo_43838" data-name="Rectángulo 43838" width="9.369" height="60.603" transform="matrix(0.471, -0.882, 0.882, 0.471, 984.189, -27.925)" fill="#ffc121"/>
            <path id="Trazado_187867" data-name="Trazado 187867" d="M1052.549,3.206h0a9.368,9.368,0,0,1-12.675,3.857L1010.667-8.514l8.818-16.533,29.207,15.578A9.369,9.369,0,0,1,1052.549,3.206Z" fill="#8624ef"/>
          </g>
          <path id="Trazado_187868" data-name="Trazado 187868" d="M1036.945-.835h0a2.214,2.214,0,0,0,3.171-.239l2.8-3.752,2.714-1.345-3.375-3.06-1.264.492a6.38,6.38,0,0,0-3.308,2.867l-1.335,2.437A2.091,2.091,0,0,0,1036.945-.835Z" fill="#f7c1b8"/>
          <path id="Trazado_187869" data-name="Trazado 187869" d="M1047.122-4.451l17.04-14.1-7.4-5.809-15.4,14.636Z" fill="#3e1667"/>
          <path id="Trazado_187870" data-name="Trazado 187870" d="M1055.918-22.051a5.374,5.374,0,0,0,6.265,4.3,5.374,5.374,0,0,0,4.3-6.265,5.373,5.373,0,0,0-6.265-4.3A5.374,5.374,0,0,0,1055.918-22.051Z" fill="#3e1667"/>
          <path id="Trazado_187871" data-name="Trazado 187871" d="M1056.461-23.033l9.672-2.128c-1.6-2.9-9.664-20.6-15.3-22.742a7.351,7.351,0,0,0-6.294.091c-3.915,2.294-4.179,6.049-2.3,9.558C1044.285-34.431,1056.461-23.033,1056.461-23.033Z" fill="#3e1667"/>
          <path id="Trazado_187872" data-name="Trazado 187872" d="M991.037-24.393l.149.472a9.678,9.678,0,0,0,12.423,6.224h0Z" fill="#3e1667"/>
          <path id="Trazado_187873" data-name="Trazado 187873" d="M995.07-25.369a3.927,3.927,0,0,0-3.859.692.681.681,0,0,0,.1,1.122l4.923,2.675a.671.671,0,0,0,.967-.386A3.385,3.385,0,0,0,995.07-25.369Z" fill="#f7c1b8"/>
          <path id="Trazado_187874" data-name="Trazado 187874" d="M992.392-22.968l-1.626-.881a.593.593,0,0,1-.311-.531l.022-1.236a.957.957,0,0,1,.957-.941h0a.958.958,0,0,1,.958.957Z" fill="#f7c1b8"/>
          <path id="Trazado_187875" data-name="Trazado 187875" d="M1039.7-72.82a2.126,2.126,0,0,0-.22-.135c-.858-.456-1.391.038-2.228.058a4.27,4.27,0,0,1-2.485-.96,9.186,9.186,0,0,0-2.967-1.82,3.376,3.376,0,0,0-3.213,1c-.68.73-.731,1.822-1.369,2.582-.31.37-.807.425-1.2.7a2.926,2.926,0,0,0-1.011,1.234,2.944,2.944,0,0,0-.062,2.1c.079.227.409,1.647.759,1.463.525-.276.528-1.019.83-1.529a2.144,2.144,0,0,1,2.227-.75,22.555,22.555,0,0,0,2.436.535,12.822,12.822,0,0,0,3.353-.729c1.123-.249,2.525-.078,3.067.936a2.978,2.978,0,0,1,.111,1.989,3.5,3.5,0,0,0-.034,2.484c.807,1.33,2.57.84,3.243-.326a4.768,4.768,0,0,0,.524-2.07,13.316,13.316,0,0,0-.5-4.647A3.81,3.81,0,0,0,1039.7-72.82Z" fill="#3e1667"/>
        </g>
      </g>
      <g id="Grupo_132144" data-name="Grupo 132144">
        <g id="Grupo_132143" data-name="Grupo 132143">
          <path id="Trazado_187876" data-name="Trazado 187876" d="M850.079-69.561a9.464,9.464,0,0,0-8.1,1.681c-1.376,1.132-2.4,2.708-3.974,3.544s-3.569.839-4.993,1.929a5.775,5.775,0,0,0-1.87,4.86c.066,1.8.6,3.553.838,5.342.536,4.086-1.837,6.5-4.279,9.435a13.12,13.12,0,0,0-3.28,6.787,6.657,6.657,0,0,0,3.021,6.55,6.428,6.428,0,0,0,2.891.723c2.448.068,4.779-.935,7.148-1.558s5.113-.8,7.054.693c.561.43,1.025.982,1.613,1.373,2.067,1.378,5.055.273,6.513-1.738s1.756-4.618,1.885-7.1a55.871,55.871,0,0,0-.062-6.726A14.33,14.33,0,0,1,855.892-50c.628-1.612,1.639-2.938,2.283-4.535,2.16-5.357-.575-11.408-5.576-14.084A10.2,10.2,0,0,0,850.079-69.561Z" fill="#3e1667"/>
          <path id="Trazado_187877" data-name="Trazado 187877" d="M861.781-16.936l7.094-4.292-10.639-20.3a4.625,4.625,0,0,0-6.7-1.992h0c-2.375,1.514-3.357,6.64-1.795,10.517S861.781-16.936,861.781-16.936Z" fill="#6033ca"/>
          <path id="Trazado_187878" data-name="Trazado 187878" d="M848.506-39.941l-5.689-.932,1.439-9.88,5.689.932Z" fill="#f7c1b8"/>
          <path id="Trazado_187879" data-name="Trazado 187879" d="M851.666-62.328c.669,2.323,2.863,4.084,2.791,5.934l-.179.8c-.014.034-.027.068-.043.1l.024-.018-.542,2.411a5.659,5.659,0,0,1-6.763,4.279,5.66,5.66,0,0,1-4.28-6.764l.61-2.712C844.637-60.763,849.435-59.031,851.666-62.328Z" fill="#f7c1b8"/>
          <g id="Grupo_132138" data-name="Grupo 132138">
            <path id="Trazado_187880" data-name="Trazado 187880" d="M840.514-10.873,834.252-37.94a3.717,3.717,0,0,1,3.512-4.287l15.624-2.066a3.718,3.718,0,0,1,3.87,3.968l2.622,29.452Z" fill="#b99ce5"/>
            <path id="Trazado_187881" data-name="Trazado 187881" d="M852.187-10.873,842.381,4.935l27.341,88.849h5.653s-12.7-91.8-15.615-104.657Z" fill="#eaa813"/>
            <path id="Trazado_187882" data-name="Trazado 187882" d="M852.187-10.873c-1.471,43.108-15.745,104.657-15.745,104.657h-5.418c-.106-13.289.789-77.141,1.673-82.776a49.915,49.915,0,0,1,3.517-12.141c1.572-3.62,1.964-6.578,4.3-9.74h11.673Z" fill="#ffc121"/>
          </g>
          <path id="Trazado_187883" data-name="Trazado 187883" d="M872.094,98.423h3.529l-1.052-4.639h-4.23Z" fill="#f7c1b8"/>
          <path id="Trazado_187884" data-name="Trazado 187884" d="M832.218,98.423h3.53l.229-4.639h-4.23Z" fill="#f7c1b8"/>
          <path id="Trazado_187885" data-name="Trazado 187885" d="M851.144-30.112a4.852,4.852,0,0,0,4.388,5.275,4.853,4.853,0,0,0,5.276-4.389,4.853,4.853,0,0,0-4.389-5.275A4.852,4.852,0,0,0,851.144-30.112Z" fill="#b99ce5"/>
          <path id="Trazado_187886" data-name="Trazado 187886" d="M852.934-44.2l-1.563,10.32-8.854-8.971Z" fill="#f7c1b8"/>
          <path id="Trazado_187887" data-name="Trazado 187887" d="M844.457-56.394a2.025,2.025,0,0,1-2.077,1.972,2.025,2.025,0,0,1-1.973-2.077,2.027,2.027,0,0,1,2.077-1.973A2.026,2.026,0,0,1,844.457-56.394Z" fill="#f7c1b8"/>
          <path id="Trazado_187888" data-name="Trazado 187888" d="M876.117,96.541l-1.8.789-2.836-.789-1.5,4.894h15.066c0-2.447-5.226-2.447-5.226-2.447Z" fill="#3e1667"/>
          <path id="Trazado_187889" data-name="Trazado 187889" d="M836.242,96.541l-1.8.789-2.837-.789-1.5,4.894h15.066c0-2.447-5.225-2.447-5.225-2.447Z" fill="#3e1667"/>
          <path id="Trazado_187890" data-name="Trazado 187890" d="M871.588-27.043l.183.489a10.177,10.177,0,0,1-6.26,13.2h0Z" fill="#6033ca"/>
          <g id="Grupo_132139" data-name="Grupo 132139">
            <path id="Trazado_187891" data-name="Trazado 187891" d="M862.733-7.015,845.775-8.571l10.764-23.538L873.5-30.553Z" fill="#7b00ff"/>
          </g>
          <g id="Grupo_132140" data-name="Grupo 132140">
            <path id="Trazado_187892" data-name="Trazado 187892" d="M868.258-25.812a3.445,3.445,0,0,1,3.042-1.607.6.6,0,0,1,.536.83l-1.957,4.509a.588.588,0,0,1-.876.256A2.969,2.969,0,0,1,868.258-25.812Z" fill="#f7c1b8"/>
            <path id="Trazado_187893" data-name="Trazado 187893" d="M871.407-25.6l.648-1.488a.515.515,0,0,0-.073-.534l-.682-.843a.841.841,0,0,0-1.171-.133h0a.84.84,0,0,0-.144,1.179Z" fill="#f7c1b8"/>
          </g>
          <g id="Grupo_132141" data-name="Grupo 132141">
            <path id="Trazado_187894" data-name="Trazado 187894" d="M855.974-22.23h0a1.964,1.964,0,0,1-1.99,2.087l-4.506-.066-3.7,1.45-.456-4.012,2.217-.9a6.5,6.5,0,0,1,4.108-.764l2.65.382A1.965,1.965,0,0,1,855.974-22.23Z" fill="#f7c1b8"/>
            <path id="Trazado_187895" data-name="Trazado 187895" d="M848.907-24.243l2.535.616a.519.519,0,0,0,.54,0l1.262-.775a.841.841,0,0,0,.281-1.144h0a.841.841,0,0,0-1.151-.293Z" fill="#f7c1b8"/>
          </g>
          <g id="Grupo_132142" data-name="Grupo 132142">
            <path id="Trazado_187896" data-name="Trazado 187896" d="M845.775-18.388l-17.077,7.5-.6-10.052,17.335-2.237Z" fill="#6033ca"/>
            <path id="Trazado_187897" data-name="Trazado 187897" d="M830.558-14.537l-8.266-2.486L833.516-39.21a4.624,4.624,0,0,1,6.65-2.151h0c2.41,1.456,3.514,6.558,2.045,10.471S830.558-14.537,830.558-14.537Z" fill="#6033ca"/>
            <circle id="Elipse_5272" data-name="Elipse 5272" cx="4.795" cy="4.795" r="4.795" transform="translate(821.959 -20.064)" fill="#6033ca"/>
          </g>
        </g>
      </g>
      <g id="Grupo_132145" data-name="Grupo 132145">
        <path id="Trazado_187898" data-name="Trazado 187898" d="M1026.974-196.423l3.379,8.5,9.128.587-7.04,5.84,2.263,8.863-7.73-4.891-7.73,4.891,2.263-8.863-7.04-5.84,9.128-.587Z" fill="#ffc121"/>
        <path id="Trazado_187899" data-name="Trazado 187899" d="M1059.626-196.423l3.379,8.5,9.128.587-7.04,5.84,2.263,8.863-7.73-4.891-7.73,4.891,2.263-8.863-7.04-5.84,9.128-.587Z" fill="#ffc121"/>
        <path id="Trazado_187900" data-name="Trazado 187900" d="M1092.278-196.423l3.379,8.5,9.128.587-7.04,5.84,2.263,8.863-7.73-4.891-7.73,4.891,2.263-8.863-7.04-5.84,9.128-.587Z" fill="#ffc121"/>
      </g>
      <g id="Grupo_132151" data-name="Grupo 132151">
        <g id="Grupo_132147" data-name="Grupo 132147">
          <rect id="Rectángulo_43839" data-name="Rectángulo 43839" width="67.284" height="59.088" rx="2.678" transform="translate(758.866 -148.591)" fill="#6033ca"/>
          <g id="Grupo_132146" data-name="Grupo 132146">
            <rect id="Rectángulo_43840" data-name="Rectángulo 43840" width="10.22" height="24.51" rx="2.368" transform="translate(771.212 -124.466)" fill="#fff"/>
            <path id="Trazado_187901" data-name="Trazado 187901" d="M779.262-120.272a1.65,1.65,0,0,1-1.65,1.65,1.65,1.65,0,0,1-1.65-1.65,1.65,1.65,0,0,1,1.65-1.65A1.65,1.65,0,0,1,779.262-120.272Z" fill="#b99ce5"/>
            <path id="Trazado_187902" data-name="Trazado 187902" d="M814.8-115.454a2.976,2.976,0,0,0-2.049-2.727,4.055,4.055,0,0,0,2.03-3.307c0-2.205-2.186-3.927-4.518-3.927h-8.437a1.378,1.378,0,0,1-1.3-1.826c.629-1.821,1.881-4.224,1.881-5.916,0-2.215-.3-4.159-2.141-5.635a2.308,2.308,0,0,0-2.1-.5,2.47,2.47,0,0,0-1.446,1.689,15.237,15.237,0,0,0-.359,2.279,9.328,9.328,0,0,1-1.477,3.791,18.4,18.4,0,0,1-3,2.887,10.306,10.306,0,0,0-2.213,3.426,4.649,4.649,0,0,1-4.294,2.88h-1.625v21.18H807.32c1.886,0,3.925-1.224,3.925-3.027a3.139,3.139,0,0,0-1.234-2.6s3.062-.71,3.062-2.545a3.175,3.175,0,0,0-1.328-2.654S814.8-113.366,814.8-115.454Z" fill="#fff"/>
          </g>
        </g>
        <g id="Grupo_132150" data-name="Grupo 132150">
          <rect id="Rectángulo_43841" data-name="Rectángulo 43841" width="77.285" height="34.033" rx="2.678" transform="translate(709.635 -191.503)" fill="#b99ce5"/>
          <g id="Grupo_132149" data-name="Grupo 132149">
            <g id="Grupo_132148" data-name="Grupo 132148">
              <path id="Trazado_187903" data-name="Trazado 187903" d="M773.157-180.731H734.738a1.791,1.791,0,0,1-1.792-1.791h0a1.792,1.792,0,0,1,1.792-1.792h38.419a1.792,1.792,0,0,1,1.792,1.792h0A1.791,1.791,0,0,1,773.157-180.731Z" fill="#fff"/>
              <path id="Trazado_187904" data-name="Trazado 187904" d="M773.157-172.694H734.738a1.792,1.792,0,0,1-1.792-1.792h0a1.792,1.792,0,0,1,1.792-1.792h38.419a1.792,1.792,0,0,1,1.792,1.792h0A1.792,1.792,0,0,1,773.157-172.694Z" fill="#fff"/>
              <path id="Trazado_187905" data-name="Trazado 187905" d="M760.092-164.658H734.738a1.792,1.792,0,0,1-1.792-1.792h0a1.792,1.792,0,0,1,1.792-1.792h25.354a1.791,1.791,0,0,1,1.791,1.792h0A1.791,1.791,0,0,1,760.092-164.658Z" fill="#fff"/>
            </g>
            <path id="Trazado_187906" data-name="Trazado 187906" d="M726.385-182.522A2.39,2.39,0,0,1,724-180.133a2.39,2.39,0,0,1-2.389-2.389,2.39,2.39,0,0,1,2.389-2.39A2.39,2.39,0,0,1,726.385-182.522Z" fill="#fff"/>
            <path id="Trazado_187907" data-name="Trazado 187907" d="M726.385-174.486A2.39,2.39,0,0,1,724-172.1a2.39,2.39,0,0,1-2.389-2.389A2.389,2.389,0,0,1,724-176.875,2.389,2.389,0,0,1,726.385-174.486Z" fill="#fff"/>
            <path id="Trazado_187908" data-name="Trazado 187908" d="M726.385-166.45A2.39,2.39,0,0,1,724-164.061a2.39,2.39,0,0,1-2.389-2.389A2.389,2.389,0,0,1,724-168.839,2.389,2.389,0,0,1,726.385-166.45Z" fill="#fff"/>
          </g>
        </g>
      </g>
      <g id="Grupo_132154" data-name="Grupo 132154">
        <g id="Grupo_132153" data-name="Grupo 132153">
          <g id="Grupo_132152" data-name="Grupo 132152">
            <path id="Trazado_187909" data-name="Trazado 187909" d="M964.239-98.985l-4.981-14.294-13.777,6.271,21.2-49.575,18.758,8.023Z" fill="#ffc121"/>
            <path id="Trazado_187910" data-name="Trazado 187910" d="M999.709-98.985l4.981-14.294,13.777,6.271-21.2-49.575L978.5-148.56Z" fill="#ffc121"/>
          </g>
          <path id="Trazado_187911" data-name="Trazado 187911" d="M980-191.177l4.179,4.05,5.226-2.561,2.723,5.144,5.762-.82,1,5.733,5.733,1-.82,5.762,5.144,2.723-2.561,5.226,4.05,4.179-4.05,4.179,2.561,5.226-5.144,2.723.82,5.762-5.733,1-1,5.733-5.762-.82-2.723,5.143-5.226-2.561L980-130.3l-4.179-4.05-5.226,2.561-2.723-5.143-5.762.82-1-5.733-5.733-1,.82-5.762-5.143-2.723,2.561-5.226-4.05-4.179,4.05-4.179-2.561-5.226,5.143-2.723-.82-5.762,5.733-1,1-5.733,5.762.82,2.723-5.144,5.226,2.561Z" fill="#3e1667"/>
          <circle id="Elipse_5273" data-name="Elipse 5273" cx="20.535" cy="20.535" r="20.535" transform="translate(959.465 -181.275)" fill="#fff"/>
        </g>
        <path id="Trazado_187912" data-name="Trazado 187912" d="M977.906-149.429l-9.579-6.948,2.6-3.8,5.547,4.024,11.151-15.9,4.045,2.991Z" fill="#8624ef"/>
      </g>
    </g>
  </g>
</svg>
