<svg xmlns="http://www.w3.org/2000/svg" width="136.973" height="136.973" viewBox="0 0 136.973 136.973">
  <g id="Grupo_132717" data-name="Grupo 132717" transform="translate(4839.429 6301)">
    <g id="Grupo_132715" data-name="Grupo 132715" transform="translate(-4839.429 -6301)">
      <g id="Trazado_137458" data-name="Trazado 137458" transform="translate(0 0)" fill="#5038a1">
        <path d="M 68.48631286621094 131.9726409912109 C 59.91350936889648 131.9726409912109 51.59981155395508 130.2947692871094 43.77611541748047 126.9856185913086 C 40.01535797119141 125.3949661254883 36.38774871826172 123.4259033203125 32.9940071105957 121.1331405639648 C 29.6312255859375 118.8612899780273 26.46885681152344 116.2520523071289 23.5947265625 113.3779220581055 C 20.72059631347656 110.503791809082 18.11135673522949 107.341423034668 15.83950805664062 103.9786376953125 C 13.5467472076416 100.5848999023438 11.57768249511719 96.95726776123047 9.987030029296875 93.196533203125 C 6.677877902984619 85.37283325195312 5.000008583068848 77.05912017822266 5.000008583068848 68.48631286621094 C 5.000008583068848 59.91350936889648 6.677877902984619 51.59981155395508 9.987030029296875 43.77611541748047 C 11.57768249511719 40.01535797119141 13.5467472076416 36.38774871826172 15.83950805664062 32.9940071105957 C 18.11135673522949 29.6312255859375 20.72059631347656 26.46885681152344 23.5947265625 23.5947265625 C 26.46885681152344 20.72059631347656 29.6312255859375 18.11135673522949 32.9940071105957 15.83950805664062 C 36.38774871826172 13.5467472076416 40.01535797119141 11.57768249511719 43.77611541748047 9.987030029296875 C 51.59981155395508 6.677877902984619 59.91350936889648 5.000008583068848 68.48631286621094 5.000008583068848 C 77.05912017822266 5.000008583068848 85.37283325195312 6.677877902984619 93.196533203125 9.987030029296875 C 96.95726776123047 11.57768249511719 100.5848999023438 13.5467472076416 103.9786376953125 15.83950805664062 C 107.341423034668 18.11135673522949 110.503791809082 20.72059631347656 113.3779220581055 23.5947265625 C 116.2520523071289 26.46885681152344 118.8612899780273 29.6312255859375 121.1331405639648 32.9940071105957 C 123.4259033203125 36.38774871826172 125.3949661254883 40.01535797119141 126.9856185913086 43.77611541748047 C 130.2947692871094 51.59981155395508 131.9726409912109 59.91350936889648 131.9726409912109 68.48631286621094 C 131.9726409912109 77.05912017822266 130.2947692871094 85.37283325195312 126.9856185913086 93.196533203125 C 125.3949661254883 96.95726776123047 123.4259033203125 100.5848999023438 121.1331405639648 103.9786376953125 C 118.8612899780273 107.341423034668 116.2520523071289 110.503791809082 113.3779220581055 113.3779220581055 C 110.503791809082 116.2520523071289 107.341423034668 118.8612899780273 103.9786376953125 121.1331405639648 C 100.5848999023438 123.4259033203125 96.95726776123047 125.3949661254883 93.196533203125 126.9856185913086 C 85.37283325195312 130.2947692871094 77.05912017822266 131.9726409912109 68.48631286621094 131.9726409912109 Z" stroke="none"/>
        <path d="M 68.48631286621094 10.00000762939453 C 36.23686981201172 10.00000762939453 10.00000762939453 36.23686981201172 10.00000762939453 68.48631286621094 C 10.00000762939453 100.7357559204102 36.23686981201172 126.9726181030273 68.48631286621094 126.9726181030273 C 100.7357559204102 126.9726181030273 126.9726181030273 100.7357559204102 126.9726181030273 68.48631286621094 C 126.9726181030273 36.23686981201172 100.7357559204102 10.00000762939453 68.48631286621094 10.00000762939453 M 68.48631286621094 0 C 106.3102569580078 0 136.9726257324219 30.66236877441406 136.9726257324219 68.48631286621094 C 136.9726257324219 106.3102569580078 106.3102569580078 136.9726257324219 68.48631286621094 136.9726257324219 C 30.66236877441406 136.9726257324219 0 106.3102569580078 0 68.48631286621094 C 0 30.66236877441406 30.66236877441406 0 68.48631286621094 0 Z" stroke="none" fill="#fff"/>
      </g>
    </g>
    <g id="Grupo_132716" data-name="Grupo 132716" transform="translate(-6422.004 -7122.219)">
      <path id="Trazado_188589" data-name="Trazado 188589" d="M1654.7,1128.861v1.973c-2.13.451-3.243,1.6-3.243,3.343s1.12,2.9,3.251,3.345v6.494h-.727q-17.444,0-34.889,0c-.6,0-1.15-.042-1.425-.682-.265-.614.08-1.03.459-1.452a37.216,37.216,0,0,1,14.6-9.772,51.348,51.348,0,0,1,21.476-3.306C1654.361,1128.815,1654.516,1128.84,1654.7,1128.861Z" transform="translate(0 -222.769)" fill="#fff"/>
      <path id="Trazado_188590" data-name="Trazado 188590" d="M1741.02,927.45a18.668,18.668,0,0,1-.388,2.06c-.049.166-.451.3-.7.319-.8.067-1.212-.6-1.235-1.951l2.083-.4c-.2-1.06-.382-2.1-.606-3.132a37.608,37.608,0,0,0-4.109-11.218,22.27,22.27,0,0,0-2.09-2.941,7.377,7.377,0,0,0-4.536-2.819,19.44,19.44,0,0,1,11.069,1.657c6.9,3.258,10.866,8.743,12.09,16.247.062.381.137.761.187,1.144a1.1,1.1,0,0,1-.873,1.326,1.082,1.082,0,0,1-1.245-.894c-.084-.325-.143-.657-.228-1.055Z" transform="translate(-91.445 -41.66)" fill="#fff"/>
      <path id="Trazado_188591" data-name="Trazado 188591" d="M1641.8,932.96l-9.521,1.626c.062.419.131.771.164,1.126a1.113,1.113,0,0,1-.923,1.238,1.093,1.093,0,0,1-1.221-.858c-1.271-5.517-.913-10.855,1.92-15.861a20.461,20.461,0,0,1,13.153-10.081c.1-.026.207-.038.424-.076-2.685,1.6-3.572,4.163-4.178,6.864a34.681,34.681,0,0,0-.346,11.542c.147,1.309.393,2.607.578,3.912a2.406,2.406,0,0,1-.064.578Z" transform="translate(-9.833 -44.027)" fill="#fff"/>
      <path id="Trazado_188592" data-name="Trazado 188592" d="M1704.761,940.759c-.183-1.368-.4-2.734-.543-4.106a31.091,31.091,0,0,1,.626-12.113,11.193,11.193,0,0,1,1.438-3.058,2.23,2.23,0,0,1,3.484-.622,11.6,11.6,0,0,1,2.445,2.433,28.65,28.65,0,0,1,4.349,9.781c.481,1.792.837,3.618,1.264,5.492-1.7.306-3.256.59-4.817.867q-3.825.678-7.653,1.342a2.98,2.98,0,0,1-.594-.015Z" transform="translate(-70.583 -52.371)" fill="#fff"/>
      <path id="Trazado_188593" data-name="Trazado 188593" d="M1890.037,881.385c-.533,1.9-.672,2.138-2.285,4.005.341.593.7,1.195,1.036,1.809a1.091,1.091,0,0,1-.337,1.6,1.108,1.108,0,0,1-1.552-.518c-.364-.6-.708-1.209-1.075-1.839a6.578,6.578,0,0,1-4.558-.014c-.357.617-.7,1.227-1.059,1.826a1.124,1.124,0,0,1-1.606.529,1.11,1.11,0,0,1-.29-1.608c.315-.578.906-1.154.892-1.72-.012-.5-.755-.948-1.057-1.486-.451-.8-.8-1.664-1.229-2.586-.579,0-1.282.01-1.986,0a1.1,1.1,0,1,1,0-2.18c.681-.016,1.363-.017,2.045-.025a.427.427,0,0,0,.1-.035,6.934,6.934,0,0,1,2.024-3.684.62.62,0,0,0,.042-.566c-.259-.529-.587-1.025-.866-1.545a1.092,1.092,0,0,1,.326-1.548,1.1,1.1,0,0,1,1.565.476c.369.6.71,1.213,1.1,1.877a6.538,6.538,0,0,1,4.558-.01c.368-.631.713-1.241,1.076-1.84a1.109,1.109,0,0,1,1.552-.518,1.1,1.1,0,0,1,.338,1.6c-.161.3-.339.592-.509.887l-.547.953A6.9,6.9,0,0,1,1890,879.2c.711,0,1.41-.008,2.11,0,.774.011,1.229.405,1.247,1.056.019.683-.448,1.112-1.248,1.125C1891.433,881.394,1890.753,881.385,1890.037,881.385Z" transform="translate(-209.382 -12.602)" fill="#fff"/>
      <path id="Trazado_188594" data-name="Trazado 188594" d="M1818.487,1154.778c-.636,0-1.2,0-1.764,0-.991,0-1.5-.367-1.509-1.081s.506-1.1,1.484-1.1h21.234c.432,0,.866-.015,1.3.006a1.087,1.087,0,1,1-.021,2.173c-.68.022-1.361.005-2.14.005v.754q0,4.438,0,8.876c0,.75-.352,1.207-.952,1.289a1.017,1.017,0,0,1-1.2-1.074c.23-1.372-.531-1.891-1.593-2.4-1.7-.815-3.342-1.749-5-2.652a.969.969,0,0,0-1.059-.015q-3.018,1.659-6.076,3.243a.8.8,0,0,0-.522.9,5.071,5.071,0,0,1,0,.955,1.087,1.087,0,0,1-1.12,1.052,1.067,1.067,0,0,1-1.044-1.057c-.031-.841-.011-1.684-.012-2.526C1818.486,1159.708,1818.487,1157.3,1818.487,1154.778Zm2.224.747v5.064l4.744-2.537Zm14.145,0-4.745,2.535,4.745,2.527Zm-10.806-.709a15.942,15.942,0,0,1,1.927,1.059,2.642,2.642,0,0,0,3.588.015,14.513,14.513,0,0,1,1.956-1.074Z" transform="translate(-161.566 -242.276)" fill="#fff"/>
      <path id="Trazado_188595" data-name="Trazado 188595" d="M1823.2,1044.822v17.443h-4.707v-4.328c-.727,0-1.382.009-2.036,0a1.112,1.112,0,0,1-1.246-1.069c-.014-.665.476-1.1,1.27-1.112.635-.009,1.27,0,2,0V1055q0-4.37,0-8.741c0-1.073.36-1.432,1.431-1.435S1822.055,1044.822,1823.2,1044.822Z" transform="translate(-161.565 -154.179)" fill="#fff"/>
      <path id="Trazado_188596" data-name="Trazado 188596" d="M1913.93,1062.3H1909.2v-17.45c1.269,0,2.515-.035,3.758.015.619.025.938.524.94,1.285q.008,4.4,0,8.808v.808c.711,0,1.364-.008,2.017,0,.761.012,1.236.421,1.256,1.058.02.661-.476,1.106-1.261,1.124-.318.007-.637,0-.956,0h-1.026Z" transform="translate(-238.399 -154.195)" fill="#fff"/>
      <path id="Trazado_188597" data-name="Trazado 188597" d="M1875.963,1062.434h-4.627v-17.419h4.627Z" transform="translate(-207.445 -154.338)" fill="#fff"/>
      <path id="Trazado_188598" data-name="Trazado 188598" d="M1734.692,1037.286l4.3-.763,2.625,14.878-4.334.6Z" transform="translate(-95.741 -147.396)" fill="#fff"/>
      <path id="Trazado_188599" data-name="Trazado 188599" d="M1947.067,1181.636v-6.514a2.2,2.2,0,0,0,.673-.15c.806-.493,1.4-.106,1.968.426,1.495,1.391,2.994,2.776,4.483,4.173a1.153,1.153,0,0,1,.4,1.4,1.216,1.216,0,0,1-1.294.67C1951.234,1181.63,1949.173,1181.636,1947.067,1181.636Z" transform="translate(-269.354 -260.39)" fill="#fff"/>
      <path id="Trazado_188600" data-name="Trazado 188600" d="M1966.629,887.566a5.347,5.347,0,0,1-.977-.958.891.891,0,0,1,.335-1.194,7.327,7.327,0,0,1,1.229-.708.968.968,0,0,1,1.214.319.883.883,0,0,1,.068,1.239A15.507,15.507,0,0,1,1966.629,887.566Z" transform="translate(-284.453 -23.207)" fill="#fff"/>
      <path id="Trazado_188601" data-name="Trazado 188601" d="M1967.161,937.218a12.478,12.478,0,0,1,1.875,1.4,1.2,1.2,0,0,1-.125,1.142,1.345,1.345,0,0,1-1.121.331,2.569,2.569,0,0,1-1.277-.731,1.386,1.386,0,0,1-.312-1.129C1966.3,937.875,1966.754,937.623,1967.161,937.218Z" transform="translate(-284.973 -66.215)" fill="#fff"/>
      <path id="Trazado_188602" data-name="Trazado 188602" d="M1923.737,857.84c.005,1.135-.322,1.639-1.066,1.649s-1.118-.539-1.115-1.689a4.005,4.005,0,0,1,.02-.613,1.1,1.1,0,0,1,1.136-.965,1.077,1.077,0,0,1,1.023,1.073C1923.748,857.475,1923.737,857.658,1923.737,857.84Z" transform="translate(-248.498 0)" fill="#fff"/>
      <path id="Trazado_188603" data-name="Trazado 188603" d="M1923.749,965.642c0,1.123-.338,1.636-1.08,1.639s-1.105-.537-1.106-1.631.357-1.635,1.1-1.638S1923.749,964.522,1923.749,965.642Z" transform="translate(-248.505 -88.12)" fill="#fff"/>
      <path id="Trazado_188604" data-name="Trazado 188604" d="M1874.639,887.78a12.317,12.317,0,0,1-1.813-1.3,1.141,1.141,0,0,1,.041-1.1,1.293,1.293,0,0,1,1.082-.447,3.347,3.347,0,0,1,1.5.88,1.338,1.338,0,0,1,.148,1.163C1875.483,887.28,1875.033,887.465,1874.639,887.78Z" transform="translate(-208.563 -23.457)" fill="#fff"/>
      <path id="Trazado_188605" data-name="Trazado 188605" d="M1874.8,937.329c.4.372.855.6.953.932a1.4,1.4,0,0,1-.271,1.153,2.738,2.738,0,0,1-1.334.769,1.321,1.321,0,0,1-1.116-.35,1.212,1.212,0,0,1-.107-1.15A12.215,12.215,0,0,1,1874.8,937.329Z" transform="translate(-208.656 -66.306)" fill="#fff"/>
      <path id="Trazado_188606" data-name="Trazado 188606" d="M1873.475,1204.993h-5.968l-.046-.108c.948-.5,1.892-1.016,2.849-1.5a.564.564,0,0,1,.443.031c.925.478,1.839.975,2.757,1.466Z" transform="translate(-204.277 -283.772)" fill="#fff"/>
      <path id="Trazado_188607" data-name="Trazado 188607" d="M1698.594,1032.474a12.341,12.341,0,0,1,.273,1.247,1.043,1.043,0,0,1-.876,1.173,1.065,1.065,0,0,1-1.246-.777c-.116-.368-.233-.736-.354-1.1l-.017.014,2.221-.557Z" transform="translate(-64.418 -144.085)" fill="#fff"/>
    </g>
  </g>
</svg>
