<svg xmlns="http://www.w3.org/2000/svg" width="71.408" height="71.535" viewBox="0 0 71.408 71.535">
  <g id="Grupo_132714" data-name="Grupo 132714" transform="translate(468.312 -351.908)">
    <path id="Trazado_188519" data-name="Trazado 188519" d="M-379.4,351.91c0,.521-.012.931,0,1.34a3.647,3.647,0,0,0,3.533,3.577q5.077.065,10.155,0a3.647,3.647,0,0,0,3.538-3.573c.015-.409,0-.819,0-1.3.25-.017.47-.045.69-.045q3.847,0,7.694,0a2.48,2.48,0,0,1,2.7,2.672c.006,6.037,0,12.074.014,18.111a1.015,1.015,0,0,1-.555.971,12.3,12.3,0,0,0-.066,20.578,1.2,1.2,0,0,1,.622,1.167q-.027,12.562-.013,25.125c0,1.989-.927,2.908-2.928,2.908H-387.56c-1.994,0-2.925-.927-2.925-2.912q0-12.562-.013-25.125a1.2,1.2,0,0,1,.626-1.165,12.3,12.3,0,0,0,0-20.534,1.2,1.2,0,0,1-.621-1.166c.02-5.909.012-11.817.013-17.726,0-1.991.922-2.9,2.927-2.905Zm-.066,50.567c-1.59,0-3.181-.033-4.769.017a4.548,4.548,0,0,0-1.7.378,3.628,3.628,0,0,0-2.013,4.022,3.658,3.658,0,0,0,3.543,2.973c3.257.028,6.514,0,9.771.025a2.007,2.007,0,0,1,1.045.328,4.9,4.9,0,0,0,5.631-.007,2,2,0,0,1,1.048-.321c3.128-.024,6.257-.011,9.386-.015a3.722,3.722,0,0,0,3.976-3.692,3.716,3.716,0,0,0-3.961-3.706c-3.128,0-6.257.011-9.386-.017a2.233,2.233,0,0,1-1.115-.354,4.432,4.432,0,0,0-4.873-.322,5.685,5.685,0,0,1-3.2.694C-377.21,402.469-378.338,402.477-379.467,402.477Zm8.562-6.171a12.326,12.326,0,0,0,12.427-12.251,12.331,12.331,0,0,0-12.267-12.411A12.343,12.343,0,0,0-383.1,383.9,12.336,12.336,0,0,0-370.905,396.306Z" transform="translate(-61.822)" fill="#5038a1"/>
    <path id="Trazado_188520" data-name="Trazado 188520" d="M-206.836,479.674a9.866,9.866,0,0,1-9.854-9.914,9.867,9.867,0,0,1,9.88-9.815,9.884,9.884,0,0,1,9.817,9.879A9.867,9.867,0,0,1-206.836,479.674Zm6.1-4.968v-2.373h-12.225v2.373Zm-2.385-11.057a2.471,2.471,0,0,0-2.485,2.415,2.473,2.473,0,0,0,2.47,2.51,2.478,2.478,0,0,0,2.447-2.455A2.471,2.471,0,0,0-203.121,463.649Zm-4.956,2.452a2.472,2.472,0,0,0-2.45-2.453,2.465,2.465,0,0,0-2.467,2.432,2.471,2.471,0,0,0,2.486,2.493A2.47,2.47,0,0,0-208.077,466.1Z" transform="translate(-199.911 -85.834)" fill="#5038a1"/>
    <path id="Trazado_188521" data-name="Trazado 188521" d="M-458.425,459.946a9.87,9.87,0,0,1,9.81,9.885,9.889,9.889,0,0,1-9.852,9.847,9.874,9.874,0,0,1-9.845-9.85A9.867,9.867,0,0,1-458.425,459.946Zm3.687,15.985h2.391a6.118,6.118,0,0,0-6.369-6.113c-3.259.105-6.124,3.095-5.831,6.124h2.341c.378-2.32,1.777-3.671,3.762-3.662C-456.478,472.289-455.06,473.668-454.737,475.931Zm2.426-9.774a2.472,2.472,0,0,0-2.395-2.507,2.469,2.469,0,0,0-2.522,2.454,2.472,2.472,0,0,0,2.433,2.47A2.48,2.48,0,0,0-452.311,466.157Zm-7.388-.038a2.472,2.472,0,0,0-2.432-2.471,2.466,2.466,0,0,0-2.485,2.414,2.47,2.47,0,0,0,2.469,2.511A2.47,2.47,0,0,0-459.7,466.119Z" transform="translate(0 -85.835)" fill="#5038a1"/>
    <path id="Trazado_188522" data-name="Trazado 188522" d="M-312.239,352.173c0,.425.021.807,0,1.186a1.189,1.189,0,0,1-1.228,1.217q-4.915.029-9.83,0a1.2,1.2,0,0,1-1.242-1.281c-.017-.356,0-.713,0-1.122Z" transform="translate(-114.216 -0.211)" fill="#5038a1"/>
    <path id="Trazado_188523" data-name="Trazado 188523" d="M-356.533,609.988v2.461h-5.952c-.923,0-1.847.023-2.768-.014a1.2,1.2,0,0,1-1.19-1.255A1.183,1.183,0,0,1-365.261,610C-362.342,609.975-359.423,609.988-356.533,609.988Z" transform="translate(-80.933 -205.039)" fill="#5038a1"/>
    <path id="Trazado_188524" data-name="Trazado 188524" d="M-270.931,612.394v-2.375a4.031,4.031,0,0,1,.452-.044q3.961,0,7.921,0c.971,0,1.534.46,1.536,1.228s-.564,1.234-1.53,1.235q-4.114,0-8.228-.007A.672.672,0,0,1-270.931,612.394Z" transform="translate(-156.817 -205.028)" fill="#5038a1"/>
    <path id="Trazado_188525" data-name="Trazado 188525" d="M-301.632,606.418a2.481,2.481,0,0,1-2.411,2.494,2.486,2.486,0,0,1-2.508-2.4,2.47,2.47,0,0,1,2.448-2.531A2.48,2.48,0,0,1-301.632,606.418Z" transform="translate(-128.517 -200.272)" fill="#5038a1"/>
    <path id="Trazado_188526" data-name="Trazado 188526" d="M-332.649,459.949a9.863,9.863,0,0,1,9.841,9.927,9.868,9.868,0,0,1-9.89,9.8,9.888,9.888,0,0,1-9.806-9.892A9.867,9.867,0,0,1-332.649,459.949Zm7.32,9.907h-2.339c-.521,3.088-2.307,4.858-4.913,4.889-2.679.032-4.49-1.707-5.068-4.887h-2.338c-.251,3.858,3.332,7.39,7.413,7.353C-328.568,477.175-325.044,473.62-325.329,469.856Zm-8.562-3.78a2.473,2.473,0,0,0-2.478-2.425,2.466,2.466,0,0,0-2.439,2.46,2.471,2.471,0,0,0,2.514,2.465A2.472,2.472,0,0,0-333.89,466.076Zm4.913-2.425a2.467,2.467,0,0,0-2.443,2.457,2.47,2.47,0,0,0,2.434,2.468,2.47,2.47,0,0,0,2.483-2.5A2.472,2.472,0,0,0-328.977,463.65Z" transform="translate(-99.954 -85.837)" fill="#5038a1"/>
    <path id="Trazado_188686" data-name="Trazado 188686" d="M-379.4,351.91c0,.521-.012.931,0,1.34a3.647,3.647,0,0,0,3.533,3.577q5.077.065,10.155,0a3.647,3.647,0,0,0,3.538-3.573c.015-.409,0-.819,0-1.3.25-.017.47-.045.69-.045q3.847,0,7.694,0a2.48,2.48,0,0,1,2.7,2.672c.006,6.037,0,12.074.014,18.111a1.015,1.015,0,0,1-.555.971,12.3,12.3,0,0,0-.066,20.578,1.2,1.2,0,0,1,.622,1.167q-.027,12.562-.013,25.125c0,1.989-.927,2.908-2.928,2.908H-387.56c-1.994,0-2.925-.927-2.925-2.912q0-12.562-.013-25.125a1.2,1.2,0,0,1,.626-1.165,12.3,12.3,0,0,0,0-20.534,1.2,1.2,0,0,1-.621-1.166c.02-5.909.012-11.817.013-17.726,0-1.991.922-2.9,2.927-2.905Zm-.066,50.567c-1.59,0-3.181-.033-4.769.017a4.548,4.548,0,0,0-1.7.378,3.628,3.628,0,0,0-2.013,4.022,3.658,3.658,0,0,0,3.543,2.973c3.257.028,6.514,0,9.771.025a2.007,2.007,0,0,1,1.045.328,4.9,4.9,0,0,0,5.631-.007,2,2,0,0,1,1.048-.321c3.128-.024,6.257-.011,9.386-.015a3.722,3.722,0,0,0,3.976-3.692,3.716,3.716,0,0,0-3.961-3.706c-3.128,0-6.257.011-9.386-.017a2.233,2.233,0,0,1-1.115-.354,4.432,4.432,0,0,0-4.873-.322,5.685,5.685,0,0,1-3.2.694C-377.21,402.469-378.338,402.477-379.467,402.477Zm8.562-6.171a12.326,12.326,0,0,0,12.427-12.251,12.331,12.331,0,0,0-12.267-12.411A12.343,12.343,0,0,0-383.1,383.9,12.336,12.336,0,0,0-370.905,396.306Z" transform="translate(-61.822)" fill="#5038a1"/>
  </g>
</svg>
