<svg xmlns="http://www.w3.org/2000/svg" width="81.05" height="65.619" viewBox="0 0 81.05 65.619">
  <g id="Grupo_132672" data-name="Grupo 132672" transform="translate(1520 -938.409)">
    <path id="Trazado_188534" data-name="Trazado 188534" d="M-1520,1177.767c.787-2.03,2.542-2.779,4.44-3.269a26.846,26.846,0,0,1,13.983.128,9.39,9.39,0,0,1,1.893.778,3.705,3.705,0,0,1,2.123,3.586c-.042,3.216-.012,6.433-.012,9.649v.826h-3.673v-2.08q0-3.005,0-6.011c0-.632-.123-1.185-.9-1.236-.629-.042-.941.38-.942,1.255,0,2.66,0,5.32,0,8.052h-11.389v-.837q0-3.6,0-7.2c0-.867-.318-1.282-.943-1.277s-.925.412-.926,1.292c0,2.659,0,5.317,0,8.053H-1520Z" transform="translate(0 -185.49)" fill="#5038a1"/>
    <path id="Trazado_188535" data-name="Trazado 188535" d="M-1230.724,967.857c-.25-.523-.444-.916-.626-1.315-.955-2.082-1.888-4.175-2.879-6.24a1.974,1.974,0,0,0-.9-.88,11.035,11.035,0,0,1-6.49-11.35,11.031,11.031,0,0,1,9.526-9.581,11.011,11.011,0,0,1,11.895,7.845,10.957,10.957,0,0,1-6.05,13.019,2.035,2.035,0,0,0-1.1,1.124C-1228.433,962.9-1229.553,965.3-1230.724,967.857Zm-1.095-17.295c-.783-.818-1.493-1.6-2.245-2.335a1.282,1.282,0,0,0-1.9-.042,1.28,1.28,0,0,0,.054,1.843q1.568,1.618,3.189,3.185a1.2,1.2,0,0,0,1.834.024q2.712-2.656,5.367-5.37a1.264,1.264,0,0,0-.089-1.893,1.351,1.351,0,0,0-1.9.246C-1228.927,947.634-1230.33,949.06-1231.819,950.562Z" transform="translate(-219.442 0)" fill="#5038a1"/>
    <path id="Trazado_188536" data-name="Trazado 188536" d="M-1507.881,967.942c-1.2-2.615-2.307-5.088-3.469-7.536a1.967,1.967,0,0,0-.895-.887,11.03,11.03,0,0,1-6.329-12.433,10.969,10.969,0,0,1,10.831-8.565,10.955,10.955,0,0,1,10.632,8.807,11.052,11.052,0,0,1-6.309,12.17,2.24,2.24,0,0,0-1,.991c-1.052,2.182-2.037,4.4-3.048,6.6C-1507.572,967.32-1507.689,967.55-1507.881,967.942Zm-.436-17.291c-.793-.832-1.5-1.614-2.25-2.345a1.275,1.275,0,0,0-1.9-.022,1.276,1.276,0,0,0,.069,1.843q1.538,1.591,3.129,3.13a1.249,1.249,0,0,0,1.954.013q2.652-2.6,5.256-5.25a1.279,1.279,0,0,0,.116-1.786,1.3,1.3,0,0,0-2.007.022C-1505.37,947.664-1506.771,949.094-1508.317,950.652Z" transform="translate(-0.926 -0.088)" fill="#5038a1"/>
    <path id="Trazado_188537" data-name="Trazado 188537" d="M-1369.356,967.841c-1.182-2.581-2.3-4.992-3.384-7.417a1.913,1.913,0,0,0-1.062-1.061,10.962,10.962,0,0,1-6.4-11.452,11.035,11.035,0,0,1,9.508-9.417,11.007,11.007,0,0,1,11.914,7.916,10.964,10.964,0,0,1-5.987,12.91,2.23,2.23,0,0,0-1.22,1.221c-.948,2.142-1.934,4.268-2.908,6.4C-1369.016,967.194-1369.152,967.44-1369.356,967.841Zm-.007-16.429c.893.914,1.64,1.693,2.407,2.452a2.153,2.153,0,0,0,.757.545,1.19,1.19,0,0,0,1.462-.472,1.2,1.2,0,0,0-.153-1.653c-.873-.86-1.784-1.682-2.74-2.577,1.018-.991,1.889-1.8,2.708-2.649a1.279,1.279,0,0,0-.238-2.081,1.269,1.269,0,0,0-1.643.308c-.828.837-1.649,1.68-2.557,2.605-.872-.907-1.642-1.733-2.441-2.531a1.306,1.306,0,0,0-2.007-.159c-.562.574-.5,1.307.2,2.013.8.8,1.621,1.569,2.529,2.445-.884.848-1.689,1.6-2.472,2.378-.757.749-.836,1.48-.257,2.068.562.572,1.36.5,2.074-.221C-1370.959,953.1-1370.208,952.3-1369.363,951.412Z" transform="translate(-110.146 -0.002)" fill="#5038a1"/>
    <path id="Trazado_188538" data-name="Trazado 188538" d="M-1225.669,1189.4h-11.388v-.859q0-3.718,0-7.437c0-.619-.268-1.032-.923-1.036-.62,0-.875.4-.909.976-.013.21-.008.422-.008.633q0,3.4,0,6.8v.911h-3.587c0-3.881-.061-7.724.034-11.563a2.944,2.944,0,0,1,2.2-2.575,31.492,31.492,0,0,1,5.469-1.445,25.332,25.332,0,0,1,10.65.747,9.41,9.41,0,0,1,1.823.743,3.715,3.715,0,0,1,2.182,3.627c-.057,3.216-.016,6.435-.016,9.652v.821h-3.651v-.812c0-2.426.027-4.853-.026-7.278a1.6,1.6,0,0,0-.584-1.155c-.606-.391-1.254.19-1.258,1.077-.011,2.426,0,4.852,0,7.279Z" transform="translate(-218.822 -185.418)" fill="#5038a1"/>
    <path id="Trazado_188539" data-name="Trazado 188539" d="M-1359.058,1189.44c-1.086,0-2.059,0-3.033,0-.178,0-.356-.022-.625-.039v-1.678c0-2.136,0-4.273,0-6.409,0-.851-.346-1.3-.967-1.252-.759.058-.9.583-.9,1.233.01,2.4,0,4.8,0,7.2v.9h-11.391c0-.274,0-.553,0-.833,0-2.453,0-4.906,0-7.359,0-.636-.206-1.1-.911-1.141-.6-.036-.949.388-.952,1.186-.01,2.4,0,4.8,0,7.2v.928h-3.658v-.844c0-3.192.04-6.384-.016-9.574a3.522,3.522,0,0,1,2.308-3.687,28.335,28.335,0,0,1,5.542-1.472,25.031,25.031,0,0,1,10.5.728,10.284,10.284,0,0,1,1.9.752,3.753,3.753,0,0,1,2.217,3.691c-.052,3.191-.015,6.383-.015,9.574Z" transform="translate(-109.207 -185.413)" fill="#5038a1"/>
    <path id="Trazado_188540" data-name="Trazado 188540" d="M-1345.383,1110.666c2.736-.011,4.272,1.356,4.518,4.1a7.207,7.207,0,0,1-1.467,5.273,3.626,3.626,0,0,1-6,.04,7.216,7.216,0,0,1-1.235-6.724C-1349.069,1111.59-1347.537,1110.674-1345.383,1110.666Z" transform="translate(-134.129 -135.836)" fill="#5038a1"/>
    <path id="Trazado_188541" data-name="Trazado 188541" d="M-1479.466,1115.446a7.107,7.107,0,0,1-1.641,4.67,3.543,3.543,0,0,1-5.638.1,7.069,7.069,0,0,1-1.375-7.171,3.309,3.309,0,0,1,2.163-2.152,5.677,5.677,0,0,1,3.944,0C-1480.269,1111.536-1479.424,1113.078-1479.466,1115.446Z" transform="translate(-24.809 -135.738)" fill="#5038a1"/>
    <path id="Trazado_188542" data-name="Trazado 188542" d="M-1211.132,1115.089c0-3.7,2.783-5.685,6.313-4.507a3.546,3.546,0,0,1,2.442,2.488,7.27,7.27,0,0,1-1.138,6.529c-1.7,2.3-4.457,2.276-6.2,0A7.371,7.371,0,0,1-1211.132,1115.089Z" transform="translate(-243.563 -135.503)" fill="#5038a1"/>
  </g>
</svg>
