<svg xmlns="http://www.w3.org/2000/svg" width="80.492" height="70.649" viewBox="0 0 80.492 70.649">
  <g id="Grupo_132674" data-name="Grupo 132674" transform="translate(1043 -936.172)">
    <path id="Trazado_188552" data-name="Trazado 188552" d="M-1043,1098.658a33.487,33.487,0,0,1,.737-4,14.006,14.006,0,0,1,14.586-9.821,14.064,14.064,0,0,1,12.718,12.063,14.056,14.056,0,0,1-11.864,15.871A14.071,14.071,0,0,1-1042.7,1101.3c-.12-.72-.2-1.446-.3-2.169Zm14.135,5.474c1.415,1.031,2.794,2.025,4.16,3.036a1.1,1.1,0,0,0,1.432.141,1.066,1.066,0,0,0,.265-1.347c-.493-1.462-.945-2.938-1.45-4.4a.615.615,0,0,1,.266-.842c1.243-.872,2.463-1.778,3.7-2.659.486-.345.84-.743.611-1.378-.219-.608-.752-.654-1.3-.651-1.467.007-2.935-.011-4.4.028a.766.766,0,0,1-.885-.642c-.431-1.427-.91-2.839-1.356-4.262-.17-.541-.43-.984-1.061-.979s-.878.47-1.047,1c-.452,1.421-.935,2.832-1.36,4.261a.716.716,0,0,1-.832.6c-1.362-.027-2.725-.01-4.088-.009-.68,0-1.444-.11-1.694.76-.227.787.433,1.095.934,1.46,1.1.8,2.191,1.619,3.314,2.389a.742.742,0,0,1,.349,1.022c-.491,1.379-.913,2.783-1.378,4.172-.185.553-.3,1.091.254,1.488s1.03.12,1.5-.225C-1031.6,1106.122-1030.268,1105.156-1028.865,1104.132Z" transform="translate(0 -117.38)" fill="#5038a1"/>
    <path id="Trazado_188553" data-name="Trazado 188553" d="M-1043,1218.69a9.333,9.333,0,0,0,.579-.8c1.146-1.968,2.28-3.942,3.371-5.833l5.469,2.888-3.549,6.154c-.6-.731-1.167-1.406-1.713-2.1a1.333,1.333,0,0,0-1.439-.542c-.9.175-1.811.26-2.718.384Z" transform="translate(0 -217.904)" fill="#5038a1"/>
    <path id="Trazado_188554" data-name="Trazado 188554" d="M-722.782,1132.138v-37.3h13.19v37.3Z" transform="translate(-252.916 -125.32)" fill="#5038a1"/>
    <path id="Trazado_188555" data-name="Trazado 188555" d="M-910.583,998.526a5.235,5.235,0,0,0-3.865-3.873,4.779,4.779,0,0,0-3.12-3.593c-1.885-.7-3.088.613-4.243,1.9L-925.7,987.5l4.984-4.985,5.157-5.164c1.458,2.288,4.036,1.751,6.213,2.594-.958.953-1.917,1.87-2.828,2.831a5.028,5.028,0,0,0-1,1.388,2.942,2.942,0,0,0,.217,3,10.316,10.316,0,0,0,2.255,2.259,3.277,3.277,0,0,0,4.123-.466c.576-.535,1.117-1.107,1.675-1.661a2.386,2.386,0,0,1,2.944-.557,9.276,9.276,0,0,1,2.259,1.528c3.031,2.936,6.008,5.927,9,8.907a1.154,1.154,0,0,1,.013,1.9q-.244.256-.5.5c-.732.7-1.229.717-1.951,0q-3.013-2.992-6.008-6a4.91,4.91,0,0,0-.513-.485.933.933,0,0,0-1.345.075.93.93,0,0,0-.018,1.346c.148.182.324.343.49.51q2.946,2.948,5.891,5.9c.823.827.816,1.285,0,2.12-.129.131-.258.261-.39.388a1.171,1.171,0,0,1-1.954-.02q-3.066-3.05-6.119-6.114a3.931,3.931,0,0,0-.516-.481c-.472-.324-1.031-.349-1.315.135a2.127,2.127,0,0,0-.032,1.273c.03.19.3.343.471.51q3,3,6,6.006c.812.814.813,1.325.026,2.126-1.115,1.136-1.517,1.206-2.394.346-1.234-1.21-2.411-2.481-3.685-3.645a11.264,11.264,0,0,0-1.851-1.1c-.177-.107-.4-.246-.46-.419A5.027,5.027,0,0,0-910.583,998.526Z" transform="translate(-92.644 -32.526)" fill="#5038a1"/>
    <path id="Trazado_188556" data-name="Trazado 188556" d="M-795.4,1150.9h13.2v25.518h-13.2Z" transform="translate(-195.559 -169.598)" fill="#5038a1"/>
    <path id="Trazado_188557" data-name="Trazado 188557" d="M-841.987,977.562l10.2,10.2-5.148,6.941c-.188-.169-.378-.327-.553-.5-2.286-2.271-4.532-4.585-6.874-6.8a13.837,13.837,0,0,0-3.161-2.275,4.293,4.293,0,0,0-5.261.91c-.491.472-.959.967-1.448,1.442a1.531,1.531,0,0,1-2.4.028c-1.72-1.63-1.725-2.05-.044-3.731a34.405,34.405,0,0,0,2.43-2.458,6.324,6.324,0,0,1,4.964-2.1c1.516-.082,3.039-.113,4.557-.079a2.585,2.585,0,0,0,2.32-1.026C-842.271,977.936-842.127,977.748-841.987,977.562Z" transform="translate(-146.168 -32.691)" fill="#5038a1"/>
    <path id="Trazado_188558" data-name="Trazado 188558" d="M-868.139,1220.862v-13.691h13.224v13.691Z" transform="translate(-138.11 -214.042)" fill="#5038a1"/>
    <path id="Trazado_188559" data-name="Trazado 188559" d="M-949.588,941.109a5.165,5.165,0,0,1-.512.751q-6.887,6.9-13.789,13.793c-.585.584-.957.584-1.541.009q-1.878-1.848-3.727-3.724c-.582-.59-.586-.957-.005-1.539q6.889-6.9,13.791-13.791c.574-.573.979-.581,1.548-.022q1.878,1.847,3.722,3.729A4.776,4.776,0,0,1-949.588,941.109Z" transform="translate(-57.976)" fill="#5038a1"/>
    <path id="Trazado_188560" data-name="Trazado 188560" d="M-764.169,951.167a5.5,5.5,0,0,1-.542.8q-1.818,1.851-3.667,3.671c-.613.6-.984.6-1.6-.013q-6.872-6.86-13.731-13.733c-.623-.624-.622-.978-.008-1.6q1.823-1.846,3.669-3.67c.607-.6,1-.6,1.6,0q6.873,6.859,13.729,13.734A5.5,5.5,0,0,1-764.169,951.167Z" transform="translate(-204.424 -0.002)" fill="#5038a1"/>
    <path id="Trazado_188561" data-name="Trazado 188561" d="M-943.94,1218.884c-1-.15-1.85-.235-2.682-.416a1.351,1.351,0,0,0-1.494.576c-.526.678-1.085,1.33-1.68,2.055l-3.554-6.152,5.471-2.887Z" transform="translate(-70.808 -217.904)" fill="#5038a1"/>
    <path id="Trazado_188562" data-name="Trazado 188562" d="M-912.252,1058.077a2.972,2.972,0,0,1-1.928-1.578c-.37-.609.07-1.08.5-1.5,1.061-1.053,2.111-2.116,3.172-3.168.781-.774,1.271-.765,2.068.017.187.184.378.364.553.559a1.072,1.072,0,0,1,.02,1.613q-1.811,1.86-3.673,3.668A2.961,2.961,0,0,1-912.252,1058.077Z" transform="translate(-101.636 -90.894)" fill="#5038a1"/>
    <path id="Trazado_188563" data-name="Trazado 188563" d="M-873,1087.628a3.016,3.016,0,0,1,1.94,1.586c.369.61-.064,1.078-.487,1.5-1.056,1.05-2.1,2.108-3.16,3.156-.8.79-1.275.79-2.061.024-.187-.182-.378-.361-.553-.555a1.082,1.082,0,0,1-.022-1.665q1.774-1.827,3.6-3.6A3.493,3.493,0,0,1-873,1087.628Z" transform="translate(-130.537 -119.624)" fill="#5038a1"/>
    <path id="Trazado_188564" data-name="Trazado 188564" d="M-893.973,1076.418a2.987,2.987,0,0,1-1.9-1.553c-.376-.618.063-1.123.52-1.569,1.049-1.025,2.075-2.073,3.116-3.105.774-.768,1.3-.77,2.071-.02.187.183.378.363.552.558a1.115,1.115,0,0,1,0,1.673q-1.781,1.829-3.612,3.608A2.977,2.977,0,0,1-893.973,1076.418Z" transform="translate(-116.096 -105.394)" fill="#5038a1"/>
    <path id="Trazado_188565" data-name="Trazado 188565" d="M-848.3,1107.931a5.668,5.668,0,0,1-.582.989c-.774.817-1.572,1.612-2.383,2.392a1.138,1.138,0,0,1-1.79-.015c-.211-.2-.413-.4-.61-.612a1.121,1.121,0,0,1-.017-1.782q1.174-1.213,2.388-2.388a1.1,1.1,0,0,1,1.776.015C-849.1,1106.957-848.726,1107.442-848.3,1107.931Z" transform="translate(-149.184 -134.192)" fill="#5038a1"/>
    <path id="Trazado_188566" data-name="Trazado 188566" d="M-827.24,1122.051a1.057,1.057,0,0,1,0,1.569c-.963,1.158-1.41,1.343-2.313.9Z" transform="translate(-168.589 -146.812)" fill="#5038a1"/>
    <path id="Trazado_188567" data-name="Trazado 188567" d="M-988.695,1134.536c-.7.505-1.389,1.018-2.093,1.513a1.143,1.143,0,0,0-.469,1.5c.3.8.534,1.633.862,2.654-.75-.539-1.349-.964-1.943-1.4-1.039-.755-1.2-.756-2.2-.017-.588.431-1.181.856-1.966,1.425.308-.969.513-1.738.8-2.475a1.315,1.315,0,0,0-.567-1.809,9.734,9.734,0,0,1-1.884-1.561c.852,0,1.7-.02,2.556.006a1.137,1.137,0,0,0,1.273-.908c.243-.827.533-1.64.877-2.685.317.971.6,1.743.817,2.532a1.278,1.278,0,0,0,1.486,1.066c.8-.05,1.608-.011,2.413-.011Z" transform="translate(-35.414 -153.706)" fill="#5038a1"/>
  </g>
</svg>
