<svg xmlns="http://www.w3.org/2000/svg" width="136.973" height="136.973" viewBox="0 0 136.973 136.973">
  <g id="Grupo_132718" data-name="Grupo 132718" transform="translate(2577.172 6930)">
    <g id="Grupo_132714" data-name="Grupo 132714" transform="translate(-2577.172 -6930)">
      <g id="Trazado_137458" data-name="Trazado 137458" transform="translate(0 0)" fill="#5038a1">
        <path d="M 68.48631286621094 131.9726409912109 C 59.91350936889648 131.9726409912109 51.59981155395508 130.2947692871094 43.77611541748047 126.9856185913086 C 40.01535797119141 125.3949661254883 36.38774871826172 123.4259033203125 32.9940071105957 121.1331405639648 C 29.6312255859375 118.8612899780273 26.46885681152344 116.2520523071289 23.5947265625 113.3779220581055 C 20.72059631347656 110.503791809082 18.11135673522949 107.341423034668 15.83950805664062 103.9786376953125 C 13.5467472076416 100.5848999023438 11.57768249511719 96.95726776123047 9.987030029296875 93.196533203125 C 6.677877902984619 85.37283325195312 5.000008583068848 77.05912017822266 5.000008583068848 68.48631286621094 C 5.000008583068848 59.91350936889648 6.677877902984619 51.59981155395508 9.987030029296875 43.77611541748047 C 11.57768249511719 40.01535797119141 13.5467472076416 36.38774871826172 15.83950805664062 32.9940071105957 C 18.11135673522949 29.6312255859375 20.72059631347656 26.46885681152344 23.5947265625 23.5947265625 C 26.46885681152344 20.72059631347656 29.6312255859375 18.11135673522949 32.9940071105957 15.83950805664062 C 36.38774871826172 13.5467472076416 40.01535797119141 11.57768249511719 43.77611541748047 9.987030029296875 C 51.59981155395508 6.677877902984619 59.91350936889648 5.000008583068848 68.48631286621094 5.000008583068848 C 77.05912017822266 5.000008583068848 85.37283325195312 6.677877902984619 93.196533203125 9.987030029296875 C 96.95726776123047 11.57768249511719 100.5848999023438 13.5467472076416 103.9786376953125 15.83950805664062 C 107.341423034668 18.11135673522949 110.503791809082 20.72059631347656 113.3779220581055 23.5947265625 C 116.2520523071289 26.46885681152344 118.8612899780273 29.6312255859375 121.1331405639648 32.9940071105957 C 123.4259033203125 36.38774871826172 125.3949661254883 40.01535797119141 126.9856185913086 43.77611541748047 C 130.2947692871094 51.59981155395508 131.9726409912109 59.91350936889648 131.9726409912109 68.48631286621094 C 131.9726409912109 77.05912017822266 130.2947692871094 85.37283325195312 126.9856185913086 93.196533203125 C 125.3949661254883 96.95726776123047 123.4259033203125 100.5848999023438 121.1331405639648 103.9786376953125 C 118.8612899780273 107.341423034668 116.2520523071289 110.503791809082 113.3779220581055 113.3779220581055 C 110.503791809082 116.2520523071289 107.341423034668 118.8612899780273 103.9786376953125 121.1331405639648 C 100.5848999023438 123.4259033203125 96.95726776123047 125.3949661254883 93.196533203125 126.9856185913086 C 85.37283325195312 130.2947692871094 77.05912017822266 131.9726409912109 68.48631286621094 131.9726409912109 Z" stroke="none"/>
        <path d="M 68.48631286621094 10.00000762939453 C 36.23686981201172 10.00000762939453 10.00000762939453 36.23686981201172 10.00000762939453 68.48631286621094 C 10.00000762939453 100.7357559204102 36.23686981201172 126.9726181030273 68.48631286621094 126.9726181030273 C 100.7357559204102 126.9726181030273 126.9726181030273 100.7357559204102 126.9726181030273 68.48631286621094 C 126.9726181030273 36.23686981201172 100.7357559204102 10.00000762939453 68.48631286621094 10.00000762939453 M 68.48631286621094 0 C 106.3102569580078 0 136.9726257324219 30.66236877441406 136.9726257324219 68.48631286621094 C 136.9726257324219 106.3102569580078 106.3102569580078 136.9726257324219 68.48631286621094 136.9726257324219 C 30.66236877441406 136.9726257324219 0 106.3102569580078 0 68.48631286621094 C 0 30.66236877441406 30.66236877441406 0 68.48631286621094 0 Z" stroke="none" fill="#fff"/>
      </g>
    </g>
    <g id="Grupo_132715" data-name="Grupo 132715" transform="translate(-4686.055 -7662.17)">
      <path id="Trazado_188666" data-name="Trazado 188666" d="M2267.012,764.171a32.074,32.074,0,0,1,3.462.966,12.5,12.5,0,1,1-6.548-.836,2.2,2.2,0,0,0,.387-.131Zm-2.832,15.928a6.476,6.476,0,0,1,.879-.948,4.522,4.522,0,0,0,1.944-4.69,18.821,18.821,0,0,1-.022-2.719h-2.521c0,1.345.021,2.641-.016,3.936a1.414,1.414,0,0,1-.351.851c-.559.6-1.178,1.148-1.765,1.708Z" transform="translate(-94.749)" fill="#fff"/>
      <path id="Trazado_188667" data-name="Trazado 188667" d="M2140.883,955.573c.851-2.5,1.708-5,2.553-7.5.762-2.259,1.525-4.518,2.255-6.788a.731.731,0,0,1,.837-.613q6.884.032,13.767.005c.424,0,.673.064.828.534,1.531,4.667,3.091,9.325,4.641,13.987.05.151.076.31.131.54h-2.443v2.669c0,1.916.008,3.832-.007,5.748a.766.766,0,0,0,.473.815,3.688,3.688,0,0,1,1.913,4.246,3.76,3.76,0,1,1-5.412-4.259.974.974,0,0,0,.485-.633c.031-2.767.019-5.535.015-8.3a2.019,2.019,0,0,0-.066-.3h-19.97ZM2162.16,969.5a1.232,1.232,0,1,0-1.222-1.282A1.255,1.255,0,0,0,2162.16,969.5Z" transform="translate(0 -148.948)" fill="#fff"/>
      <path id="Trazado_188668" data-name="Trazado 188668" d="M2333.649,1129.907v-.825q0-4.86,0-9.72c0-1.652.3-1.957,1.931-1.957h38.81c1.524,0,1.866.348,1.866,1.886q0,4.9,0,9.791v.825Zm40.058-4.934H2336.2v2.423h37.509Z" transform="translate(-162.676 -298.094)" fill="#fff"/>
      <path id="Trazado_188669" data-name="Trazado 188669" d="M2387.236,941.08h-2.445c0-.719,0-1.467,0-2.215a3.809,3.809,0,0,0-4.073-4.087q-3.477-.006-6.954,0a3.759,3.759,0,0,0-4.012,3.982c-.008,1.558,0,3.117,0,4.736h-2.525c0-.215,0-.44,0-.665,0-1.443.016-2.886-.006-4.328a3.7,3.7,0,0,0-3.632-3.711q-3.865-.074-7.733,0a3.743,3.743,0,0,0-3.668,3.762c-.021.845,0,1.692,0,2.535-.747,0-1.426.025-2.1-.021a.593.593,0,0,1-.378-.436c-.018-3.216-.025-6.433.007-9.649.008-.792.519-1.2,1.371-1.2,2.436-.009,4.873-.019,7.308.009a1.234,1.234,0,0,0,1.11-.553,11.25,11.25,0,0,1,18.035.08,1.042,1.042,0,0,0,.937.47c2.389-.019,4.778-.011,7.167-.009,1.232,0,1.633.386,1.635,1.591q.008,4.506,0,9.011C2387.272,940.589,2387.251,940.8,2387.236,941.08Z" transform="translate(-176.212 -135.517)" fill="#fff"/>
      <path id="Trazado_188670" data-name="Trazado 188670" d="M2387.583,1053.971h-37.476v-8.737a27.434,27.434,0,0,1,3.067.224c2.716.494,5.407,1.13,8.125,1.613a42.838,42.838,0,0,0,17.866-.587c2.352-.575,4.787-.811,7.188-1.18a8.456,8.456,0,0,1,1.23-.008Z" transform="translate(-176.565 -237.19)" fill="#fff"/>
      <path id="Trazado_188671" data-name="Trazado 188671" d="M2182.71,1076.143c.867,0,1.618-.01,2.37,0a2.467,2.467,0,0,1,2.654,2.659c.009.753,0,1.505,0,2.3h-15.083a27.587,27.587,0,0,1,.2-3.207,2.273,2.273,0,0,1,2.243-1.738c.845-.031,1.692-.006,2.615-.006v-22.519h5Z" transform="translate(-26.811 -244.278)" fill="#fff"/>
      <path id="Trazado_188672" data-name="Trazado 188672" d="M2494.264,1011.191c0-1.692-.035-3.341.018-4.987a1.091,1.091,0,0,1,1.184-1.082q3.791-.026,7.582,0a1.146,1.146,0,0,1,1.195,1.081c.046,1.008.012,2.02.012,3.076C2500.9,1009.829,2497.705,1011.01,2494.264,1011.191Z" transform="translate(-298.21 -203.329)" fill="#fff"/>
      <path id="Trazado_188673" data-name="Trazado 188673" d="M2391.78,1011.349c-2.221-.459-4.319-.89-6.415-1.326-1.018-.212-2.029-.453-3.05-.645-.355-.067-.548-.161-.533-.572.029-.8-.006-1.609.014-2.413a1.2,1.2,0,0,1,1.287-1.289q3.726-.024,7.452,0a1.119,1.119,0,0,1,1.232,1.11C2391.807,1007.841,2391.78,1009.47,2391.78,1011.349Z" transform="translate(-203.295 -203.313)" fill="#fff"/>
      <path id="Trazado_188674" data-name="Trazado 188674" d="M2549.813,1214.068c0,.411.011.763,0,1.115a1.243,1.243,0,0,1-1.38,1.352c-1.512.014-3.026.007-4.539,0-1.146,0-1.579-.437-1.6-1.586,0-.278,0-.557,0-.883Z" transform="translate(-338.754 -379.67)" fill="#fff"/>
      <path id="Trazado_188675" data-name="Trazado 188675" d="M2356.514,1213.766c0,.525.033.949-.007,1.366a1.17,1.17,0,0,1-1.215,1.14c-1.676.024-3.354.035-5.029,0a1.646,1.646,0,0,1-1.2-2.328.46.46,0,0,1,.344-.169C2351.745,1213.763,2354.078,1213.766,2356.514,1213.766Z" transform="translate(-175.545 -379.414)" fill="#fff"/>
    </g>
  </g>
</svg>
