<svg xmlns="http://www.w3.org/2000/svg" width="69.367" height="71.535" viewBox="0 0 69.367 71.535">
  <g id="Grupo_132710" data-name="Grupo 132710" transform="translate(1049.152 -387.748)">
    <path id="Trazado_188527" data-name="Trazado 188527" d="M-952.3,693.111a2.768,2.768,0,0,1-1.833-2.761c-.043-1.509-.01-3.02-.01-4.639h30.094c1.787,0,2.547-.754,2.55-2.54q.006-3.49,0-6.981v-.953c.306.293.48.455.648.622l8.153,8.136c2.711,2.706,3.347,3.009,7.259,3.4-.069,1.258-.078,2.533-.226,3.791a2.3,2.3,0,0,1-1.787,1.926Z" transform="translate(-77.269 -233.828)" fill="#5038a1"/>
    <path id="Trazado_188528" data-name="Trazado 188528" d="M-1002.955,447.691h-43.536c-1.8,0-2.661-.83-2.662-2.643q0-21.829.016-43.657c0-.115.017-.229.033-.426.274-.017.543-.05.812-.047,3,.034,6.005.083,9.008.1a13.3,13.3,0,0,0,1.944-.142,1.918,1.918,0,0,0,1.739-1.664,16.822,16.822,0,0,0,.252-2.774c.008-2.607-.046-5.215-.074-7.822,0-.254,0-.508,0-.873h29.615c1.962,0,2.85.891,2.853,2.859,0,2.325,0,4.651,0,7.043a3.147,3.147,0,0,1-.431-.126c-6.625-3.168-13.116-2.574-19.39.9A20.011,20.011,0,0,0-1032.824,411a22.905,22.905,0,0,0-.526,3.018,1.245,1.245,0,0,1-.6,1.008q-4.316,2.773-8.6,5.6a2.094,2.094,0,0,0-.617,3.082,1.791,1.791,0,0,0,2.4.616c1.492-.854,2.94-1.786,4.392-2.709,1-.634,1.97-1.309,3.034-2.02.129.688.215,1.281.353,1.862a20.269,20.269,0,0,0,10.514,13.507,20.377,20.377,0,0,0,15.717,1.962c.737-.2,1.436-.538,2.17-.755a.951.951,0,0,1,.708.137,2.2,2.2,0,0,1,.947,2.078c-.068,2.792-.025,5.587-.025,8.382Z" fill="#5038a1"/>
    <path id="Trazado_188529" data-name="Trazado 188529" d="M-930.148,470.962c1.155,1.6,2.257,3.123,3.364,4.647a2.14,2.14,0,0,0,3.363.5q4.118-3.12,8.231-6.247a2.064,2.064,0,0,0,.908-2.122,2.083,2.083,0,0,0-3.412-1.232c-2.051,1.532-4.08,3.093-6.119,4.641-.2.153-.41.3-.67.484-.916-1.264-1.86-2.471-2.7-3.747-1.543-2.345-2.585-2.292-4.67-.845-3.192,2.214-6.457,4.322-9.693,6.473-.171.113-.352.211-.534.32a16.845,16.845,0,0,1,8.72-20.24c7.909-3.923,18.361-.342,22.521,7.588,3.347,6.381,2.54,17.045-6.707,22.167-8.172,4.527-18.211,2.095-22.784-5.605Z" transform="translate(-86.425 -52.252)" fill="#5038a1"/>
    <path id="Trazado_188530" data-name="Trazado 188530" d="M-779.248,400.235c2.847,0,5.569,0,8.291,0q2.479,0,4.959.019a2.5,2.5,0,0,1,2.742,2.725q.005,20.884,0,41.767v.665c-.249-.217-.405-.339-.544-.477q-4.649-4.636-9.3-9.267a.836.836,0,0,1-.221-1.076,20.945,20.945,0,0,0-5.39-23.428,1.444,1.444,0,0,1-.549-1.19c.027-2.98.013-5.96.013-8.94Z" transform="translate(-219.516 -10.156)" fill="#5038a1"/>
    <path id="Trazado_188531" data-name="Trazado 188531" d="M-748.939,650.862l5.094-5.143c1.888,1.919,3.8,3.859,5.705,5.8.506.514,1.031,1.011,1.524,1.537a3.584,3.584,0,0,1,0,4.982,3.539,3.539,0,0,1-5.028.129c-2.44-2.364-4.822-4.789-7.226-7.189A.349.349,0,0,1-748.939,650.862Z" transform="translate(-244.177 -209.82)" fill="#5038a1"/>
    <path id="Trazado_188532" data-name="Trazado 188532" d="M-786.365,613.974l4.914-4.842,3.821,3.932-4.83,4.857Z" transform="translate(-213.737 -180.062)" fill="#5038a1"/>
    <path id="Trazado_188533" data-name="Trazado 188533" d="M-1026.706,402.364V408.6h-6.532Z" transform="translate(-12.944 -11.888)" fill="#5038a1"/>
  </g>
</svg>
