<svg xmlns="http://www.w3.org/2000/svg" width="136.973" height="136.973" viewBox="0 0 136.973 136.973">
  <g id="Grupo_132722" data-name="Grupo 132722" transform="translate(1874.323 6922)">
    <g id="Grupo_132720" data-name="Grupo 132720" transform="translate(-1874.323 -6922)">
      <g id="Trazado_137458" data-name="Trazado 137458" transform="translate(0 0)" fill="#5038a1">
        <path d="M 68.48631286621094 131.9726409912109 C 59.91350936889648 131.9726409912109 51.59981155395508 130.2947692871094 43.77611541748047 126.9856185913086 C 40.01535797119141 125.3949661254883 36.38774871826172 123.4259033203125 32.9940071105957 121.1331405639648 C 29.6312255859375 118.8612899780273 26.46885681152344 116.2520523071289 23.5947265625 113.3779220581055 C 20.72059631347656 110.503791809082 18.11135673522949 107.341423034668 15.83950805664062 103.9786376953125 C 13.5467472076416 100.5848999023438 11.57768249511719 96.95726776123047 9.987030029296875 93.196533203125 C 6.677877902984619 85.37283325195312 5.000008583068848 77.05912017822266 5.000008583068848 68.48631286621094 C 5.000008583068848 59.91350936889648 6.677877902984619 51.59981155395508 9.987030029296875 43.77611541748047 C 11.57768249511719 40.01535797119141 13.5467472076416 36.38774871826172 15.83950805664062 32.9940071105957 C 18.11135673522949 29.6312255859375 20.72059631347656 26.46885681152344 23.5947265625 23.5947265625 C 26.46885681152344 20.72059631347656 29.6312255859375 18.11135673522949 32.9940071105957 15.83950805664062 C 36.38774871826172 13.5467472076416 40.01535797119141 11.57768249511719 43.77611541748047 9.987030029296875 C 51.59981155395508 6.677877902984619 59.91350936889648 5.000008583068848 68.48631286621094 5.000008583068848 C 77.05912017822266 5.000008583068848 85.37283325195312 6.677877902984619 93.196533203125 9.987030029296875 C 96.95726776123047 11.57768249511719 100.5848999023438 13.5467472076416 103.9786376953125 15.83950805664062 C 107.341423034668 18.11135673522949 110.503791809082 20.72059631347656 113.3779220581055 23.5947265625 C 116.2520523071289 26.46885681152344 118.8612899780273 29.6312255859375 121.1331405639648 32.9940071105957 C 123.4259033203125 36.38774871826172 125.3949661254883 40.01535797119141 126.9856185913086 43.77611541748047 C 130.2947692871094 51.59981155395508 131.9726409912109 59.91350936889648 131.9726409912109 68.48631286621094 C 131.9726409912109 77.05912017822266 130.2947692871094 85.37283325195312 126.9856185913086 93.196533203125 C 125.3949661254883 96.95726776123047 123.4259033203125 100.5848999023438 121.1331405639648 103.9786376953125 C 118.8612899780273 107.341423034668 116.2520523071289 110.503791809082 113.3779220581055 113.3779220581055 C 110.503791809082 116.2520523071289 107.341423034668 118.8612899780273 103.9786376953125 121.1331405639648 C 100.5848999023438 123.4259033203125 96.95726776123047 125.3949661254883 93.196533203125 126.9856185913086 C 85.37283325195312 130.2947692871094 77.05912017822266 131.9726409912109 68.48631286621094 131.9726409912109 Z" stroke="none"/>
        <path d="M 68.48631286621094 10.00000762939453 C 36.23686981201172 10.00000762939453 10.00000762939453 36.23686981201172 10.00000762939453 68.48631286621094 C 10.00000762939453 100.7357559204102 36.23686981201172 126.9726181030273 68.48631286621094 126.9726181030273 C 100.7357559204102 126.9726181030273 126.9726181030273 100.7357559204102 126.9726181030273 68.48631286621094 C 126.9726181030273 36.23686981201172 100.7357559204102 10.00000762939453 68.48631286621094 10.00000762939453 M 68.48631286621094 0 C 106.3102569580078 0 136.9726257324219 30.66236877441406 136.9726257324219 68.48631286621094 C 136.9726257324219 106.3102569580078 106.3102569580078 136.9726257324219 68.48631286621094 136.9726257324219 C 30.66236877441406 136.9726257324219 0 106.3102569580078 0 68.48631286621094 C 0 30.66236877441406 30.66236877441406 0 68.48631286621094 0 Z" stroke="none" fill="#fff"/>
      </g>
    </g>
    <g id="Grupo_132721" data-name="Grupo 132721" transform="translate(-3254.544 -7882.67)">
      <path id="Trazado_188631" data-name="Trazado 188631" d="M1481.159,1005.815a1.453,1.453,0,0,1-1.37.65q-30.612-.018-61.225-.011c-1.027,0-1.339-.313-1.34-1.336q0-2.528,0-5.055c0-1.009.378-1.381,1.4-1.381q30.55,0,61.1-.012a1.471,1.471,0,0,1,1.432.776Z" transform="translate(0)" fill="#fff"/>
      <path id="Trazado_188632" data-name="Trazado 188632" d="M1531.261,1066.832c-.2-.131-.375-.25-.554-.354a1.1,1.1,0,0,0-1.516.169,1.078,1.078,0,0,0,.291,1.585q2.941,2.368,5.9,4.717a3.61,3.61,0,0,0,.782.5.9.9,0,0,0,1.237-.389,1.016,1.016,0,0,0-.192-1.36c-.18-.165-.389-.3-.621-.472.685-.866,1.382-1.693,2.012-2.569a2.786,2.786,0,0,0,.467-1.179c.161-1.089.259-2.189.357-3.287.114-1.274-.424-1.73-1.67-1.449-1.386.313-1.795-.014-1.8-1.437,0-.666-.012-1.332,0-2a1.118,1.118,0,0,1,1.242-1.234c.666-.011,1.332-.006,2,0,.977.007,1.359.386,1.36,1.362q0,5.65,0,11.3t0,11.3c0,1.141-.356,1.5-1.479,1.511-1.193.008-1.517.332-1.517,1.518,0,2.06,0,4.12,0,6.181,0,.973-.389,1.382-1.349,1.387-1.956.011-3.913.026-5.868-.017a1.91,1.91,0,0,1-1.108-.441c-1.121-.961-2.224-1.949-3.262-3a1.993,1.993,0,0,1-.487-1.266c-.042-2.871-.019-5.743-.025-8.615,0-.389-.039-.777-.063-1.211,1.2-.584,2.43-1.178,3.656-1.786a1.031,1.031,0,0,0,.67-1.3,1.012,1.012,0,0,0-1.442-.649c-2.442,1.2-4.875,2.425-7.307,3.647a.885.885,0,0,0-.5,1.04c.1.481.35.887.894.885a5.4,5.4,0,0,0,1.239-.2,4.626,4.626,0,0,0,.732-.329c.013.285.03.486.03.686,0,2.747-.009,5.494.01,8.241a1.877,1.877,0,0,1-.543,1.4c-.888.936-1.73,1.915-2.625,2.844a1.241,1.241,0,0,1-.791.356c-2.309.028-4.62.02-6.93.014-.887,0-1.286-.408-1.288-1.307-.006-2.081,0-4.162,0-6.243,0-1.179-.351-1.535-1.513-1.548-1.025-.011-1.383-.361-1.383-1.4q0-11.425,0-22.85c0-1.063.354-1.407,1.432-1.41,1.436,0,2.872-.007,4.308,0,.952.006,1.322.376,1.332,1.322.009.916.016,1.832,0,2.747-.018.885-.462,1.24-1.33,1.1-.266-.043-.529-.111-.794-.159a1.039,1.039,0,0,0-1.34,1.17c.1,1.264.222,2.528.387,3.786a2.28,2.28,0,0,0,.438,1c.642.867,1.33,1.7,2.032,2.588-.206.154-.388.28-.558.419a1,1,0,0,0-.192,1.529,1.081,1.081,0,0,0,1.559.1c1.451-1.15,2.893-2.312,4.338-3.469.666-.533,1.339-1.057,1.994-1.6.586-.49.671-1,.288-1.519-.4-.547-.924-.607-1.584-.184-.157.1-.312.2-.528.345-.633-.795-1.208-1.642-1.911-2.364a2.794,2.794,0,0,1-.812-2.329c.074-1.077.013-2.163.019-3.245.006-1.065.378-1.443,1.418-1.443q6.9,0,13.8,0c.978,0,1.36.382,1.364,1.358.005,1.29.016,2.581-.012,3.87a1.272,1.272,0,0,1-.292.681c-.648.839-1.322,1.659-1.988,2.485C1531.535,1066.514,1531.4,1066.668,1531.261,1066.832Z" transform="translate(-75.884 -49.398)" fill="#fff"/>
      <path id="Trazado_188633" data-name="Trazado 188633" d="M1435.269,1236.468q0,5.21,0,10.419c0,1.235-.328,1.572-1.534,1.572q-6.333,0-12.666,0c-1.147,0-1.5-.348-1.5-1.478q0-10.575,0-21.151c0-1.117.331-1.445,1.453-1.445q6.364,0,12.728,0c1.164,0,1.521.364,1.521,1.538Q1435.271,1231.2,1435.269,1236.468Zm-8.311-11.763a5.278,5.278,0,0,0-5.356,5.264c.09,3.274,1.934,5.246,5.313,5.351a5.212,5.212,0,0,0,5.355-5.235A5.332,5.332,0,0,0,1426.958,1224.7Zm4.991,17.805a5.278,5.278,0,0,0-5.228-5.4c-3.3.071-5.262,1.948-5.4,5.22a5.339,5.339,0,0,0,5.273,5.443A5.259,5.259,0,0,0,1431.949,1242.51Z" transform="translate(-1.953 -188.059)" fill="#fff"/>
      <path id="Trazado_188634" data-name="Trazado 188634" d="M1712.6,1236.453q0,5.274,0,10.548c0,1.114-.341,1.458-1.443,1.458q-6.4,0-12.8,0c-1.07,0-1.426-.349-1.426-1.413q0-10.611,0-21.221c0-1.1.352-1.438,1.469-1.439q6.335,0,12.67,0c1.188,0,1.525.337,1.525,1.518Q1712.6,1231.179,1712.6,1236.453Zm-7.912,11.515c3.36-.145,5.208-2.031,5.314-5.347a5.207,5.207,0,0,0-5.314-5.349c-3.294.1-5.288,1.96-5.351,5.371A5.275,5.275,0,0,0,1704.685,1247.968Zm5.682-17.765a5.263,5.263,0,0,0-5.279-5.4c-3.377.064-5.223,1.936-5.33,5.3a5.243,5.243,0,0,0,5.31,5.363C1708.381,1235.4,1710.227,1233.507,1710.367,1230.2Z" transform="translate(-233.047 -188.06)" fill="#fff"/>
      <path id="Trazado_188635" data-name="Trazado 188635" d="M1538.852,1283.77q-5.837,0-11.674,0c-1.2,0-1.521-.319-1.522-1.506,0-.728-.01-1.457,0-2.185a1.084,1.084,0,0,1,1.2-1.2q11.986-.008,23.972,0c.87,0,1.282.438,1.295,1.324.009.624,0,1.249,0,1.873,0,1.4-.285,1.7-1.665,1.7Z" transform="translate(-90.341 -233.458)" fill="#fff"/>
      <path id="Trazado_188636" data-name="Trazado 188636" d="M1538.9,1320.778q5.864,0,11.729,0c1.129,0,1.507.373,1.509,1.487q0,2.589,0,5.178c0,1.048-.387,1.43-1.427,1.436-2.069.012-2.177-.1-2.177-2.175,0-.52,0-1.04,0-1.56-.007-.962-.4-1.366-1.368-1.367q-4.523-.008-9.046,0c-1.934,0-3.868,0-5.8,0a2.854,2.854,0,0,0-3.055,3.032c0,.25.008.5,0,.749a1.118,1.118,0,0,1-1.266,1.211c-.416.007-.832.015-1.247-.006a1.032,1.032,0,0,1-1.068-1.067q-.027-2.963,0-5.926c.006-.631.419-.979,1.121-.987,1.248-.014,2.5,0,3.743,0Z" transform="translate(-90.346 -268.369)" fill="#fff"/>
      <path id="Trazado_188637" data-name="Trazado 188637" d="M1567.213,1351.388q3.277,0,6.554,0c.741,0,1,.266,1.015,1.013,0,.229.006.458,0,.687a1.088,1.088,0,0,1-1.215,1.184c-.936.012-1.872,0-2.809,0q-4.775,0-9.55,0c-1.173,0-1.5-.34-1.508-1.536,0-.1,0-.208,0-.312.01-.844.2-1.038,1.023-1.039Q1563.967,1351.385,1567.213,1351.388Z" transform="translate(-118.708 -293.874)" fill="#fff"/>
      <path id="Trazado_188638" data-name="Trazado 188638" d="M1448.728,1116.166a4.128,4.128,0,0,1-.856-.569c-.821-.937-1.606-1.906-2.4-2.864a1.018,1.018,0,0,1-.023-1.372c.789-1.043,1.59-2.08,2.419-3.092a1.125,1.125,0,0,1,1.827.008c.8.932,1.572,1.881,2.359,2.821a1.045,1.045,0,0,1,.02,1.424c-.78,1.025-1.561,2.05-2.386,3.038A3.894,3.894,0,0,1,1448.728,1116.166Z" transform="translate(-23.303 -90.928)" fill="#fff"/>
      <path id="Trazado_188639" data-name="Trazado 188639" d="M1727.377,1117.77a4.426,4.426,0,0,1-.873-.607c-.681-.783-1.312-1.61-1.97-2.412a1.036,1.036,0,0,1-.011-1.421c.8-1.012,1.6-2.018,2.427-3a1.112,1.112,0,0,1,1.822-.012c.669.794,1.3,1.616,1.96,2.422a1,1,0,0,1,.038,1.318c-.8,1.064-1.609,2.117-2.457,3.14A3.682,3.682,0,0,1,1727.377,1117.77Z" transform="translate(-255.805 -92.627)" fill="#fff"/>
      <path id="Trazado_188640" data-name="Trazado 188640" d="M1728.216,1189.493a12.5,12.5,0,0,1-1.863-.025,1.707,1.707,0,0,1-1.009-.572c-.291-.375-.11-.821.19-1.192.587-.726,1.151-1.47,1.741-2.193a1.029,1.029,0,0,1,1.743-.043c.655.75,1.316,1.5,1.9,2.306a1.258,1.258,0,0,1,.18,1.063,1.424,1.424,0,0,1-.952.627,12.38,12.38,0,0,1-1.925.028Z" transform="translate(-256.598 -155.25)" fill="#fff"/>
      <path id="Trazado_188641" data-name="Trazado 188641" d="M1452.124,1190.145c-.56,0-1.121,0-1.681,0a1.092,1.092,0,0,1-1.086-.584,1.068,1.068,0,0,1,.211-1.208c.545-.68,1.066-1.379,1.616-2.054a1.015,1.015,0,0,1,1.758-.006c.551.675,1.149,1.318,1.635,2.037a1.728,1.728,0,0,1,.26,1.185c-.1.5-.6.63-1.094.632C1453.2,1190.146,1452.663,1190.145,1452.124,1190.145Z" transform="translate(-26.686 -155.901)" fill="#fff"/>
      <path id="Trazado_188642" data-name="Trazado 188642" d="M1715.577,1079.784a2.676,2.676,0,0,1,.656.45c.468.529.876,1.109,1.315,1.664a1.021,1.021,0,0,1-.008,1.373,12.649,12.649,0,0,1-1.4,1.667,1.527,1.527,0,0,1-1.108.291.889.889,0,0,1-.729-.959c-.008-1.144-.017-2.289,0-3.433C1714.311,1080.22,1714.788,1079.785,1715.577,1079.784Z" transform="translate(-247.51 -67.581)" fill="#fff"/>
      <path id="Trazado_188643" data-name="Trazado 188643" d="M1732.937,1058.506c.5,0,1-.019,1.5,0a.991.991,0,0,1,.827,1.63c-.429.613-.891,1.205-1.376,1.775a1.107,1.107,0,0,1-1.785.017,17.192,17.192,0,0,1-1.424-1.735,1.213,1.213,0,0,1-.179-1.011,1.546,1.546,0,0,1,.948-.65,6.787,6.787,0,0,1,1.492-.027Z" transform="translate(-260.969 -49.831)" fill="#fff"/>
      <path id="Trazado_188644" data-name="Trazado 188644" d="M1436.82,1159.993a5.748,5.748,0,0,1,.025-1.361,1.452,1.452,0,0,1,.632-.939,1.287,1.287,0,0,1,1.114.232,6.3,6.3,0,0,1,1.3,1.649,1.443,1.443,0,0,1-.118,1.138,8.745,8.745,0,0,1-1.009,1.334.983.983,0,0,1-1.15.388,1.058,1.058,0,0,1-.782-1.012c-.025-.475-.005-.953-.005-1.429Z" transform="translate(-16.304 -132.454)" fill="#fff"/>
      <path id="Trazado_188645" data-name="Trazado 188645" d="M1437.887,1079.465c.849-.012,2.551,1.969,2.2,2.662a7.284,7.284,0,0,1-1.658,2.109c-.5.443-1.4-.078-1.455-.811a27.538,27.538,0,0,1-.006-3.1A.876.876,0,0,1,1437.887,1079.465Z" transform="translate(-16.42 -67.315)" fill="#fff"/>
      <path id="Trazado_188646" data-name="Trazado 188646" d="M1455.542,1058.494c.436,0,.874-.03,1.307.007a.98.98,0,0,1,.757,1.557,14.386,14.386,0,0,1-1.278,1.606,1.124,1.124,0,0,1-1.742-.071,10.351,10.351,0,0,1-1.106-1.422,1.334,1.334,0,0,1-.157-1.072,1.6,1.6,0,0,1,.979-.588,5.2,5.2,0,0,1,1.24-.022Z" transform="translate(-30.028 -49.815)" fill="#fff"/>
      <path id="Trazado_188647" data-name="Trazado 188647" d="M1756.454,1158.482c0,.437.01.874,0,1.311a.893.893,0,0,1-.741.949,1.61,1.61,0,0,1-1.107-.3,10.529,10.529,0,0,1-1.184-1.362.873.873,0,0,1-.06-1.149,10.547,10.547,0,0,1,1.279-1.606,1.223,1.223,0,0,1,1.044-.26,1.4,1.4,0,0,1,.735.87,6.467,6.467,0,0,1,.031,1.552Z" transform="translate(-279.905 -131.102)" fill="#fff"/>
      <path id="Trazado_188648" data-name="Trazado 188648" d="M1479.719,1160.383a3.725,3.725,0,0,1-.026,1.174,1.923,1.923,0,0,1-.735.971.888.888,0,0,1-1.157-.321c-.325-.4-.664-.8-1-1.2a.953.953,0,0,1-.009-1.35c.331-.4.672-.791.995-1.2a1,1,0,0,1,1.166-.357,1.059,1.059,0,0,1,.761,1.032c.019.414,0,.83,0,1.245Z" transform="translate(-49.406 -132.786)" fill="#fff"/>
      <path id="Trazado_188649" data-name="Trazado 188649" d="M1479.721,1082.471c0,.394.012.789,0,1.183a1.068,1.068,0,0,1-.745,1.045,1.02,1.02,0,0,1-1.214-.384c-.308-.391-.635-.768-.954-1.15a.954.954,0,0,1-.012-1.351c.331-.4.672-.791.995-1.2a1,1,0,0,1,1.166-.36,1.06,1.06,0,0,1,.763,1.03C1479.736,1081.682,1479.721,1082.077,1479.721,1082.471Z" transform="translate(-49.406 -67.925)" fill="#fff"/>
      <path id="Trazado_188650" data-name="Trazado 188650" d="M1714.177,1159.871a4.624,4.624,0,0,1,.022-1.176c.093-.342.311-.8.589-.9a1.331,1.331,0,0,1,1.123.174,4.718,4.718,0,0,1,1.189,1.418,1.443,1.443,0,0,1-.051,1.141,4.236,4.236,0,0,1-1.011,1.325,1.6,1.6,0,0,1-1.1.321.883.883,0,0,1-.756-.931c-.018-.456,0-.912,0-1.369Z" transform="translate(-247.393 -132.527)" fill="#fff"/>
      <path id="Trazado_188651" data-name="Trazado 188651" d="M1661.618,1103.41a7.259,7.259,0,0,1-.519,1.082,13.548,13.548,0,0,1-1.141,1.4c-.526.576-1.04.535-1.795-.094a1,1,0,0,1-.221-1.57,14.48,14.48,0,0,1,1.18-1.452,2.16,2.16,0,0,1,.926-.568C1660.958,1101.961,1661.5,1102.417,1661.618,1103.41Z" transform="translate(-200.325 -86.211)" fill="#fff"/>
      <path id="Trazado_188652" data-name="Trazado 188652" d="M1545.087,1104.266a8.773,8.773,0,0,1,1.225.836,9.9,9.9,0,0,1,1.062,1.3,1.109,1.109,0,0,1-.241,1.732c-.706.552-1.274.535-1.8-.078a7.349,7.349,0,0,1-1.116-1.416,2.924,2.924,0,0,1-.256-1.532C1544.011,1104.619,1544.474,1104.4,1545.087,1104.266Z" transform="translate(-105.581 -87.979)" fill="#fff"/>
      <path id="Trazado_188653" data-name="Trazado 188653" d="M1758.244,1086.165c0,.311.008.621,0,.932a1,1,0,0,1-.729.978.979.979,0,0,1-1.166-.343c-.19-.245-.387-.486-.573-.735a1.219,1.219,0,0,1-.025-1.646,2.671,2.671,0,0,1,.62-.766,1.952,1.952,0,0,1,1.1-.333.884.884,0,0,1,.767.92c.019.33,0,.662,0,.994Z" transform="translate(-281.797 -71.301)" fill="#fff"/>
      <path id="Trazado_188654" data-name="Trazado 188654" d="M1595.431,1258.837c.414-.442.736-.845,1.12-1.177a.92.92,0,0,1,1.255.008c.437.347.852.721,1.377,1.169Z" transform="translate(-148.48 -215.581)" fill="#fff"/>
      <path id="Trazado_188655" data-name="Trazado 188655" d="M1445.81,1319.945a3.093,3.093,0,0,0,3.214-3.094,2.977,2.977,0,0,0-3.182-3.217,3.159,3.159,0,0,0-3.213,3.125A3.082,3.082,0,0,0,1445.81,1319.945Z" transform="translate(-21.169 -262.418)" fill="#fff"/>
      <path id="Trazado_188656" data-name="Trazado 188656" d="M1730.6,1317.72a3.189,3.189,0,1,0-6.379.024,3.19,3.19,0,1,0,6.379-.024Z" transform="translate(-255.788 -263.172)" fill="#fff"/>
      <path id="Trazado_188657" data-name="Trazado 188657" d="M1448.173,1245.048a3.106,3.106,0,0,1-3.212-3.162,3.219,3.219,0,0,1,3.258-3.159,3.115,3.115,0,0,1,3.167,3.208A3.15,3.15,0,0,1,1448.173,1245.048Zm1.025-2.972h.013c0-.187.011-.375,0-.561a1.115,1.115,0,0,0-1.077-1.079,1.092,1.092,0,0,0-1.082,1.068,7.34,7.34,0,0,0,.019,1.307,1,1,0,0,0,1.021.912,1.056,1.056,0,0,0,1.1-.9A5.246,5.246,0,0,0,1449.2,1242.076Z" transform="translate(-23.112 -200.008)" fill="#fff"/>
      <path id="Trazado_188658" data-name="Trazado 188658" d="M1445.81,1319.945a3.082,3.082,0,0,1-3.18-3.186,3.159,3.159,0,0,1,3.213-3.125,2.977,2.977,0,0,1,3.182,3.217A3.093,3.093,0,0,1,1445.81,1319.945Zm1.072-3.749a1.1,1.1,0,0,0-1.072-1.144,1.085,1.085,0,0,0-1.121,1.093,7.087,7.087,0,0,0,0,1.059,1.088,1.088,0,0,0,1.1,1.114,1.105,1.105,0,0,0,1.093-1.187" transform="translate(-21.169 -262.418)" fill="#fff"/>
      <path id="Trazado_188659" data-name="Trazado 188659" d="M1730.6,1317.72a3.189,3.189,0,1,1-3.136-3.183A3.157,3.157,0,0,1,1730.6,1317.72Zm-2.156-.127a6.685,6.685,0,0,0,0-.686,1.075,1.075,0,0,0-1.019-1,1.05,1.05,0,0,0-1.14.923,4.536,4.536,0,0,0-.035.745c0,1.071.388,1.62,1.13,1.6C1728.094,1319.165,1728.454,1318.632,1728.447,1317.593Z" transform="translate(-255.788 -263.172)" fill="#fff"/>
      <path id="Trazado_188660" data-name="Trazado 188660" d="M1729.838,1245.745a3.139,3.139,0,0,1-3.205-3.252,3.258,3.258,0,0,1,3.228-3.221,3.237,3.237,0,0,1-.022,6.473Zm1-3.1h.009c0-.187.01-.375,0-.561a1.1,1.1,0,0,0-1.063-1.087,1.069,1.069,0,0,0-1.095,1.046,7.91,7.91,0,0,0,.014,1.306,1.027,1.027,0,0,0,1.071.922,1.055,1.055,0,0,0,1.061-.943A5.712,5.712,0,0,0,1730.838,1242.645Z" transform="translate(-257.793 -200.463)" fill="#fff"/>
    </g>
  </g>
</svg>
