<svg xmlns="http://www.w3.org/2000/svg" width="136.973" height="136.973" viewBox="0 0 136.973 136.973">
  <g id="Grupo_132726" data-name="Grupo 132726" transform="translate(1522.429 6898.094)">
    <g id="Grupo_132724" data-name="Grupo 132724" transform="translate(-1522.429 -6898.094)">
      <g id="Trazado_137458" data-name="Trazado 137458" transform="translate(0 0)" fill="#5038a1">
        <path d="M 68.48631286621094 131.9726409912109 C 59.91350936889648 131.9726409912109 51.59981155395508 130.2947692871094 43.77611541748047 126.9856185913086 C 40.01535797119141 125.3949661254883 36.38774871826172 123.4259033203125 32.9940071105957 121.1331405639648 C 29.6312255859375 118.8612899780273 26.46885681152344 116.2520523071289 23.5947265625 113.3779220581055 C 20.72059631347656 110.503791809082 18.11135673522949 107.341423034668 15.83950805664062 103.9786376953125 C 13.5467472076416 100.5848999023438 11.57768249511719 96.95726776123047 9.987030029296875 93.196533203125 C 6.677877902984619 85.37283325195312 5.000008583068848 77.05912017822266 5.000008583068848 68.48631286621094 C 5.000008583068848 59.91350936889648 6.677877902984619 51.59981155395508 9.987030029296875 43.77611541748047 C 11.57768249511719 40.01535797119141 13.5467472076416 36.38774871826172 15.83950805664062 32.9940071105957 C 18.11135673522949 29.6312255859375 20.72059631347656 26.46885681152344 23.5947265625 23.5947265625 C 26.46885681152344 20.72059631347656 29.6312255859375 18.11135673522949 32.9940071105957 15.83950805664062 C 36.38774871826172 13.5467472076416 40.01535797119141 11.57768249511719 43.77611541748047 9.987030029296875 C 51.59981155395508 6.677877902984619 59.91350936889648 5.000008583068848 68.48631286621094 5.000008583068848 C 77.05912017822266 5.000008583068848 85.37283325195312 6.677877902984619 93.196533203125 9.987030029296875 C 96.95726776123047 11.57768249511719 100.5848999023438 13.5467472076416 103.9786376953125 15.83950805664062 C 107.341423034668 18.11135673522949 110.503791809082 20.72059631347656 113.3779220581055 23.5947265625 C 116.2520523071289 26.46885681152344 118.8612899780273 29.6312255859375 121.1331405639648 32.9940071105957 C 123.4259033203125 36.38774871826172 125.3949661254883 40.01535797119141 126.9856185913086 43.77611541748047 C 130.2947692871094 51.59981155395508 131.9726409912109 59.91350936889648 131.9726409912109 68.48631286621094 C 131.9726409912109 77.05912017822266 130.2947692871094 85.37283325195312 126.9856185913086 93.196533203125 C 125.3949661254883 96.95726776123047 123.4259033203125 100.5848999023438 121.1331405639648 103.9786376953125 C 118.8612899780273 107.341423034668 116.2520523071289 110.503791809082 113.3779220581055 113.3779220581055 C 110.503791809082 116.2520523071289 107.341423034668 118.8612899780273 103.9786376953125 121.1331405639648 C 100.5848999023438 123.4259033203125 96.95726776123047 125.3949661254883 93.196533203125 126.9856185913086 C 85.37283325195312 130.2947692871094 77.05912017822266 131.9726409912109 68.48631286621094 131.9726409912109 Z" stroke="none"/>
        <path d="M 68.48631286621094 10.00000762939453 C 36.23686981201172 10.00000762939453 10.00000762939453 36.23686981201172 10.00000762939453 68.48631286621094 C 10.00000762939453 100.7357559204102 36.23686981201172 126.9726181030273 68.48631286621094 126.9726181030273 C 100.7357559204102 126.9726181030273 126.9726181030273 100.7357559204102 126.9726181030273 68.48631286621094 C 126.9726181030273 36.23686981201172 100.7357559204102 10.00000762939453 68.48631286621094 10.00000762939453 M 68.48631286621094 0 C 106.3102569580078 0 136.9726257324219 30.66236877441406 136.9726257324219 68.48631286621094 C 136.9726257324219 106.3102569580078 106.3102569580078 136.9726257324219 68.48631286621094 136.9726257324219 C 30.66236877441406 136.9726257324219 0 106.3102569580078 0 68.48631286621094 C 0 30.66236877441406 30.66236877441406 0 68.48631286621094 0 Z" stroke="none" fill="#fff"/>
      </g>
    </g>
    <g id="Grupo_132725" data-name="Grupo 132725" transform="translate(-3086.939 -7763.82)">
      <path id="Trazado_188608" data-name="Trazado 188608" d="M1823.74,1006.2a11.107,11.107,0,0,0-14.366,5.662c-.059-.16-.1-.266-.137-.375a8.548,8.548,0,0,0-4.684-5.4.815.815,0,0,1-.427-.561c-.022-6.582-.018-13.164-.018-19.8h19.633Zm-15.3-11.8v-2.124h-2.087V994.4Zm4.392-2.141h-2.122v2.11h2.122Zm4.348,2.129V992.26h-2.094v2.127Zm4.376,0v-2.127h-2.1v2.127Zm-15.224,4.362h2.107v-2.095h-2.107Zm4.376-2.117v2.114h2.1v-2.114Zm6.5,0h-2.122v2.11h2.122Zm2.25,0v2.115h2.1V996.63Zm-11.017,6.5v-2.1h-2.108v2.1Zm4.374,0v-2.1H1810.7v2.1Zm2.245-.01h2.127v-2.091h-2.127Zm4.393-.005h2.1v-2.1h-2.1Zm-.017-13.133h2.126V987.9h-2.126Zm-2.238.026v-2.114h-2.1v2.114Zm-6.481-2.143v2.124h2.087v-2.124Zm-4.372.019v2.1h2.107v-2.1Z" transform="translate(-165.607 -68.659)" fill="#fff"/>
      <path id="Trazado_188609" data-name="Trazado 188609" d="M1650.872,1011.75a10.98,10.98,0,0,0-14.318-5.539V985.683h15.282v.785c0,6.739-.017,13.478.012,20.216C1651.855,1008.443,1651.914,1010.186,1650.872,1011.75Zm-12.121-15.15v2.114h2.1V996.6Zm4.37,2.118h2.11v-2.1h-2.11Zm6.492.008v-2.114h-2.1v2.114Zm-6.467-6.517v2.127h2.078V992.21Zm-2.258,8.778h-2.123v2.087h2.123Zm4.348,2.109v-2.107h-2.095v2.107Zm4.363.006v-2.127h-2.1v2.127Zm-10.827-10.894v2.127h2.078V992.21Zm8.729.018v2.111h2.1v-2.111Zm-.024-2.277h2.126v-2.078h-2.126Zm-4.339-2.1v2.1h2.1v-2.1Zm-4.377,0v2.1h2.107v-2.1Z" transform="translate(-28.646 -68.628)" fill="#fff"/>
      <path id="Trazado_188610" data-name="Trazado 188610" d="M1743.41,985.72c-1.543,0-2.975.043-4.4-.01a9.53,9.53,0,0,0-6.513,1.779V961.706h15.222v2.1h-4.305Zm-4.368-13.1v2.119h2.106v-2.119Zm2.123,4.382h-2.115v2.1h2.115Zm-6.478,4.364V983.5h2.094v-2.127Zm4.351,2.125h2.115v-2.1h-2.115Zm2.12-13.118v-2.114h-2.1v2.114Zm-6.5-.024h2.126v-2.09h-2.126Zm2.133,2.278h-2.115v2.1h2.115Zm2.249-8.759V966h2.11v-2.122Zm-2.232.016h-2.127v2.091h2.127ZM1734.67,977v2.114h2.1V977Z" transform="translate(-107.069 -49.029)" fill="#fff"/>
      <path id="Trazado_188611" data-name="Trazado 188611" d="M1629.784,1126.519c-1.422-.454-2.807-.869-4.166-1.355a1.2,1.2,0,0,1-.537-.72.706.706,0,0,1,.253-.589,5.6,5.6,0,0,0,2.271-4.8c-.028-2.025-.006-4.051-.006-6.179-1.133,0-2.239.019-3.343-.008a7.181,7.181,0,0,1-1.618-.188,4.077,4.077,0,0,1-2.222-1.611,3.232,3.232,0,0,0-3.777-1.292,3.273,3.273,0,0,0-2.161,3.3c0,2.05.007,4.1,0,6.15a5.5,5.5,0,0,0,2.242,4.605c.16.124.335.421.29.575-.084.283-.275.666-.512.75-1.379.49-2.784.905-4.236,1.364.077.084.052.069.052.055,0-4.441-.152-8.889.042-13.321a8.639,8.639,0,0,1,9.112-8.028,8.755,8.755,0,0,1,8.312,8.608C1629.809,1118.093,1629.784,1122.352,1629.784,1126.519Z" transform="translate(-8.782 -166.342)" fill="#fff"/>
      <path id="Trazado_188612" data-name="Trazado 188612" d="M1855.219,1112.938c-.761-.067-1.445-.079-2.11-.2a4.733,4.733,0,0,1-3.149-2.1,1.484,1.484,0,0,1-.2-.763c-.025-.794-.009-1.589-.009-2.429h-2.187c0,.821.026,1.635-.013,2.446a1.7,1.7,0,0,1-.288.867,4.913,4.913,0,0,1-4.017,2.1c-.359.012-.718,0-1.094,0,0,2.491,0,4.92,0,7.349a.856.856,0,0,0,.03.133,5.525,5.525,0,0,0,2.073,3.425,1.024,1.024,0,0,1,.362.675.694.694,0,0,1-.666.78c-.537.073-1.052.3-1.588.387a1.309,1.309,0,0,1-.823-.106,3.044,3.044,0,0,1-1.616-2.682c-.03-3.143-.094-6.29.017-9.43a8.731,8.731,0,0,1,17.341-.8,9.677,9.677,0,0,1,.116,1.358c.01,2.848,0,5.7.009,8.543a3.373,3.373,0,0,1-.719,2.225c-.594.728-1.255,1.254-2.281.765a3.175,3.175,0,0,0-1.055-.264c-.47-.044-.551-.346-.674-.715-.144-.432.132-.562.38-.758a5.358,5.358,0,0,0,2.155-4.369C1855.229,1117.247,1855.219,1115.108,1855.219,1112.938Z" transform="translate(-194.85 -166.339)" fill="#fff"/>
      <path id="Trazado_188613" data-name="Trazado 188613" d="M1725.6,1231.144c1.168-1.556,2.287-3.017,3.367-4.507a.739.739,0,0,1,.9-.328,8.163,8.163,0,0,1,5.112,2.884,7.089,7.089,0,0,1,1.442,3.379h-21.666a7.2,7.2,0,0,1,4.611-5.695c2.34-.928,2.351-.9,3.838,1.074C1723.983,1228.985,1724.76,1230.021,1725.6,1231.144Z" transform="translate(-92.57 -265.292)" fill="#fff"/>
      <path id="Trazado_188614" data-name="Trazado 188614" d="M1743.556,1111.952a20.253,20.253,0,0,0-2.766-.316,6.888,6.888,0,0,1-5.544-2.295c-.1-.114-.227-.21-.492-.451a7.119,7.119,0,0,1-.586.782,6.523,6.523,0,0,1-4.72,1.956c-1.051.02-2.1.178-3.261.284a4.256,4.256,0,0,1,.15-2.125,6.029,6.029,0,0,1,5.361-4.656,37.137,37.137,0,0,1,6.809.087,6.111,6.111,0,0,1,5.107,6.373A2.754,2.754,0,0,1,1743.556,1111.952Z" transform="translate(-101.845 -166.174)" fill="#fff"/>
      <path id="Trazado_188615" data-name="Trazado 188615" d="M1619.831,1232.813h-18.3c-.271-2.648,2.823-5.595,6.567-6.247a4.4,4.4,0,0,0,8.324-.015,7.732,7.732,0,0,1,4.738,2.376Z" transform="translate(0 -265.52)" fill="#fff"/>
      <path id="Trazado_188616" data-name="Trazado 188616" d="M1758.91,1148.563c0,.8.01,1.592,0,2.388a3.277,3.277,0,0,1-3.28,3.309c-.75.014-1.5.019-2.251,0a3.262,3.262,0,0,1-3.207-3.239c-.025-1.682.007-3.366-.016-5.048-.006-.415.146-.539.533-.593a7.7,7.7,0,0,0,3.438-1.394.586.586,0,0,1,.825,0,7.553,7.553,0,0,0,3.436,1.4c.45.061.545.256.532.664C1758.892,1146.88,1758.91,1147.722,1758.91,1148.563Z" transform="translate(-121.504 -197.887)" fill="#fff"/>
      <path id="Trazado_188617" data-name="Trazado 188617" d="M1645.1,1144.791c0,1.655.1,3.25-.026,4.828a3.175,3.175,0,0,1-3.178,2.822c-.774.019-1.549.022-2.323,0a3.251,3.251,0,0,1-3.182-3.2c-.03-2.186-.006-4.373-.01-6.56,0-.537.207-1.014.733-1.082a1.4,1.4,0,0,1,1.123.367,6.767,6.767,0,0,0,6.3,2.827C1644.714,1144.782,1644.891,1144.791,1645.1,1144.791Z" transform="translate(-28.501 -196.07)" fill="#fff"/>
      <path id="Trazado_188618" data-name="Trazado 188618" d="M1863.963,1147.882a7.4,7.4,0,0,0,4.359-2.414,7.491,7.491,0,0,0,4.38,2.408c0,.827,0,1.66,0,2.492,0,.683.015,1.366-.006,2.048a3.273,3.273,0,0,1-3.187,3.194c-.8.024-1.593.026-2.389,0a3.231,3.231,0,0,1-3.143-3.016C1863.913,1151.05,1863.963,1149.5,1863.963,1147.882Z" transform="translate(-214.52 -199.24)" fill="#fff"/>
      <path id="Trazado_188619" data-name="Trazado 188619" d="M1903.441,1227.027c3.353.478,6.13,3.147,6.343,6.147h-8.326c.432-.987.944-1.951,1.276-2.974C1903.062,1229.193,1903.2,1228.126,1903.441,1227.027Z" transform="translate(-245.185 -265.909)" fill="#fff"/>
      <path id="Trazado_188620" data-name="Trazado 188620" d="M1747.759,937.748v2.106h-15.222v-2.106Z" transform="translate(-107.104 -29.445)" fill="#fff"/>
      <path id="Trazado_188621" data-name="Trazado 188621" d="M1845.795,1233.079h-5.26l-1.322-3.893a7.406,7.406,0,0,1,4.526-2.313A12.963,12.963,0,0,0,1845.795,1233.079Z" transform="translate(-194.304 -265.783)" fill="#fff"/>
      <path id="Trazado_188622" data-name="Trazado 188622" d="M1649.122,1212.976h3.629a2.03,2.03,0,0,1-.458,2.811,2.1,2.1,0,0,1-2.592.071C1648.8,1215.218,1648.628,1214.4,1649.122,1212.976Z" transform="translate(-38.697 -254.423)" fill="#fff"/>
      <path id="Trazado_188623" data-name="Trazado 188623" d="M1768.43,901.726h2.1v4.289h-2.1Z" transform="translate(-136.444 0)" fill="#fff"/>
      <path id="Trazado_188624" data-name="Trazado 188624" d="M1765.23,1216.718c-.682-.907-1.339-1.714-1.9-2.579-.161-.247-.057-.668-.078-1.052h3.8a1.062,1.062,0,0,1-.141,1.421C1766.334,1215.181,1765.834,1215.912,1765.23,1216.718Z" transform="translate(-132.196 -254.514)" fill="#fff"/>
      <path id="Trazado_188625" data-name="Trazado 188625" d="M1875.618,1215.173l.323-2.15h3.854c.109.7.218,1.395.336,2.15Z" transform="translate(-224.062 -254.462)" fill="#fff"/>
      <path id="Trazado_188626" data-name="Trazado 188626" d="M1877.858,1237.131h3.678a9.6,9.6,0,0,1-1.824,3.795A9.407,9.407,0,0,1,1877.858,1237.131Z" transform="translate(-225.893 -274.168)" fill="#fff"/>
      <path id="Trazado_188627" data-name="Trazado 188627" d="M1810.219,1157.834v-4.266a2.058,2.058,0,0,1,2.154,1.888A2.188,2.188,0,0,1,1810.219,1157.834Z" transform="translate(-170.604 -205.857)" fill="#fff"/>
      <path id="Trazado_188628" data-name="Trazado 188628" d="M1728.411,1153.255v4.319a2.159,2.159,0,0,1,0-4.319Z" transform="translate(-101.973 -205.606)" fill="#fff"/>
      <path id="Trazado_188629" data-name="Trazado 188629" d="M1792.417,913.675h2.094V915.8h-2.094Z" transform="translate(-156.052 -9.767)" fill="#fff"/>
      <path id="Trazado_188630" data-name="Trazado 188630" d="M1746.6,915.893H1744.5v-2.107h2.095Z" transform="translate(-116.884 -9.858)" fill="#fff"/>
    </g>
  </g>
</svg>
