<svg xmlns="http://www.w3.org/2000/svg" width="505" height="530.136" viewBox="0 0 505 530.136">
  <g id="Grupo_132669" data-name="Grupo 132669" transform="translate(-180 -838.864)">
    <g id="Grupo_132414" data-name="Grupo 132414" transform="translate(37.155 746.498)">
      <g id="Grupo_131939" data-name="Grupo 131939" transform="translate(252.059 447.646)">
        <path id="Trazado_138057" data-name="Trazado 138057" d="M292.435,744.156c-54.409-31.22-51.016-86.389,7.574-123.219s150.2-41.384,204.608-10.164S555.632,697.162,497.039,734,346.844,775.376,292.435,744.156Z" transform="translate(-253.748 -590.037)" fill="#e5e1f1"/>
      </g>
      <g id="Grupo_132423" data-name="Grupo 132423" transform="translate(410.444 222.476)">
        <g id="Grupo_132419" data-name="Grupo 132419" transform="translate(0 202.085)">
          <path id="Rectángulo_43887" data-name="Rectángulo 43887" d="M7.813,0h69.48a7.814,7.814,0,0,1,7.814,7.814V8.02a7.814,7.814,0,0,1-7.814,7.814H7.813A7.813,7.813,0,0,1,0,8.021V7.813A7.813,7.813,0,0,1,7.813,0Z" fill="#ee9849"/>
          <g id="Grupo_132418" data-name="Grupo 132418" transform="translate(2.949 15.834)">
            <g id="Grupo_132415" data-name="Grupo 132415">
              <g id="Grupo_132414-2" data-name="Grupo 132414">
                <path id="Trazado_188029" data-name="Trazado 188029" d="M497.418,579.879l-1.011,9.265L481.771,723.266a.835.835,0,0,1-.765.823,1.436,1.436,0,0,1-1.257-1.675l11.608-137.347.439-5.188Z" transform="translate(-479.742 -579.879)" fill="#efcbab"/>
              </g>
              <path id="Trazado_188030" data-name="Trazado 188030" d="M502.073,579.879l-1.011,9.265c-.695-3.69-5.05-4.076-5.05-4.076l.439-5.188Z" transform="translate(-484.397 -579.879)" fill="#cca07f"/>
            </g>
            <g id="Grupo_132417" data-name="Grupo 132417" transform="translate(61.534)">
              <g id="Grupo_132416" data-name="Grupo 132416">
                <path id="Trazado_188031" data-name="Trazado 188031" d="M582.349,724.089a.835.835,0,0,1-.765-.823L566.949,589.144l-.631-5.78-.38-3.485h5.622l.439,5.188.344,4.071,11.264,133.275A1.436,1.436,0,0,1,582.349,724.089Z" transform="translate(-565.938 -579.879)" fill="#efcbab"/>
              </g>
              <path id="Trazado_188032" data-name="Trazado 188032" d="M572.343,589.139c-1.431-4.415-6.022-5.771-6.022-5.771l0,0-.38-3.485h5.622l.439,5.188Z" transform="translate(-565.938 -579.879)" fill="#cca07f"/>
            </g>
          </g>
        </g>
        <g id="Grupo_132422" data-name="Grupo 132422" transform="translate(45.464 -66.474)">
          <rect id="Rectángulo_43888" data-name="Rectángulo 43888" width="176.673" height="176.673" rx="40" transform="translate(15.989 0) rotate(5.192)" fill="#e8e7f7"/>
          <path id="Trazado_188033" data-name="Trazado 188033" d="M685.656,328.5l-7.806,85.914a22.391,22.391,0,0,1-23.26,20.367c-.365-.013-.73-.038-1.1-.072l-85.915-7.808c-.152-.014-.306-.028-.46-.05s-.295-.031-.439-.052a22.4,22.4,0,0,1-19.4-24.252l7.806-85.913a22.419,22.419,0,0,1,24.353-20.3l85.915,7.808A22.418,22.418,0,0,1,685.656,328.5Z" transform="translate(-520.441 -271.275)" fill="#d4cff9"/>
          <g id="Grupo_132421" data-name="Grupo 132421" transform="translate(27.176 40.825)">
            <path id="Trazado_188034" data-name="Trazado 188034" d="M599.1,353.3s-1.882,15.234-4.46,21.9L578.181,384.6l57.472,14.013L623.5,378.147s-2.334-20.867.554-28.245S599.1,353.3,599.1,353.3Z" transform="translate(-542.82 -304.194)" fill="#ffb27d"/>
            <path id="Trazado_188035" data-name="Trazado 188035" d="M596.057,354.321s3.6,11.51,12.3,12.055,11.567-9.091,11.567-9.091Z" transform="translate(-540.053 -303.11)" fill="#ed985f"/>
            <path id="Trazado_188036" data-name="Trazado 188036" d="M592.772,351.735s-1.531-14.246-3.1-18.661-1.483-23.468,20.282-22.476c0,0,8.223,1.733,13.038-.622,0,0-.252,2.77-1.481,3.645a14.469,14.469,0,0,1,12.935,5.941c5.275,7.051-6.576,28.981-6.576,34.4Z" transform="translate(-541.132 -309.975)" fill="#231d54"/>
            <path id="Trazado_188037" data-name="Trazado 188037" d="M608.357,366.738c-6.278-.682-17.092-10.108-16.15-20.477l1.471-16.18c.344-3.788,3.266-6.646,6.493-6.352l23.991,2.18c3.227.293,5.586,3.632,5.242,7.418l-1.388,15.265C627.028,359.465,615.558,367.52,608.357,366.738Z" transform="translate(-540.658 -307.849)" fill="#ffb27d"/>
            <path id="Trazado_188038" data-name="Trazado 188038" d="M592.81,339.124s.917-9.72,8.753-10.514,24.5,7,27.594.137-32.681-9.995-34.892-5.635S592.81,339.124,592.81,339.124Z" transform="translate(-540.575 -308.252)" fill="#231d54"/>
            <path id="Trazado_188039" data-name="Trazado 188039" d="M646.443,422.673l-81.538-7.41c-.152-.014-.306-.028-.46-.05,3.759-18.491,10.233-40.615,13.908-41.777,0,0,.418-.112,1.219-.284a.056.056,0,0,1,.021,0,80.4,80.4,0,0,1,11.7-1.489c.012,0,.029,0,.04,0q2.5-.158,5.43-.2c-.021.226,5.791,10.633,13.646,12.456,5.12-1.507,9.156-2.819,15.218-9.511,1.763.372,3.568.781,5.409,1.241,4.481,1.112,9.179,2.5,14.064,4.213.577.2,1.162.408,1.746.624h0c.233.078.462.164.694.251,0,0,.035.252.044,1.728v0C647.6,385.817,647.458,395.451,646.443,422.673Z" transform="translate(-544.946 -300.457)" fill="#948fd1"/>
            <g id="Grupo_132420" data-name="Grupo 132420" transform="translate(0 71.204)">
              <path id="Trazado_188040" data-name="Trazado 188040" d="M581.641,373.178a.362.362,0,0,0-.062.01,11.459,11.459,0,0,0-1.278.247c-.034.009-.066.014-.091.02a.278.278,0,0,1-.075.017.37.37,0,0,1-.05.013c-4.437,1.1-15.705,5.586-32.525,23.8a22.42,22.42,0,0,0,19.061,17.847c.144.021.293.039.439.052s.307.036.46.05l8.109.738,13.536,1.23c1.488-13.774,2.745-25.76,3.6-33.976.375-3.63.67-6.521.875-8.512s.313-3.081.313-3.081-.029,0-.04,0A86.15,86.15,0,0,0,581.641,373.178Z" transform="translate(-547.56 -371.635)" fill="#5038a1"/>
              <path id="Trazado_188041" data-name="Trazado 188041" d="M639.11,380.178a12.745,12.745,0,0,0-2.161-.841c-.008,0-.011,0-.015-.006a131.821,131.821,0,0,0-14.331-4.244v0c-.01.118-.219,2.6-.577,6.9v0c-.225,2.751-.512,6.246-.845,10.333-.619,7.609-1.392,17.276-2.228,28.056l15.46,1.405,7.971.724c.367.034.732.059,1.1.072a22.433,22.433,0,0,0,21.828-14.257C652.917,388.626,643.372,382.208,639.11,380.178Z" transform="translate(-536.509 -371.1)" fill="#5038a1"/>
            </g>
            <path id="Trazado_188042" data-name="Trazado 188042" d="M625.676,339.147a4.29,4.29,0,0,0-3.233-1.737l-7.065-.642a3.14,3.14,0,0,0-2.894.894,2.606,2.606,0,0,0-.506,1.133v0a6.617,6.617,0,0,0-3.141-.229h0v0a2.628,2.628,0,0,0-.293-1.261,3.131,3.131,0,0,0-2.684-1.4l-7.063-.642a4.285,4.285,0,0,0-3.492,1.126,3.633,3.633,0,0,0-.942,3.047c.442,4.064,5,4.991,7.292,5.2.708.065,1.2.06,1.294.06,2.151.192,3.775-.9,5.112-3.426a6.756,6.756,0,0,0,.731-2.119h0a6.111,6.111,0,0,1,3.118.217h0a6.789,6.789,0,0,0,.34,2.281c.86,2.728,2.261,4.094,4.41,4.292.092.017.577.111,1.285.174,2.295.209,6.941.118,8.109-3.8A3.637,3.637,0,0,0,625.676,339.147Zm-17.376.1a6.856,6.856,0,0,1-.653,1.8c-1.239,2.345-2.725,3.355-4.67,3.178l-.028,0a13.863,13.863,0,0,1-3.9-.538c-2.571-.771-3.991-2.222-4.217-4.3a3.185,3.185,0,0,1,.808-2.67,3.836,3.836,0,0,1,3.118-.987l7.061.642a2.715,2.715,0,0,1,2.319,1.159,2.146,2.146,0,0,1,.232,1.126v0a6.313,6.313,0,0,0-.642.173.279.279,0,1,0,.186.527c.006,0,.152-.051.39-.11Zm17.3,2.93c-.6,2.007-2.258,3.178-4.929,3.472a13.835,13.835,0,0,1-3.933-.174l-.029,0c-1.943-.177-3.223-1.438-4.02-3.968a6.767,6.767,0,0,1-.318-1.937h0a4.124,4.124,0,0,1,.386.221.279.279,0,0,0,.3-.468,4.922,4.922,0,0,0-.644-.346v0a2.262,2.262,0,0,1,.427-1.016,2.709,2.709,0,0,1,2.486-.723l7.066.642a3.834,3.834,0,0,1,2.888,1.534A3.184,3.184,0,0,1,625.6,342.181Z" transform="translate(-540.32 -306.064)" fill="#5038a1"/>
          </g>
        </g>
      </g>
      <path id="Trazado_139920" data-name="Trazado 139920" d="M422.084,96.117a355.185,355.185,0,0,1,9.747,37.457,282.55,282.55,0,0,1,5.07,39.481,220.148,220.148,0,0,1-1.448,41.462,159.574,159.574,0,0,1-4.311,21.2c-.518,1.758-1,3.534-1.6,5.28-.291.877-.57,1.758-.875,2.633l-.958,2.615c-.636,1.759-1.317,3.419-1.985,5.139-.714,1.672-1.408,3.375-2.169,5.021a177.381,177.381,0,0,1-22.182,35.845c-8.315,10.669-17.1,20.167-25.53,29.316-4.223,4.565-8.355,9.073-12.306,13.562-1.987,2.242-3.9,4.486-5.793,6.726-.925,1.13-1.866,2.243-2.765,3.368l-2.793,3.486c-7.766,9.715-15.192,19.287-21.887,29-3.347,4.853-6.511,9.732-9.412,14.627q-2.178,3.675-4.15,7.344t-3.663,7.35a100.631,100.631,0,0,0-8.856,27.944c-.306,2.152-.5,4.245-.6,6.285-.054,1.021-.066,2.027-.064,3.025l.023,1.479c.026.453.037.9.074,1.351a47.05,47.05,0,0,0,1.834,10.393c.252.817.512,1.638.807,2.429l1.067,3.048c.369,1.047.792,2.04,1.172,3.059.4,1,.847,1.947,1.252,2.919a62.011,62.011,0,0,0,5.79,10.176,48.441,48.441,0,0,0,6.893,7.913,43.3,43.3,0,0,0,8.011,5.885,56.655,56.655,0,0,0,19.4,6.67,85.776,85.776,0,0,0,22.913.343,98.041,98.041,0,0,0,11.961-2.059c1.97-.46,3.923-.985,5.789-1.553.926-.284,1.833-.591,2.667-.9.409-.154.819-.309,1.158-.465a4.278,4.278,0,0,0,.449-.219c.046-.032.129-.071.128-.094l.009-.022s.031-.019-.035-.016l-.274.023c25.019-5.41,46.813,15.2,48.676,46.032S426.4,600.9,401.385,606.305l-.77.126-.52.067-.863.093-1.534.129c-.984.074-1.9.121-2.81.161-1.813.078-3.551.106-5.269.115-3.427.011-6.764-.091-10.076-.291a172.1,172.1,0,0,1-19.6-2.352A147.55,147.55,0,0,1,321.6,592.1a122.428,122.428,0,0,1-35.487-25.584,125.187,125.187,0,0,1-14.76-18.69,133.143,133.143,0,0,1-11.411-21.957A155.52,155.52,0,0,1,252.362,502c-.442-2.035-.908-4.062-1.3-6.1s-.772-4.071-1.084-6.107l-.454-3.053c-.145-1.035-.3-1.963-.455-3.2-.316-2.327-.557-4.677-.754-7.04a140.892,140.892,0,0,1,.589-28.737c.14-1.2.318-2.4.49-3.6s.369-2.317.568-3.469c.412-2.3.858-4.589,1.37-6.849,1.012-4.521,2.217-8.949,3.587-13.237a162.814,162.814,0,0,1,9.869-23.962,184.328,184.328,0,0,1,12.088-20.411A256.246,256.246,0,0,1,303.7,343.469c9.2-9.62,18.522-18.239,27.64-26.447l3.568-3.2c1.224-1.1,2.447-2.138,3.668-3.2,2.441-2.073,4.869-4.113,7.292-6.053,4.84-3.921,9.62-7.608,14.292-11.266,9.348-7.3,18.343-14.343,26.618-22.08A132.309,132.309,0,0,0,408.733,245.3c.783-1.21,1.5-2.466,2.254-3.708l1.059-1.909.531-.959c.173-.319.322-.642.485-.964l.961-1.93c.314-.653.6-1.326.912-1.987.625-1.318,1.164-2.7,1.739-4.071.553-1.382,1.072-2.793,1.591-4.206.473-1.439,1.011-2.853,1.439-4.325l.677-2.2c.223-.735.417-1.481.625-2.224.422-1.483.785-2.991,1.15-4.5.383-1.508.674-3.042,1.019-4.573s.591-3.078.887-4.624c.236-1.554.495-3.108.714-4.672.194-1.564.432-3.129.592-4.7q.542-4.719.787-9.471c.09-1.583.175-3.168.211-4.753l.069-2.379v-2.378a190.761,190.761,0,0,0-3.549-37.435,165.229,165.229,0,0,0-10.614-34.583,8.123,8.123,0,0,1,2.289-9.284,4.546,4.546,0,0,1,7.249,1.945,6.638,6.638,0,0,1,.256.674Z" transform="translate(0)" fill="#fdb74d"/>
      <g id="Grupo_132425" data-name="Grupo 132425" transform="translate(142.845 284.053)">
        <rect id="Rectángulo_43889" data-name="Rectángulo 43889" width="151.544" height="151.545" rx="25" transform="translate(0)" fill="#e8e7f7"/>
        <path id="Trazado_188043" data-name="Trazado 188043" d="M440.911,415.241v74a19.2,19.2,0,0,1-12.3,17.937q-.328.131-.657.241a19.13,19.13,0,0,1-6.277,1.05h-74a18.946,18.946,0,0,1-2.871-.216,19.22,19.22,0,0,1-16.358-19.012v-74a19.229,19.229,0,0,1,19.229-19.229h74A19.229,19.229,0,0,1,440.911,415.241Z" transform="translate(-308.994 -377.939)" fill="#d4cff9"/>
        <g id="Grupo_132424" data-name="Grupo 132424" transform="translate(21.895 31.407)">
          <path id="Trazado_188044" data-name="Trazado 188044" d="M378.775,443.4s-.326,10.074-1.615,14.587l-10.206,7.119,38.415,5.749L396.207,458.2s-2.765-13.507-1.315-18.5S378.775,443.4,378.775,443.4Z" transform="translate(-331.274 -409.768)" fill="#ffb27d"/>
          <path id="Trazado_188045" data-name="Trazado 188045" d="M378.838,444.859s3.037,7.313,8.758,7.152,7.025-6.631,7.025-6.631Z" transform="translate(-331.393 -409.835)" fill="#ed985f"/>
          <path id="Trazado_188046" data-name="Trazado 188046" d="M375.349,438.585s-1.848-9.225-3.137-12.018-2.364-15.259,11.927-15.9c0,0,5.48.644,8.488-1.182,0,0,0,1.827-.751,2.471a9.5,9.5,0,0,1,8.811,3.117c3.868,4.3-2.579,19.342-2.256,22.888Z" transform="translate(-331.319 -409.481)" fill="#231d54"/>
          <path id="Trazado_188047" data-name="Trazado 188047" d="M398.681,425.85v10.065a11.9,11.9,0,0,1-1.04,4.786h0a15.281,15.281,0,0,1-5.153,6.218,9.913,9.913,0,0,1-5.581,2.031,10.81,10.81,0,0,1-5.3-2,14.97,14.97,0,0,1-5.956-7.338l-.016-.045-.038-.128a9.672,9.672,0,0,1-.464-2.919V425.85c0-2.5,1.741-4.538,3.869-4.538h15.815C396.94,421.312,398.681,423.353,398.681,425.85Z" transform="translate(-331.355 -409.599)" fill="#ffb27d"/>
          <path id="Trazado_188048" data-name="Trazado 188048" d="M408.907,460.811s-9.021-1.942-13.06-2.413c-3.566,4.736-6.125,6.007-9.382,7.3-5.247-.724-9.665-7.358-9.665-7.508a54.118,54.118,0,0,0-11.129,2.3h-.007c-.365.046-14.336,1.99-34.751,38.925a19.226,19.226,0,0,0,13.922,9.643c2.63-2.272,8.281-7.178,12.711-11.027-.048,1.242-.058,2.366-.031,3.347.076,2.644.159,5.268.219,7.9h55.7c-.108-1.333-.2-2.621-.257-3.848-.192-3.828-.369-7.325-.533-10.516,0-.028,0-.055-.007-.083l0-.1.012.011c.807.7,1.767,1.534,2.815,2.442l.637.552.564.491c.26.223.526.452.79.686q.714.621,1.447,1.256c.222.194.449.389.671.584.118.1.237.2.358.31s.274.237.411.357c.1.088.2.175.306.265.241.2.477.414.713.619.2.171.387.338.581.5.16.14.324.278.484.418.584.512,1.159,1.009,1.716,1.493.222.191.442.383.66.57s.453.393.672.581c.152.136.306.268.459.4.069.059.136.119.2.174.233.2.455.4.675.585s.445.389.653.57c.087.077.174.149.257.223s.181.156.268.23q.33-.11.657-.241a19.264,19.264,0,0,0,11.681-13.09C421.2,461.8,408.907,460.811,408.907,460.811Z" transform="translate(-330.913 -409.968)" fill="#f99746"/>
          <path id="Trazado_188049" data-name="Trazado 188049" d="M375.122,431.522s.022-6.409,5.1-7.4,16.441,3.124,18.054-1.549-21.965-4.595-23.152-1.613S375.122,431.522,375.122,431.522Z" transform="translate(-331.35 -409.575)" fill="#231d54"/>
          <path id="Trazado_188050" data-name="Trazado 188050" d="M364.6,509.485H358c-.059-2.627-.143-5.251-.219-7.9-.028-.981-.018-2.1.031-3.347.011-.278.022-.56.035-.848.062.1.178.281.331.532C359.165,499.534,361.858,504.019,364.6,509.485Z" transform="translate(-331.182 -410.361)" fill="#ed7d2b"/>
          <path id="Trazado_188051" data-name="Trazado 188051" d="M392.55,442.651v4.436a9.912,9.912,0,0,1-5.581,2.031,10.808,10.808,0,0,1-5.3-2v-4.467a4.517,4.517,0,0,1,4.5-4.5h1.876A4.517,4.517,0,0,1,392.55,442.651Z" transform="translate(-331.421 -409.768)" fill="#231d54"/>
          <path id="Trazado_188052" data-name="Trazado 188052" d="M429.465,508.157q-.328.131-.657.241c-.087-.073-.177-.15-.268-.23s-.17-.146-.257-.223c-.209-.181-.428-.372-.653-.57s-.443-.383-.675-.585c-.066-.055-.133-.115-.2-.174-.153-.132-.307-.264-.459-.4-.219-.188-.446-.383-.672-.581s-.439-.379-.66-.57c-.556-.484-1.132-.981-1.716-1.493-.16-.14-.324-.278-.484-.418-.194-.167-.385-.334-.581-.5-.236-.2-.472-.414-.713-.619-.1-.09-.206-.177-.306-.265-.137-.121-.275-.24-.411-.357s-.241-.206-.358-.31c-.223-.2-.449-.39-.671-.584q-.732-.637-1.447-1.256c-.264-.234-.53-.463-.79-.686l-.564-.491-.637-.552c-1.047-.908-2.008-1.743-2.815-2.442a.708.708,0,0,1-.055-.049s.017-.014.048-.035c.529-.372,5.344-3.553,8.385,1.824A126.927,126.927,0,0,0,429.465,508.157Z" transform="translate(-331.738 -410.324)" fill="#ed7d2b"/>
          <path id="Trazado_188053" data-name="Trazado 188053" d="M397.642,440.884c-2.128,4.845-7.093,8.313-10.734,8.249-3.5-.063-9.477-4-11.259-9.338l-.016-.045-.038-.128s3.757,3.2,6.242,1.618h10.438A5.157,5.157,0,0,0,397.642,440.884Z" transform="translate(-331.36 -409.783)" fill="#231d54"/>
          <path id="Trazado_188054" data-name="Trazado 188054" d="M388.265,442.131h-2.251c-.517,0-1.173-.844-1.173-1.36a2.476,2.476,0,0,1,1.173-.516h2.251a1.884,1.884,0,0,1,1.392.735A1.548,1.548,0,0,1,388.265,442.131Z" transform="translate(-331.453 -409.789)" fill="#ffb27d"/>
        </g>
      </g>
      <g id="Grupo_132427" data-name="Grupo 132427" transform="translate(208.218 101.78)">
        <path id="Trazado_188055" data-name="Trazado 188055" d="M385.594,364.013,283.315,352.219A26.754,26.754,0,0,1,259.8,322.575L271.6,220.3a26.753,26.753,0,0,1,29.643-23.512l102.278,11.794a26.754,26.754,0,0,1,23.513,29.643L415.237,340.5A26.755,26.755,0,0,1,385.594,364.013Z" transform="translate(-259.624 -196.606)" fill="#e8e7f7"/>
        <path id="Trazado_188056" data-name="Trazado 188056" d="M405.083,247.15l-8.755,75.9a19.721,19.721,0,0,1-2.787,8.09v0a19.908,19.908,0,0,1-9.7,8.123,19.692,19.692,0,0,1-7.372,1.361h0a19.555,19.555,0,0,1-2.13-.13l-32.177-3.711-6.362-.733L315,333.652l-2.669-.309-13.9-1.6a19.844,19.844,0,0,1-16.137-12.29c-.172-.424-.33-.851-.47-1.286a19.451,19.451,0,0,1-.96-5.439,19.944,19.944,0,0,1,.119-2.982l8.756-75.9a19.851,19.851,0,0,1,22-17.449l75.9,8.751A19.856,19.856,0,0,1,405.083,247.15Z" transform="translate(-259.154 -196.171)" fill="#d4cff9"/>
        <g id="Grupo_132426" data-name="Grupo 132426" transform="translate(21.713 36.661)">
          <path id="Trazado_188057" data-name="Trazado 188057" d="M372.938,264.307a1.292,1.292,0,0,0-.033-.179c-.243-1.387-.52-2.763-.822-4.117v0c1.689-10.852-2.477-15.49-6.081-17.843h0c-1.937-3.783-4.006-6.449-5.967-7.354-3.578-1.653-7.688-1.52-10.537-1.11a4.852,4.852,0,0,1,2.1-1.221c-1.8-.114-5.608,1.98-5.608,1.98-25.492-7.433-26.308,29.246-25.079,37.649s-7.35,11.9-19.636,19.639c-11.162,7.03-17.172,14.611-20.406,20.621a19.447,19.447,0,0,0,.96,5.439,3.836,3.836,0,0,1,1.207-.783c-.024.076-.33.9-.737,2.069a19.844,19.844,0,0,0,16.137,12.29l13.9,1.6,2.669.309,20.794,2.4c2.184-3.1,4.562-6.3,7.033-9.48a207.126,207.126,0,0,1,18.311-20.9c1.886-1.829,3.679-3.427,5.327-4.734.061-.047.122-.1.183-.143a24.065,24.065,0,0,0,1.966-4.778,58.356,58.356,0,0,0,2.119-12.793,56.582,56.582,0,0,1-1.2,12.919,22.539,22.539,0,0,1-.86,2.842,15.489,15.489,0,0,0,1.951-2.672C374.958,288.527,375.012,276.073,372.938,264.307Z" transform="translate(-280.867 -232.474)" fill="#231d54"/>
          <path id="Trazado_188058" data-name="Trazado 188058" d="M361.339,301.814c.078.046-8.391,3.274-14.212.936-5.475-2.194-8.323-9.949-8.244-9.957,2.45-.2,3.519-3.41,5.1-17.554l1.058.338,17.782,5.7s-1.074,5.679-1.709,11.073C360.579,296.882,360.358,301.211,361.339,301.814Z" transform="translate(-279.583 -231.527)" fill="#ffb27d"/>
          <path id="Trazado_188059" data-name="Trazado 188059" d="M338.714,242.391s8.2-10.346,20.269-2.2C358.983,240.189,352.307,239.606,338.714,242.391Z" transform="translate(-279.587 -232.372)" fill="#d4cff9"/>
          <path id="Trazado_188060" data-name="Trazado 188060" d="M362.689,281.273s-1.074,5.679-1.709,11.073c-10.15-1.462-14.462-11.371-16.073-16.775Z" transform="translate(-279.45 -231.52)" fill="#ef9e67"/>
          <path id="Trazado_188061" data-name="Trazado 188061" d="M365.676,285.195s-24.133,2.436-25.419-12.617-5.266-24.876,10.088-27.068,18.843,3.3,20.495,8.216S371.921,284.174,365.676,285.195Z" transform="translate(-279.584 -232.196)" fill="#ffb27d"/>
          <path id="Trazado_188062" data-name="Trazado 188062" d="M361.476,244.286s-5.129,18.219-15.064,21.687-14.569,1.117-14.569,1.117a28.858,28.858,0,0,0,7.975-17.782S355.776,236.3,361.476,244.286Z" transform="translate(-279.739 -232.27)" fill="#231d54"/>
          <path id="Trazado_188063" data-name="Trazado 188063" d="M359.348,245.838s5.274,3.527,6.8,7.259,2.735,11.578,5.013,11.116c0,0,3.974-12.425-2.2-18.744C362.413,238.769,359.348,245.838,359.348,245.838Z" transform="translate(-279.13 -232.25)" fill="#231d54"/>
          <path id="Trazado_188064" data-name="Trazado 188064" d="M382.6,300.277c-2.507-3.142-7.63-4.777-12.656-5.621-.367-.058-.73-.116-1.092-.17-.31-.043-.615-.086-.92-.126-2.12-.277-4.15-.42-5.884-.5-.259-.366-.417-.593-.463-.661a.08.08,0,0,1-.018-.021l-20.409-1.652-.216-.018a.37.37,0,0,1-.04,0c-.014,0-.029,0-.046,0-1.538-.166-22.68-2.263-26.767,5.194-2.673,4.874-2.727,14.2-1.463,24.55-.38,3.51-.7,7.081-.977,10.437l2.669.309,20.794,2.4,6.362.733,32.177,3.711a19.572,19.572,0,0,0,2.13.13h0a19.7,19.7,0,0,0,7.372-1.361,19.908,19.908,0,0,0,9.7-8.123v0C389.767,316.814,385.894,304.413,382.6,300.277Z" transform="translate(-280.186 -231.176)" fill="#948fd1"/>
        </g>
      </g>
      <g id="Grupo_132431" data-name="Grupo 132431" transform="translate(340.886 222.141)">
        <path id="Trazado_188065" data-name="Trazado 188065" d="M483.608,315.837s-5.456,6.474-12.406,3.765a21.04,21.04,0,0,1-1.516-6.28c0-.328-.006-.646-.011-.949-.038-3-.138-4.685-.138-4.685h.007c.316-.131,10.623-4.363,10.614-4.012C479.981,311.792,483.608,315.837,483.608,315.837Z" transform="translate(-404.315 -282.593)" fill="#ffb27d"/>
        <path id="Trazado_188066" data-name="Trazado 188066" d="M479.123,306.364a16.12,16.12,0,0,1-9.448,6.763c-.038-3-.138-4.685-.138-4.685h.007C469.829,308.364,479.419,305.821,479.123,306.364Z" transform="translate(-404.315 -283.347)" fill="#ed975d"/>
        <path id="Trazado_188067" data-name="Trazado 188067" d="M465.79,301.212s11.591,2.726,13.177-4.519,4.15-11.771-3.183-13.818-9.382.4-10.5,2.692S462.816,300.317,465.79,301.212Z" transform="translate(-402.727 -276.429)" fill="#ffb27d"/>
        <path id="Trazado_188068" data-name="Trazado 188068" d="M477.017,296.39c.158.1,2.652.867,7.375-8.542a8.2,8.2,0,0,0-.482-7.5c-1.728-2.823-7.856-5.044-12.948-6.009s-6.314,1.9-7.513,4.779c-1.259,3.023-4.894,5.511-4.894,5.511,4.39,2.452,9.679-1.056,11.511-.479s2.479,3.464,2.616,4.39.348,1.695,2.652.868,1.042,3.265.673,4.047C476.008,293.459,475.7,295.544,477.017,296.39Z" transform="translate(-401.173 -274.152)" fill="#bf853a"/>
        <g id="Grupo_132428" data-name="Grupo 132428" transform="translate(56.843 88.989)">
          <path id="Trazado_188069" data-name="Trazado 188069" d="M526.152,551.417h7.018c1.471,0,3.106-1.473,3.515-4.17s3.434-4.17,4.089-6.379-2.7-5.316-2.7-5.316l-.561-.72-.583-.751-5.56,1.308s-.137,1.323-.223,3.01a38.406,38.406,0,0,0-.022,3.859c.164,2.945-.825,6.114-3.439,6.688S526.152,551.417,526.152,551.417Z" transform="translate(-477.293 -437.51)" fill="#37297c"/>
          <path id="Trazado_188070" data-name="Trazado 188070" d="M457.8,554.305h18.6a1.7,1.7,0,0,0,.395-.114c1.242-.622.853-5.378.7-6.847-.029-.272-.049-.432-.049-.432s-6.541-5.232-7.442-1.226c-.029.125-.062.248-.1.368v0c-1.136,3.749-6.212,5.451-9.145,5.926C458.53,552.347,457.948,553.653,457.8,554.305Z" transform="translate(-457.8 -440.399)" fill="#37297c"/>
          <path id="Trazado_188071" data-name="Trazado 188071" d="M463.052,407.4s.994,12.4,2.162,27.3c1.587,20.241,3.5,45.1,3.684,49.814.326,8.178,1.636,21.261,1.636,21.261s3.105,3.107,9.322,1.8a214.074,214.074,0,0,0,7.121-38.435c.025-.324.049-.65.074-.977,1.472-20.115,3.761-62.473,3.761-62.473Z" transform="translate(-459.303 -400.772)" fill="#5038a1"/>
          <path id="Trazado_188072" data-name="Trazado 188072" d="M463.052,407.4s.994,12.4,2.162,27.3l21.764,34.437c.025-.324.049-.65.074-.977,1.472-20.115,3.761-62.473,3.761-62.473Z" transform="translate(-459.303 -400.772)" fill="#37297c"/>
          <path id="Trazado_188073" data-name="Trazado 188073" d="M469.407,406.9s17.908,44.892,29.683,65.989,15.454,26.984,15.454,26.984,6.746-2.7,7.359-4.538c0,0-4.5-40.729-12.388-50.657-4.456-5.61-9.69-22.445-9.935-28.333s-1.595-17.54-1.595-17.54Z" transform="translate(-461.121 -398.806)" fill="#5038a1"/>
        </g>
        <g id="Grupo_132429" data-name="Grupo 132429" transform="translate(74.645 33.961)">
          <path id="Trazado_188074" data-name="Trazado 188074" d="M526.558,398.3l.188,2.887a6.221,6.221,0,0,0,3.432,7.76s2.284.921,2.376-.857-.2-1.109-.014-3.613-.8-4.869-2.454-5.666l-1.359-1.568Z" transform="translate(-495.234 -343.33)" fill="#ffb27d"/>
          <path id="Trazado_188075" data-name="Trazado 188075" d="M516.144,378.793c-1.982.637-2.3.493-2.3.493s-9.648-17.564-10.625-19.172-20.483-19.7-20.483-19.7l5.012-18.693s22.186,28.73,24.582,32.852c3.958,6.812,6.279,22.633,6.279,22.633A5.8,5.8,0,0,1,516.144,378.793Z" transform="translate(-482.737 -321.724)" fill="#37297c"/>
        </g>
        <path id="Trazado_188076" data-name="Trazado 188076" d="M457.747,346.081c.07,3.839.293,8.154.593,12.537.019.26.037.519.056.78.193,2.715.4,5.437.64,8.09.1,1.064.2,2.116.306,3.149l.016.14c.009.386.056.806.1,1.189.978,9.94,2,17.793,2.193,17.914a1.116,1.116,0,0,0,.763.194c2.607-.327,10.385.264,16.753-1.121a48.275,48.275,0,0,0,14.9-6.18c.651-.384,2.134-1.4,2.014-2.165-.118-.837-.338-2.047-.616-3.567a192.99,192.99,0,0,1-3.2-25.027q-.166-2.974-.481-5.867a89.055,89.055,0,0,0-2.6-14.01c-2.183-7.861-5.391-13.881-9.417-16.237-.525-.295-3.355,1.506-5.954,3.174a11.477,11.477,0,0,1-7.385,1.749l-2.162,2.392a24.152,24.152,0,0,0-6.169,12.861c-.057.425-.106.877-.148,1.359A84.581,84.581,0,0,0,457.747,346.081Z" transform="translate(-400.935 -286.088)" fill="#5038a1"/>
        <path id="Trazado_188077" data-name="Trazado 188077" d="M457.747,352.955c.07,3.839.293,8.154.593,12.537.019.26.037.519.056.78,14.89-9.32,17.184-26.376,17.184-26.376a40.727,40.727,0,0,0-17.63,4.414A84.582,84.582,0,0,0,457.747,352.955Z" transform="translate(-400.935 -292.962)" fill="#37297c"/>
        <g id="Grupo_132430" data-name="Grupo 132430" transform="translate(0 37.166)">
          <path id="Trazado_188078" data-name="Trazado 188078" d="M390.989,332.628l-2.71-1.391a7.422,7.422,0,0,0-8.285-4.942s-2.66.538-1.548,2.2.925.881,2.443,3.25,3.989,3.914,6,3.639l2.269.6Z" transform="translate(-378.175 -326.214)" fill="#ed975d"/>
          <path id="Trazado_188079" data-name="Trazado 188079" d="M392.243,333.632c.768-2.076,1.961-1.941,1.961-1.941s22.14,5.517,24.126,5.754,23.841-8.533,23.841-8.533,8.6-3.861,12.631-.336c3.5,3.063,3.661,6.943,2.842,10.2a9.743,9.743,0,0,1-8.235,7.258c-8.916,1.136-26.7,3.273-30.433,2.754-8.3-1.155-27.1-12.009-27.1-12.009A6.977,6.977,0,0,1,392.243,333.632Z" transform="translate(-382.082 -326.465)" fill="#5038a1"/>
        </g>
      </g>
      <path id="Trazado_188080" data-name="Trazado 188080" d="M420.712,735.245H338.9l26.891-116.477h77.872l3.581,1.574Z" transform="translate(-26.051 -150.611)" fill="#cca07f"/>
      <path id="Trazado_188081" data-name="Trazado 188081" d="M415.188,735.245H333.372l26.891-116.477h81.816Z" transform="translate(-24.47 -150.611)" fill="#fffcf5"/>
      <g id="Grupo_132432" data-name="Grupo 132432" transform="translate(322.384 484.531)">
        <path id="Trazado_188082" data-name="Trazado 188082" d="M438.978,641.705H401.219a2.031,2.031,0,0,0-1.867,1.517,1.17,1.17,0,0,0,1.167,1.516h37.759a2.029,2.029,0,0,0,1.867-1.516A1.171,1.171,0,0,0,438.978,641.705Z" transform="translate(-365.721 -641.705)" fill="#ce8d38"/>
        <path id="Trazado_188083" data-name="Trazado 188083" d="M437.526,653.024H397.661a.621.621,0,0,0-.57.463.358.358,0,0,0,.356.464h39.866a.62.62,0,0,0,.57-.464A.358.358,0,0,0,437.526,653.024Z" transform="translate(-365.082 -644.944)" fill="#ce8d38"/>
        <path id="Trazado_188084" data-name="Trazado 188084" d="M436.836,656.015H396.97a.62.62,0,0,0-.57.464.357.357,0,0,0,.356.463h39.866a.62.62,0,0,0,.57-.463A.358.358,0,0,0,436.836,656.015Z" transform="translate(-364.884 -645.799)" fill="#ce8d38"/>
        <path id="Trazado_188085" data-name="Trazado 188085" d="M377.215,644.738h10.2a2.03,2.03,0,0,0,1.868-1.516,1.171,1.171,0,0,0-1.167-1.517h-10.2a2.031,2.031,0,0,0-1.868,1.517A1.17,1.17,0,0,0,377.215,644.738Z" transform="translate(-359.054 -641.705)" fill="#ce8d38"/>
        <path id="Trazado_188086" data-name="Trazado 188086" d="M430.266,674.64H392.507a2.031,2.031,0,0,0-1.867,1.517,1.171,1.171,0,0,0,1.166,1.517h37.759a2.032,2.032,0,0,0,1.867-1.517A1.171,1.171,0,0,0,430.266,674.64Z" transform="translate(-363.228 -651.128)" fill="#ce8d38"/>
        <path id="Trazado_188087" data-name="Trazado 188087" d="M428.814,685.959H388.949a.621.621,0,0,0-.571.463.358.358,0,0,0,.356.464H428.6a.621.621,0,0,0,.571-.464A.358.358,0,0,0,428.814,685.959Z" transform="translate(-362.589 -654.367)" fill="#ce8d38"/>
        <path id="Trazado_188088" data-name="Trazado 188088" d="M428.124,688.951H388.258a.619.619,0,0,0-.57.463.357.357,0,0,0,.356.463H427.91a.62.62,0,0,0,.57-.463A.358.358,0,0,0,428.124,688.951Z" transform="translate(-362.392 -655.223)" fill="#ce8d38"/>
        <path id="Trazado_188089" data-name="Trazado 188089" d="M368.5,677.674h10.2a2.032,2.032,0,0,0,1.868-1.517,1.171,1.171,0,0,0-1.167-1.517H369.2a2.032,2.032,0,0,0-1.868,1.517A1.171,1.171,0,0,0,368.5,677.674Z" transform="translate(-356.561 -651.128)" fill="#ce8d38"/>
        <path id="Trazado_188090" data-name="Trazado 188090" d="M423.325,707.576H385.566a2.029,2.029,0,0,0-1.867,1.517,1.17,1.17,0,0,0,1.166,1.516h37.759a2.031,2.031,0,0,0,1.867-1.516A1.171,1.171,0,0,0,423.325,707.576Z" transform="translate(-361.242 -660.552)" fill="#ce8d38"/>
        <path id="Trazado_188091" data-name="Trazado 188091" d="M421.873,718.9H382.008a.62.62,0,0,0-.57.463.358.358,0,0,0,.356.463h39.866a.622.622,0,0,0,.571-.463A.358.358,0,0,0,421.873,718.9Z" transform="translate(-360.603 -663.79)" fill="#ce8d38"/>
        <path id="Trazado_188092" data-name="Trazado 188092" d="M421.183,721.886H381.317a.621.621,0,0,0-.571.463.358.358,0,0,0,.356.463h39.866a.621.621,0,0,0,.57-.463A.358.358,0,0,0,421.183,721.886Z" transform="translate(-360.406 -664.646)" fill="#ce8d38"/>
        <path id="Trazado_188093" data-name="Trazado 188093" d="M361.562,710.609h10.2a2.029,2.029,0,0,0,1.867-1.516,1.17,1.17,0,0,0-1.166-1.517h-10.2a2.03,2.03,0,0,0-1.868,1.517A1.171,1.171,0,0,0,361.562,710.609Z" transform="translate(-354.575 -660.552)" fill="#ce8d38"/>
        <path id="Trazado_188094" data-name="Trazado 188094" d="M415.226,741.853H377.467a2.031,2.031,0,0,0-1.867,1.517,1.171,1.171,0,0,0,1.166,1.517h37.759a2.031,2.031,0,0,0,1.868-1.517A1.171,1.171,0,0,0,415.226,741.853Z" transform="translate(-358.925 -670.359)" fill="#ce8d38"/>
        <path id="Trazado_188095" data-name="Trazado 188095" d="M413.775,753.173H373.909a.62.62,0,0,0-.57.463.357.357,0,0,0,.356.463h39.866a.62.62,0,0,0,.57-.463A.357.357,0,0,0,413.775,753.173Z" transform="translate(-358.286 -673.598)" fill="#ce8d38"/>
        <path id="Trazado_188096" data-name="Trazado 188096" d="M413.084,756.164H373.219a.621.621,0,0,0-.57.463.359.359,0,0,0,.356.464h39.866a.62.62,0,0,0,.57-.464A.357.357,0,0,0,413.084,756.164Z" transform="translate(-358.089 -674.453)" fill="#ce8d38"/>
        <path id="Trazado_188097" data-name="Trazado 188097" d="M364.366,741.853h-10.2a2.031,2.031,0,0,0-1.867,1.517,1.171,1.171,0,0,0,1.167,1.517h10.2a2.029,2.029,0,0,0,1.867-1.517A1.171,1.171,0,0,0,364.366,741.853Z" transform="translate(-352.258 -670.359)" fill="#ce8d38"/>
      </g>
      <g id="Grupo_132433" data-name="Grupo 132433" transform="translate(354.302 467.441)">
        <path id="Trazado_188098" data-name="Trazado 188098" d="M432.049,627.068H400.343a3.373,3.373,0,0,1-3.287-4.132l1.194-5.171h39.035l-1.454,6.3A3.881,3.881,0,0,1,432.049,627.068Z" transform="translate(-396.969 -617.765)" fill="#ee9849"/>
        <path id="Trazado_188099" data-name="Trazado 188099" d="M453.378,617.765l2.686.716h-2.852Z" transform="translate(-413.061 -617.765)" fill="#ed7d2b"/>
      </g>
      <g id="Grupo_132435" data-name="Grupo 132435" transform="translate(331.637 579.217)">
        <g id="Grupo_132434" data-name="Grupo 132434" transform="translate(0 0)">
          <path id="Trazado_188100" data-name="Trazado 188100" d="M446.921,777.049a2.715,2.715,0,0,1-2.115,2.643,2.764,2.764,0,0,1-.594.066H367.929a2.709,2.709,0,0,1,0-5.418h76.282a2.715,2.715,0,0,1,2.709,2.709Z" transform="translate(-365.22 -774.339)" fill="#948fd1"/>
          <path id="Trazado_188101" data-name="Trazado 188101" d="M476.7,774.339l9.963,2.2-9.963,3.215Z" transform="translate(-397.116 -774.339)" fill="#37297c"/>
        </g>
        <path id="Trazado_188102" data-name="Trazado 188102" d="M384.736,774.34v5.418H367.929a2.709,2.709,0,0,1,0-5.418Z" transform="translate(-365.22 -774.339)" fill="#37297c"/>
      </g>
    </g>
  </g>
</svg>
